<?xml version="1.0" standalone="no"?>
<!DOCTYPE svg PUBLIC "-//W3C//DTD SVG 1.1//EN" "http://www.w3.org/Graphics/SVG/1.1/DTD/svg11.dtd" >
<svg xmlns="http://www.w3.org/2000/svg" xmlns:xlink="http://www.w3.org/1999/xlink" version="1.1">
<metadata></metadata>
<defs>
<font id="preludemedium" horiz-adv-x="827" >
<font-face units-per-em="2048" ascent="1638" descent="-410" />
<missing-glyph horiz-adv-x="921" />
<glyph horiz-adv-x="0" />
<glyph unicode="&#xd;" horiz-adv-x="681" />
<glyph unicode=" "  horiz-adv-x="921" />
<glyph unicode="&#x09;" horiz-adv-x="921" />
<glyph unicode="&#xa0;" horiz-adv-x="921" />
<glyph unicode="!" horiz-adv-x="413" d="M106 117q14 49 62 67q45 18 92 -6q25 -14 41 -44t8 -62q-8 -29 -28 -47q-18 -25 -45 -37q-33 -12 -66 2t-49 37q-27 45 -15 90zM137 442v45v27q-2 27 4 57q4 18 6 41q4 25 4.5 53.5t0.5 47.5q-2 23 -1 54.5t7 61.5q2 25 4 37v27q0 8 -4 33q-2 29 -6 57q-2 31 -2 55 q0 18 -3 31q0 12 -4 39q-4 31 -4 63v76q0 31 21.5 52.5t52.5 21.5t52.5 -21.5t21.5 -52.5v-76q0 -23 2 -45q4 -29 6 -47t2 -41q0 -16 2 -41t6 -53q4 -33 4 -51q0 -14 -2 -35q0 -18 -4 -49q-4 -25 -4 -48.5v-41.5q0 -23 -1 -57.5t-3 -65.5q-4 -29 -8 -55q-4 -12 -2 -19v-35 v-45q0 -31 -21.5 -52t-52.5 -21t-52.5 21.5t-21.5 51.5z" />
<glyph unicode="&#x22;" horiz-adv-x="661" d="M104 1233q-6 29 11.5 54.5t46 31.5t54.5 -11.5t32 -45.5l4 -15q2 -16 4 -33q2 -10 6 -32q6 -27 8 -43q2 -14 4 -33q4 -23 5 -49q2 -27 2 -45v-33q0 -18 -2 -35v-12q-2 -31 -26 -51.5t-53.5 -17.5t-50 25.5t-18.5 53.5v12q2 12 2 25v33q0 16 -2 39q0 18 -2 32q-4 20 -6 35 q0 12 -4 35q-6 27 -8 41q-2 12 -5 25zM399 1004q0 16 2 40v29v33q0 20 2 39q0 16 3 47q2 33 4 51l2 14q4 31 28.5 49.5t54 14.5t49 -27.5t15.5 -54.5l-2 -14q-2 -14 -4 -41q-2 -31 -2 -47q-2 -14 -2 -31v-33q0 -16 -2 -41v-28v-37l2 -29q2 -31 -18.5 -53.5t-50 -24.5 t-53.5 17.5t-26 50.5v28q-2 31 -2 48z" />
<glyph unicode="#" horiz-adv-x="1140" d="M105.5 415.5q9.5 28.5 37 43t56.5 4.5l22 -8q18 -4 41 -9q12 -2 25 -4q6 27 12 50q10 31 16 49q4 18 11 45q6 31 14 57q6 25 10 51q6 31 17 66q0 8 2 14q-27 -2 -52 -2h-41q-16 0 -43 2h-22q-31 2 -51.5 24.5t-19.5 52.5t23.5 51.5t53.5 19.5h23q23 -2 36 -2h41 q25 0 50 2q18 2 34 2v2q6 29 13 61q6 27 8 45q4 16 8 39q4 31 8 53q4 23 8 35q2 12 5 31q4 20 6 37q4 14 6 37l4 22q4 31 29.5 48.5t55.5 13t48 -30t12 -53.5l-4 -25q-4 -25 -6 -41q-2 -12 -6 -31q-2 -20 -6 -37q-2 -14 -6 -36q-4 -18 -9 -43q-4 -29 -8 -50q-4 -16 -8 -43 q-4 -18 -8 -32q16 0 39 -2q33 -2 47 -2q20 0 47 -2q12 0 23 -2v10q6 25 12 49q6 27 12 49q4 20 7 33.5t5 30.5q4 20 7 36q2 8 6 29q2 10 2 16q2 20 8 46q2 16 4 24v14q2 29 25.5 49.5t53.5 18.5t50.5 -24.5t18.5 -53.5l-3 -14q0 -20 -6 -47q-4 -14 -4 -23q-2 -16 -6 -37 q0 -2 -2 -12t-2 -14q-4 -12 -6 -31q-2 -20 -5 -35.5t-10 -40.5q-6 -23 -12 -47q-2 -14 -6 -29h31q12 0 28 3q18 0 33 2h13q31 2 54 -18.5t25 -50.5t-18.5 -53.5t-50.5 -25.5h-15q-18 -2 -32 -2q-20 -2 -37 -2h-41h-23q-6 -25 -10 -49q-6 -29 -14 -62q-6 -27 -11 -57 q-4 -35 -6 -61q-4 -27 -10 -62q-4 -25 -8 -51q23 2 43 2h31q16 2 36 2h52q31 0 52 -22.5t21 -52t-21.5 -51t-51.5 -21.5h-52q-14 0 -26 -2h-41q-20 0 -41 -2h-27q-2 -18 -4 -33q-6 -31 -12 -64q-8 -33 -14 -53q-4 -16 -11 -41q-4 -25 -10 -53l-6 -29q-6 -29 -31.5 -46 t-55.5 -11t-46.5 31.5t-11.5 54.5l6 28q6 29 12 56q6 31 12 51q4 16 11 45q6 29 12 53v11h-27q-20 2 -49 2q-31 2 -51 2h-55q0 2 -2 2q-2 -16 -7 -31q-8 -31 -12 -47q-2 -18 -9 -51t-12.5 -54.5t-15.5 -56.5l-8 -35q-8 -31 -34.5 -46t-56.5 -7t-45.5 34.5t-6.5 55.5l10 35 q8 35 13 53.5t11 48.5q6 33 11 52q4 20 12 53q0 4 2 8q-10 2 -18 4q-37 4 -64 14l-22 9q-29 8 -43.5 35.5t-5 56zM434 430h29q25 0 55 -2q31 0 53 -2h45v8q6 35 11 68q6 33 8 55q4 23 8 59q4 41 12 76q6 31 15 60q0 6 4 20q-25 2 -37 2q-20 0 -55 2q-33 2 -54 2q-2 2 -6 2 q-6 -23 -14 -55q-6 -33 -12 -59q-6 -31 -13 -58q-8 -27 -14 -55q-6 -31 -12 -53q-6 -20 -17 -51q-2 -8 -6 -19z" />
<glyph unicode="$" horiz-adv-x="980" d="M102 1018q0 22 7 53q6 33 14 59q12 31 33 60q25 33 61 55q29 16 51 29l45 18q23 8 36 13.5t32 11.5l16 4q-2 16 -2 31q-2 31 -3 48t-3 50v31q0 29 20.5 51t51.5 23t52.5 -19t23.5 -51v-31q2 -29 3 -47t3 -45v-23q23 0 47 -8q29 -10 59 -31q27 -16 51 -32q29 -20 52 -39 q27 -23 41 -43t26 -43q8 -18 19 -45q10 -23 16 -41.5t10 -38.5q6 -20 10 -43q2 -23 5 -39l2 -14q0 -31 -19.5 -54.5t-50.5 -25.5t-53.5 18.5t-24.5 50.5l-2 15q0 10 -2 26q-2 14 -6 27q-4 16 -9 30.5t-14 34.5q-6 18 -14 33q-6 12 -12 21q-6 8 -19 18q-16 14 -39 31 q-23 16 -45 31q-12 8 -22 12v-35l2 -57v-62q-2 -23 -2 -37v-41v-61q-2 -31 -4 -61q-2 -23 -2 -35q0 -16 -1 -37t-3 -41v-2v-2q14 -6 28 -17q14 -8 27 -14q14 -8 37 -18q29 -14 59 -33q33 -23 55 -45q20 -20 43 -47q18 -27 30.5 -45.5t23.5 -36.5q14 -27 18 -53q6 -25 2 -56 q-2 -29 -8 -49q-4 -18 -10 -37q-8 -20 -17 -41q-10 -16 -28.5 -46.5t-28.5 -47.5q-12 -18 -41 -47q-29 -27 -51 -47q-23 -18 -39 -29q-18 -14 -39 -24q-23 -12 -53 -21v-123q0 -31 -22.5 -52t-52.5 -21t-51.5 21.5t-21.5 51.5v54q-8 16 -6 34l2 21q0 6 2 12q-23 6 -43 17.5 t-45 31.5q-23 18 -37 31q-16 14 -32 31q-14 16 -33 37q-20 23 -39 47q-14 23 -27 43q-14 23 -22 39l-6 14q-12 29 -2 57.5t37.5 41t56 2t41.5 -37.5l8 -14q4 -12 14 -27q10 -16 23 -36q12 -16 24 -31q16 -18 29 -31q12 -12 25 -22q14 -12 32 -29h2q-2 20 -2 43v33q0 14 2 39 q0 16 -2 28q-2 18 -6 41q-6 29 -6 49q-2 16 -2 43v193v39l-33 18q-23 12 -43 29q-14 10 -32 27q-18 16 -48 43q-33 29 -49 51q-16 20 -26 39q-14 20 -25 47q-10 23 -15 43t-10 41q-4 23 -4 45zM250 1017q0 -9 2 -20q2 -12 5 -24t11 -29q6 -14 13 -24q6 -12 18 -27 q8 -12 33 -33q25 -25 41 -39q12 -10 22 -18q0 18 2 47q4 25 4 51v57v41q0 16 2 43v50l-2 59v16h-2q-12 -6 -32 -12q-20 -8 -37 -16q-14 -6 -35 -19q-12 -8 -21 -16q-8 -12 -12 -25q-6 -16 -9 -34.5t-3 -27.5zM535 369q2 -10 6 -29q4 -27 8 -49q2 -27 2 -55q-2 -20 -2 -33 v-33q0 -18 2 -37v-6q0 2 2 2q12 8 31 25q18 14 41 36q18 20 24 29q8 10 23.5 36t21.5 40q6 10 11 22q4 12 8 25q2 8 2 25q2 12 0 16q0 4 -4 10q-6 14 -14.5 27.5t-24.5 32.5q-14 20 -31 34q-12 12 -31 25q-23 14 -43 25q-18 8 -32 16v-150v-34z" />
<glyph unicode="%" horiz-adv-x="1394" d="M102 1055q2 18 7 37q4 23 16 53q10 29 27 53q16 25 38 49q20 23 37 37q20 18 47 31q23 12 41 18q20 8 52 15q33 8 59 8q33 0 63 -10q23 -10 48 -23q25 -14 45 -33q27 -25 47 -63q20 -37 26 -60q6 -16 13 -39q6 -27 6 -55q2 -27 0 -47v-16q-2 -40 -35 -60q-2 -12 -6 -24 q-4 -27 -10 -49q-4 -20 -10.5 -38t-18.5 -46q-16 -35 -37 -62q-27 -33 -59 -45q-18 -8 -43 -14q-27 -6 -52 -6t-51 6q-23 6 -49 16q-29 12 -57 35q-31 27 -51 57q-14 25 -25 47q-8 18 -12 31q-6 14 -13 29q-6 14 -20 49q-18 45 -21 74q-2 27 -2 45zM250 1026q2 -10 12 -35 q14 -33 21 -49q4 -12 10 -24q4 -14 12 -33q6 -12 14 -27q6 -10 19 -18q12 -10 24 -17q14 -6 27 -8q8 -2 14 -2t17 2q10 2 18 6q2 2 4 2q8 12 17 29q10 23 14 33q4 12 6 28q6 16 10 39q4 25 7 43q2 16 2 25v12q-1 35 26 58v4q-4 18 -8 30q-4 8 -16 31q-10 18 -17 25 q-10 8 -20 14q-12 8 -25 12q-6 2 -12 2q-10 0 -29 -4q-20 -4 -30 -8l-25 -10q-10 -6 -16 -12q-12 -10 -29 -27q-12 -14 -21 -27q-8 -14 -16 -33q-6 -14 -8 -22q-2 -10 -2 -21v-18zM341 157.5q-1 30.5 19 51.5l17 18q12 12 20 23q8 12 31 41q20 29 35 49q16 23 33 45 q18 20 30 39q14 18 29 39q12 18 18 29q10 18 27 40q16 23 35 50q18 23 33.5 44t31.5 46q12 20 24.5 44.5t20.5 39.5q8 23 23 51q12 23 25 47q12 29 32 64q16 33 31 59q14 25 23 39q6 12 14 31q6 14 10 30q6 27 12.5 49.5t12.5 44.5q12 33 30 58l13 14q18 25 49 28 t54.5 -15.5t26.5 -49t-16 -55.5l-10 -14q-4 -2 -6 -11q-6 -20 -11 -39.5t-11 -42.5q-6 -31 -19 -59q-12 -23 -20 -39q-8 -14 -23 -41q-12 -25 -31 -57q-16 -31 -28 -55q-12 -29 -27 -56q-12 -20 -18 -35q-8 -23 -23.5 -53.5t-34.5 -58.5q-16 -25 -33.5 -48.5t-37.5 -49.5 q-16 -23 -29 -41q-12 -18 -21 -31q-10 -18 -28 -43q-14 -23 -28.5 -42.5t-33.5 -41.5q-16 -20 -30 -39q-14 -23 -35 -50.5t-31 -39.5q-12 -18 -31 -39l-16 -16q-20 -23 -51 -24t-53.5 20.5t-23.5 52zM764 266v49q2 20 6 46t10 42q4 18 13 35q6 14 14 39q14 35 39 72 q29 41 55 57q29 18 66 23q31 4 57 2q23 -2 41 -6q11 -3 25 -9q41 23 77 -2l17 -10q25 -16 47 -43q29 -31 39 -67q6 -25 10 -48q4 -20 6 -34q4 -16 6 -33q2 -18 2 -43q0 -29 -6 -57l-10 -43q-4 -23 -10 -50t-15 -45q-6 -20 -18 -43q-10 -23 -21 -39q-10 -16 -24 -34 q-16 -23 -37 -39q-25 -20 -57 -29q-25 -6 -60 -10q-39 -2 -69 6q-33 10 -62 35q-25 20 -45 43q-18 23 -35 47q-16 27 -26 53q-10 23 -17 39q-8 23 -12 43t-6 53zM911 270q2 -20 3 -29.5t6 -17.5q6 -14 14 -35q6 -16 16 -30q10 -16 23 -31q10 -12 24 -25q6 -6 11 -8h18 q20 2 31 4l4 2q6 4 12 13q8 12 14 22q8 12 17 29q6 14 10 26.5t10 30.5q6 25 11 45l8 43q4 14 4 27q0 14 -2 24q0 10 -4 23q-2 14 -6 39q-4 16 -9 33q0 4 -4 8q-37 -14 -67 6l-15 8q-4 2 -6 4q-10 2 -24 2q-10 2 -23 0q-4 0 -6 -2q-6 -4 -14 -16q-14 -23 -23 -41 q-10 -29 -16 -43q-4 -8 -6 -19q-2 -8 -5.5 -25.5t-4.5 -29.5t-1 -37z" />
<glyph unicode="&#x26;" horiz-adv-x="1038" d="M107.5 1041.5q-11.5 27.5 1 56t41.5 39.5l18 8q27 10 108 22q66 10 121 13q-2 27 -4 49q-8 119 -10 135q0 10 -6 33l-8 28q-8 29 7 55.5t45 35t56.5 -7t34.5 -44.5l6 -28q10 -33 12 -52q2 -14 11 -147q2 -31 4 -63q6 -2 14 -3q78 -12 117 -24t74 -31q31 -14 49 -47 t14 -70q-2 -12 -7 -24t-9 -20.5t-14.5 -18.5t-15.5 -15.5t-18.5 -12.5t-18.5 -10t-20.5 -11t-17.5 -8q-6 -4 -14 -9q18 -4 35 -8q63 -14 98 -33q37 -23 74 -67q41 -49 49 -125q10 -78 -23 -137q-31 -51 -114 -115q-80 -61 -187 -98q2 -14 2 -25q10 -90 15 -137q6 -49 6 -64 l2 -12q2 -31 -18.5 -53.5t-50 -25.5t-53.5 17.5t-26 51.5l-2 12q0 14 -4 60q-6 47 -14 133q-23 -6 -45 -11q-63 -10 -84 -12q-27 -4 -82 -2l-49 2q-31 2 -51.5 24.5t-19.5 52.5t23.5 51.5t53.5 19.5l49 -2q43 -2 55 0q18 4 82 14q23 2 54 10q-2 37 -4 78q-10 129 -21 262 h-20l-105 47q-129 70 -35 99q20 6 90 28q29 8 58 19q-4 55 -6 71q-2 18 -2 39q-49 -2 -109 -12q-61 -8 -78 -14l-18 -9q-27 -10 -55.5 2.5t-40 40zM555 1022q0 -2 1 -8t1 -8q0 -4 1 -13.5t1 -15.5q31 14 66 33q-25 6 -70 12zM578 735q8 -133 16 -254q2 -20 4 -41 q61 27 109 62q61 47 75 71q10 16 6 45q-4 33 -18 52q-18 23 -31 30q-16 8 -61 19q-49 12 -92 14q-4 0 -8 2z" />
<glyph unicode="'" horiz-adv-x="372" d="M102 1251q-2 29 17.5 52.5t49.5 26.5t53.5 -16.5t27.5 -47.5l2 -21l4 -28q2 -18 4 -41q2 -18 4 -43t4 -64t2 -59v-117q0 -31 -21.5 -52.5t-52 -21.5t-52 21.5t-21.5 52.5v117q0 18 -2 53t-3 57.5t-3 40.5q-2 16 -4 31q-4 18 -7 39z" />
<glyph unicode="(" horiz-adv-x="743" d="M102 578q0 20 2 43v34q2 14 4.5 37t5.5 43.5t5 34.5q2 18 8 43q6 18 10 33q4 16 13 41q8 23 14 41t19.5 43.5t23.5 42.5q8 14 20 30q10 18 23 37q12 20 20 35q8 14 19 33q10 20 18 35q8 16 29 49q18 29 29 47q10 20 20 37q10 16 31 49q18 27 26 43q8 14 11 25l4 20 q8 29 33.5 45.5t55 9t46 -33t8.5 -56.5l-4 -18q-6 -29 -23 -60q-12 -25 -32 -53q-20 -33 -29 -43q-8 -16 -18 -37q-12 -23 -33 -53q-16 -29 -23 -41l-20 -35q-12 -23 -21 -39q-8 -12 -20 -32q-12 -23 -25 -41q-12 -18 -20 -33q-6 -8 -16.5 -27.5t-14.5 -32.5q-4 -14 -12 -34 q-6 -20 -10 -33q-2 -14 -11 -37q-2 -14 -4 -20q-2 -12 -4 -35q-4 -18 -4 -37q-2 -18 -4 -33q0 -16 -2 -33v-34v-31q2 -14 4 -33.5t2 -34.5q2 -14 6 -37q2 -23 4 -37t5 -34.5t5 -44.5q2 -20 5 -31q2 -10 6 -29l6 -24q6 -14 14 -37q8 -20 12 -35q4 -8 13 -25q10 -20 18 -39 q10 -18 23 -51q10 -25 16 -39q10 -18 23 -45q12 -25 24 -45q10 -18 22.5 -33.5t24.5 -31.5q18 -16 39 -39q23 -25 39 -43t31 -37q12 -14 24 -33l13 -16q16 -25 12 -55.5t-28.5 -48t-55.5 -12.5t-49 30l-12 16q-10 16 -23 31q-8 12 -22 29q-14 14 -35 36q-20 23 -39 41 q-20 20 -36.5 43t-31.5 50q-16 25 -30 55q-12 29 -21 43q-10 18 -22 51q-10 25 -17 39q-2 4 -9 17.5t-9 21.5q-12 25 -21 41q-4 12 -10 33q-8 20 -12 32q-8 20 -15 47q-6 23 -8 39q-2 14 -4 33q-4 27 -6 45q-2 23 -4 37q-2 16 -5 37.5t-5 36.5q-2 16 -5 39q-2 25 -2 39 q-2 16 -2 39z" />
<glyph unicode=")" horiz-adv-x="749" d="M105 1467.5q8 29.5 33.5 45t55 7t46.5 -34.5l10 -15q2 -6 10 -12q14 -14 29 -26q20 -16 51 -50q31 -35 43 -53l20 -35q8 -16 23 -41q12 -27 25.5 -55.5t27.5 -64.5q12 -33 21 -52q10 -23 20 -47q14 -29 21 -43q4 -12 14 -33q10 -25 17.5 -45t13.5 -47q4 -20 8 -35 q8 -20 12 -40q6 -23 10 -52q2 -23 5 -39q2 -18 4 -43q2 -20 4 -32l4 -35q2 -20 4 -37l6 -37q2 -25 3 -43t1 -39v-43q0 -23 -1 -40t-3 -40l-6 -32q-2 -12 -2 -29q-4 -20 -6 -39q-2 -10 -6 -27q-2 -20 -5 -41q-4 -20 -8 -34q-2 -12 -4 -27q-4 -20 -10 -47q-8 -33 -21 -55 q-6 -16 -21 -46t-30 -57q-14 -27 -26.5 -48.5t-26.5 -41.5q-12 -18 -22 -37q-12 -23 -21 -39q-12 -20 -25 -37q-10 -16 -22 -32q-18 -23 -39 -41q-14 -12 -27 -23q-16 -12 -36 -29l-21 -14q-25 -16 -55.5 -11t-48 29.5t-11 55.5t30.5 47l19 14q16 10 26 21q12 12 29 24 q8 6 14 15q10 14 21 26q8 12 16 27q8 18 20 39q14 25 29 47q12 18 22.5 35.5t24.5 42.5q12 25 26.5 52.5t20.5 43.5q6 8 11 29q6 20 8 32q4 20 6 35q2 10 4 27q4 18 6 39q4 23 6 37q2 10 4 24q2 18 5 33l4 33q2 18 3 29.5t1 29.5v43q0 16 -1 29.5t-3 34.5l-4 37q-2 14 -5 34 q-4 20 -6 35q-2 16 -4 41q-2 23 -2 39q-2 16 -6 37q-2 18 -6 33q-4 16 -8 30q-6 20 -13 47q-6 20 -10 35t-12 33q-10 23 -17 35q-4 12 -16 39t-22 49q-10 23 -23 57q-14 33 -25.5 58.5t-21.5 48.5q-12 23 -21 39q-8 14 -16 24q-4 8 -27.5 34t-33.5 34q-18 14 -35 31 q-25 20 -41 47l-8 16q-16 27 -8 56.5z" />
<glyph unicode="*" horiz-adv-x="839" d="M107 721q-11 29 1.5 56.5t41 38.5t55.5 -1l14 -4q2 -2 6 -4q31 -2 60 -21q12 -8 26 -14q10 -6 23 -10q18 -6 37 -14l-4 16q-4 25 -7 39q-4 18 -4 47q-2 23 -4 39l-2 20q-4 31 14.5 55.5t48 28.5t54.5 -14t29 -49l4 -21q2 -25 4 -53q0 -23 2 -31q2 -12 6 -32q2 -14 4 -29 q16 6 29 10l26 10q14 4 29 11q14 4 27 8l12 6q29 8 56.5 -4t37.5 -41t-3 -56.5t-40 -37.5l-14 -6q-14 -4 -29 -9q-12 -6 -26 -10l-25 -8q-8 -4 -21 -10q-14 -6 -30 -19l-8 -4v-8v-4q4 -8 10 -19q8 -16 16 -28.5t21 -26.5q10 -14 22 -26q12 -14 25 -27l12 -14 q20 -23 19.5 -53.5t-23.5 -51t-53.5 -19.5t-50.5 23l-13 15q-12 12 -24 26q-16 16 -31 37q-14 18 -27 35q-6 10 -14 24q-2 -2 -6 -4q-8 -8 -17 -20q-14 -20 -28 -39q-16 -20 -37 -39l-14 -12q-23 -20 -53.5 -18.5t-51 24t-18.5 53.5t24 51l17 13l20 20q10 14 21 29 q16 25 32 43q6 6 11 10q0 2 2 4q-10 6 -21 10q-12 8 -24 13q-18 6 -37 16q-18 8 -37 18q0 2 -4 3q-25 4 -45 12l-13 6q-29 12 -40 41z" />
<glyph unicode="+" horiz-adv-x="1103" d="M102 625.5q-4 29.5 14.5 54.5t49.5 29l27 4q29 4 53 6t53 4q27 0 61 2q39 2 60 2h92q-2 45 -4 78q-4 45 -4 104v80v39l-2 19q0 31 20.5 53t50 23t52 -19.5t24.5 -50.5l2 -19v-45v-80q0 -55 3 -94t5 -92h3q18 -2 33.5 -4t41.5 -4q27 -2 43.5 -4t38 -5.5t39.5 -7.5 q20 -2 35 -4q12 -2 25 -2h16q29 -2 49.5 -25.5t18 -53t-25 -50t-52.5 -18.5h-15q-18 2 -35 4q-16 2 -36.5 5t-40 5t-35.5 4q-14 2 -41 4q-27 4 -43 6h-4v-6q4 -29 6 -51q6 -31 6 -61q0 -29 -2 -49q-2 -10 -4 -31q0 -25 -2 -45q0 -14 2 -25q4 -23 4 -45q0 -16 -2 -33v-12 q-2 -31 -25.5 -51.5t-53.5 -18.5t-50.5 26t-17.5 54v13q2 10 2 22q0 10 -2 23q-4 25 -3 53v45q2 27 5 45q2 10 2 29q0 20 -4 39q-4 25 -9 55q0 14 -2 31h-104q-16 0 -51 -2q-37 -2 -66 -3q-25 -2 -45 -3t-45 -5l-27 -4q-29 -4 -54.5 14.5t-29.5 48z" />
<glyph unicode="," horiz-adv-x="462" d="M104 -174l7 20q6 25 14 45q8 18 14 33q4 10 13 33q6 18 10 35q6 23 11 41t11 37q6 16 13 34q8 23 18 41l8 13q14 27 44 35t56.5 -7.5t35 -45t-6.5 -56.5l-8 -12q-4 -8 -10 -21q-6 -16 -10 -31q-6 -14 -10.5 -28.5t-8.5 -32.5q-6 -25 -16 -53q-8 -25 -15 -41 q-6 -10 -12 -27q-4 -14 -10 -31l-4 -20q-8 -29 -35 -44t-56.5 -8t-45 34.5t-7.5 56.5z" />
<glyph unicode="-" d="M107.5 538.5q11.5 28.5 39.5 41.5l27 12q37 16 68 20q25 4 57 9q33 2 51 2t56 -2q29 -2 46 -3.5t31 -3.5q18 0 39 -4q10 -2 33 -2h98q31 0 52.5 -21.5t21.5 -52t-21.5 -52t-52.5 -21.5h-98q-35 0 -57 4q-12 2 -25 2q-14 2 -29 2q-18 2 -53 4q-29 2 -41 2t-39 -2t-45 -6 q-12 -2 -33 -10l-28 -13q-27 -12 -55.5 -0.5t-41 39t-1 56z" />
<glyph unicode="." horiz-adv-x="436" d="M102 115q0 12 4 20q8 33 33 50.5t43 19.5q45 6 74 -25q33 -8 49 -37q16 -10 25 -28q10 -27 0 -56q4 -25 -7.5 -46t-29.5 -31q-45 -25 -82 8q-15 0 -29 2q-12 6 -21 11t-14.5 11t-7.5 10.5t-3 7.5l-1 3q-4 8 -6 18q-29 25 -27 62z" />
<glyph unicode="/" horiz-adv-x="976" d="M103 -98.5q3 30.5 26 49.5l12 8l4 12q12 33 25 58q12 29 35 67q20 37 39 66q16 23 32 55q18 37 33 64q12 27 19.5 42t17.5 44q12 27 19 47q8 20 22 53t27 59q12 25 22 47q10 20 21 48q10 29 15 43t13 41l17 53q10 27 15 44t15 42q8 29 19 47q6 14 14 35q10 23 23 47 q10 23 18 39t17 39q8 23 18 49q8 16 16 41q10 31 21 53q8 18 18 41q14 31 35 55l14 17q18 23 49 25.5t54.5 -17t27 -50t-17.5 -53.5l-14 -16q-8 -10 -15 -25q-10 -20 -18 -38q-6 -14 -14 -39q-10 -29 -19 -50q-10 -25 -18 -47q-10 -27 -21 -47q-8 -18 -20 -43 q-10 -20 -17 -39q-10 -23 -18 -39q-6 -12 -12 -34q-8 -23 -15 -39q-6 -16 -14 -43l-16 -54q-10 -27 -15.5 -44t-17.5 -48t-25 -55q-10 -25 -22 -49q-12 -25 -24.5 -54.5t-18.5 -48.5q-8 -20 -21 -49q-12 -31 -20 -49t-23 -47q-14 -29 -32 -65q-20 -39 -39 -68 q-16 -25 -37 -59q-18 -33 -27 -54q-10 -20 -20 -49q-18 -49 -49 -74l-15 -10q-23 -20 -53.5 -16t-49 27.5t-15.5 54z" />
<glyph unicode="0" horiz-adv-x="958" d="M102 428v43v35v45q2 23 4 43q2 10 3 24q0 20 2 50q2 25 2 37q0 18 2 47q2 20 4 34v31v172q0 20 2 41q0 23 6 49q4 29 20 62q14 35 35 59q18 25 43 43q23 16 43 31q20 14 43 26q25 14 49 23q20 6 52 12q31 6 55 8q23 2 43 3q23 0 45.5 -3.5t42.5 -11.5q18 -8 35 -14 q23 -10 47 -33q6 -4 14 -10q29 29 66 20q31 -6 47 -31.5t10 -54.5l-2 -14v-4q2 -14 6 -49t6 -49q2 -16 7 -35v-13q4 -12 6 -24q6 -25 6 -45v-14q0 -8 -4 -21q2 -20 4 -41q0 -25 2 -47q2 -27 2 -49q2 -23 2 -35q2 -18 2 -47v-49v-41q4 -27 4 -43v-252q0 -23 -4 -45 q-2 -16 -4 -33q-2 -20 -8 -43q-4 -20 -13 -41q-8 -27 -20 -47q-10 -16 -23 -31q-14 -23 -38 -43q-20 -16 -41 -28q-16 -10 -39 -21q-27 -12 -54 -20q-18 -4 -39 -9q-29 -6 -55 -6h-45q-27 0 -49 2q-25 2 -47.5 9.5t-48.5 21.5q-25 14 -49 31q-23 16 -41 30t-35 29 q-23 20 -43 51q-18 31 -27 56q-6 20 -10 34q-2 14 -6 35q-4 20 -7 41t-6 39q-2 23 -2 41q0 14 -2 39zM250 434q2 -29 2 -45q0 -10 2 -24q0 -16 4 -35q2 -16 6 -33q2 -18 6 -33q2 -10 6 -22q2 -6 11 -19q8 -14 14 -20q14 -12 31 -23q14 -12 35 -28q16 -12 32 -21 q14 -8 22.5 -10t18.5 -4h35h45q10 0 21 2q20 4 39 8q10 4 24 10q16 8 27 15q10 6 22 16l15 12q6 12 14 23q4 8 8 20q6 16 10 31q2 12 5 22q2 14 4 31q2 14 2 29v252q0 10 -2 30q-2 27 -2 54v49q0 25 -2 37q0 14 -3 39q0 20 -2 43q-2 27 -2 53q-2 23 -4 45q-2 27 -4 53v23 q-4 12 -12 26q-6 16 -12 29q-8 16 -19 37q-2 6 -10 14q-10 14 -21.5 25.5t-27.5 23.5q-12 10 -19 13q-10 6 -22 10q-10 4 -19.5 5t-17.5 1h-31q-14 -2 -37 -6q-23 -6 -36 -10q-12 -4 -25 -11q-14 -8 -31 -18q-14 -12 -33 -25q-12 -10 -20 -22q-8 -8 -16 -25q-6 -16 -11 -28 q-2 -16 -2 -31q-2 -16 -2 -33v-172q0 -23 -1 -41t-3 -43q-2 -20 -2 -28q0 -18 -2 -48q-2 -23 -2 -39q0 -23 -2 -43q-2 -12 -4 -30v-39v-35v-37z" />
<glyph unicode="1" horiz-adv-x="659" d="M102 1219.5q-2 29.5 18.5 52t51.5 24.5l29 2q31 2 49 2q12 0 29 3h43q23 0 47 2q27 2 51 4q27 2 43 2q78 0 90 -92q4 -33 4 -62q0 -25 -2 -63q-2 -39 -6 -62q-4 -20 -6 -47t-2 -47q2 -31 -2 -76q-2 -39 -4 -61q0 -20 2 -41q2 -31 2 -45t-2 -43q0 -31 -1 -51.5t-1 -55.5 q2 -35 4 -67q2 -37 0 -66q-2 -20 -4 -53q-2 -29 0 -49q0 -27 -1.5 -60.5t-3.5 -56.5q-2 -16 -4 -45v-39q2 -23 4 -49q0 -31 -2 -51q-2 -12 -2 -27l-2 -14q0 -31 -23.5 -51.5t-53 -18.5t-50 24.5t-18.5 53.5v16q0 18 4 35v29q-2 23 -2 41q-4 27 -2 61q2 31 4 51q2 16 3 44 t1 51q-2 29 0 63q2 35 4 57q2 18 0 45q-2 33 -2 72q-2 41 0 66v49q2 27 2 39q0 8 -2 36.5t0 55.5q0 25 2 65q4 37 2 60q0 31 2 65q4 35 8 58q2 16 5 47q2 35 2 57q-16 0 -31 -2q-31 -2 -57 -2h-35q-20 -2 -37 -2q-12 0 -39 -2h-31q-29 -2 -52.5 18.5t-25.5 50z" />
<glyph unicode="2" horiz-adv-x="1062" d="M103 997.5q-1 30.5 20 51.5l27 30q29 31 45 45.5t38 34.5q27 23 56 41q27 18 41 29l35 20q25 14 45 21q18 6 36 10q14 2 37 6t45 4q31 2 70 -8q29 -8 47 -14q25 -8 55 -25q39 -18 72 -55q29 -33 43 -62q14 -27 21 -47q4 -14 8 -37q6 -20 8 -32q4 -18 6 -43t2 -45v-41 q-2 -27 -6 -54.5t-14 -60.5t-17 -49q-6 -18 -16 -37q-10 -23 -25 -41q-10 -14 -26 -43q-20 -33 -33 -49q-12 -16 -31 -43q-18 -29 -30 -45q-14 -18 -29 -37q-16 -16 -43 -45t-43 -45q-14 -16 -33 -39q-20 -25 -39 -47q-20 -25 -37 -45q-18 -20 -32 -39q-16 -16 -29 -31 q31 -2 67 -4q145 -6 205 -7t111 1h69h60q31 0 52.5 -21.5t21.5 -51.5t-21.5 -52.5t-52.5 -22.5h-60h-67q-51 -2 -113.5 -1t-210.5 8q-12 0 -51 1t-51 2t-37 5t-40 11t-30 19q-27 20 -37 56.5t13 79.5q14 18 31 39q16 18 28 32t29 33q16 18 33 39q16 18 34 41q18 25 41 49 q20 27 39 45q16 16 41 45q27 29 41 43q12 14 21 27q10 14 28 41t31 43q10 14 29 43q18 31 31 47l12 24q8 14 12 25q4 12 12 37q6 25 9.5 43t5.5 37v35q0 14 -2 30q0 16 -2 27q-2 12 -9 31q-4 18 -6 28q-2 6 -10 21q-6 10 -22 31q-14 16 -29 22q-20 10 -31 14q-16 6 -43 13 q-16 6 -24 4q-16 0 -29 -2q-16 -2 -31 -6q-8 -2 -18 -5q-6 -2 -19 -10q-16 -8 -28 -16q-10 -6 -37 -25q-25 -16 -45 -32q-20 -18 -32.5 -29.5t-37.5 -38.5l-29 -31q-20 -23 -51 -23.5t-52.5 21t-22.5 52z" />
<glyph unicode="3" horiz-adv-x="1009" d="M106.5 904q-10.5 30 2.5 57l8 14l8 20q4 16 14 41q10 27 21 45q10 20 30.5 47t49 52.5t63.5 46.5q33 18 57 30q31 14 70 21q39 6 78 2q33 -2 61 -8q31 -8 52 -15q18 -8 41 -18l40 -20q25 -12 48 -33q20 -18 38 -41q20 -25 33 -53q14 -27 21 -52q8 -20 14 -49q6 -33 6 -71 v-52q-2 -18 -6 -47t-12 -53q-6 -25 -17 -49q-14 -29 -34 -51q-2 -4 -7 -9q10 -8 21 -18q27 -25 43 -49q12 -20 24 -45q12 -27 19 -49q4 -16 8 -37t6 -37q2 -20 2 -41q-2 -16 -4 -41q-4 -27 -6 -45q-4 -16 -8 -39q-4 -29 -14 -59q-8 -27 -15 -43q-8 -20 -18 -41 q-12 -18 -31 -45q-25 -33 -61 -58q-31 -20 -62 -35q-35 -14 -72 -20q-35 -6 -59 -6h-31q-18 0 -36 2q-23 4 -54 16q-25 10 -49 25q-23 12 -49 31q-25 18 -39 28q-20 14 -37 29q-20 18 -41 43q-23 29 -35 63q-8 23 -12 39l-4 17q-10 29 4 55.5t43 35.5t56.5 -5.5t37.5 -42.5 l4 -15q4 -14 13 -36q2 -10 10 -19q10 -14 20 -22q12 -12 25 -21q16 -12 41 -29q20 -14 37 -24q14 -8 31 -15q12 -6 18 -6q8 -2 16 -2h31q12 0 35 4q18 4 37 11q18 10 39 22q14 10 24 23q14 18 21 30q6 10 8 19q6 14 14 39q6 20 8 37q4 23 9 39q2 14 4 36q2 23 4 35v10 q-2 10 -5 28t-7 32q-2 8 -9 22q-8 16 -14 27q-6 8 -18 20q-16 14 -27 21q-6 4 -18 8q-14 6 -35 10q-14 4 -29 7h-14h-41q-14 0 -39 -3q-18 0 -39 -4q-33 -6 -42 30t-3 75t10 41q35 14 70 14h65q20 0 45 -4h4q6 0 15 4q12 4 31 17q14 10 20 17t10 15q6 14 10 29q4 14 9 35 q2 20 4 35v41q0 23 -4 38q-4 25 -11 41q-2 12 -10 27q-8 14 -16 27q-10 12 -21 22q-10 8 -20 15q-16 8 -35 16q-16 8 -29 12q-10 4 -30 8q-23 6 -45 9q-18 2 -39 -2q-18 -2 -31 -9q-18 -10 -45 -24q-25 -14 -42.5 -29.5t-29.5 -31t-16 -23.5q-6 -12 -15 -33q-8 -23 -12 -35 q-6 -18 -14 -37l-6 -14q-14 -27 -43 -37t-56.5 2t-38 42z" />
<glyph unicode="4" horiz-adv-x="1095" d="M109 369q-14 41 2 80q8 16 19 36.5t20 36.5q12 23 22 39q8 14 23 35q16 25 38 51q14 20 23 33q14 23 41 55q20 27 39 51q18 29 31 45q10 14 26 39q20 31 43 60q20 27 43 53q20 25 37 47q14 23 25.5 38t29.5 46t29 49q12 20 25 39q10 14 22 31l2 4l2 12q6 25 27.5 41.5 t46.5 16.5q4 2 8 2q31 10 57.5 -5.5t34.5 -43.5l6 -21q8 -29 9 -53q0 -10 2 -39q2 -31 2 -51q2 -20 2 -43v-66q0 -25 -4 -43q0 -10 -2 -29v-38q0 -25 -2 -43q-2 -12 -4 -31q-2 -18 -5 -39q-2 -18 -4 -47t-2 -47q0 -25 -4 -47q-2 -14 -4 -33q-2 -16 -4 -35v-35v-35v-26h8h101 q31 0 52 -21.5t21 -51.5t-21.5 -52.5t-51.5 -22.5h-101h-18v-8v-45q0 -20 -4 -43q-2 -16 -3 -27.5t-3 -31.5q-2 -18 -3 -33v-47q0 -31 -21.5 -52.5t-52 -21.5t-52 21.5t-21.5 52.5v47q0 20 2 45t4 40t6 34v16v41v6h-30q-18 0 -45 -2q-27 0 -46 -2q-25 -2 -40 -2h-220 q-14 0 -38.5 1t-40.5 3q-27 2 -51.5 20.5t-32.5 45.5zM276 446h216q10 0 28 3q20 2 51 3t52 1h39q2 18 2 32v35v41q2 27 6 49q2 20 6 39v21q0 23 2 55q2 33 4 53t4 39q2 20 4 37q2 8 2 23v45q2 27 4 43q2 8 2 22v51l-2 -2q-18 -31 -30.5 -49t-30.5 -43q-18 -27 -41 -53 q-23 -27 -43 -53q-18 -23 -35 -47q-18 -31 -31 -48q-10 -14 -28 -41q-20 -29 -45 -59q-20 -27 -29 -39q-14 -20 -35 -49q-16 -20 -29 -39q-14 -20 -22 -35q-6 -10 -16 -26z" />
<glyph unicode="5" horiz-adv-x="999" d="M102 575q0 16 1 35t3 37q2 16 5 35q2 23 5 48.5t5 43.5q2 20 4 37q2 20 4 39q2 16 2 37q2 23 3 37t3 37l4 40q0 18 2 39q0 27 4 54q2 27 9 57q4 29 10 51q2 16 9 31.5t27.5 32t47.5 18.5q16 2 33 2h92q16 0 37 -2h32h37q18 2 35 4q25 4 43 4q8 0 19 2q23 2 40 2 q12 0 37 2h45q12 0 29 2q18 0 35 3q8 0 24 4l21 4q29 6 55.5 -10.5t32.5 -45t-10.5 -55t-44.5 -33.5l-21 -6q-27 -6 -49 -6q-16 -2 -35 -2q-20 -2 -37 -2h-38q-27 -2 -44 -2h-16q-23 -4 -43 -4q-8 0 -22 -2q-23 -4 -50 -4q-23 -2 -43 -2q-23 0 -41 2h-28h-72q-2 -6 -2 -15 q-4 -25 -8 -47q-2 -23 -2 -43q-2 -25 -4 -47q-2 -18 -4 -41q0 -18 -1 -31.5t-3 -33.5q0 -25 -3 -45q-2 -25 -4 -39t-4 -33q12 8 23 14q20 14 41 25q25 12 51 20q27 6 53 6h33q20 0 37 -2q27 0 53 -12q18 -6 37 -14q16 -6 31 -13q27 -10 51 -28q16 -16 35 -33q20 -20 35 -47 q10 -16 20 -37q14 -23 23 -47q8 -20 16 -43t14 -39q4 -18 13 -47q8 -29 10 -59q4 -31 4 -48q0 -18 -4 -47q-6 -27 -13 -51q-6 -25 -18 -51q-12 -27 -29 -47q-12 -18 -30 -37q-16 -16 -41 -37q-25 -20 -43 -33q-18 -14 -39 -26q-23 -12 -49 -21q-23 -8 -54 -12q-29 -4 -49 -6 h-33q-25 0 -53 8q-27 6 -57 20q-29 14 -48.5 25.5t-41.5 26.5q-27 16 -45 37q-20 20 -37 49q-16 27 -25 57q-8 27 -10 49l-2 17q-2 31 16.5 54t49 27.5t54 -15t27.5 -50.5l2 -16q0 -12 5 -27q4 -12 10 -23q6 -12 14 -18q8 -10 23 -18q18 -12 30 -21q14 -8 39 -18 q23 -10 35 -15q10 -2 14 -2h25q14 0 35 4q18 2 33 7q8 4 18 8l27 18q14 10 34 27q18 16 31 28q10 10 17 19q6 8 12 22q8 16 12 31q4 16 8 35q2 16 2 22q0 8 -2 30t-8 42q-6 25 -10 37q-4 14 -12 35q-6 20 -13 37q-6 14 -14 30q-12 20 -23 37q-4 8 -10 15q-12 12 -24 22l-9 6 q-16 6 -36 15q-16 6 -33 12l-10 4h-27h-33q-8 0 -18 -2q-10 -4 -21 -8q-12 -6 -26 -15q-14 -10 -33 -26q-18 -14 -35 -29q-14 -14 -22 -27q-16 -23 -33 -43q-6 -2 -16.5 -6t-35 -11t-44 -6t-35 17.5t-15.5 48.5z" />
<glyph unicode="6" horiz-adv-x="1067" d="M106 565q-16 43 29 78v53q0 23 6 49q4 20 9 41q4 18 8 41q6 25 8 39q4 20 10 43q4 14 8 31q4 18 9 45q4 29 10 51q4 27 10 43q8 23 25 49q16 29 36 50l29 28q12 14 29 31q18 20 39 41q23 25 51 43q33 20 57 29q25 8 48.5 12t43.5 4q16 0 35 -2q31 -2 64 -18 q18 -10 35 -21q16 -8 34 -16q20 -12 37 -23q10 -6 23 -14l16 -8q27 -14 36 -43t-5.5 -55.5t-44 -36t-56.5 5.5l-16 8q-18 10 -33 20q-12 6 -26 15q-18 10 -37 18q-16 10 -33 18q-2 2 -4 3q-12 2 -25 2q-10 0 -21 -2.5t-24 -6.5q-8 -2 -22 -12q-16 -10 -29 -24l-35 -35 q-16 -20 -32 -37l-29 -27q-8 -8 -14 -20q-8 -14 -11 -21q-4 -12 -8 -28q-4 -20 -8 -48q-6 -29 -10 -47q-4 -23 -11 -45q-4 -14 -6 -26q-4 -14 -8 -39q-2 -14 -6 -27q14 6 29 14q20 10 41 19q18 6 41 12q20 4 43 10q25 6 45 11q25 4 47 4h28h33q23 -2 51 -10q27 -6 50 -15 q18 -8 34 -14q23 -10 43.5 -23.5t40.5 -33.5q16 -16 35 -41q14 -18 27.5 -39t23.5 -35q14 -18 23 -41q8 -18 16 -47q8 -25 13 -41q6 -25 6 -58q0 -29 -4 -53q-4 -20 -9.5 -42.5t-11.5 -39.5l-12 -28q-6 -16 -15 -37q-10 -20 -18 -41q-10 -16 -18 -35q-6 -12 -13 -23 q-8 -20 -22 -41q-14 -20 -41 -43q-25 -18 -51 -32q-29 -18 -58 -27q-29 -8 -61 -8q-23 0 -39 2q-20 2 -53 10q-25 6 -37 8q-20 2 -45 10.5t-47 18.5q-16 8 -29 12q-18 4 -37 11q-23 8 -41 18q-20 10 -47 29q-31 23 -51 53q-14 23 -27 47q-12 25 -20 51q-6 25 -13 47 q-6 23 -9 51.5t-3 49.5v110q-17 14 -29 41zM283 414q0 -12 2 -32t6 -36t10 -37q6 -16 12 -30q8 -16 17 -31q6 -6 14 -15q16 -10 27 -16q10 -4 22 -8q16 -6 33 -12q23 -6 45 -17q16 -6 32.5 -12t26.5 -8q16 -2 45 -10q20 -4 29 -5q10 -2 29 -2q10 0 20 4q12 2 27 11 q16 10 31 20q10 10 14 15q4 6 6 12q8 16 17 35q8 14 16 30t16 35q8 18 13 31q6 14 10 24t7 25.5t7 32.5q2 12 2 28q0 14 -2 21q-4 14 -10 37q-6 18 -10 28t-11 19q-8 14 -20 31.5t-27 35.5q-10 14 -20 25q-10 10 -18.5 15.5t-16.5 9.5q-16 6 -35 14q-14 6 -31 10 q-14 4 -22 4h-25h-28q-6 0 -19 -2q-16 -4 -39 -8q-23 -6 -41 -10q-16 -4 -28 -8q-10 -4 -23 -11q-16 -8 -33 -18q-14 -6 -24 -14q-8 -6 -23 -21q-14 -17 -30 -35v-155z" />
<glyph unicode="7" horiz-adv-x="1136" d="M102 1057q2 16 4 33q2 18 9 43q2 12 4 22q0 20 2 39q2 12 2 23q0 39 25.5 62.5t54.5 27.5q27 6 47 6q16 0 41 -2h33q14 0 51 -2h51h43q27 2 41 2q23 2 55 0q27 -2 39 -2h105h57q33 2 55 2q23 0 41 -2h27q14 0 33 -2q18 0 36 -4q25 -4 47.5 -25t26.5 -49q12 -55 -37 -99 q-12 -10 -24 -26q-16 -20 -33 -43q-16 -25 -37 -51q-20 -31 -35 -47q-12 -14 -39 -41q-20 -25 -26 -35l-25 -35q-10 -16 -22 -35q-12 -25 -23 -39q-8 -12 -18 -33q-10 -16 -21 -38l-18 -37q-6 -10 -12 -29q-6 -18 -11 -31q-2 -12 -6 -26q-4 -20 -8 -41q-4 -16 -12 -45 q-6 -27 -9 -41q-2 -14 -4 -39q-2 -31 -4 -49q0 -14 -2 -39v-47q0 -18 2 -35q2 -20 6 -43q4 -27 7 -47v-31q2 -16 2 -33v-45q0 -31 -21.5 -52.5t-52.5 -21.5t-52.5 21.5t-21.5 52.5v45v25q-2 14 -2 31q-2 12 -4 32q-4 25 -8 45q-2 27 -2 56v51q2 31 4 51q2 14 2 43q4 33 6 53 q4 18 10 49q8 31 13 52q4 16 8 30q4 20 8 37q4 16 12 41q10 27 19 45l20 39q12 25 25 45q10 20 20 35q8 14 21 37q14 25 28 47q14 18 23 31q12 18 41 51q25 27 35 39t28 37q20 29 37 51l12 16h-10h-51q-31 -2 -61 -2h-105q-16 0 -47 2q-25 2 -39 0h-45q-29 -2 -47 -2t-55 2 h-47h-39q-10 2 -19 2q0 -8 -2 -18q0 -23 -6 -49q-4 -16 -6 -27q-2 -12 -2 -24q0 -4 2 -15l2 -18q4 -29 -13.5 -54.5t-47 -29.5t-55 14.5t-29.5 46.5l-5 19q-4 27 -2 47z" />
<glyph unicode="8" horiz-adv-x="1081" d="M102 973q0 31 4 61q4 27 11 47q8 20 22 54q23 41 58 65q25 18 47 31q23 12 49 22q25 10 41 17q14 6 39.5 13t56.5 15q31 6 45 11q20 4 55 4q31 0 58 -4h6q16 4 33 0l20 -2q31 -6 60 -25l8 -2q18 -4 39 -10l16 -6q45 -14 51 -62q10 -6 19 -14q29 -27 43 -51q8 -18 18 -43 q8 -29 12 -58q2 -23 2 -45q0 -29 -6 -51q-4 -16 -12 -37q-6 -20 -14 -39q-8 -18 -21 -35q-8 -14 -20 -30q-16 -27 -44 -50.5t-55 -35.5q-2 -2 -4 -2q16 -6 29 -15q20 -10 41 -20q18 -10 35 -21q18 -10 35 -20q29 -18 53 -55q23 -31 31 -58q8 -25 10 -51q4 -25 6 -51v-41 q0 -23 -6 -47q-4 -18 -15 -49q-10 -29 -18 -43q-6 -16 -20 -43q-14 -23 -29 -47q-16 -23 -33 -46q-20 -27 -57 -49q-31 -20 -57.5 -33.5t-49.5 -21.5q-25 -8 -53 -14q-33 -6 -59 -6q-25 0 -54 4q-31 2 -51 8q-23 4 -55 18q-27 10 -41 15q-20 6 -45 16t-49 22q-25 12 -43 25 q-20 14 -39 37q-16 20 -27 41q-8 16 -15 37.5t-13 42.5q-6 27 -9 51q-2 31 4 63q6 20 11 35q4 18 15 47t26 56q14 31 32 53q20 25 52 49q23 20 43 37q14 12 32 27l-28 12q-25 8 -49 22q-31 18 -54 39q-20 18 -39 43q-10 18 -24 37q-18 25 -31 53q-12 25 -18 43q-8 25 -11 60 zM250 979q0 -12 2 -18q4 -10 12 -27q6 -16 17 -31q16 -20 28 -39q8 -12 17 -20q8 -8 22 -15q18 -10 37 -18q18 -8 34.5 -13t35 -11.5t35 -10.5t28.5 -6q2 2 4 2l35 21q18 10 39 18q18 8 47 18q23 8 37 17q10 4 22.5 14t16.5 19q12 16 20 30q4 8 11 19q4 10 8 22q6 14 8 27 q2 6 2 14q0 16 -2 33l-4 20q-6 12 -10 23q-2 4 -11 12q-14 12 -32 23q-23 16 -41 28q-12 8 -23 17h-4q-16 6 -37 10q-18 4 -37 6q-16 2 -37 2q-20 0 -26 -2q-12 -2 -39 -8t-47 -12q-25 -8 -37 -13q-12 -4 -33 -12q-18 -8 -33 -16q-16 -8 -32 -21q-6 -6 -13 -14 q-10 -20 -12 -29q-4 -10 -6 -28q-2 -14 -2 -31zM289 311q0 -16 4 -30q4 -16 8 -29q4 -10 8 -21q4 -6 10 -14q6 -6 11 -10q8 -4 22 -12q16 -8 39 -16.5t35 -14.5q18 -6 53 -19q20 -8 31 -10q10 -4 33 -6q25 -2 39 -2q12 0 30 4q18 2 33 8q14 4 32.5 13.5t43.5 25.5 q16 10 22 19q10 14 25 34q12 18 23 39q10 18 14 27q6 12 14 37q8 23 10 33q2 8 2 12v35q-2 20 -4 39q-2 14 -4 24q-4 6 -12 19q-8 10 -12 14q-12 8 -27 16q-18 10 -37 21q-16 10 -33 18q-14 6 -34 15q-20 6 -39 10q-25 6 -45 10q-18 6 -37 10q-4 2 -10 2q-6 -4 -13 -6 q-12 -10 -28 -20q-16 -14 -39 -31q-20 -14 -39 -31q-20 -18 -45 -39q-18 -14 -27 -26q-10 -12 -20 -29q-10 -20 -17.5 -40.5t-11.5 -31.5q-2 -14 -8 -32q-2 -8 0 -15z" />
<glyph unicode="9" horiz-adv-x="1056" d="M102 793v38q2 14 2 31q0 23 2 53q4 33 9 50q4 20 12 45l18 45q8 18 15 32q6 14 14 41q12 33 29 60q18 29 43 51q25 23 51 35q20 10 49 22t60 25q41 12 71 12h82q18 0 37 -2q20 0 47 -6q27 -8 51 -18q20 -10 43 -27q25 -16 49 -35q20 -18 37 -35q18 -18 33 -39 q10 -14 21 -34q16 -25 24 -50q8 -20 12 -43q6 -20 13 -43q6 -25 10 -43q6 -23 10 -45q2 -25 2 -43q0 -10 2 -30q2 -25 4 -41v-45v-54q-2 -25 -2 -41q-2 -14 0 -41v-59q0 -31 -2 -59q-4 -29 -6 -47q-4 -16 -8 -43q-4 -29 -10 -60q-8 -37 -17 -57q-6 -16 -16 -41 q-12 -23 -27 -49q-14 -27 -24 -43q-14 -20 -39 -43q-23 -20 -41 -33q-12 -8 -31 -18q-23 -14 -41 -23q-14 -8 -37 -18q-29 -12 -59 -19q-25 -4 -43 -6q-20 -4 -39 -4h-31q-18 0 -47 2q-31 0 -47 2h-27q-16 0 -38 2q-27 2 -48 4h-20q-31 2 -51.5 24.5t-19.5 52.5t23.5 51.5 t53.5 19.5l23 -2q23 0 47 -2q18 -2 30 -3h35q16 -2 43 -3t43 -1h31q10 0 20 2q12 2 31 7q16 2 31 8q20 10 35 16q10 4 22 12q18 12 31 21q8 6 23 16q10 10 14 15q6 12 18 32q12 25 23 43q8 20 12 33q4 8 8 29q6 29 11 57q4 29 8 45q2 12 4 37q2 20 2 43v37q-8 -12 -17 -25 q-23 -29 -47 -45q-18 -12 -51 -24q-29 -10 -51 -17q-20 -6 -43 -10t-45 -10q-29 -6 -57 -6q-27 -2 -41 -2q-18 0 -43 4q-23 4 -45 8q-20 6 -41 14q-20 8 -43 23q-20 12 -43 29q-29 23 -45 45q-10 14 -21.5 31.5t-21.5 37.5q-10 18 -21 43q-14 31 -20 56q-4 23 -7 45z M250 801q0 -10 4 -23q2 -8 8 -24q10 -20 19 -37q8 -14 16 -27.5t16 -25.5q0 -2 13 -11q16 -12 30 -20q14 -10 23 -12q10 -4 24 -9q14 -4 29 -6q12 -2 21 -2q12 0 34 2q16 0 33 4q23 4 45 8q20 4 37 11q14 2 35 10q16 6 25 10q4 4 10 13q12 14 22 34t17 39q8 18 10 29 q2 6 2 12q2 12 2 23q0 16 2 41q2 16 2 28v17q0 25 15 44t40 27q0 2 -2 7q-6 27 -12 47q-4 16 -8 30q-2 8 -8 19q-12 16 -21 31q-6 8 -14 16q-12 12 -29 27q-14 12 -31 22q-18 12 -32 19q-8 6 -21 8q-12 2 -20 4h-27h-82q-8 0 -24 -6q-25 -8 -47 -19q-25 -10 -44 -18 q-10 -6 -18 -15q-10 -8 -16 -18q-8 -12 -15 -33q-10 -25 -16 -42t-16 -40q-8 -20 -15 -39q-6 -14 -8 -22t-4 -33t-2 -39q0 -23 -2 -39v-22z" />
<glyph unicode=":" horiz-adv-x="446" d="M102 895q-2 31 18.5 54.5t49.5 25.5q25 2 43 -10l55 -23q51 -25 43 -84l-2 -14q-4 -29 -28.5 -48.5t-53.5 -15.5q-23 4 -39 17q-29 6 -55.5 30.5t-28.5 55.5zM143 112.5q2 12.5 20.5 26t51.5 21.5l37 -2q29 8 53 -4q27 -14 37 -43t-4 -56l-8 -16q-14 -29 -41 -41 q-2 -2 -4 -2q-23 -14 -50.5 -10t-44.5 26q-23 25 -28 45q-4 4 -7 9.5t-8.5 19.5t-3.5 26.5z" />
<glyph unicode=";" horiz-adv-x="481" d="M103 -159.5q-3 30.5 16 53.5l16 20q12 16 21.5 29.5t23.5 38.5q12 23 19 38q6 18 14 46q6 27 10 40q2 12 6 33l4 21q4 31 30 48t55.5 12t47 -30.5t13.5 -54.5l-4 -22q-4 -25 -8 -41t-13 -45q-8 -31 -16 -56q-10 -29 -29 -61q-16 -31 -30 -49q-12 -18 -29 -39l-17 -21 q-18 -25 -48.5 -27.5t-54.5 17t-27 50zM182 868l17 41q14 25 41 33q31 8 57.5 -7t34.5 -44l4 -12q4 -14 4 -33q-10 -53 -47 -70q-27 -12 -55.5 0t-40.5 39l-7 14l-2 1t-3 3.5t-2 10.5t-1 24z" />
<glyph unicode="&#x3c;" horiz-adv-x="1054" d="M105 522.5q8 44.5 45 61.5q14 8 36 20q27 12 48.5 22.5t35.5 16.5q12 6 41 21q35 16 62 22q16 6 37 14q27 8 47 17q16 6 42.5 17t51.5 24q27 12 49 24q23 12 47 29q31 18 51 29q18 10 41 22q27 14 45 21l15 6q29 10 57.5 -2.5t38.5 -41t-2 -56t-41 -37.5l-16 -7 q-10 -4 -29 -14q-20 -10 -39 -20q-16 -10 -43 -25q-29 -18 -55 -33q-25 -14 -54 -28t-59.5 -26.5t-52.5 -20.5q-16 -6 -41 -17q-27 -8 -51 -16q-14 -4 -37 -17q-31 -14 -47 -20q-6 -2 -19 -8q10 -4 19 -8q27 -12 41 -19.5t39 -17.5q20 -10 32 -15q16 -6 41 -16 q23 -10 40.5 -18.5t41.5 -20.5q27 -12 43 -20t41 -23q25 -14 39 -23l39 -18q20 -10 48 -24.5t51.5 -27.5t41.5 -22q20 -10 37 -20l15 -8q27 -16 33.5 -46t-8.5 -55.5t-45 -34t-56 8.5l-15 8q-10 6 -26 14q-20 10 -45 25q-25 12 -51 26q-27 14 -46 25l-38 18q-18 8 -46 25 q-27 14 -40 23q-12 8 -35 18t-38.5 17.5t-37.5 15.5q-23 10 -35 14q-18 6 -45 21q-23 10 -37 16t-39 18q-25 10 -54.5 24.5t-45.5 25.5q-31 16 -51 47q-20 25 -12 69.5z" />
<glyph unicode="=" horiz-adv-x="1112" d="M102 826.5q2 29.5 25 50t53 18.5h17q12 -2 34 0q23 0 45 -2q18 -2 80 -8q66 -4 86 -8q18 -2 50 -9q27 -4 36 -4h66h39q16 -2 39 -4q18 0 31.5 -1t35.5 -3q23 0 37.5 -1t36.5 -3q23 -2 37 -4q10 -2 22 -2h64q31 0 52.5 -21.5t21.5 -51.5t-21.5 -52.5t-52.5 -22.5h-64 q-23 0 -41 2q-12 2 -32 5q-18 2 -31.5 3t-36.5 1q-23 2 -37 3t-37 3q-18 2 -32 2h-31h-66q-20 0 -57 6q-33 4 -51 8q-14 2 -76 8q-63 4 -82 6q-14 2 -31 3q-25 -2 -43 0h-16q-31 2 -51.5 25.5t-18.5 53zM110.5 457.5q4.5 29.5 29 48t55.5 12.5l18 -2q14 -2 49 -2q37 -2 64 0 q27 0 59 4q33 2 53 6q25 2 60 6q31 2 47 5q16 2 30 2q16 2 39 2h68h53q29 2 43 4q16 2 33 2q16 2 37 2q20 2 37 2q18 0 35 -2h14q31 -2 50.5 -25.5t17 -53.5t-25 -50.5t-52.5 -18.5h-15q-12 2 -24 2t-31 -2q-18 0 -33 -2q-12 0 -26 -2q-18 -2 -56 -4h-57h-68h-26 q-12 -2 -27 -4q-16 -2 -51 -4q-31 -2 -51 -6q-23 -2 -60 -6t-69 -4q-31 -2 -72 0q-43 0 -65 4l-21 2q-29 4 -47.5 29.5t-14 55z" />
<glyph unicode="&#x3e;" horiz-adv-x="985" d="M104 779q-8 30 7.5 55.5t45 34t56.5 -8.5l16 -8q12 -8 41 -21q33 -14 52 -20q18 -8 45 -23q27 -10 41 -16t34 -14q25 -10 43 -21q12 -6 33 -16q20 -10 35 -14q16 -8 35 -19q12 -8 39 -20q27 -14 45 -21q23 -10 43 -22q12 -8 30 -17q16 -8 35 -16q23 -12 43 -25 q14 -12 31 -26q20 -16 26.5 -43t2.5 -47.5t-15 -36.5q-23 -33 -57 -58q-27 -16 -55.5 -31.5t-59.5 -27.5q-25 -10 -49 -21q-25 -10 -49 -18q-20 -8 -37 -16q-18 -8 -43 -21q-25 -12 -45 -24q-23 -12 -43 -25q-18 -10 -37 -22q-25 -14 -45 -25q-20 -8 -37 -14q-10 -4 -24 -9 q-16 -8 -35 -12l-12 -4q-29 -8 -55.5 7.5t-36 44t6 55t44.5 34.5l14 4l18 9q16 6 31 10l25 10q12 6 28 16q20 12 41 25q20 10 43 25q25 14 54 28q27 12 47 23q20 8 47 18q20 8 43 19q27 10 53 20q23 8 45 21q8 4 17 8q-14 8 -27 14q-20 10 -39 21q-12 8 -27 14q-20 8 -51 23 q-33 16 -49 26q-10 6 -18 10q-14 6 -37 17q-25 10 -41 20q-10 4 -29 13q-23 8 -39 16q-16 6 -43 18q-25 12 -41 19q-18 8 -53 22q-37 16 -57 29l-15 8q-27 16 -35 46z" />
<glyph unicode="?" horiz-adv-x="962" d="M103.5 1008.5q-5.5 29.5 11.5 54.5l10 16q8 10 14 25q12 23 23 39q14 23 35 45q20 20 43 39q18 14 43 30q27 20 51 33q20 10 41 19q25 12 46 16t42 4q16 0 37.5 -2t42 -7t41.5 -11l34 -17q18 -8 41 -19t39 -20q18 -10 37 -22q18 -14 39 -31q20 -20 34.5 -41.5t22.5 -44.5 q6 -16 11 -33l10 -28q8 -25 8 -52q0 -18 -2 -38.5t-8 -42.5q-4 -23 -10 -41q-4 -18 -13 -43q-10 -29 -28 -56q-14 -25 -29 -43q-14 -14 -33 -35l-30 -30q-10 -8 -15 -17q-12 -18 -26 -34q-12 -14 -25 -29q-14 -14 -33 -31q-16 -16 -35 -33q-20 -18 -43 -32q-12 -10 -20 -19 l-6 -8q-4 -6 -6 -16q-4 -10 -4 -17v-24l2 -19q0 -31 -20.5 -53.5t-50.5 -24.5t-53.5 19.5t-23.5 50.5l-2 21v40q2 20 8 45t17 44q12 25 35 47q16 16 40 34q16 10 29 23q16 14 33 29l24 24q10 12 21 25l16 20q12 20 33 39l31 31q14 16 24 27q8 8 17 24q8 12 14 27q6 18 10 35 q4 14 9 32q4 16 5 27.5t1 21.5v7l-11 26q-4 14 -8 29q-4 6 -8 13t-14 16q-10 10 -21 18q-12 8 -24 14q-14 8 -34 17.5t-34 17.5q-14 6 -29 10q-10 4 -22 7q-10 4 -23.5 5t-21.5 1q-6 0 -11.5 -1t-17.5 -7q-16 -6 -35 -17q-14 -6 -32 -18q-20 -16 -37 -29q-14 -10 -27 -25 q-10 -10 -16 -20q-6 -12 -15 -27q-12 -25 -24 -43l-10 -16q-18 -25 -48 -30t-55.5 12.5t-31 47zM356 111v14q4 31 29 49.5t55 13.5q20 -2 39 -17t23 -36q29 -14 39 -39.5t-4 -52.5q-20 -39 -56 -45l-41 -6q-16 0 -27.5 4t-16.5 8t-7 7t-2 6t-2 3q-35 39 -29 91z" />
<glyph unicode="@" horiz-adv-x="1652" d="M102 285v55q0 39 2 57v33q0 27 2 55q2 29 7 64q4 37 6 53q4 14 6 33q4 25 10 53q8 27 19 55q12 33 22 56q10 18 21 35l16 28t20 37t27 45q14 25 27 41q14 20 30 37q12 14 27 29q16 16 33 30l33 29q16 16 32 27q16 12 35 24q8 6 28.5 19.5t49.5 23.5q20 8 41 15 q25 8 47 14q20 4 35 8q12 2 33 6q20 4 39 6q20 4 45.5 6.5t52.5 2.5q25 0 49 -2q25 0 47 -3q23 -2 45 -6q18 -4 40 -9t42 -9q20 -6 41 -12q20 -6 39 -13q18 -8 39 -18q18 -10 37 -21q20 -14 47 -39q27 -27 43 -49q14 -18 29 -41q10 -18 22 -36q8 -16 16 -25q12 -14 29 -31 q20 -23 39 -47q20 -29 35 -55q12 -29 18 -47q2 -10 8 -25q10 -25 15 -45q2 -14 6 -29q2 -14 6 -30q2 -18 4 -39q2 -18 4 -41t2 -45v-39q0 -25 -2 -47q-2 -12 -4 -29q0 -18 -2 -43t-4 -41t-8 -37q-4 -23 -12 -43q-6 -14 -13 -28q-6 -14 -14 -31q-8 -16 -21 -37 q-12 -16 -24 -35q-16 -23 -37 -39q-16 -12 -39 -26t-37 -25q-16 -8 -35 -16q-16 -8 -47 -17q-33 -8 -63 -8q-23 -2 -39 -2q-27 -2 -57 2q-35 6 -60 19q-29 14 -49 38q-16 18 -31 43q-20 -20 -51 -34q-25 -12 -49 -25q-25 -10 -41 -14q-14 -6 -31 -11q-16 -6 -43 -10 q-41 -6 -80 8q-35 12 -65 37q-25 20 -45 47q-16 23 -27 41q-10 16 -18 35t-15 39q-6 18 -11 44t-7 48q-2 14 -4 29q-4 23 -4 43v39q0 25 2 43q0 20 6 47q4 25 6 41q4 18 8 35q6 18 15 43q8 23 16 39q8 14 16 30q12 23 36 48.5t50 41.5q25 14 54 29q23 10 43 21q27 14 57 22 l45 10q4 0 31 7q23 4 61 2q39 0 66 -7q20 -4 49 -8l25 -6q23 -6 39 -23t18 -40q27 -37 26 -66v-78v-37q-2 -20 -3 -33.5t-3 -37.5q-2 -25 -2 -41q-2 -20 -4 -41q-2 -23 -8 -45q-4 -18 -10 -43q-6 -27 -17 -54q-6 -16 -10 -28v-80q0 -4 2 -16q2 -10 6 -19q6 -10 13 -18 q2 -2 4 -2q4 -2 16 -4q16 -4 27 -2q18 0 41 2q14 0 30 4q20 6 29 8q8 4 19 10q12 6 29.5 17.5t27.5 21.5q6 4 10 10q10 14 21 29q8 12 12 20q6 12 10 23q6 12 10 27q4 8 6 20q4 12 5 25q2 12 4 32t2 39q2 23 6 45v23v39v33q-2 20 -4 36t-4 29q-2 16 -6 29q-2 14 -5 26 q-2 8 -8 21q-8 23 -12 39q-2 8 -10 24q-8 14 -21 31q-12 18 -26 33q-20 20 -33 37q-16 18 -31 43q-14 20 -24 39q-10 16 -21 30q-8 12 -24 29q-16 14 -25 20q-14 8 -27 15q-12 6 -22 10q-14 6 -31 10q-16 6 -35 11q-16 4 -36.5 8t-39.5 8q-14 4 -28 4q-16 2 -39 4h-43 t-40 -2t-34 -4q-18 -2 -35 -6q-18 -4 -30.5 -6t-30.5 -6t-35 -11q-18 -6 -39 -14q-12 -4 -18 -8q-14 -10 -29 -19q-14 -8 -25 -16q-10 -10 -24 -23l-33 -28q-14 -12 -26 -25q-12 -12 -23 -24q-10 -8 -18 -21q-10 -14 -21 -35q-14 -20 -25 -41q-12 -20 -20 -37 q-10 -14 -18 -30q-8 -12 -17 -29q-6 -12 -14 -35t-14 -45q-6 -20 -9 -35q-2 -23 -6 -39q-2 -12 -6 -43q-2 -33 -4 -57q-2 -25 -2 -45q0 -25 -2 -43v-47v-55q0 -16 2 -47q2 -33 3 -48.5t1 -35.5q2 -18 2 -35q2 -18 4 -31q2 -6 8 -18.5t19 -26.5q16 -16 26 -25q14 -10 37 -28 q20 -16 43 -33q18 -12 29 -18q16 -8 31.5 -14.5t29.5 -12.5q8 -4 17 -6q12 -4 24 -6q14 -4 31 -9q10 -2 25 -6q18 -4 47 -12q27 -8 47 -12q18 -6 53 -13q37 -8 82 -18q41 -8 76 -14q33 -4 69 -6q39 -2 68 -3h57q31 0 52.5 -21.5t21.5 -51t-21.5 -52t-52.5 -22.5h-57 q-31 0 -74 2q-45 2 -86 8q-39 6 -84 17q-43 10 -80 16q-39 8 -63 14q-20 6 -47 15q-27 6 -41 10q-18 4 -33 8q-10 4 -22 6q-14 2 -31 6q-16 6 -35 13q-16 8 -33 14q-18 8 -37 18q-23 10 -51 33q-23 16 -45 35q-20 16 -35 25q-18 14 -45 41q-27 31 -43 62.5t-22 57.5 q-2 20 -4 43q-2 20 -4 43q0 18 -3 33q0 16 -2 49q-2 35 -2 56zM608 381q0 -8 2 -19q2 -18 4 -38q2 -14 6.5 -33t8.5 -30t8 -23.5t10 -20.5q6 -10 19 -27q10 -12 22 -22q8 -8 17 -10q4 -2 8 -2q18 4 28 6q10 4 21.5 7t32.5 13q20 8 39 19q14 6 22 14t25 29q18 23 26 37 q6 10 11 20l8 16v29q2 31 8 57q4 20 10 37q4 14 6 25q2 10 2 31q0 25 2 43q0 18 4 47q2 23 3 32q0 14 2 33v31q0 21 6 41q-12 4 -23 6q-16 2 -43 2h-31q-23 -4 -30 -6q-12 -2 -33 -8q-16 -4 -31 -10q-20 -12 -47 -25q-20 -8 -37 -18q-10 -8 -20 -18.5t-15 -16.5 q-6 -12 -12 -25q-6 -12 -12 -29q-6 -16 -8 -26q-4 -10 -6 -25q-2 -16 -7 -41l-6 -30v-33v-39z" />
<glyph unicode="A" horiz-adv-x="1189" d="M102 51l2 19q0 29 11 59q6 20 14 47q10 31 18 53q6 16 15 43q8 37 18 58q6 14 13 37l18 55q6 23 10 37q4 20 10 47q8 25 15.5 52.5t15.5 58t14 51.5q6 23 17 47q8 20 16 43q8 25 15.5 43t21.5 51q6 18 12 37q8 25 17 39q4 12 10 28t11 32t12 36q8 23 16 43t16 43 q6 23 11 37q4 14 4 24q7 39 41 59q29 17 55 18q5 0 10 -1q49 -8 78 -49q12 -18 22.5 -36.5t23.5 -49.5t24 -65q12 -33 18 -58q6 -23 23 -80q16 -57 34 -100q16 -49 23.5 -67.5t17.5 -45.5q8 -29 17 -53q8 -23 18 -45q12 -29 19 -47q4 -16 12 -41q10 -29 18 -59q6 -23 13 -43 q10 -27 14 -46q4 -12 10 -32t15 -39q10 -23 14 -35q4 -10 12 -25q8 -14 17 -28q12 -18 20 -32.5t18 -35.5q10 -16 19 -33q8 -16 16 -34l6 -17q12 -29 0 -56.5t-39.5 -39.5t-56.5 0t-39 41l-8 14q-4 14 -10 25q-8 14 -17 33q-10 16 -16 28.5t-18 28.5q-12 20 -21.5 38.5 t-17.5 35.5q-6 12 -15 34l-20 50q-8 27 -12 43q-2 12 -11 32q-10 27 -16 58q-6 25 -14 45q-8 27 -15 43q-2 6 -4 14q-12 -4 -24 -4h-117h-51q-16 2 -35 2h-49q-35 0 -58 4q-4 0 -10 2v-2q-8 -27 -14 -51.5t-10 -40.5q-4 -20 -15 -49l-16 -57q-10 -31 -19 -52q-6 -12 -12 -37 q-10 -33 -18 -55l-15 -45q-8 -29 -16 -49q-2 -12 -4 -21v-20q-2 -29 -24.5 -49.5t-52.5 -19.5t-51.5 23.5t-19.5 53.5zM432 664h25h49q23 0 43 -2h43h88q-6 16 -10 30q-6 16 -25 64q-18 49 -37 112q-16 59 -22 82q-4 16 -15 47q-4 10 -8 21q0 -2 -2 -2q-6 -18 -12 -37 q-6 -20 -12.5 -38.5t-12.5 -35.5l-14 -35q-4 -12 -12 -30q-8 -25 -19 -52q-10 -23 -16 -39t-14 -42q-9 -20 -17 -43z" />
<glyph unicode="B" horiz-adv-x="1136" d="M104 1235q2 18 17 35v12q4 31 28.5 50.5t53.5 15.5q47 -4 61 -50q20 2 41 5q29 2 49 2h43q27 0 52 -2t45 -5q18 -4 34 -6q18 -4 42 -9t44 -9q23 -6 48 -12q20 -6 38 -13q23 -8 48 -18q25 -12 40 -23q23 -12 43 -32q20 -23 39 -56q12 -23 23 -43q14 -27 20 -53 q6 -18 11 -41q6 -29 6 -49v-33q-2 -20 -6 -41q-6 -27 -17 -47q-10 -25 -30 -47q-14 -16 -31 -33q-15 -14 -29 -26q8 -4 19 -13q23 -14 43 -35q12 -10 20 -18q20 -12 39 -35q16 -16 33 -37q18 -23 28.5 -40t18.5 -35q8 -20 12 -39q4 -23 4 -49q0 -18 2 -37q0 -31 -6 -64 q-6 -31 -14 -55q-10 -29 -31 -57q-16 -25 -31 -43q-12 -16 -24 -33q-16 -25 -41 -49q-31 -31 -55 -43q-18 -8 -35 -15q-20 -6 -39 -12q-16 -4 -35 -8q-25 -4 -53 -6h-56q-29 2 -41 2h-88q-10 0 -24 -2q-12 0 -41 -2t-45 -2h-29q-25 -2 -49 2q-20 4 -37 8q-23 -27 -55 -27 q-9 0 -19 2q-29 6 -45 32t-10 54l2 15q2 4 2 16v72q0 31 2 53q4 18 6 29v22q0 16 -2 37q-2 25 -2 45v41q0 25 2 45v45t-2 55q-2 33 -2 54q0 20 4 51q2 25 4 45q2 18 0 45q-2 35 -2 67v50q0 16 -2 43t-2 47q-2 18 -6 43q-4 31 -6 47q0 14 -2 45q0 20 -4 37q-6 31 -6 51v27 q-18 27 -13 57zM266 1147q0 -8 2 -17q6 -31 6 -63q2 -27 2 -39q2 -12 5 -37q4 -29 6 -51q2 -20 4 -49q2 -31 2 -53v-50v-34q16 -2 39 -2h90q14 0 29 2q20 2 51 2q10 2 18 2q18 8 37 8l18 -2h15q27 4 35 6t20 8q16 8 39 19q20 10 35 20q12 10 22 21q12 12 25 24q6 8 8 12 q2 6 4 17q4 12 4 20v23q0 4 -2 16q-4 20 -8 37q-4 10 -10 23q-10 18 -23 41q-6 14 -12 20q-8 8 -14 10q-12 8 -29 17q-14 6 -27 10q-18 6 -39 12q-20 6 -38 10t-40 8.5t-36 8.5q-16 2 -33 4q-16 4 -35 4q-18 2 -39 2h-43q-14 0 -39 -2q-18 0 -34 -4q-8 -2 -15 -4zM285 137h2 l14 -4q12 -4 23 -6q8 -2 16 0h37q12 0 35 2q27 2 43 2q16 2 32 2h88q14 0 46 -2h45q16 2 28 4q16 4 31 6q10 4 20 9q12 4 25 8l14 14q16 16 25 29q14 20 29 39q12 16 26 36q10 12 13 23q4 12 8 33q4 16 4 28q-2 23 -2 46q0 12 -2 18q0 6 -4 14q-4 10 -9 19q-4 6 -14 18 q-14 16 -27 31q-10 10 -18 16q-16 12 -37 31q-10 10 -24 20q-10 8 -17 11q-10 4 -24 6q-16 6 -27 8q-18 4 -35 8q-10 4 -24 6q-16 2 -27 2h-2q-25 -2 -41 -4q-18 0 -49 -2q-25 0 -41 -2q-20 -2 -43 -2h-90q-23 0 -43 2q-2 -16 -2 -26q0 -16 2 -45q2 -31 2 -64v-53 q-2 -16 -2 -37v-41q0 -14 2 -33q2 -27 2 -49q0 -25 -2 -43q-2 -14 -6 -33v-28v-17z" />
<glyph unicode="C" horiz-adv-x="1212" d="M102 713q0 20 1 49t1 45q2 20 9 53q6 27 14 55q8 33 16 52q6 18 17 41q10 18 16 32q8 18 26.5 46t42 53.5t48.5 46.5q23 16 47 33q27 16 53 30q27 14 41 23q20 10 43 18t55 19q31 8 50.5 11t44.5 5t53 2q25 -2 49 -4q25 -4 47 -10q20 -4 35 -8q18 -6 47 -19 q29 -12 57 -31q29 -18 52 -41q18 -20 37 -45q16 -23 26 -36q10 -18 21 -39q6 -14 14 -33q8 -18 14 -37q8 -20 13 -37q6 -14 10 -29q8 -23 8 -45q2 -29 -8 -55l-4 -14q-10 -29 -38 -42.5t-56.5 -3t-42 38t-3.5 56.5l5 12q0 4 -2 8q-4 14 -9 29q-4 14 -10 29q-6 16 -14 33 q-6 18 -13 32q-4 8 -10 17l-20 30q-10 14 -23 27q-10 10 -26 20q-18 12 -37 21q-20 8 -29 10q-12 4 -29 8q-14 4 -32 7q-16 2 -35 4q-18 0 -35 -2q-18 0 -30.5 -3.5t-37.5 -9.5t-39 -12q-16 -6 -28 -12q-16 -8 -41 -23q-25 -12 -43 -24q-20 -12 -35 -25q-14 -10 -30.5 -27.5 t-28.5 -35.5q-10 -18 -17 -27q-6 -16 -16 -35q-8 -16 -12 -29q-4 -12 -11 -36q-8 -27 -12 -52q-4 -20 -6 -28q0 -14 -1 -42t-1 -44q0 -12 2 -23q2 -14 4 -37q2 -18 6 -37q6 -23 8 -43l4 -36q2 -18 7 -35q6 -20 12 -42t15 -49.5t16 -43.5q6 -14 10 -27q8 -14 16 -35 q6 -14 12 -26q8 -16 15 -33q2 -6 10 -19q6 -10 16 -18q12 -10 21 -16q14 -8 29 -17q12 -6 22 -10t31 -8q16 -4 22 -4q10 0 35 2q31 4 51 4q8 0 27 2q20 4 33 6l26 6q12 2 29 6q20 4 41 10q14 4 29 11q16 6 24 10q12 8 27 16q8 4 17.5 13.5t15.5 19.5t12 21q6 16 14 30l15 29 q4 8 6 14l2 15q8 29 34.5 44t56.5 8t45 -34t7 -57l-4 -13q-6 -23 -16 -45l-15 -26q-6 -12 -12 -29q-10 -18 -22 -39q-14 -23 -35 -41q-20 -20 -43 -35q-16 -10 -31 -18q-16 -10 -43 -21q-25 -10 -51 -16q-18 -4 -37 -10q-20 -4 -35 -8l-26 -4q-14 -4 -41 -9q-29 -4 -50 -4 q-12 0 -36 -4q-33 -2 -50 -2q-23 0 -55 8q-31 6 -49 15q-20 6 -43 18q-16 10 -33 19q-20 12 -41 32q-25 20 -43 47q-16 25 -24 45q-4 12 -11 23q-6 14 -16 35q-6 16 -12 31q-8 16 -17 36l-16 48t-16.5 54.5t-12.5 47.5q-8 27 -10 53l-6 37q0 12 -4 29q-6 25 -8 51 q-4 23 -7 37q-2 18 -2 41z" />
<glyph unicode="D" horiz-adv-x="1157" d="M104 61l5 15q2 4 2 12q2 14 2 27q0 18 2 47l6 47q2 14 0 33q-4 31 -4 47v37q0 23 2 51q0 31 2 51q2 8 2 12q-2 14 -4 33q-4 20 -4 47t4 47q0 16 2 29q0 14 2 33q2 12 0 33q-2 31 -2 49q0 12 -2 37q-2 31 0 57q2 16 2 41.5t-2 48.5q-2 27 -2 43t2 33q0 14 2 35q0 23 2 45 q2 16 2 28q-2 23 -2 41v31v31q-2 23 -2 39q0 57 53 86q18 8 42 17t48 15q23 6 39 8.5t45 4.5h47h43q25 -2 58 -6q29 -6 53 -11q27 -6 45 -12q16 -4 31 -10q20 -6 43 -19q18 -10 38.5 -21t36.5 -22q14 -8 33 -20q23 -12 43 -29q23 -16 47 -45q18 -23 39 -49q20 -25 33 -41 q12 -16 27 -37q20 -27 28 -45t24.5 -61t20.5 -70q6 -25 9.5 -42t5.5 -36q2 -20 2 -41v-45q0 -33 -2 -53q-2 -18 -6 -37q-2 -16 -5 -35q-4 -18 -8 -39q-2 -16 -6 -32q-4 -27 -18 -66q-12 -35 -21 -53q-8 -20 -22 -51q-14 -29 -22.5 -46.5t-20.5 -41.5q-12 -27 -23 -43 q-8 -12 -16 -33q-12 -27 -25 -47q-16 -31 -47 -58q-20 -18 -41.5 -33.5t-40.5 -27.5q-16 -12 -33 -23q-20 -12 -45 -22q-16 -6 -37 -15q-27 -10 -49 -16q-25 -4 -47 -4h-125q-18 0 -41 2t-43 8q-12 2 -22 4q-14 0 -27 2q-27 4 -51 19l-14 8q-9 4 -17 12q-14 -2 -24 2 q-29 8 -44.5 35t-7.5 55zM258 90l8 -4l15 -8h2q14 -2 26 -4q18 -2 37 -8q10 -2 23 -5h26h125q6 0 15 2q12 2 26 9q20 8 39 16q10 4 21 8q14 10 28 21q16 10 33.5 22.5t34.5 28.5q10 8 14 14q8 18 19 39q14 29 24 47q6 10 17 31q10 25 19 42t24 48q12 27 20 43q6 16 18 47 q8 25 11 37q4 20 8 41q2 16 6 31q2 18 4 37q4 14 6 28v37v45v25q-2 14 -4 26q-4 14 -8 35q-4 18 -16.5 53t-16.5 46q-4 6 -16 22q-14 20 -27 35q-12 18 -31 41q-16 23 -34 43q-14 16 -25 24q-14 10 -27 19q-18 10 -34 20q-16 8 -36 19.5t-36 21.5q-10 6 -18 9q-12 4 -27 8 q-12 4 -31 8q-23 4 -49 8q-23 4 -39 6h-37h-41q-20 -2 -29.5 -3t-25.5 -5q-12 -2 -29 -8v-37v-31q0 -16 2 -33q0 -25 -2 -49q-2 -20 -2 -39q-2 -23 -2 -38q-2 -10 -2 -21.5t2 -32.5q2 -29 2 -59q0 -33 -2 -57q-2 -14 0 -33q2 -31 2 -47q0 -12 2 -39q2 -35 0 -60 q-2 -14 -2 -26q-2 -14 -4 -33q-2 -14 -2 -33q0 -18 2 -31q2 -14 4 -26q2 -23 0 -49q-2 -16 -2 -41q-2 -27 -2 -47v-37q0 -8 4 -31q1 -12 1 -23q0 -23 -3 -45l-4 -47q-2 -18 -2 -28q0 -13 -2 -25z" />
<glyph unicode="E" horiz-adv-x="1087" d="M102 18v29v41q2 23 2 49q2 29 5 47q2 16 6 43q4 23 6 45q2 25 4 39q2 12 6 41q2 29 4 49q2 18 4 35q2 12 4 33q2 18 4 39q2 18 3 47v150v36q-2 20 -5 39q-4 27 -6 60q-2 27 -6 53q-4 27 -8 57q-2 27 -6 47q-2 20 -2 41q0 16 -2 27q-2 18 -2 41v47q0 33 2 57q6 41 35 72 q37 41 86 41q16 0 33.5 -2t29.5 -2q18 0 35 -4q14 0 26 -2q16 0 43 -4q12 -2 15 -2h184q16 0 35 2q20 0 47 2q29 2 45 2h68h30q14 2 23 2l12 4q29 6 55.5 -11.5t32.5 -46t-10 -55t-47 -32.5l-12 -3q-20 -4 -45 -6h-39h-68q-10 0 -35 -2q-29 -2 -50 -3t-42 -1h-184 q-18 0 -38 3t-28 3q-16 2 -35 4q-14 2 -26 2q-16 2 -31 5v-23v-47v-21q2 -16 4 -38q0 -16 2 -33t6 -41q4 -31 7 -62q4 -31 6 -61q2 -27 6 -45q4 -29 6 -60v-18h8h109h37q14 -2 34 -2h109h37q14 -2 24 -2h13q31 0 52 -21.5t21 -51t-21.5 -52.5t-51.5 -23h-13q-16 0 -32 3h-29 h-109q-23 0 -43 2h-28h-109h-8v-25q0 -35 -2 -59q-2 -23 -4 -45q-4 -23 -6 -35t-4 -31q0 -18 -3.5 -47t-5.5 -45t-6 -37q-2 -27 -6 -51q-4 -25 -6 -39q0 -10 -2 -35q0 -25 -2 -49v-21q6 0 12 2q18 0 31 3q12 2 29.5 5t50.5 7q31 4 51 8q27 6 45 8q14 2 33 4q18 4 51 8 q35 4 78 5h65q29 2 52 2h38q23 2 39 2h86q31 0 52.5 -22.5t21.5 -52.5t-21.5 -51.5t-52.5 -21.5h-86q-14 0 -32 -2h-45q-18 0 -48 -2h-69q-33 0 -60 -4q-31 -4 -49 -6t-35 -4q-12 -2 -34 -6q-25 -6 -58 -11q-33 -4 -51 -8q-16 -2 -31 -4q-16 -2 -39 -4t-47 -2q-41 0 -71 18 q-53 29 -54 86z" />
<glyph unicode="F" horiz-adv-x="1093" d="M102 -29q0 20 4 43q2 12 3 23v74v39q2 25 2 40q2 16 2 33q0 6 1 17.5t1 17.5q2 16 2 43q2 20 2 33q0 16 1 36.5t3 41.5q2 16 2 32q0 23 1 43.5t3 42.5q2 16 2 37v54q-6 14 -6 30q0 14 6 27v8q2 18 2 37q2 18 4 41v39v162v36q0 23 -2 43v35v45q2 27 2 45q0 25 2 45 q4 33 32 56.5t58 23.5q20 0 41 -4q12 0 31 -2q16 -2 35 -2h151q20 0 41 2q25 4 47 6q25 2 41 2h33h25q16 2 55 7q39 2 59 2q14 0 25 2q14 0 43 2q33 2 49 2h15q31 0 52 -21.5t21 -52.5t-21.5 -52.5t-51.5 -21.5h-15q-12 0 -39 -2t-43 -3t-35 -1q-14 0 -49 -2q-33 -2 -47 -4 q-18 -2 -43 -2h-33q-8 0 -26 -2q-23 -2 -45 -4q-29 -4 -58 -4h-151q-27 0 -49 2h-4v-21v-41v-28q2 -18 2 -45v-41v-162q0 -33 -2 -55q0 -14 -2 -29h18q25 0 45 -4q14 -2 33.5 -6t37 -6.5t38.5 -4.5q14 -4 24 -4h74q31 0 52.5 -21.5t21.5 -51t-21.5 -52t-52.5 -22.5h-74 q-18 0 -45 4q-23 4 -41 7t-39.5 6t-36.5 7h-16h-20v-4q0 -27 -3 -51q-2 -18 -3 -35.5t-1 -36.5q0 -23 -2 -45q-2 -18 -3 -35.5t-1 -29.5q0 -16 -2 -45q-2 -23 -2 -39q0 -6 -1 -17.5t-1 -17.5q0 -2 -1 -14.5t-1 -18.5q0 -16 -2 -39v-32v-74q0 -20 -4 -45q-2 -12 -2 -21v-14 q0 -31 -21.5 -52.5t-52.5 -21.5t-52.5 21.5t-21.5 52.5v14z" />
<glyph unicode="G" horiz-adv-x="1179" d="M102 608v45q0 18 2 47q2 31 5 56q4 27 6 41q2 16 6 43q6 31 12 51t21 51q12 25 20 39q10 20 27 41q14 20 28 39q12 16 29 37q18 25 29 39q14 18 35 37q20 20 43.5 34.5t54.5 26.5q25 10 41 16q18 6 37 11q18 4 43 8t50 6t42 2h39q29 0 53 -4q25 -2 45 -10q12 -4 31 -9 q23 -6 41 -12q23 -6 45 -16q27 -10 53 -33q31 -25 47 -53q8 -16 17 -31q8 -18 16 -39q8 -16 14 -33q10 -27 17 -55q4 -29 4 -51l-2 -14q-2 -31 -24.5 -51.5t-53.5 -18.5t-51.5 25.5t-18.5 52.5l2 14q0 6 -2 18t-6 23q-8 18 -16 37q-4 12 -11 22q-6 12 -16 31q-2 4 -8 8 q-10 8 -19 13q-14 6 -28 10q-18 6 -39 10q-23 6 -39 12q-8 2 -21 4q-12 2 -30 2h-39q-10 0 -29.5 -1t-38.5 -5q-20 -4 -33 -6q-14 -4 -24 -6q-12 -4 -33 -14q-18 -6 -30.5 -13.5t-22.5 -17.5q-12 -12 -19 -20q-10 -12 -26 -35q-18 -27 -33 -45q-14 -14 -25 -31 q-10 -14 -16 -23q-6 -14 -16 -36q-10 -16 -13 -27q-4 -12 -8 -35q-4 -27 -6 -39t-4 -37q-2 -23 -4 -49q-2 -25 -2 -37v-45q0 -25 2 -35q0 -14 4 -30q2 -16 6 -41q2 -18 10 -43q8 -27 15 -45q8 -18 22 -47q16 -29 29 -50q16 -25 27 -47q10 -18 20 -32q4 -8 12 -17 q12 -10 25 -18q16 -10 33 -19q16 -8 29.5 -13t25.5 -9q8 -2 14 -2h15q16 4 39 6l36 4q18 4 37 8q20 4 35 6q12 4 25 9q12 4 34 12q16 6 33 12q18 10 35 19q14 8 23 14q6 4 14 16q14 23 29 43q8 14 16 29q6 12 10 29q8 20 13 36l8 35q4 10 4 23q2 10 2 14q-2 6 -2 14 q-16 0 -37 3q-27 4 -43 6q-12 2 -35 2h-43q-14 0 -31 -2l-22 -4q-31 -4 -55.5 13t-29.5 47t12.5 55.5t47.5 29.5l23 4q29 4 55 4h49q29 -2 47 -4q14 -2 39 -4q23 -2 33 -2q18 0 45 -4q29 -4 57.5 -26.5t30.5 -61.5q0 -14 2 -27q0 -12 2 -22q2 -23 0 -50q-2 -25 -8 -49 q-4 -14 -10 -32q-4 -18 -12 -41q-8 -29 -21 -52q-10 -25 -27 -47q-14 -18 -26 -39q-20 -33 -45 -51q-18 -14 -43 -29q-20 -10 -43 -22q-23 -10 -49 -18q-20 -8 -35 -13q-18 -6 -35 -10q-16 -4 -39 -10q-25 -4 -49 -8q-23 -2 -43 -5q-14 -2 -23 -4q-20 -4 -45 -4q-27 0 -53 6 q-20 6 -40.5 14.5t-43.5 20.5q-25 12 -45 27q-25 14 -45 35q-20 18 -37 43q-12 18 -24 41q-10 20 -25 43q-14 25 -31 57q-18 33 -28 57q-10 27 -21 62q-10 33 -14 61q-4 23 -6 39q-4 18 -7 37q-2 20 -2 53z" />
<glyph unicode="H" horiz-adv-x="1150" d="M102 43v23v47q2 23 2 37q2 14 2 32q0 25 3 51q2 23 2 41q2 20 4 56q2 35 4 57q2 20 4 53q0 35 2 73t4 62q2 20 2 52q2 33 2 53q2 23 4 53q4 31 4 58q2 27 2 45q0 23 2 57q2 33 5 53q0 20 2 49v54q-2 33 -2 55q0 23 2 57v18.5v12.5q-2 14 -5 31q-2 31 5 61l4 19 q4 29 29.5 46t55 11t47 -31.5t11.5 -54.5l-4 -19v-18q2 -20 2 -35q2 -16 0 -49v-49.5v-50.5q1 -16 1 -32.5t-1 -31.5q0 -27 -1 -49t-3 -55q-2 -31 -2 -49q0 -25 -2 -56q0 -18 -2 -37q14 2 32 7q23 4 39 6t48 4q31 2 53 2q20 2 33 2q18 2 43 4h47h94q29 0 47 2h41q25 0 53 -2 q27 -4 47 -6l31 -4q0 27 -2 45q0 27 -2 74q0 47 2 88q1 18 1 34t-1 31v57.5v55.5q2 29 2 53q0 20 -2 41l-4 23q-2 31 16.5 55t49 27.5t54 -16t27.5 -48.5l2 -25q4 -29 4 -57q0 -27 -2 -59v-49.5v-53.5q1 -18 1 -38t-1 -40q-2 -35 -2 -77q2 -43 2 -72q1 -14 1 -34.5t-1 -47.5 q0 -47 2 -84q4 -41 5 -68q2 -23 2 -45v-59v-119q0 -31 -2 -57v-43v-105q0 -23 -5 -43q0 -10 -1 -22t-1 -23v-14q0 -29 -21.5 -51.5t-52 -22.5t-52 22.5t-21.5 51.5v14q0 16 1 32.5t3 33.5q2 8 2 22v105q0 27 2 55v45v119v53q0 25 -2 47q0 14 -2 39l-53 8q-18 2 -43 5 q-20 2 -37 2h-35q-20 -2 -53 -2h-94h-41q-18 0 -31 -3q-18 -2 -45 -4q-20 0 -49 -2q-27 -2 -39 -4t-31 -4q-20 -4 -43 -8q-14 -4 -24 -4q-2 -16 -3 -29q-2 -23 -4 -58.5t-2 -68.5q-2 -35 -4 -61q-2 -23 -4 -56.5t-4 -52.5q0 -20 -2 -45q-2 -20 -2 -39q0 -25 -2 -41 q0 -14 -2 -35v-40v-23q0 -31 -21.5 -52.5t-52.5 -21.5t-52.5 21.5t-21.5 52.5z" />
<glyph unicode="I" horiz-adv-x="407" d="M104 1245q-6 29 11.5 54.5t47.5 30.5t55.5 -12.5t29.5 -47.5l4 -15q2 -18 6 -41q2 -20 6 -43q4 -27 8 -49q6 -31 9 -71q2 -37 5 -61.5t7 -57.5q6 -39 6 -66v-41q0 -18 2 -45q2 -29 4 -45q2 -23 2 -51v-39q0 -18 -4 -39q0 -14 -2 -39q0 -27 -1 -44t-3 -40q-2 -27 -6 -49 q-4 -16 -6 -37q-4 -25 -9 -49q-2 -20 -4 -39q-2 -23 -4 -45l-4 -49q-2 -25 -3 -52.5t-3 -49.5v-35v-12q0 -31 -22.5 -52.5t-52 -21.5t-51 21.5t-21.5 52.5v12v39q2 25 4 55q2 31 2 55l4 49q2 25 4 46q2 25 6 49q4 23 6 45q4 25 8 49q2 12 5 31q2 23 3 37t1 40q2 29 4 50 q2 12 2 22v39q0 20 -2 37q-2 18 -4 49q-2 33 -2 55v41q0 16 -5 45q-4 35 -7 61.5t-7 65.5q-2 35 -6 58q-4 27 -8 52.5t-8 45.5q-2 20 -5 35z" />
<glyph unicode="J" horiz-adv-x="987" d="M102 322q-2 31 18.5 54t50.5 25t53.5 -18.5t25.5 -50.5v-15q2 -12 4 -26q2 -18 4 -39q2 -14 4 -21q2 -10 8 -20q4 -6 9 -10q10 -10 22 -21q18 -12 35 -24q8 -6 10 -6q14 -4 31 -9q18 -4 39.5 -9t40.5 -9q10 -2 18 -2q12 0 27 2q14 0 26 2q12 0 23 2q8 0 22 4q12 4 23 8 q10 6 20 15q10 8 22.5 19t25.5 26q16 18 34 39q8 8 13 18q6 12 10 25q4 14 6 32q2 23 4 39q2 12 2 39q2 31 2 62v49q0 23 2 39v28v256v31q-2 25 -3 41t-2 42t-3 52q0 27 -2 45q-2 20 -4 48t-2 46q-2 16 -6 46q-4 25 -6 34l-9 19q-10 29 3.5 56.5t41 37.5t56 -3t39.5 -40 l6 -18q10 -25 14 -66q6 -35 8 -57q0 -18 2 -44t4 -46q2 -23 3 -52q2 -27 2 -51q2 -25 2 -40t2 -38q2 -25 2 -43v-256v-39q-2 -12 -2 -28v-53q-2 -33 -2 -64t-4 -51q-2 -16 -5 -39q-4 -27 -8 -49q-8 -27 -20 -53q-14 -31 -39 -58q-16 -16 -29 -33q-18 -20 -36.5 -37.5 t-34.5 -29.5q-20 -14 -41 -25q-23 -12 -50 -20q-25 -6 -43 -10q-16 -2 -30 -3q-14 -2 -31 -2q-18 -2 -35 -2q-25 0 -49 7q-18 4 -41 8t-43 10q-20 4 -39 10q-27 8 -53 29q-16 12 -35 24q-23 16 -41 35q-20 20 -35 47q-10 20 -16 41q-8 20 -12 49q-2 23 -5 41q-2 18 -2 33z " />
<glyph unicode="K" horiz-adv-x="1087" d="M102 129v47q2 18 4 45q4 25 5 53q2 29 2 48q0 23 2 57q0 39 8 76q4 27 4 39v53q2 33 2 55q2 23 4 60q2 31 2 63v315q0 27 -2 52q-4 31 -8 75q-6 47 -6 78l-2 29q0 31 20.5 53.5t51 23.5t53 -20.5t22.5 -50.5l2 -29q0 -25 4 -67q4 -45 9 -74q4 -35 4 -70v-315v-20 q10 4 24 8q10 4 19 8q8 6 18 8q16 8 27 16q12 8 23.5 16.5t21.5 18.5t33 37q25 29 38 47q14 20 23 33q10 16 29 39q16 20 28.5 38.5t20.5 30t18 29.5q12 20 23 39q8 14 16 27q10 20 27 43q12 12 28 35t31 43q16 25 33 43q14 14 31 30l16 17q20 20 51 20t52.5 -21.5t21.5 -52 t-23 -51.5l-14 -16l-27 -27q-8 -10 -20 -26q-14 -23 -35 -47q-18 -25 -31 -41q-8 -10 -12 -17q-8 -16 -20 -35q-8 -16 -21 -34q-12 -23 -21.5 -37.5t-24.5 -36t-32 -43.5q-14 -18 -22 -31q-10 -14 -27 -37q-16 -23 -43.5 -56.5t-46.5 -49.5q-12 -10 -22 -19l6 -6 q14 -16 35 -39q23 -25 36 -39t31 -39q20 -25 43 -53q18 -27 33 -43q18 -20 31 -35q12 -16 24 -34q6 -12 17 -23q12 -16 30 -35q18 -25 35 -45q10 -14 23 -29q18 -20 32 -36q4 -8 19 -21q16 -18 33 -37q12 -12 22 -20l14 -13q25 -18 28 -48.5t-15.5 -54t-49 -27t-55.5 15.5 l-14 12q-16 14 -37 35q-14 16 -31 33q-23 20 -34 39q-6 8 -19 22q-20 20 -37 45q-10 14 -26 33q-18 20 -31 35q-14 18 -29 39q-8 12 -16 22q-8 12 -25 29q-18 23 -41 53q-20 27 -37 47q-18 23 -30 37q-10 12 -29 31q-27 29 -41 45q-10 12 -24 29q-2 -2 -7 -3 q-23 -10 -34 -14q-14 -6 -37 -14l-13 -4v-49q0 -27 -8 -64q-4 -27 -4 -55q-2 -33 -2 -53q0 -23 -2 -56q-2 -30 -4 -55q-2 -31 -4 -43v-33q2 -27 2 -45q2 -20 0 -47v-25q-2 -31 -24.5 -51t-52.5 -19t-51.5 23.5t-19.5 53.5v24q2 20 0 35q0 18 -2 45z" />
<glyph unicode="L" horiz-adv-x="956" d="M102 164v149q0 18 2 43q2 23 5 50q4 23 6 49q2 25 4 39v26q-2 18 -2 35v33v20q-2 18 -2 47v355q0 23 -2 49q0 25 -2 41l-5 45q-2 23 -2 39q-2 18 -2 39q0 33 13 63l8 21q10 27 38.5 39t56.5 0.5t40 -39t2 -56.5l-8 -18q-2 -6 -2 -10v-29q2 -14 4 -39q2 -23 4 -41 q2 -20 2 -49q2 -29 2 -55v-355v-24q2 -18 2 -43v-33q0 -12 2 -27v-43q-2 -18 -4 -47q-4 -27 -6 -51q-2 -23 -4 -43q-2 -18 -2 -31v-149v-19h6q25 -4 47 -4q33 0 57 -2q16 -4 52 -8q37 -4 51 -6q10 -2 26 -4q14 -2 29 -2h51q31 -2 58 -2q33 0 53 -2q12 -2 31 -2q25 -4 43 -7 q8 -2 14 -2h14q29 0 51.5 -21.5t22.5 -52t-22.5 -52t-51.5 -21.5h-14q-20 0 -41 4q-12 2 -29 4q-23 2 -39 4h-32q-29 0 -62 2h-47q-23 0 -43 2t-35 4q-12 2 -47 7.5t-57 9.5h-33q-31 0 -63 4q-39 4 -64 14q-47 20 -63 66q-6 23 -9 45q-2 20 -2 41z" />
<glyph unicode="M" horiz-adv-x="1425" d="M107.5 61.5q-11.5 28.5 1.5 55.5l14 35q12 27 20 63q10 41 16.5 78t14.5 100q8 64 14 103q8 53 13 73q2 25 8 66t14 98q8 59 15.5 96t15.5 82q10 47 20 88q10 39 17 58q4 16 6 39q4 27 6 43q6 35 24.5 49t40 10t42 -13t34.5 -20l15 -10q16 -33 28 -68q8 -29 17 -47 q8 -23 22 -82q12 -49 35 -112q23 -66 41 -123q18 -55 27 -86q8 -31 22 -86q12 -49 25 -92q10 35 16 61q8 31 19.5 79t23.5 91q12 39 21 82q10 47 20 78q8 31 23 65q12 35 24 72q14 35 25 62q8 29 14 43l15 43q8 25 14 45q6 25 12 43t15 37q14 39 50 41h7q31 -1 59 -17 q30 -18 35 -35q8 -27 12 -53q4 -20 6 -45q4 -20 15 -68q12 -47 24 -102q16 -59 27 -119l16 -88q8 -35 13 -51q4 -18 10 -53t16 -84q8 -49 17 -90q8 -41 16 -80t16 -74q8 -31 27 -80q20 -53 29 -72l6 -18q12 -29 0 -57.5t-40 -40t-56.5 1t-40.5 41.5l-6 18q-8 20 -29 74 q-23 59 -33 98q-8 37 -16 78q-10 41 -19 82q-8 43 -16 92t-16 82q-6 33 -9 49q-4 18 -12 53t-18 95q-10 53 -23 106q-4 16 -8 31q-8 -20 -14 -41q-14 -35 -27 -68q-10 -33 -18 -57q-8 -27 -17 -68q-10 -47 -22 -92q-12 -41 -25 -86q-10 -43 -18 -78q-8 -31 -19 -73 q-12 -45 -29 -86q-14 -41 -22 -58q-6 -14 -18 -47q-2 -2 -5.5 -7t-15.5 -18.5t-23.5 -22.5t-26.5 -16t-29.5 -7t-29 12t-24.5 39q-8 16 -14 37q-4 14 -11 41q-6 29 -12 57q-6 25 -18 72q-14 49 -29 106q-14 53 -23 82q-8 27 -26 82t-39 121q-14 39 -25 73q-8 -39 -14 -69 q-6 -35 -14 -90q-8 -57 -15 -99q-6 -41 -8 -61q-2 -25 -12 -80q-6 -39 -15 -100q-8 -63 -15 -104.5t-17 -86.5q-10 -49 -29 -90l-14 -35q-12 -27 -41 -38t-56.5 1.5t-39 41z" />
<glyph unicode="N" horiz-adv-x="1114" d="M104 82l5 14q2 10 8 39q6 33 10 53q2 20 6 56q6 35 8 61q4 29 9 70q6 35 10 74q6 39 8 63q2 27 10 66q6 37 10 61q4 29 11 68q6 41 11 68.5t12 67.5t16 77q6 33 10 61q2 33 4 49q2 14 4 29q4 35 20.5 51t38 14t42 -7t34.5 -13l15 -8q23 -27 53 -74q27 -45 43 -76 q14 -29 20 -42t21 -36q14 -27 37 -61q23 -37 38 -70q18 -33 37 -78q18 -41 33 -77q16 -35 25 -56q8 -18 17 -41.5t20 -44.5q10 -20 20 -41q8 -18 18 -34q0 -4 5 -9q-1 24 -1 51.5t1 59.5v102v56q0 20 2 59q2 37 4 88q4 51 10 98q4 41 6 68t5 64.5t7 72.5q6 35 13 68 q6 31 12 69q8 41 10 60q2 14 2 28v21q0 29 21.5 51.5t52.5 22.5t52.5 -22.5t21.5 -51.5v-21q0 -27 -4 -49q-2 -20 -9 -61q-8 -43 -14 -78q-6 -29 -10 -57q-4 -31 -8 -64q-2 -37 -4 -63q-2 -31 -9 -76q-6 -43 -8 -90t-4 -86q-2 -35 -2 -51v-56v-104q-1 -33 -1 -60t1 -49 q0 -47 -4 -100t-8 -92q-4 -43 -6 -62q-4 -23 -9 -39q-9 -31 -41 -42q-17 -6 -34 -6q-15 1 -30 5q-32 10 -42 28t-18 38q-4 14 -12.5 33.5t-16.5 36.5q-8 18 -19 47q-10 23 -21 49.5t-20 40.5q-10 18 -22 41q-10 20 -21 43q-12 25 -22 49q-10 25 -19 45q-8 20 -22 53 q-14 37 -33 78q-16 39 -31 66q-16 29 -36 63q-20 35 -37 62q-16 27 -25 43q-4 10 -14 28q-4 -25 -10 -49q-6 -39 -11.5 -65.5t-11.5 -65.5t-10 -66t-10 -65q-6 -37 -9 -59q-4 -25 -8 -64q-6 -39 -10 -78q-6 -37 -8 -61q-4 -29 -8 -68q-6 -37 -11 -59q-2 -23 -8 -53 q-6 -35 -10 -54l-4 -14q-8 -29 -35 -44t-56.5 -7t-45 34.5t-7.5 55.5z" />
<glyph unicode="O" horiz-adv-x="1243" d="M102 686v53q0 35 7 70q4 29 8 47q6 25 20 62q14 35 35 69q20 35 45 66q23 29 49 55q29 31 66 61q37 31 59.5 44.5t57.5 25.5q31 10 57 18q25 6 57 13q37 8 76 12q39 2 59 4q31 2 62 0t61.5 -9t50.5 -15q20 -6 56 -27q39 -23 61 -45q20 -20 35 -45q14 -22 20 -53 q8 -16 19 -33q12 -20 22 -43q8 -23 15 -41q6 -14 12 -41q6 -23 14 -49q8 -33 9 -70q2 -25 4 -55q4 -35 4 -55v-48q0 -35 -6 -75q-4 -39 -10.5 -67t-14.5 -62q-10 -37 -27 -74q-14 -37 -30.5 -67.5t-36.5 -61.5q-23 -35 -49 -64q-23 -27 -43 -47q-23 -25 -41 -37 q-16 -14 -45 -30q-27 -12 -52 -25q-25 -10 -47 -16q-25 -8 -59 -15q-37 -4 -63.5 -4t-69.5 6t-80 21q-35 14 -55 27q-18 10 -45 28t-50 37q-23 20 -40 47q-18 23 -31 43q-8 14 -21.5 39t-29.5 53q-18 33 -29 56q-8 20 -21 55q-14 41 -18 70q-4 20 -10 53t-10 71q-6 39 -7 68 zM250 686q0 -18 4 -49q4 -35 10 -66t8 -53q4 -16 15 -43q10 -33 18 -51q6 -14 19 -39q16 -27 30.5 -51.5t22.5 -40.5q6 -10 18 -27q10 -14 23 -24q14 -12 35 -27q20 -14 34 -22q12 -6 35 -17q23 -8 49 -12q31 -4 47.5 -4t40.5 4q25 2 39 8q14 4 33 10q18 8 39 21q16 8 25 14 q8 8 24 25q18 18 39 43q20 23 37 47q18 27 30.5 49t24.5 53t19 58q8 29 12 51q4 25 10 57q4 33 4 57v48q0 14 -4 43q-2 33 -4 63q0 18 -4 37q-6 25 -13 47.5t-12 36.5q-2 12 -8 26t-14 27q-2 2 -4 6q-27 18 -31 53q-4 12 -4 27q-6 8 -13 15.5t-30 19.5q-25 14 -35 18 t-30.5 8.5t-38.5 6.5q-20 2 -39 0q-8 0 -30 -2t-30 -2q-31 -2 -59 -9q-29 -6 -49 -12q-18 -4 -43 -14q-23 -8 -35 -15.5t-41 -29.5q-27 -23 -49 -47q-25 -25 -43 -50q-18 -20 -32.5 -45.5t-25.5 -50.5q-10 -25 -12 -37q-4 -16 -8 -41q-4 -23 -4 -45v-53z" />
<glyph unicode="P" horiz-adv-x="1136" d="M102 467q0 25 2 53q2 18 5 43q0 31 2 45l2 39q2 27 4 62t2 63v49v49q2 27 3 45.5t1 32.5q2 14 4 37q4 20 6 42t4 38t4 33q0 12 -4 39q-1 11 -1 21q0 39 18 69q29 45 75 51q8 2 23 4q18 6 45 12q25 6 43 9q20 4 59 4h47q20 0 39 -2q16 -2 43 -9q23 -4 41 -6t39 -6 q18 -2 39 -6q18 -2 35 -6q18 -2 47 -10q33 -10 57 -21q25 -8 49.5 -21.5t51.5 -31.5q29 -18 51 -41q18 -23 30.5 -39t24.5 -41q14 -25 23 -49q10 -25 14 -47q6 -25 6 -49q0 -16 -2 -41q0 -31 -8 -60q-10 -35 -41 -78q-29 -39 -49 -57q-16 -12 -35 -24q-16 -12 -31 -23 q-10 -6 -28 -18q-23 -14 -47 -25q-18 -6 -43 -14q-27 -12 -50 -17q-16 -4 -30 -10q-23 -8 -47 -10q-18 -4 -39 -6q-27 -4 -51 -4h-33h-29q-18 -2 -37 -3h-37q-23 0 -47 3h-33q-16 0 -34 2h-31q0 -18 -2 -35q-2 -16 -2 -29q0 -10 2 -41v-37v-119q0 -10 2 -24q2 -23 2 -47v-62 q0 -12 2 -30q0 -18 2 -33q0 -14 2 -31v-39v-47q0 -31 -21.5 -52.5t-52 -21.5t-52 21.5t-21.5 52.5v47v31q-2 16 -2 29q-2 16 -2 36q-2 20 -2 37v62v33q-4 23 -5 38v119v31q0 18 -2 41zM264 684q12 0 27 -2h28h39q20 -2 41 -2h37q14 0 29 2h37h33q14 0 30 2q20 2 37 6 q12 2 23 4q20 8 41 13q14 4 34 12q25 10 43 16q10 4 17 8l11 7q11 8 17 12q12 10 29 20q12 8 27 19q6 8 22 28q14 20 17 29q4 14 4 29q2 20 2 35q0 8 -2 18q-4 12 -8 27q-6 14 -15 30q-8 16 -15 25.5t-20 21.5q-10 10 -24 23q-20 12 -38.5 21.5t-35.5 17.5q-18 6 -41 12 q-25 6 -37 10l-30 5q-16 4 -37 6q-20 2 -39 6q-20 2 -45 8q-23 4 -35 6h-21h-47q-25 0 -32 -2q-14 -2 -37 -7t-41 -9l-2 -2q2 -27 1 -48.5t-3 -41t-4 -39.5q-4 -25 -7 -45q-2 -16 -4 -27q0 -14 -1 -30.5t-3 -43.5v-43v-49q0 -31 -2 -70v-18z" />
<glyph unicode="Q" horiz-adv-x="1341" d="M102 688q0 18 2 49t4.5 49.5t5.5 38t11 54.5q8 33 14 55t13 45q10 29 30 63q18 31 33 50q14 25 35.5 46t48.5 44q27 18 47 30q16 8 35 19q23 10 45 18q18 4 49 15q31 10 51 16q18 4 37 10q20 6 49 13q29 6 47 8q20 2 52 2q33 0 51 -2q23 -4 51 -17q27 -10 55 -26 q27 -14 50 -33q18 -14 37.5 -32.5t35.5 -33.5q14 -14 31 -34q14 -16 29 -37q16 -18 32 -45q16 -23 35 -54q20 -31 33 -59q12 -31 18 -53q6 -20 13 -53q4 -31 6 -52q2 -18 4 -47q2 -31 2 -51v-39q0 -23 -2 -47q-2 -20 -2 -33q-2 -18 -6 -43q-4 -23 -10 -47q-6 -20 -13 -37 q-4 -16 -14 -43q-10 -31 -25 -61q-16 -31 -26 -47q-6 -14 -19 -33q-4 -6 -8 -14q-4 -10 -10 -23q-10 -25 -15 -41q-2 -8 -4 -14q4 -6 9 -12q14 -16 32 -37q16 -18 37 -41l33 -33q12 -12 29 -27q25 -20 39 -45l10 -14q16 -27 9 -56.5t-32.5 -46t-55.5 -9.5t-46 34l-10 14 q-2 6 -9 11q-18 14 -35.5 30.5t-39.5 40.5q-23 25 -41 47q-16 18 -31 35q-18 20 -29 37q-4 9 -10 19q-4 -4 -6 -9q-16 -14 -35 -28q-16 -14 -35 -29q-20 -14 -37 -25q-23 -12 -47 -20q-20 -6 -47 -12q-33 -10 -65 -11q-27 -2 -45 -2h-37q-23 0 -43 2q-27 0 -49.5 6.5 t-53.5 20.5t-51 27.5t-45 40.5l-37 36q-20 18 -34.5 38t-28.5 49q-16 29 -25.5 54t-13.5 45.5t-6 29.5q-2 12 -8 34q-8 29 -11 43q-4 16 -6 33q-4 16 -8 43q-4 25 -8 43q-2 16 -4 35q-2 16 -7 45q-2 29 -3 50.5t-1 39.5zM250 688q0 -14 1 -32.5t3 -43.5q2 -27 4 -41l4 -28 q4 -16 8 -43t7.5 -42.5t5.5 -27.5q4 -12 8 -37q8 -27 12 -43q0 -4 2 -14t2 -14q2 -8 8.5 -23.5t16.5 -34.5q10 -20 18 -30.5t21 -22.5l37 -37q16 -16 25 -23.5t28 -15.5q18 -8 26.5 -10t20.5 -2q18 -2 37 -2h37q16 0 39 2q16 0 34 4q23 6 39 12q10 2 19 8q10 4 22 15 q14 10 29 22q16 12 29 25q12 10 24 24t27 35q14 20 26 41q16 20 29 37q12 14 25 31l14 18q22 29 61 29q6 10 9 20q10 25 14 38.5t10 33.5q4 18 7 33.5t3 25.5l5 35v35v39v41q-2 27 -5 43q-2 14 -6 41q-4 25 -8 39q-2 10 -12 31q-8 20 -23 45q-18 27 -30 47q-14 20 -27 37 q-14 16 -27 32q-12 14 -22 25q-12 12 -28.5 26.5t-33.5 28.5q-14 10 -32 21q-16 10 -33 16q-12 6 -19 6q-8 2 -30 2q-23 0 -35 -2t-35 -6q-20 -4 -35 -8q-18 -6 -39 -10q-18 -6 -49 -17q-29 -8 -47 -14q-12 -4 -25 -10q-14 -6 -28 -15q-10 -6 -29 -20q-18 -14 -31.5 -27.5 t-21.5 -25.5q-10 -16 -27 -43q-12 -20 -16 -33q-6 -20 -11.5 -40t-13.5 -50q-6 -29 -9 -44.5t-4 -29.5t-3 -43q-2 -25 -2 -39z" />
<glyph unicode="R" horiz-adv-x="1146" d="M104 66l2 20q4 18 9 35q2 12 4 26l6 48q4 23 4 49q2 33 2 55q2 23 4 57q4 33 6 52v43q-1 18 -1 34.5t1 32.5q0 31 2 51v43v39q-2 23 -2 45q-2 27 -2 45v84v31q0 14 -2 35q-2 25 -2 47v49q0 27 -2 51q0 18 -2 29l-10 45q-4 33 -6 66v49q0 18 -2 30l-2 19q-4 31 15 54.5 t50 27.5q25 2 46.5 -11.5t29.5 -35.5q10 0 18 2q16 2 47 4t56 2h86h45q25 2 45 2q25 0 47 -4q16 -4 37 -10q23 -4 47 -15q18 -6 33 -10q18 -6 37 -12q18 -8 34 -17q25 -12 47 -36q18 -18 33 -37q16 -23 27 -43q6 -16 14 -41q8 -20 15 -33q6 -16 14 -39q6 -25 10 -53 q4 -31 0 -53q-2 -16 -5 -32t-9 -38q-8 -25 -19 -49q-10 -23 -20 -41t-27 -41q-18 -27 -39 -49q-16 -16 -34 -31q4 -2 6 -4q20 -18 37 -41q16 -25 26 -55q6 -20 12.5 -44t10.5 -44t6 -41q4 -20 6 -43t4 -35q2 -10 4 -23l8 -39q4 -18 7.5 -28.5t9.5 -24.5q8 -14 16 -27 q6 -12 17 -24q6 -10 16 -19q10 -8 18 -12l13 -8q27 -14 35 -44t-6.5 -56.5t-45 -34.5t-55.5 6l-14 8q-18 10 -39 29q-23 18 -41 41q-14 20 -27 39q-10 18 -20 41q-10 20 -16.5 38.5t-12.5 47.5l-6 39q-4 14 -6 30q-2 14 -4 37q-4 23 -7 39q-2 18 -6 33q-4 16 -9 37.5 t-9 40.5q-2 6 -6 12q-6 8 -13 12q-8 8 -18 17q-12 6 -27 14q-16 10 -37 20q-18 -4 -45 -6q-25 -4 -45 -4q-14 -2 -36 -4q-29 -4 -48 -4q-16 0 -44.5 2t-51.5 6q-16 2 -35 4q-12 4 -22 8v-10q-2 -16 -2 -51q-2 -29 0 -57q0 -35 -2 -60q-2 -20 -4 -51t-4 -51q0 -20 -3 -53 q0 -37 -6 -70q-4 -27 -6 -41q-2 -16 -4 -35q-4 -16 -8 -37l-4 -20q-4 -29 -29.5 -46.5t-55.5 -12t-47.5 31t-11.5 56.5zM264 1163q0 -12 2 -22q4 -25 8 -41q6 -23 7 -56q2 -27 2 -57v-49v-35q2 -20 3 -37.5t1 -40.5v-84q0 -12 2 -30l4 6q31 20 59 28q25 6 49 7h119 q18 0 39 -2q23 -2 47 -11q16 -6 33 -12q10 2 18 6q25 10 39 19q10 6 21 16q14 14 24 31q14 18 23 32q6 12 14 29q6 12 10 29q4 16 7 26q2 10 4 23v14q-2 16 -6 29q-4 16 -9 25q-8 14 -16 38q-8 23 -12 33q-2 6 -8 15q-8 10 -21 20q-6 8 -12 10q-10 6 -21 11q-10 4 -22 8 q-18 6 -41 14q-18 6 -33 10q-16 4 -31 6q-8 2 -18 3q-16 0 -39 -3h-51h-86q-18 0 -44 -2t-38 -4t-27 -2z" />
<glyph unicode="S" horiz-adv-x="1093" d="M102 336q-2 31 18.5 53.5t51.5 24.5t53.5 -18.5t24.5 -51.5v-16q2 -12 4 -25q0 -8 4 -18q4 -12 8 -23q6 -12 17 -29q6 -10 20 -20q18 -16 33 -25q14 -8 31 -18q12 -6 30 -14q23 -8 39 -17q10 -6 27 -12q12 -6 22 -8q14 -2 27 -6q14 -2 35 -4q18 -2 41 -5q23 -2 30 -1 t19 3q14 2 39 11q27 10 45 16q14 4 24 10q12 8 27 19q12 8 21 18q12 16 18 27q6 10 12 22q6 14 8 27q4 14 9 33q2 20 4 37q2 12 0 20q0 8 -2 21q-2 4 -8 12q-10 16 -21 29q-14 14 -27 26q-8 8 -22 19q-16 10 -33 16q-18 10 -39 18q-18 10 -30 15q-16 6 -33 14q-16 8 -41 21 q-27 16 -49 32q-14 12 -27 19q-2 2 -7 5t-11.5 7t-10.5 4q-16 10 -39 27q-20 16 -47 39q-23 20 -39 35q-16 14 -43 40q-33 31 -55 64q-25 33 -33 55q-6 18 -12 49q-4 27 -8 56q-2 29 -2 47v33q2 23 10 51q6 31 21 55q14 27 34 49q23 23 45 37q16 8 43 21q23 10 52 22 q29 14 43 21q18 8 51 16q29 6 61 8q35 4 56 2q20 0 51 -8q27 -6 53 -16q25 -10 46.5 -21.5t39.5 -23.5t39 -33l29 -27q16 -16 32 -39q20 -23 35 -47q16 -23 25 -41q10 -23 14 -45l2 -14q6 -31 -11.5 -56.5t-46 -30.5t-54 11t-31.5 47l-4 14q0 4 -4 11q-4 10 -15 26 q-8 16 -20 31q-14 16 -27 29l-29 26q-8 10 -16 15q-12 8 -27 16q-14 6 -30 14q-18 6 -37 11q-16 4 -25 6q-8 0 -30 -2q-25 -2 -43 -8q-18 -4 -27 -7q-12 -6 -39 -18q-29 -12 -53 -25q-20 -8 -29 -14q-4 -2 -10 -8q-8 -8 -12 -17q-6 -12 -11 -24q-4 -14 -4 -23v-24t2 -31 q2 -23 6 -43q4 -18 7 -27q4 -8 14 -24q14 -18 35 -39q25 -23 41 -37q14 -14 39 -35q20 -18 36 -30t27 -19q10 -6 29 -16q18 -10 41 -29q14 -10 30 -20q20 -10 31 -17q12 -6 25 -10q16 -6 39 -16q20 -10 41 -21q25 -10 49 -27q27 -16 47 -36l33 -33q16 -20 30 -43 q23 -29 31 -62q6 -25 6 -45q2 -20 0 -47q-2 -20 -6 -45t-10 -45q-6 -23 -17 -47q-10 -23 -22 -43q-10 -18 -29 -39q-18 -27 -45 -45q-23 -18 -45 -31q-23 -12 -47 -20q-18 -6 -49 -17q-31 -10 -51 -14q-23 -6 -41.5 -7t-50.5 1q-29 2 -52 6q-23 2 -39 6q-18 2 -36 6 q-20 6 -43 15q-23 10 -39 18q-10 4 -29 12q-25 10 -45 21q-18 10 -37 22q-20 12 -47 35q-35 27 -53 58q-14 23 -23 41q-10 20 -18 43q-8 25 -11 45q-2 16 -2 34z" />
<glyph unicode="T" horiz-adv-x="1247" d="M102 1254.5q2 29.5 26 50t52 18.5h17q14 -2 41 -4h46h35t37 2q27 2 50 2q16 0 38 2q23 2 47.5 4t40.5 2h78q16 0 37 2h39q20 2 35 2h80h35q20 2 41 2h20q14 2 45 6q35 4 53 5h76q31 0 52.5 -21.5t21.5 -51.5t-21.5 -52.5t-52.5 -22.5h-76q-10 0 -34 -2q-31 -4 -43 -6 q-20 -2 -41 -2q-16 0 -35 -2h-41h-76q6 -18 10 -37q4 -25 10 -49q6 -31 11 -51q0 -16 4 -35q2 -20 4 -41q2 -23 2 -41q0 -10 2 -29q2 -25 2 -53q-2 -23 -4 -80q-2 -59 -2 -78q-2 -23 -4 -47q-4 -25 -10 -47l-9 -41q-6 -20 -10 -35q-2 -12 -6 -28q-2 -16 -8 -52t-8 -51 q0 -16 -4 -41q-2 -27 -9 -55q-4 -23 -4 -43v-35v-43q0 -27 -2 -51v-35q0 -14 2 -33l4 -24q4 -31 -14 -55.5t-48 -28.5t-54.5 13.5t-28.5 47.5l-4 27q-4 29 -4 53q0 20 2 47v38v36q-2 20 0 49t6 62q4 25 8 47q2 25 4 41q2 18 8 55q6 39 11 59q4 20 8 37q4 14 8 33l8 39 q4 16 6 35q4 16 4 32.5t2 75.5q2 55 5 82q0 18 -2 35q-2 23 -3 41v27q-2 16 -6 34q-2 20 -4 39q-2 12 -6 35q-6 25 -10 47q-6 20 -12 43q-6 14 -9 25h-39q-10 0 -28 -2q-25 -2 -49 -4q-27 -2 -49 -2h-37q-25 -2 -41 -5h-44t-57 3q-27 2 -41 2h-14q-31 2 -51.5 25.5t-18.5 53 z" />
<glyph unicode="U" horiz-adv-x="1185" d="M102 1264q-2 29 17.5 53t49.5 27.5t53.5 -16t27.5 -50.5l2 -16q2 -18 4 -39q0 -18 4 -43q2 -25 4 -51.5t4 -53.5q0 -27 2 -43q0 -18 2 -39v-35v-112q0 -31 -2 -62q-2 -27 -4 -59q-4 -29 -4 -51v-39v-68v-40.5t2 -49t4 -37t4 -34.5q2 -16 11 -52q10 -35 14 -45 q4 -14 8 -24t21 -35q10 -18 20 -27q14 -12 29 -20q18 -10 28 -15q14 -4 29 -8q10 -4 23 -6q8 -2 32 -2q27 0 41 2q18 2 33 4q14 2 37 8t37 13q16 6 39 12l35 14q6 2 20 13q16 12 37 30q23 25 37 41q14 14 33 37q16 18 24 31q10 14 17 26q4 10 12 28t14 36q6 20 9 32.5 t8 32.5q4 18 8 41q4 25 4 39q2 12 4 33q0 23 2 43v27q-2 10 -4 26q-4 25 -4 47q-2 18 -2 33q-2 16 -4 27q-2 16 -4 33q-2 20 -5 39q0 18 -2 43v43v270q0 31 21.5 52.5t52.5 21.5t52.5 -21.5t21.5 -52.5v-270v-37q2 -25 2 -41q2 -14 4 -31q0 -14 2 -27q2 -14 4 -32 q2 -20 4 -41q0 -16 2 -33q4 -23 4 -41q2 -18 0 -41v-43q-2 -25 -4 -43q-2 -20 -6 -45q-4 -27 -10 -49q-4 -25 -8 -39q-4 -16 -11 -39q-8 -27 -19 -52.5t-21 -41.5q-8 -14 -21 -33q-12 -20 -35 -47q-20 -25 -37 -43q-16 -16 -39 -41q-29 -29 -57 -49q-31 -20 -55 -31 q-16 -6 -39 -14q-18 -6 -36.5 -12.5t-47.5 -14.5q-31 -8 -53 -12q-18 -4 -41 -6t-56 -2q-37 0 -59 4q-20 4 -41 10q-16 4 -33 10q-20 8 -49 23q-29 16 -55 39q-29 25 -53 65q-18 33 -27 49q-6 16 -12 33q-6 18 -17 61q-12 43 -14 66q-4 20 -6 39q-2 16 -4 41t-2 55v47v68v45 q0 25 4 59q2 29 4 56t2 51v112v29q-2 20 -2 37q-2 16 -2 45q-2 27 -3 49.5t-5 44.5q-2 25 -4 45q-2 18 -5 37z" />
<glyph unicode="V" horiz-adv-x="1325" d="M106 1251q-10 29 3.5 56.5t43 37t56.5 -3.5l14 -8q35 -16 60 -57q16 -25 26 -45t22.5 -46t20.5 -46q6 -16 21 -45q14 -29 26 -52q16 -29 31.5 -61.5t26.5 -54.5q8 -23 18 -50.5t21 -56.5q10 -29 18 -61q6 -27 13.5 -49.5t15.5 -38.5q6 -16 18 -41q10 -27 19 -45 q6 -14 16 -39q12 -29 27 -66q12 -37 20 -55q6 -20 16.5 -49t20.5 -62q6 -16 10 -30q6 14 12 26q6 16 14.5 38t18.5 46q10 27 19 49q8 25 26 64q16 35 38 84t38 94q18 45 33 92q14 49 20 76q8 29 13 43q4 12 12 39q4 20 14 53t19 62q10 29 16 45q6 18 16.5 37.5t22.5 35.5 q8 12 16 27q10 16 21.5 35.5t17.5 34.5l8 16q12 27 42 36t56.5 -4.5t37 -42t-3.5 -57.5l-7 -14q-10 -16 -22 -39t-23 -39q-10 -18 -20 -35q-8 -10 -14.5 -23t-10.5 -24q-6 -12 -12 -34q-8 -27 -18 -58q-8 -33 -17 -57q-6 -20 -10 -35q-2 -12 -10 -41t-23 -80 q-16 -53 -35 -102q-18 -49 -41 -101q-23 -51 -41 -88q-14 -33 -22 -53q-8 -23 -19 -47q-8 -27 -17 -49.5t-17 -40.5q-6 -16 -15 -33q-6 -18 -20 -49q-16 -33 -27 -55q-14 -27 -24 -43q-12 -18 -42 -26.5t-61 1.5t-41 41l-4 8t-4 9.5t-2 7.5q-6 16 -12 39q-6 16 -13 32 q-12 29 -19 45.5t-15 42.5q-8 25 -19 54q-10 31 -16 49t-21 53q-12 33 -22 57q-12 27 -19 43q-6 14 -16 39l-20 45q-8 20 -17.5 49t-17.5 60q-6 27 -17 51q-8 27 -18 53q-8 25 -16.5 44.5t-21.5 48t-28 53.5q-14 27 -30 57q-16 33 -25 55q-6 16 -17.5 39l-19.5 39t-20 37 l-4 4l-11 6q-27 14 -37 43z" />
<glyph unicode="W" horiz-adv-x="1662" d="M109 1253q-12 29 0 57.5t39.5 40t56 -1t39.5 -38.5l6 -17q8 -18 18 -47t17 -53q6 -23 10 -39q4 -14 14 -41t19 -53q8 -23 18 -43q12 -25 25 -53q12 -29 22 -56q12 -33 17 -57q4 -16 10 -39q6 -25 10 -51q4 -25 10 -47q4 -27 9 -53q2 -23 6 -41q2 -18 6 -29q4 -18 8 -47 q2 -18 6 -39l10 -45q4 -18 7 -27q6 -14 8 -35q2 12 4 23q2 29 8 53q4 25 10 49q6 23 10 49q4 31 13 62q8 31 16 59q10 27 19 49q10 23 21 49.5t22 51.5q8 20 14 39q10 25 16 41q6 12 13 30q6 18 14 37q8 25 16 47q10 20 17 39q8 20 18 39q8 16 21 41q10 20 14 33q6 14 14 35 q14 35 66 45q10 2 20 2q39 0 64 -35q14 -25 20 -51q4 -14 8 -27q4 -16 11 -43q6 -29 14 -57q6 -27 14 -53q8 -31 17 -66q8 -33 18 -66q8 -31 15 -47q6 -20 16 -51q12 -33 22 -65q8 -31 19 -56l18 -51q10 -27 18.5 -51.5t16.5 -46.5l12 -41q6 -18 15 -41q8 -23 14 -39 q4 -10 8 -25q4 12 6 25q8 39 16.5 81t16.5 83q10 41 19 80q8 43 18 73q8 25 14 50q4 25 11 55q6 33 12 63q8 31 12 48q4 16 12 43q6 25 15 51q6 25 10 47q4 27 10 49q4 23 8 45q4 23 9 49q4 20 6 39q4 20 6 39q4 18 6 33l4 12q6 31 32 47.5t55.5 10t46 -32t10.5 -56.5 l-2 -12q-4 -12 -7 -27q-2 -16 -4 -34q-4 -23 -8 -50q-6 -23 -8 -43q-4 -25 -10 -49q-4 -23 -9 -47q-6 -29 -14 -59q-8 -29 -14 -55q-8 -23 -12 -37q-2 -14 -9 -43q-6 -27 -12 -58t-12 -59q-6 -31 -17 -64q-8 -25 -16 -59q-8 -39 -16 -80t-17 -82q-10 -41 -18 -82t-15 -69 q-6 -18 -10 -43q-4 -27 -10 -56q-10 -37 -27 -61q-23 -31 -56.5 -32t-58 14.5t-32.5 31.5q-12 23 -19 37q-6 10 -16 29q-8 18 -18 41q-10 25 -21 49q-8 25 -14 41q-6 14 -15 37q-8 25 -16 47l-12 41q-6 20 -14.5 43.5t-18.5 48.5l-18 51q-10 27 -21 62q-10 33 -20.5 63.5 t-16.5 48.5q-8 20 -18 56q-8 35 -19 69q-8 33 -16 62q-4 20 -10 41q-6 -12 -10 -23q-8 -20 -15 -39q-8 -25 -16 -45q-8 -18 -15 -33q-4 -10 -10 -30q-8 -25 -20 -52q-10 -25 -21.5 -50t-19.5 -46q-8 -18 -17 -41q-6 -23 -12 -47q-6 -25 -10 -51q-6 -31 -12 -57 q-4 -25 -9 -46l-8 -40q-2 -29 -7 -54.5t-13 -50.5q-4 -16 -6 -27q-4 -16 -11 -38q-4 -18 -10 -41q-8 -25 -16 -48q-6 -20 -13 -34q-6 -16 -12 -35q-14 -37 -50 -41q-7 -1 -14 -1q-29 0 -53 14q-30 16 -36 32q-8 27 -15 47q-4 20 -8 35q-2 12 -8 37q-6 29 -8 49q-2 18 -4 39 q0 14 -3 33l-6 45q-2 12 -4 18q-6 18 -12 45l-8 47q-6 25 -10 51q-2 16 -5 25q-4 16 -8 41t-8 49q-2 23 -6 43q-4 25 -10 47q-4 25 -9 45q-6 25 -10 45q-2 10 -10 33q-10 25 -23 51q-10 27 -20 47q-12 27 -23 56q-10 25 -20 55q-12 31 -16 51q-6 18 -11 39q-6 18 -14 44 t-14 40z" />
<glyph unicode="X" horiz-adv-x="1126" d="M106.5 -18.5q-10.5 28.5 2.5 57.5l12 24q16 31 37 60q16 25 35 51q16 25 32 51q18 31 31 51q14 23 33 48q18 25 37 47q16 18 26 32q10 12 25 35q14 25 29 49q14 27 30 52q16 23 29 39q10 14 29 43q6 8 10 16q-14 25 -27 45q-14 27 -22 39q-6 12 -20.5 36.5t-33.5 59.5 q-18 33 -32 55q-16 23 -47 66q-23 31 -39 55q-18 27 -43 72q-20 39 -41 68q-16 29 -33 49q-23 31 -37 59l-10 25q-12 27 -2 55.5t37.5 40.5t56.5 2t41 -37l10 -24q8 -14 21 -31q20 -27 41 -62q20 -33 45 -73q20 -39 34 -60q18 -25 43 -60.5t43 -60.5q18 -29 41 -67 q18 -35 31.5 -58.5t22.5 -35.5q2 -6 6 -13q2 4 6 11l22 51q12 29 25 49q10 18 27 41q14 18 26 37q12 18 27 39q12 20 20 32q6 14 16.5 33t18.5 35q8 20 21 43q14 23 22 39q8 12 21 31q12 23 22 41q10 14 15 22l4 14q12 27 40.5 38.5t56.5 0t39 -40t1 -57.5l-6 -12 q-8 -18 -23 -41q-10 -18 -22 -39q-14 -23 -23 -37q-6 -10 -16 -29q-10 -20 -19 -34q-10 -20 -20 -41q-10 -20 -21 -37q-8 -18 -24 -41q-14 -23 -28.5 -43.5t-26.5 -38.5q-12 -16 -21 -31q-8 -12 -18 -35l-23 -49q-10 -27 -20 -47q-10 -18 -25 -41q-2 -6 -6 -10 q12 -18 27 -47q16 -35 30 -64q12 -27 20.5 -41t20.5 -34q16 -23 33 -48q16 -27 29 -45q10 -18 22 -41q12 -25 21 -41q6 -12 16 -28q12 -23 23 -45q10 -20 24 -49q14 -27 23 -39q8 -12 16 -29l10 -14q16 -27 10 -56.5t-31.5 -46t-55 -10.5t-46.5 33l-10 14q-12 18 -20 33 q-10 16 -27 47q-14 31 -25 51q-10 18 -20 37q-12 23 -20 39q-6 12 -17 31q-12 23 -22 41q-8 14 -25 39q-14 25 -31 45q-16 27 -26.5 46t-24.5 50q-8 14 -16 31q-12 -16 -27 -37q-12 -20 -27 -43q-14 -27 -30 -54q-18 -29 -33 -47q-12 -18 -31 -39q-16 -18 -30 -38 q-16 -20 -27 -37q-12 -18 -29 -47q-18 -33 -39 -62q-18 -29 -37 -53q-12 -18 -22 -37l-12 -27q-12 -27 -41 -37t-56.5 3.5t-38 42z" />
<glyph unicode="Y" horiz-adv-x="1243" d="M103.5 1284.5q2.5 30.5 26.5 50t54.5 15.5t48.5 -27l13 -14q10 -14 22 -29q10 -14 27 -31q18 -20 33 -35q16 -16 28 -34q12 -16 29.5 -44t26.5 -46l37 -74q10 -18 23 -44t28 -52q18 -29 26 -43q10 -16 23 -39q12 -23 20 -39q8 -14 17 -35q18 10 39 8q14 0 28 -6 q8 16 17 31q6 12 16 34q12 29 29 56q16 25 37 57q23 33 36 53q12 18 19 29q8 14 18 33q12 23 25 41q12 20 32.5 47t41.5 49q16 18 26 31q12 14 25.5 30.5t21.5 28.5l11 14q18 25 48.5 30t55.5 -13.5t29 -48t-15 -54.5l-10 -14q-10 -14 -23.5 -32.5t-27.5 -32.5 q-12 -18 -35 -41q-16 -16 -31.5 -37t-23.5 -35t-21 -33q-10 -23 -20 -39t-27 -39q-12 -18 -33 -49q-20 -29 -32 -51q-12 -20 -23 -41q-12 -27 -20 -43q-6 -12 -15 -31q-10 -20 -22 -43q-8 -16 -12 -26q-6 -16 -19 -41q-10 -18 -18 -33q0 -10 2 -23q2 -39 2 -67v-49v-56 q-2 -33 -2 -53q-2 -18 -2 -33v-30q0 -12 2 -33v-43v-74q0 -29 -21.5 -51.5t-51.5 -22.5t-52.5 22.5t-22.5 51.5v74v37q-2 23 -2 39v30q0 18 2 41q0 18 1 49t1 52v49v18q-33 14 -45 45q-6 14 -14 31q-12 25 -21 41q-6 16 -14 43q-10 27 -20 53q-10 25 -17 37q-6 14 -18 35 q-12 20 -21 37q-10 16 -26 43q-16 29 -30.5 56.5t-25.5 45.5l-36 76q-6 12 -20.5 34.5t-22.5 33.5q-8 12 -19 22q-12 14 -31 33q-20 23 -34 39q-12 16 -25 31l-10 14q-18 23 -15.5 53.5z" />
<glyph unicode="Z" horiz-adv-x="1222" d="M107.5 1247.5q-11.5 28.5 1 56t41.5 39.5l12 7q27 8 65 12q31 2 66 2h88q29 0 53 -2q20 -2 33 -4q14 0 39 -4q18 -2 35 -2q18 -2 39 -2q27 0 51 -2q16 -4 26 -5q12 0 35 -2q20 -2 39 -4q18 0 43 -2q20 -2 38.5 -3t41.5 -1h76q36 -1 64 -29q27 -27 26 -60q0 -43 -33 -83 q-12 -12 -22 -33q-14 -23 -21 -34q-8 -18 -24 -45q-12 -25 -31 -50q-16 -29 -29 -43q-12 -14 -33 -39q-14 -20 -29.5 -39.5t-23.5 -31.5q-10 -16 -26 -41l-25 -37q-10 -14 -25 -37q-16 -20 -32 -43q-16 -25 -29 -41q-8 -10 -19 -31q-14 -23 -22 -39q-8 -14 -21 -34 q-10 -18 -20 -39q-12 -23 -25 -43q-12 -20 -34 -53q-23 -29 -35 -46q-10 -12 -27 -34q-16 -23 -31 -43q-14 -23 -22 -35q-8 -16 -19 -29q-8 -14 -24 -39q-6 -8 -12 -20h41h43h41q20 0 45 2q27 0 51 2q25 0 53 -2q27 0 56.5 -1t50.5 -1q25 0 55 -4q31 -2 53 -6q23 -2 37 -5 q10 -2 25 -2h170q31 0 52 -21.5t21 -51t-21.5 -52t-51.5 -22.5h-170q-25 0 -43 4q-14 0 -37 4q-23 2 -49 4q-25 4 -41 4q-23 0 -56 1t-61 3h-37q-20 0 -47 -2q-29 -2 -55 -2h-41h-48q-25 2 -55 0q-31 0 -51 -2q-15 -2 -30 -2q-24 0 -44 6q-41 14 -53 62q-4 17 -4 32 q0 26 14 44q12 16 23 28q8 12 22 35t30.5 47.5t25.5 36.5q8 12 16 25q8 16 25 41q16 25 34 49q18 25 31 39q10 14 31 41q18 25 26 38q10 16 21 37q12 23 25 45q10 18 18 34t22 38q14 27 29 47q12 16 29 39q16 23 31 43q14 20 24 33l25 37q14 23 22 37q10 16 31 43 q16 23 37 47q16 20 26 32q8 10 22.5 33t27.5 45q12 18 18 33q6 12 16 29q-12 0 -20 2q-20 0 -45 2q-23 2 -39 2q-20 2 -43 4q-20 2 -35 2q-14 2 -37 4q-14 2 -28 2q-23 0 -45 2q-23 0 -48 4q-20 2 -32 4q-12 0 -35 2q-16 2 -39 3h-88q-29 0 -55 -3q-14 -2 -21 -2l-14 -6 q-27 -12 -55.5 0.5t-40 41z" />
<glyph unicode="[" horiz-adv-x="628" d="M102 1309q2 27 2 39v36q2 41 33 74q35 37 80 37q10 0 19 2q16 2 38 4q20 4 52 8q35 4 53 7h35h14q31 0 52.5 -21.5t21.5 -51.5t-21.5 -52.5t-52.5 -22.5h-14h-25q-14 0 -41 -4q-33 -6 -55 -8q-23 -4 -37 -4l-4 -2v-2q0 -16 -2 -43v-39q2 -23 4 -54v-53v-53v-41 q2 -20 4 -47t2 -47v-92q0 -12 2 -31q4 -31 4 -47q2 -12 4 -27q2 -16 4 -43q2 -25 2 -55q2 -31 3.5 -51.5t3.5 -46.5q0 -33 2 -50q0 -18 2 -44.5t2 -47.5q2 -20 2 -43q2 -25 2 -43v-31q2 -18 4 -38q2 -25 2 -43v-76q0 -31 -4 -53q-2 -10 -4 -33q-2 -27 -2 -51q-2 -29 -2 -43 q-2 -14 -2 -31v-41q-2 -14 -2 -37v-61q8 -2 14 -2q20 -4 41.5 -8.5t40.5 -6.5q16 -2 27 -4h28h19q31 0 52 -21.5t21 -52t-21.5 -52t-51.5 -21.5h-19h-37q-18 2 -41 6q-18 2 -41.5 6t-44.5 8q-23 4 -49 10q-74 16 -84 82q-2 23 -2 43v74q0 29 2 45v33q0 23 2 39q0 14 2 39 q0 29 2 57q2 33 7 51q2 8 2 25v76q0 12 -2 30q-2 23 -3.5 44.5t-1.5 37.5q0 14 -2 37v41q-2 18 -4 45t-2 49q-2 23 -2 51q-2 27 -3 45.5t-2 48t-3 52.5q-2 25 -4 39q-2 18 -2 35q-2 12 -4 34q-4 29 -4 52v92q0 14 -2 37q0 25 -2 43q-4 25 -3 59v49.5v46.5q0 29 -2 47 q-2 25 -2 56z" />
<glyph unicode="\" horiz-adv-x="923" d="M108 1280.5q11 28.5 37.5 40.5t56 2t42.5 -39l10 -22l12 -27l27 -39q16 -27 31 -47q14 -27 30 -59q14 -31 27 -56q14 -29 22 -49q8 -23 19 -55q8 -31 12 -49q4 -14 12 -39q10 -27 16.5 -46.5t14.5 -47.5q6 -25 12 -39q6 -18 17 -43q10 -29 18 -48l17 -51q10 -29 20 -55 q10 -29 17 -51q4 -18 10 -43q10 -27 15 -44.5t13 -43.5q8 -20 19 -47q10 -27 16 -41q8 -16 21 -41q10 -20 18 -37q8 -16 21 -39q14 -25 24 -47q10 -23 19 -37q4 -12 14 -33q8 -18 14 -31q8 -16 17 -40q8 -18 14 -33l4 -15q12 -27 0 -55.5t-39.5 -39.5t-56.5 1t-41 41l-4 12 q-6 16 -14 37q-6 16 -11 25q-8 16 -18 37q-10 23 -17 37q-4 10 -12 28q-10 20 -22 41q-12 23 -21 39q-12 20 -24 47q-10 25 -19 41q-8 16 -20 45q-12 31 -21 60q-10 25 -15 43t-13 47q-10 29 -15 49q-4 16 -12 39q-10 27 -21 57q-10 29 -16 49q-6 16 -16 43t-19 45 q-6 20 -14 52q-8 27 -13.5 43t-13.5 41q-12 31 -16 51q-4 16 -12 45q-8 27 -15 41q-6 16 -18 41t-27 55q-12 27 -22 43q-12 20 -31 47l-25 39q-12 18 -24 45l-10 23q-12 29 -1 57.5z" />
<glyph unicode="]" horiz-adv-x="649" d="M103.5 1449q5.5 30 30 48.5t52.5 13.5l21 -2q14 -2 31 -4h41t51 -2q27 0 44 -1t32 -3q24 0 53 -12q45 -25 57 -76q6 -25 8 -47q2 -20 2 -57v-47v-35q-2 -18 -2 -47v-78v-53v-56v-108q0 -16 -2 -39v-35q0 -14 -2 -39v-37q0 -16 -2 -39v-30q0 -14 -2 -37v-31v-139 q0 -18 2 -48t4 -65l2 -33q4 -27 6 -57q2 -25 5.5 -55.5t5.5 -63.5q4 -35 4 -55v-37q2 -31 2 -47v-234q0 -39 -31 -62.5t-59 -23.5q-12 0 -27 -2q-18 -2 -35 -4q-10 0 -33 -4q-33 -4 -51 -4h-75q-29 0 -51.5 21.5t-22.5 52.5t22.5 52.5t51.5 21.5h75q8 0 31 4q27 4 39 4t18 2 v176v37q-2 29 -2 47q0 14 -4 43q-2 33 -4 63q-4 31 -6 58q0 23 -4 41q-4 31 -4 51q-2 35 -4 63q-2 35 -2 58v139v37q2 18 2 31v36q2 18 2 33v43q2 20 2 33v41q2 20 2 33v108v60v49v78q0 33 2 53v29v47v43q0 2 -2 4q-4 0 -10 2h-43q-25 2 -45 2h-48q-25 2 -47 6l-18 2 q-31 4 -49.5 28.5t-13 54.5z" />
<glyph unicode="^" horiz-adv-x="935" d="M104.5 640q-8.5 30 8.5 56l12 21q12 25 25 41q8 12 24 36.5t27 45.5q12 18 24 45q14 33 23 47q6 14 15 33.5t16 35.5q6 16 18 46q12 31 20 49q10 18 19 34q8 14 20.5 34t24.5 38q8 16 16 33q8 20 15 33q12 33 70.5 38t76.5 -40q4 -12 12 -35t15 -39q4 -14 14 -39 q12 -29 21 -55l14 -35q6 -16 16 -39q8 -20 15.5 -35.5t19.5 -40.5q14 -25 23 -39q8 -16 20 -37q10 -20 19 -32q8 -16 18 -37q12 -23 25 -55q10 -29 20 -54q8 -25 14 -39l4 -12q10 -29 -3 -56.5t-40.5 -37.5t-56.5 3t-39 42l-4 12q-4 12 -12 35q-10 25 -23 55q-10 27 -16 41 q-8 16 -17 29q-6 14 -18 35q-12 20 -20 35q-8 16 -23 43q-14 29 -23.5 46t-17.5 42q-10 23 -16 39q-8 18 -17 43q-4 10 -10 24q-4 -10 -8 -16q-6 -12 -14 -27q-8 -14 -19 -39q-10 -27 -16 -43q-8 -18 -19 -41q-10 -25 -18 -41q-6 -14 -21 -43q-14 -33 -28.5 -56.5t-31.5 -51 t-28 -41.5q-8 -10 -18 -29l-12 -22q-14 -27 -44 -35t-56.5 7t-35 45z" />
<glyph unicode="_" horiz-adv-x="1064" d="M106.5 -69.5q10.5 28.5 36.5 42.5l23 11q41 18 78 14q14 -2 30.5 -2h42.5q33 0 56 -4q20 -2 37 -4q12 0 41 -4q29 -2 49 -2q29 0 51 -2q16 -2 33 -5q12 -2 28 -2h109q14 0 31 2q16 0 36 5q31 4 50 4h30l19 2q31 2 53.5 -19.5t24.5 -51.5t-19.5 -52.5t-50.5 -24.5l-21 -2 h-36q-8 0 -27 -2q-29 -6 -51 -6q-23 -2 -39 -2h-109q-27 0 -47 4q-14 0 -30 2q-14 2 -35 2q-27 0 -62 4q-33 2 -49 4q-12 2 -31 4q-16 2 -41 2h-51q-18 2 -35 2h-2l-22 -10q-27 -14 -55.5 -4t-42 38t-3 56.5z" />
<glyph unicode="`" horiz-adv-x="493" d="M104 1254q-8 30 7.5 56.5t45 35t56.5 -6.5l14 -8q23 -14 43 -33q14 -12 37 -34q23 -25 47 -52l21 -26q20 -23 17 -53.5t-25.5 -50t-53 -17.5t-51.5 27l-20 24q-20 23 -39 43l-33 33q-8 6 -14 10l-17 8q-27 14 -35 44z" />
<glyph unicode="a" horiz-adv-x="989" d="M102 188q0 20 4 43q4 18 11 37v6q0 23 6 48q6 29 20 51q12 18 27 39q14 18 27 32q14 18 30 35q23 23 45 33q16 8 35 16q16 8 31 15q14 6 35 12q20 8 41 14q23 4 49 4h67q27 0 50 -2q20 -4 41 -10q18 -6 34 -10q25 -10 27 -10q10 -4 20 -6q12 -2 23 -7v56v20q-2 14 -2 33 q0 4 -2 14q-6 20 -11 38l-10 36q-4 10 -8 18q0 4 -6 9q-10 10 -24 20q-16 10 -29 19q-10 6 -23 12q-8 4 -18 8q-8 2 -19 4q-16 2 -32 2q-12 2 -23 2h-57h-6q-4 -2 -11 -6l-32 -20q-8 -4 -19 -13q-8 -4 -18 -16q-14 -14 -27 -29q-14 -18 -33 -33l-26 -26l-25 -25l-14 -14 q-20 -23 -51 -24t-52.5 19.5t-22.5 52.5t19 52l13 15l30 30l29 27q12 10 23 22q14 16 30 35q18 18 39 35q16 12 33 21q10 6 22 14q23 14 48 22q27 8 51 9h57q18 0 39 -2q18 -2 35 -4q23 -2 43 -9q23 -8 41 -18q20 -8 37 -19q14 -10 32 -22q23 -16 41 -33q25 -25 39 -51 q10 -23 17 -47q6 -16 10 -33.5t10 -36.5q8 -31 8 -55v-23q2 -14 2 -30v-68q0 -14 -2 -35q0 -10 -2 -35q0 -23 -2 -38l-4 -29q-2 -14 -4 -31q-2 -14 -2 -29q0 -18 -2 -32v-27v-88v-22q0 -8 2 -15q4 -12 8 -29q6 -18 8 -34q4 -8 7 -21l6 -16q8 -29 -6.5 -55.5t-43 -36t-56 5 t-36.5 43.5l-4 14q-6 18 -10 35q-2 10 -6 25q-4 16 -8 28l-2 -2t-4 -2l-29 -29q-18 -18 -41 -30q-18 -12 -37.5 -21.5t-42.5 -17.5q-18 -6 -39 -10q-16 -4 -35 -11q-23 -6 -45 -8h-34h-29q-23 0 -51 6q-23 4 -43 11q-25 6 -43 12q-20 8 -41 22q-25 14 -45 39q-14 20 -29 41 q-18 33 -21 64q-2 16 -2 30zM250 172h2q6 -14 16 -25q4 -6 8 -8q10 -6 19 -10q10 -4 24 -6q16 -6 37 -10q14 -2 21 -2h29h26q6 0 14 2q16 6 37 10q14 4 29 10q14 4 26.5 9t22.5 14q10 6 19 14q12 12 24 24.5t27 26.5q10 8 16 19q12 18 27 34l12 17q8 12 23 18v19q2 18 4 37 v8q-6 0 -13 4l-16 8q-10 4 -16 6q-18 4 -35 10q-12 4 -27 11q-10 4 -24 8t-27 6h-25h-67h-14q-10 -4 -25 -8q-16 -6 -29 -12q-12 -4 -28 -13q-16 -6 -27 -12q-4 -2 -8 -6q-10 -10 -21 -23q-12 -14 -24 -30q-10 -14 -17 -25l-4 -8q-2 -8 -2 -15q0 -25 -8 -51l-4 -20 q-2 -8 -2 -15v-16z" />
<glyph unicode="b" horiz-adv-x="1044" d="M102 33v45q0 16 2 37v26v43q2 23 2 52v47q2 8 3 26q2 8 2 29q2 18 4 41q4 18 6 39q4 18 6 39q2 14 2 32v62q2 14 2 27q-6 4 -10 10q-18 25 -15 55.5t25 48.5l6 4v49q2 33 4 52q2 16 4 45q4 25 5 47v47q0 18 2 47v51v72q0 12 -1 38.5t-4 49.5q-2 25 -4 47q-4 23 -6 33 l-4 14q-8 29 7.5 55.5t45 34.5t56 -7t34.5 -46l3 -14q6 -18 10 -49q4 -29 6 -56t3 -56.5t1 -43.5v-72q0 -29 -2 -57v-41v-47q0 -16 -2 -33q8 4 16 10q16 12 32.5 22.5t35.5 18.5q18 10 35 19q20 10 39.5 15t40.5 9q18 2 36 2h29q25 0 45 -4q29 -6 51 -18q10 -6 25 -12 q23 -12 41 -25q16 -12 33 -27q18 -16 34 -30q16 -18 43 -54q27 -37 39 -61q6 -16 15 -35q8 -18 16 -33q8 -18 14 -39l11 -30q6 -14 10 -31q8 -27 8 -57v-35q0 -20 -2 -45q-2 -27 -6 -45t-8 -39q-6 -18 -15 -43q-6 -20 -10 -35q-6 -23 -16 -45q-8 -14 -15.5 -30.5 t-11.5 -28.5q-10 -25 -33 -52q-16 -23 -39 -43q-27 -27 -55 -43q-27 -14 -53 -22q-18 -4 -39 -8q-20 -4 -39 -7q-20 -4 -45 -4q-29 0 -59 11q-23 6 -41 14t-35 16q-14 6 -29 15q-14 6 -26 10q-16 8 -35 16q-23 12 -56 39q-14 12 -24 23q0 -4 -2 -9v-28v-45 q0 -31 -21.5 -52.5t-52.5 -21.5t-52.5 21.5t-21.5 52.5zM258 322q25 -6 41 -27l8 -14q12 -14 23 -31q4 -8 12 -17q10 -12 31 -28q18 -16 24 -21q12 -6 25 -10q16 -6 33 -14q18 -8 32 -17q14 -6 27 -12q12 -4 27 -8q8 -4 16 -4q16 0 27 2q12 2 26 4q16 4 31 8q8 2 23 10 q10 6 22 17q14 14 27 30q8 8 10 15q6 16 14 33q8 18 15 34q6 10 8 21q6 20 14 45q6 18 10 33q4 14 7 26q2 12 4 31q2 18 2 33v35q0 8 -2 12q-4 16 -9 29l-10 30q-4 14 -10 25q-6 14 -14 33q-8 20 -17 37q-4 10 -22 32q-18 27 -29 37q-12 12 -27 25q-12 10 -22 16 q-8 6 -19 10q-18 10 -32 19q-4 2 -6 2q-8 2 -19 2h-29q-8 0 -18 -2q-10 0 -17.5 -3l-17.5 -7q-16 -6 -31 -15q-12 -6 -22 -14q-12 -8 -26.5 -18.5t-35.5 -26.5q-20 -14 -36 -31q-14 -12 -21 -20q-8 -12 -22 -31q0 -14 -2 -35q-2 -23 -5 -55v-58q0 -29 -4 -53q-2 -23 -6 -41 q-2 -18 -4 -39q-4 -16 -4 -26v-8z" />
<glyph unicode="c" horiz-adv-x="976" d="M102 664v26q0 23 4.5 43.5t14.5 42.5q8 18 18 37q10 18 25 39q20 27 43 43q20 14 41 23q14 6 31.5 13t35 13t35.5 12t37 13q29 8 53 10q16 2 37 2q20 0 37 -2h27q25 0 49 -6q27 -6 49 -17q16 -8 38.5 -22t43.5 -31q20 -16 37 -37q16 -18 28 -32q14 -20 27 -43 q8 -18 15.5 -34t15.5 -38q4 -12 8 -17l10 -14q16 -25 12 -55.5t-28.5 -48t-55 -13.5t-47.5 29l-10 14q-16 23 -28 54q-6 18 -11.5 29.5t-13.5 27.5q-4 10 -10 16q-8 12 -23 27q-10 12 -20 20q-12 12 -28.5 21.5t-25.5 15.5q-4 2 -14 4t-18 2h-35q-12 2 -29 3q-16 0 -26 -3 q-4 0 -17 -4q-20 -6 -39 -12q-16 -4 -31.5 -10t-31 -12.5t-27.5 -10.5q-6 -2 -12 -8q-4 -2 -8 -8q-10 -14 -17 -27q-8 -10 -12 -22q-4 -8 -5 -14.5t-1 -12.5v-26q0 -8 2 -17q2 -18 2 -43v-100q0 -12 2 -23q2 -18 4 -35q2 -20 2 -40q0 -6 2 -13q6 -18 8 -37q2 -12 4 -26 q2 -16 7 -33q4 -20 6 -43q2 -8 4 -14q2 -8 8 -19l14 -28q2 -4 7 -11q10 -10 20 -18q16 -12 33 -25q12 -8 24 -14q14 -6 25 -10q14 -4 25 -9h8h59q8 0 16 3q8 2 17 4q8 2 18 8t25 14q14 10 29 21q14 8 24 16q8 8 19 18q12 12 21 23.5t16.5 23t15.5 25.5l8 14q14 27 44 35 t56.5 -7t34.5 -45t-6 -54l-8 -17q-10 -16 -21.5 -32.5t-24 -33t-28.5 -32.5q-18 -20 -35 -33l-32 -24q-16 -10 -33 -23q-18 -10 -35 -20q-20 -10 -38.5 -16.5t-39.5 -10.5q-23 -4 -43 -4h-59q-25 0 -47 6q-16 4 -31 10q-18 6 -41 17q-27 10 -49 28q-18 14 -35 27 q-23 16 -39 35q-20 20 -33 45l-14 27q-8 20 -16 39q-6 23 -9 45q-2 14 -6 30q-4 18 -6 35q-4 18 -6 35q0 8 -2 18q-8 23 -8 50v22q-2 12 -4 29q-4 23 -5 47v100q0 14 -2 23q-2 18 -2 37z" />
<glyph unicode="d" horiz-adv-x="1083" d="M102 469q0 18 2 35q0 20 5 39q2 8 2 18q2 20 4 37q2 18 8 37q2 12 6 27q4 25 16 49q6 16 13 28q8 23 28 47q16 20 35 39q14 12 29 27l29 29q18 16 34 28q18 14 37 23q20 10 47 16q16 4 29 8q12 4 25 9q12 4 24 10q27 12 53 14h35h29h33q20 -2 41 -6q23 -4 45 -14 q27 -12 47 -29q12 -8 22 -16q10 -6 21 -13v13q0 12 -2 24v35v248v45q2 27 6 47q4 25 42 26h5q34 1 66 -13q34 -14 34 -29v-31q0 -12 2 -23v-34v-93q0 -12 2 -22v-37q0 -18 2 -41q0 -23 3 -39v-37q0 -12 1 -26.5t3 -30.5t4 -39q2 -18 4 -43q4 -29 6 -47v-35v-102q0 -18 2 -35 v-43q0 -29 -2 -49q-2 -18 -6 -39q-2 -10 -2 -23q0 -23 -2 -45q-3 -22 -11 -49v-14v-58v-32q-2 -10 -2 -25v-125q0 -29 -21.5 -51.5t-51.5 -22.5q-41 0 -64 39q-16 -10 -31 -16q-16 -4 -34 -10q-8 -2 -19 -6q-18 -8 -37 -15l-32 -8q-12 -4 -25 -8l-27 -10q-18 -6 -36 -9 q-20 -4 -41 -4h-29q-23 0 -44.5 4t-47.5 15q-23 8 -41 18q-14 8 -29 19q-20 10 -39 22q-16 12 -31 25q-20 16 -36 37q-16 18 -27 38q-8 16 -16 33l-19 37q-12 25 -20 47q-4 16 -8 31q-6 16 -11 31q-4 14 -8 26q-6 12 -12 31q-6 20 -10 37q-6 25 -7 49zM250 469q0 -6 2 -12 q2 -12 8 -27q4 -16 8 -29q6 -14 11 -30q6 -14 10 -28.5t10 -35.5q4 -12 10 -24l19 -37q8 -14 16 -29q4 -8 10 -16t13 -13q12 -10 26 -20t27 -16q16 -10 29 -17q8 -6 22 -12q12 -4 20.5 -5t16.5 -1h29h10q10 2 20 6l29 8q16 6 31 10q14 4 26 9q12 4 23 8q20 8 41 14 q10 2 20 6q4 2 13 6q2 2 6 9q6 10 8 16q4 20 9 37.5t13 36.5q4 16 11 32q4 10 8 23q2 12 8 31q0 16 1 28.5t1 26.5q0 16 1 33.5t3 34.5l4 28q2 14 4 31q2 16 2 29q0 6 -2 8q-6 23 -6 49q0 12 -2 29v36q-12 10 -24 19q-20 16 -39 35q-12 12 -29 24q-14 12 -25 19 q-18 12 -36 26q-6 4 -15 9q-8 4 -14 6q-10 2 -21 2h-24h-29h-24q-2 0 -4 -2q-18 -8 -33 -13q-14 -6 -31 -10q-16 -6 -37 -12q-12 -2 -18 -4q-6 -4 -17 -10q-8 -8 -18 -17q-14 -12 -27 -26q-16 -14 -30 -31q-12 -8 -21 -23q-8 -8 -10 -12q-6 -14 -14 -33q-4 -8 -7 -18 q-4 -20 -8 -35q-2 -10 -4 -18q-2 -10 -2 -25q-2 -23 -4 -41l-4 -16v-27z" />
<glyph unicode="e" horiz-adv-x="1021" d="M102 399v37q0 23 2 41q0 23 7 51l10 45q6 16 10 33q6 16 14 35q4 12 9 25q4 18 10 34q6 20 10 29q4 14 8 29q8 20 23 43q12 18 26 37q12 14 31 32q16 16 41 37q20 16 35.5 26.5t30.5 20.5q16 10 34 21q18 8 37 14q18 6 45 10q27 6 51.5 6.5t53.5 -6.5q23 -4 37 -6 q20 -4 47 -16q23 -10 39 -19l28 -14q16 -8 29 -16q25 -14 47 -39q18 -23 31 -47q6 -16 12 -35q6 -14 12 -33q8 -20 13 -39q4 -12 8 -22q6 -20 10 -41q2 -20 4 -39v-37q0 -23 -6 -47q-6 -31 -33 -62q-23 -29 -49 -43q-20 -8 -43 -16q-25 -6 -49 -6h-176h-37q-20 2 -47 8 q-14 4 -25 4q-16 2 -28 4q-18 0 -41 6q-10 2 -23 5q-16 2 -31 2h-69v-15v-37q0 -8 2 -18q0 -6 4 -14q4 -18 10 -35q6 -14 10 -29q6 -12 15 -24q8 -14 18 -31q6 -8 15 -19q14 -12 30 -26q12 -10 25 -19q10 -8 22 -12q16 -6 29 -10q12 -4 31 -8l16 -4q18 0 41 -3q18 -2 29 -2 h59q2 0 6 2q16 4 31 9q18 6 39 8q23 10 49 16q18 4 33 6q16 4 29 7q16 4 30 6l15 2q29 4 53 -14.5t29.5 -48t-14 -55.5t-48.5 -30l-14 -2q-10 0 -23 -4l-28 -4q-12 -4 -31 -6q-8 -2 -14 -6q-25 -12 -54 -15q-6 0 -12 -2q-12 -4 -25 -8q-27 -8 -51 -8h-59q-18 0 -41 2 q-18 2 -29 2q-25 0 -55 8q-23 6 -39 13q-14 4 -33 12q-27 8 -51 24q-23 14 -43 33q-18 16 -37 33q-18 20 -33 43q-12 18 -22 37q-12 18 -21 39q-10 20 -16 41q-6 16 -10 32q-8 23 -13 45q-2 18 -2 37zM287 598h32q23 0 46 -4q25 -2 45 -6q8 -2 14 -4q14 0 35 -2q23 -2 45 -9 q12 -4 20 -4h27h176q2 0 8 2q8 2 17 4q2 4 4 7l4 4v10v27q0 10 -2 22q-2 10 -6 21q-4 16 -11 32q-2 10 -8 25q-6 18 -12 35q-4 14 -8 24q-2 4 -8 11q-4 4 -7 6q-14 8 -26 14l-29 14q-10 6 -27 15q-14 6 -20 6q-12 4 -31 6q-16 4 -27.5 4t-25.5 -4q-16 -2 -25 -6 q-10 -2 -20 -8q-10 -4 -18 -11q-12 -6 -23.5 -14t-30.5 -22q-16 -14 -28 -27q-14 -14 -23 -25q-8 -8 -14 -18q-6 -8 -8 -14l-9 -27q-2 -2 -4 -8t-3 -11.5t-3 -9.5q-4 -12 -8 -26q-4 -15 -8 -29z" />
<glyph unicode="f" horiz-adv-x="858" d="M103.5 857q-5.5 30 13 54.5t47.5 30.5l18 2q27 4 49 2q18 0 37 -4q8 -2 15 -2h36q0 4 -2 6q-4 18 -8 37q-8 27 -10 53q-2 18 -4 35q-2 23 0 43q0 20 6 43q4 18 8 35q4 18 15 37q6 16 14 31q10 20 31 43q16 18 37 36q23 18 45 31q18 10 40.5 17.5t47.5 9.5q20 2 41 2h28 q18 0 37 -2q27 -4 53 -17l17 -6q27 -14 38 -42.5t-2.5 -56.5t-42 -38t-57.5 2l-14 8q-6 2 -10 4h-19h-28h-27q-8 -2 -17.5 -5t-15.5 -7q-8 -4 -20 -12q-12 -10 -21 -21q-8 -8 -10 -14q-6 -12 -12 -25q-4 -8 -6 -16q-2 -12 -7 -27l-4 -20q0 -6 2 -17q2 -16 4 -36q0 -14 5 -29 q6 -23 12 -43q4 -18 8 -39h29q20 0 43 -4q8 -2 18 -2h23h12q31 0 52.5 -22.5t21.5 -52.5t-21.5 -51.5t-52.5 -21.5h-12h-33q-18 2 -37 7h-14h-11v-13q4 -31 9 -75q4 -49 6 -105q2 -53 2 -74v-141v-37q-2 -16 -4 -35q-2 -20 -4 -37q-2 -10 -2 -20q0 -25 -7 -53q-2 -18 -2 -31 q-2 -16 -2 -29q0 -18 -2 -39q-2 -12 -2 -24v-70q0 -31 -21.5 -52t-51 -21t-52 21.5t-22.5 51.5v70q0 20 2 41q2 12 2 22q0 16 2 35q0 23 4 49q4 16 4 29q0 23 4 45q2 14 4 29q0 14 2 28v27v141q0 18 -2 70q-2 49 -6 92q-4 47 -6 80q-2 14 -2 25h-59q-20 0 -43 4q-8 2 -19 4 q-6 0 -16 -2l-17 -2q-31 -6 -55 12t-29.5 48z" />
<glyph unicode="g" horiz-adv-x="1089" d="M102 489q0 23 2 43q2 25 11 46q4 12 8 28q6 23 16 49q8 23 17 41q8 20 16 39q10 20 22.5 41t30.5 39q12 16 29 35q18 20 37 37q20 16 41 28q18 10 35 17q16 8 36 16q14 4 29 10q20 6 41 13q18 6 39 10q27 6 51 8h43q18 -2 35 -4q29 -4 53 -16q20 -10 43 -29 q14 -14 29 -25q2 -4 6 -6l-2 19q-2 29 17.5 53.5t49 27.5t53 -16.5t28.5 -50.5l2 -18q2 -16 4 -33q0 -16 4 -31q2 -23 2 -45q0 -8 2 -16q6 -27 6 -49v-107q0 -14 2 -25q4 -18 6 -34q2 -20 2 -39v-23q27 -27 25 -61l-2 -23q-2 -23 -6 -41q0 -2 -2 -6q2 -6 4 -8q6 -25 8 -53 q2 -23 2 -41v-25q2 -16 4 -33l4 -34q2 -20 2 -37v-23q2 -16 2 -35q0 -27 -6 -49q-4 -18 -10 -35q-2 -6 -2 -14q-2 -27 -10 -55q-8 -23 -15 -41q-6 -14 -10 -29q-4 -20 -12 -39l-11 -30q-8 -23 -22 -41q-8 -14 -19 -31q-12 -20 -26 -39q-18 -25 -45 -43q-20 -14 -41 -25 q-16 -8 -33 -16q-20 -10 -41 -16q-25 -8 -49 -9h-31q-25 0 -49 4q-18 2 -35 5q-20 2 -39 8q-14 2 -30 6q-23 4 -41 10q-16 6 -37 15q-18 8 -39 16q-29 14 -51 35l-15 12q-20 20 -21 51t19.5 53.5t51 23.5t51.5 -19l14 -13q4 -4 12 -8q18 -8 35 -14q14 -8 27 -11q10 -4 24 -6 q18 -4 35 -8q10 -4 23 -4q16 -2 39 -6q14 -2 26 -2h31q2 0 6 2q8 2 19 8q14 6 30 14q12 6 27 17q6 4 10 8q8 14 19 29q12 18 20 32q4 6 6 15l12 28l9 27q6 20 12 41q4 10 8 18l-16 -8q-14 -10 -37 -20q-25 -10 -47 -19q-18 -8 -35 -12q-18 -6 -35 -10q-14 -2 -35 -6 q-25 -6 -45 -6h-30q-25 0 -48 4t-43 10t-38 14q-20 10 -41 25q-20 14 -41 35q-16 14 -29 26q-20 16 -39 39q-16 25 -31 47q-10 20 -18 37q-12 20 -19 39q-4 10 -12 29l-16 32q-10 18 -19 41q-6 20 -10 39q-4 14 -8 31q-6 20 -8 39q-2 12 -4 25q-4 18 -7 36q-2 23 -2 45z M250 489q0 -16 2 -28q0 -12 4 -27q2 -16 4 -31q2 -8 4 -20q6 -18 10 -35q2 -12 9 -26q2 -10 8 -19q8 -16 18 -39q12 -25 21 -47q2 -6 6 -14q8 -16 18 -35q8 -14 19 -27q10 -12 18 -20q16 -12 33 -31q14 -12 27 -20q10 -6 18 -11q10 -6 20.5 -9t20.5 -5q12 -2 25 -2h30 q6 0 17 4q18 2 30 6q10 2 23 6q14 4 33 11q14 4 30 12t29 14q6 4 16 13q12 12 20.5 21t12.5 17q4 6 8 15v12v45q0 11 2 23q-2 4 -2 10q-2 16 -2 37v26q0 8 -4 23q-4 25 -4 47v61q0 18 2 39q2 16 2 31q2 14 2 37q2 25 2 39v18q-8 6 -14 15l-10 14q-23 31 -27 63q0 4 -2 7 q-6 14 -14 28q-6 10 -17 25q-12 18 -20 33l-8 8q-14 12 -29 26l-12 9q-2 2 -6 2q-12 0 -25 2h-27q-10 0 -24 -4q-20 -4 -37 -9q-14 -4 -25 -8l-32 -12q-12 -4 -25 -10q-10 -4 -22 -13q-10 -4 -19 -12q-10 -8 -22 -22q-16 -18 -29 -33q-10 -12 -17.5 -23.5t-13.5 -23.5 q-6 -14 -14 -31q-6 -18 -15 -39q-8 -18 -10 -33q-6 -20 -12 -39q-2 -6 -2 -14q-2 -12 -2 -27z" />
<glyph unicode="h" horiz-adv-x="1007" d="M102 174v174v43q2 23 4 41q2 14 5 39q2 25 2 43q2 23 4 45q4 20 6 39q2 16 6 37q2 20 4 41q2 23 2 37q2 16 4 41q2 23 2 37q2 18 6 45q2 18 5 30v31v39v53q2 29 2 45v33q0 10 -2 29v51q-2 33 0 57v45q-2 16 -7 33l-8 25q-8 29 6.5 55.5t43 35.5t56 -5.5t36.5 -42.5l8 -25 q10 -35 10 -70q2 -29 0 -55v-49q2 -31 2 -53q2 -16 2 -31v-33q0 -18 -2 -49v-49v-39q0 -23 -2 -41q0 -10 -2 -25q8 10 20 23q16 18 35 33q12 12 25 24q16 14 37 29q25 18 47 25q14 6 28 10q25 8 56 10q23 0 35 2h34q25 0 52 -6q27 -8 55 -29q20 -12 43 -32q25 -20 43 -41 q16 -20 31 -39q23 -29 34 -60q10 -25 17 -41q8 -20 14 -57q4 -33 4 -55v-39q0 -31 -2 -53q-4 -12 -4 -35q-2 -29 -6 -49q-2 -14 -4 -26.5t-4 -35.5t-2 -35q-2 -14 -2 -40.5v-43.5v-39v-38q0 -20 2 -41q0 -16 2 -29q2 -12 6 -27q2 -12 6 -26l4 -17q6 -29 -10.5 -55.5 t-45 -33.5t-55 9.5t-32.5 44.5l-4 17q-4 16 -9 31q-2 14 -6 32q-2 20 -4 45q0 4 -2 41v47v39q0 18 1 48t1 44q2 14 2 39q2 27 5 42.5t6 33.5q2 12 4 33q2 31 6 49v29v39q0 10 -2 32q-4 20 -8 29q-4 14 -13 35q-6 14 -16 27q-14 18 -27 32q-8 12 -22 25q-18 14 -35 24 q-8 6 -12 7q-6 2 -11 2h-24q-14 -2 -37 -2q-12 0 -16 -2q-14 -4 -27 -9q-4 -2 -10 -8q-12 -8 -23 -16q-14 -14 -29 -27q-12 -10 -24 -22q-10 -12 -16 -21q-10 -16 -27 -37q-10 -14 -19 -32q-12 -20 -16 -33q-6 -14 -14 -37t-15 -47q-6 -25 -10 -41q-4 -23 -10 -43 q-4 -20 -10 -41l-6 -21q-6 -25 -29 -41v-12v-174v-24q2 -10 4 -25q2 -10 4 -19q6 -14 10 -32q6 -23 6 -45v-15q0 -31 -21.5 -52t-52 -21t-52 21.5t-21.5 51.5v15v6l-8 24q-6 20 -10 43q-4 20 -5 37q-2 16 -2 35z" />
<glyph unicode="i" horiz-adv-x="407" d="M104 223v39q0 25 5 55q4 25 6 43q2 8 2 21q0 25 2 43q2 14 4 27v38q2 31 4 48q2 8 2 22v39q2 18 4 35q2 10 4 29q0 16 2 57t2 53v131q0 31 22.5 52.5t52.5 21.5t51.5 -21.5t21.5 -52.5v-131q0 -16 -2 -60t-4 -65q-2 -20 -4 -37q0 -10 -3 -22v-29q0 -25 -4 -43 q0 -8 -2 -33q0 -29 -2 -43q0 -16 -2 -32q-2 -12 -2 -27q0 -25 -4 -47q-2 -14 -6 -39q-2 -18 -2 -33v-29q2 -14 2 -32q2 -18 2 -35v-23q2 -16 2 -34v-48q0 -31 -22.5 -52t-52 -21t-51 21.5t-21.5 51.5v48q0 14 -2 24v33q0 12 -3 27q0 16 -2 30zM105 1305.5q6 29.5 30 48.5 l15 8q29 18 57 22q29 4 59.5 -17t38.5 -56v-5q-1 -32 -23 -60q-24 -30 -53 -34l-14 -2q-20 -2 -41 9q-39 2 -59 32q-16 25 -10 54.5z" />
<glyph unicode="j" horiz-adv-x="655" d="M102 -302q4 30 30 48t54 14l15 -2q16 -2 39 -8q6 -2 16 -2h33q6 0 12 2q4 0 10 4q16 10 31 19q6 2 16 12q4 4 7 6q4 10 9 24.5t9 26.5v6q0 12 -1 23.5t-1 26.5l-4 28q-2 18 -4 35q0 14 -2 31q0 16 -2 37q-4 23 -7 45q-4 27 -4 41q-2 16 -2 37v77q0 29 2 47q0 18 1 33 t3 35v39q0 23 1.5 40t3.5 34q2 10 2 20v39q2 18 6 41q2 14 2 27v82q0 18 -2 41q-2 25 -4 38v37q0 18 -2 37q0 20 -2 51l-2 29q-2 31 18 54.5t50 25.5t53.5 -18.5t25.5 -51.5l2 -30q2 -27 2 -52q2 -25 2 -45v-26q2 -14 2 -39q4 -27 4 -51v-82q0 -25 -4 -49q-2 -14 -4 -29v-29 q0 -20 -2 -41q-2 -10 -3 -23.5t-1 -29.5v-45q-2 -23 -2 -39q-2 -20 -2 -31q-2 -14 -2 -39v-77q0 -14 1 -26.5t3 -33.5q4 -23 6 -47q4 -25 4 -45q2 -18 2 -29.5t2 -25.5l4 -29q2 -18 3 -34.5t1 -33.5q0 -25 -6 -47q-4 -16 -12 -37q-6 -20 -14 -34q-12 -29 -41 -54 q-23 -20 -43 -32l-25 -15q-25 -16 -51 -22q-25 -6 -49 -6h-33q-29 0 -55 6q-14 4 -23 6l-12 2q-31 4 -49.5 28.5t-14.5 54.5zM356 1303q4 29 27 51t51 26q6 1 12 1q50 0 74 -46q23 -14 31 -41q8 -29 -7.5 -55.5t-43.5 -34.5l-13 -4q-17 -5 -33.5 -5t-33.5 5q-33 8 -52 40 q-13 24 -13 48q0 7 1 15z" />
<glyph unicode="k" horiz-adv-x="968" d="M106 477q-5 14 -5 27q0 29 24 53v39v115v49q2 27 2 43q2 18 4 43q4 18 4 35v34q0 18 2 56q2 29 2 45q0 23 2 47q2 18 4 33q0 14 2 37l3 30v35q0 20 2 51q2 43 16 72l6 18q12 27 41 38.5t56.5 -1t39 -41t-1.5 -57.5l-8 -16q-2 -6 -2 -21q-2 -27 -2 -43v-35q0 -16 -2 -43 q-2 -20 -2 -35q-2 -14 -4 -36q-2 -16 -2 -33q0 -23 -2 -58q-2 -31 -2 -43v-34q0 -27 -4 -54q-2 -20 -5 -32q0 -16 -2 -41v-43v-115v-2q10 2 21 2q20 0 37 -2q16 -2 37 -4q10 -2 20 -2h57q10 12 17 20q6 12 16 31q12 18 21 35q10 20 22 41q14 23 33 45q14 18 25 31 q10 14 24 28q12 14 27 31q14 16 26 33q12 12 19 22q8 12 18 29q12 20 31 41l14 16q20 23 51 25t53.5 -18.5t24.5 -51.5t-18 -53l-14 -14q-10 -12 -19 -25q-10 -16 -18 -29q-10 -16 -27 -37q-16 -18 -31 -34q-14 -16 -26 -31q-10 -12 -21 -25q-10 -14 -26 -32 q-10 -14 -19 -27q-10 -18 -18 -35q-12 -18 -23 -39q-12 -23 -22 -37q-10 -16 -25 -34q-6 -6 -10 -11l24 -28q12 -16 25 -33q18 -18 31 -39q8 -16 16 -33l12 -20q10 -14 25 -33q12 -16 23 -29l20 -20q14 -14 29 -27q18 -16 34 -35q14 -14 27 -28q14 -14 27 -31l10 -12 q18 -25 15 -55.5t-26.5 -49t-54 -14.5t-49.5 27l-10 14l-20 20q-10 14 -25 29q-12 12 -27 25q-16 14 -30 28l-33 33q-12 16 -29 37q-14 20 -26 37q-12 18 -23 37q-6 12 -14 26q-6 8 -15 19q-14 16 -28 34q-12 16 -27 33q-18 20 -31 37l-8 8h-4q-23 0 -41 2q-16 4 -27 4 q-12 2 -26 3h-12v-33q2 -23 4 -39q2 -18 3 -50t3 -59v-45q0 -12 2 -33v-43v-141q0 -31 -21.5 -52.5t-52.5 -21.5t-52.5 21.5t-21.5 52.5v141v39q-2 23 -2 37v39q-2 29 -2 57q-2 27 -2 41q-2 18 -4 46q-2 18 -2 38q-19 13 -27 33z" />
<glyph unicode="l" horiz-adv-x="374" d="M104 104l5 19q2 16 4 29q2 6 2 18q0 25 2 47q4 14 4 31q2 12 2 22q0 18 2 47q2 23 2 33v109q0 18 -1 53t-3 66q-2 35 -2 55q0 14 -2 37q-2 25 -2 57q-2 33 -2 51v33q0 12 1 51t3 58q0 18 2 41v34v119v25q-4 20 -4 45v39q-2 20 -2 37q-2 18 -4 38l-5 41q-2 27 0 50l3 14 q4 31 28.5 49t54 14t48 -28.5t14.5 -53.5v-14q-2 -6 0 -18l4 -39q0 -20 2 -39q2 -20 4 -45v-45q0 -16 2 -29q2 -20 2 -41v-119v-41q-2 -23 -2 -43q-2 -18 -3 -53t-1 -47v-33q0 -16 2 -45q0 -31 2 -53q2 -27 2 -47q0 -16 2 -47q2 -33 3 -70t1 -57v-109q0 -16 -2 -45 q-2 -23 -2 -35q0 -16 -2 -39q-2 -20 -6 -38v-23q0 -23 -4 -41q-2 -14 -6 -35l-4 -20q-6 -29 -32 -46.5t-54.5 -11t-46 32t-11.5 55.5z" />
<glyph unicode="m" horiz-adv-x="1531" d="M102 475q0 25 2 41v33q2 23 2 39q2 14 0 30q-2 25 -2 41v37v39q2 12 2 33q2 18 0 41v45q0 31 13 64l8 18q10 29 39 40t56.5 1t39.5 -39t2 -57l-2 -9q16 29 47 54q31 27 60 39q25 8 47 14q23 6 45 8q23 2 43 2t47 -2q31 -4 57 -14q25 -8 47 -21q25 -14 45 -32 q16 -14 33 -31t33 -35q18 -20 31 -37q14 -18 22 -43q25 45 45 68q12 14 27.5 29.5t36.5 31.5q20 18 41 33q23 12 43 20q18 6 39 11q23 4 45 4q27 0 53 -8q23 -6 43 -17q16 -8 33 -16q23 -12 41 -27q16 -14 34 -33q12 -12 25 -26q20 -18 35 -39q18 -25 26 -51q4 -10 11 -23 q12 -23 20 -45q10 -27 10 -59v-39q0 -18 1.5 -42t1.5 -38v-41q0 -29 -5 -49q0 -8 -2 -21q0 -18 -2 -41q0 -23 -2 -43v-34q2 -25 0 -48q0 -23 -2 -41q-2 -10 -2 -18v-59q0 -10 2 -23q2 -20 2 -39v-26q0 -31 -14 -47.5t-34.5 -18.5t-41 1t-35 7t-14.5 6q-33 33 -37 70 q-4 18 -4 37v14q0 35 29 60v18q0 18 2 37q2 12 2 29q2 16 0 32v49q2 20 3 43t1 41q2 27 6 46v18v31q0 16 -2 43v47v39q0 6 -2 10q-4 12 -10 25q-12 23 -21 43q-2 6 -6 12q-8 10 -20 22q-14 16 -29 31q-10 10 -18 16t-19 13q-14 8 -29 16q-10 4 -20 6q-4 2 -10 2 q-10 0 -19 -2l-16 -4q-6 -2 -14 -6q-10 -6 -23 -18q-14 -12 -27 -27q-14 -12 -26 -27q-6 -6 -19.5 -30.5t-21.5 -57.5q-10 -39 -15 -63q-4 -27 -8 -49q-4 -25 -20 -97q-4 -20 -6 -34q-10 -45 -17 -74q-8 -31 -10 -60q-2 -31 -6 -65q-2 -35 -2 -51q-2 -23 -4 -39q0 -4 -2 -10 q2 -12 2 -21q2 -23 2 -41v-29q0 -31 -22.5 -42t-50.5 -6t-51.5 14.5t-25.5 13.5q-8 27 -8 57q0 27 4 51q2 8 2 15v117v30q-2 16 -2 35q-2 16 -2 37q0 20 -2 43v49q0 29 2 47q2 16 8 47q0 4 1 10.5t1 10.5v2v72q0 8 -2 28q-4 25 -8 43q-2 18 -6 31q-2 4 -4 6q-8 12 -21 27 q-14 14 -27.5 28.5t-27.5 24.5q-8 8 -18 14q-12 6 -25 11q-12 4 -27 6q-18 2 -29 2h-26q-12 -2 -24 -6q-14 -2 -29 -9q-8 -4 -21 -14q-12 -10 -16 -16q-8 -14 -16 -33q-10 -20 -21 -45l-14 -35q-2 -12 -4 -18q-2 -16 -8 -39q-4 -23 -9 -45q-4 -18 -6 -39q-2 -23 -4 -37 q0 -18 -2 -35q0 -18 -2 -35q-2 -12 -4 -26.5t-4 -30.5q-2 -14 -5 -38t-5 -38q-2 -12 -7 -39q-2 -23 -4 -37v-32v-50q-2 -25 -4 -45v-20v-33q-2 -12 -2 -22q0 -27 -22.5 -36t-50 -4t-51 13t-25.5 12q-4 19 -4 38q0 13 2 26q4 18 6 37v6q0 18 -2 33q0 18 -2 38t-4 39 q-2 23 -2 39v68q0 14 -1 32.5t-4 36.5q-2 18 -2 35q-2 16 -2 37z" />
<glyph unicode="n" horiz-adv-x="1009" d="M105 939.5q8 29.5 33.5 44.5t55 7t46.5 -35l10 -14q14 -29 20 -57q4 -18 4 -37q10 12 19 24q16 20 33 37q18 20 41 37q27 20 53 31q29 12 61 14q23 2 41 2h29h33q20 -2 43 -8q16 -4 32 -10q20 -6 43 -21q16 -10 37 -20q25 -16 43 -35q16 -16 33 -37q18 -20 29 -39 q10 -20 18 -41q4 -16 10 -30q4 -18 11 -43q6 -27 10 -50q2 -14 6 -30q8 -27 10 -56q0 -20 -1 -45.5t-3 -44.5q-2 -14 -4 -32q-2 -12 -4 -37q0 -29 -2 -47q0 -23 -6 -54q-4 -18 -4 -37q0 -29 -2 -53q-2 -18 -2 -28t1 -29t3 -35q2 -23 2 -45q0 -14 2 -29q0 -10 2 -18l2 -14 q6 -31 -11.5 -56.5t-47 -31t-55 11t-29.5 47.5l-5 14q-4 18 -4 39q-2 16 -2 37q0 14 -2 31q-2 20 -3 41.5t-1 36.5q0 16 2 41q2 18 2 40q0 31 6 64q4 23 5 35q2 16 2 45q2 33 6 55q2 16 4 29q0 10 1 28.5t1 34.5q0 10 -4 23q-8 25 -10 49q-2 16 -9 35q-4 20 -8 33 q-4 14 -10 28q-2 6 -6 15q-4 8 -15 18q-12 14 -22 27q-6 6 -19 14q-16 10 -32 18q-8 6 -15 9l-24 8q-6 0 -15 2h-22h-29q-10 0 -28 -2q-10 0 -19 -4q-10 -4 -20 -13q-12 -8 -23 -18q-12 -12 -24 -29q-10 -14 -25 -37q-14 -23 -22.5 -38t-14.5 -29q-6 -12 -8 -27 q-4 -18 -8 -39q-2 -18 -2 -24q0 -23 -9 -51q-4 -18 -6 -37q-4 -18 -4 -27q-2 -14 -4 -36.5t-2 -45.5q-4 -29 -6 -47q-4 -10 -6 -29q-2 -20 -4 -37q-2 -18 -4 -38.5t-2 -32.5q0 -16 -5 -43v-101q0 -20 -2 -38q0 -16 -2 -29q-2 -27 -59 -27h-15q-72 4 -73 27q-2 16 -2 43t2 51 q2 18 2 39t2 41v20v45q2 16 2 37v56q2 27 2 41v153q0 14 -2 29v49v55q2 18 2 29v82q0 20 -2 33q-4 25 -4 45q0 8 -2 16q0 4 -4 8l-8 17q-16 27 -8 56.5z" />
<glyph unicode="o" horiz-adv-x="1062" d="M104 494q-4 29 2 57q4 18 15 45q8 27 20 51q6 14 11 29q6 14 12 37q6 20 13 38.5t18 39.5q10 20 20 36q14 20 33 39q20 20 39 33q18 12 45 27q23 10 37 16q18 8 41 16q20 8 41 13q23 6 45 9t45 5q27 2 51 -4q25 -4 51 -14q20 -10 41 -23q12 -8 25 -14q21 -11 41 -29 q37 -2 55 -29l12 -12q14 -18 29 -43q10 -18 20 -35q12 -20 21 -41q10 -20 16 -41q6 -18 12 -41q4 -16 11 -32q6 -20 12 -45q8 -27 12 -47q2 -16 6 -37q2 -23 5 -41q2 -23 -3 -51q-4 -18 -4 -33q-4 -23 -10 -47q-8 -25 -18 -47q-8 -20 -18.5 -41t-20.5 -39q-8 -20 -21 -41 q-14 -27 -35 -47q-12 -16 -28 -31q-16 -18 -43 -37q-20 -16 -37 -31q-18 -14 -37 -28q-18 -14 -33 -25q-23 -16 -54.5 -26.5t-55.5 -10.5q-23 0 -51 8q-25 4 -48 15q-20 10 -38 18q-14 10 -31 19q-16 10 -31 20q-16 12 -43 33q-27 23 -49 45q-18 20 -35 39q-20 25 -31 45 q-6 14 -18 41q-10 27 -16 43q-6 18 -15 39q-6 20 -12 53q-8 35 -12 53q-4 25 -4 45q0 10 -3 25q-2 18 -2 31zM250 514q2 -18 4 -37q2 -23 2 -39q0 -8 2 -20q2 -14 10 -43q6 -29 11 -45q6 -16 10 -29q6 -14 14 -37q10 -23 16 -35q2 -6 11 -16q14 -14 28 -31q16 -16 37 -32 q23 -18 33 -27q12 -8 23 -14q14 -8 28 -17q10 -6 23 -12q10 -4 22 -6t19 -4q4 2 12 4t12 6q12 8 31 20q16 12 31 27q18 14 41 31q18 14 28 26q14 12 27 27q6 6 12 18q10 16 19 35q8 18 18 37q8 18 17 37q8 16 12 29q2 12 4 22q2 16 4 39q2 12 2 18q0 12 -2 29q-4 20 -6 35 q-2 12 -8 31q-6 20 -13 39q-6 23 -12 45q-4 16 -8 30q-6 12 -12 27q-4 14 -13 27q-10 14 -20 32q-6 11 -12 21q-25 2 -41 16l-13 13q-8 6 -14 10q-16 8 -33 18l-24 12q-8 4 -15 7h-18q-16 0 -30.5 -3.5t-29.5 -5.5q-16 -4 -32 -10q-14 -6 -25 -10q-14 -6 -37 -16 q-16 -8 -26 -15q-8 -6 -17 -14q-8 -10 -12 -16q-6 -8 -12 -23q-8 -16 -13.5 -28.5t-11.5 -28.5q-4 -18 -10 -37q-8 -23 -19 -47q-8 -16 -14 -35q-6 -18 -10 -33v-2z" />
<glyph unicode="p" horiz-adv-x="1026" d="M105 893.5q6 30.5 30.5 46.5t55 10t47.5 -30l10 -19q4 -4 6 -8q10 8 18 12q14 10 33 25q27 18 47 26q18 6 41 12.5t47 10.5q27 4 52 4q20 0 38 -2q27 -2 52 -10q18 -6 36 -15q14 -6 29 -10q23 -8 43 -20q14 -8 33 -21q25 -16 45 -35q16 -16 31 -28q18 -16 35.5 -39 t29.5 -43q12 -25 21 -51q2 -14 8 -31q8 -20 14 -39q6 -20 13 -47q6 -31 6 -62v-36q0 -16 -2 -48v-38q0 -20 -6 -54q-6 -31 -13 -49q-4 -12 -8 -31q-8 -31 -20 -55q-10 -18 -19 -39q-12 -27 -24 -47q-12 -25 -35 -49q-20 -25 -41 -43q-23 -16 -41 -29q-18 -12 -39 -22 q-18 -8 -37 -15q-25 -8 -47 -10h-47q-35 2 -55 6q-14 2 -35 6q-23 4 -43 11q-23 6 -47 18q-20 10 -39 23q-18 12 -37 26l-12 11q-2 -12 -3 -31q-2 -23 -4 -37q-2 -8 -2 -25v-39q0 -20 -2 -40v-41v-8.5v-8.5v-9v-9t-1 -8.5t-1 -5.5v-3q-2 -31 -2 -43v-108v-33l-2 -14 q-2 -31 -24.5 -50.5t-53 -17.5t-51 24.5t-18.5 53.5l2 14v23v108q0 18 2 47q2 23 2 48q0 29 2 49v32v39q0 27 2 45q2 12 4 31q2 16 2 27v37v43q2 12 2 32v154v49q2 35 2 53v35v31q0 14 2 45v45v31v14q-20 16 -25.5 42t5.5 48l8 15q4 8 10 18v2q0 20 -4 37q-2 8 -6 14l-10 17 q-16 25 -10 55.5zM281 270q10 -6 18 -16l14 -18q12 -14 23 -27q8 -8 18 -16l29 -23q10 -10 23 -16q12 -8 28 -17q12 -6 23 -8q10 -4 26 -6q23 -4 37 -8q8 -2 31 -2h35q4 0 6 2q10 2 22 8t25 14q10 6 23 17q12 10 26 26q12 14 17 25q8 14 18 35q10 25 20 45q6 12 11 26 q6 23 12 41q2 8 6 29q4 18 4 27v45q2 27 2 41v36q0 16 -4 31q-4 18 -8 33q-6 16 -12 35q-6 23 -13 43q-2 8 -6 16q-6 10 -16 23.5t-21 21.5q-14 14 -30 29q-10 10 -23 18q-18 10 -31 19l-16 8q-18 6 -37 14q-14 4 -29 10q-6 2 -10 3q-14 2 -30 2q-14 0 -31 -2 q-16 -4 -29.5 -7.5t-23.5 -7.5q-6 -2 -19 -10q-18 -14 -31 -23l-30 -24q-20 -18 -37 -35q-4 -2 -8 -6q2 -25 2 -37v-53v-31v-49q-2 -29 -2 -41v-31v-43q0 -20 -2 -49v-45v-72z" />
<glyph unicode="q" horiz-adv-x="1046" d="M102 463v49q0 27 2 47q2 16 7 37q4 20 10 45q8 31 16 52.5t25 49.5q14 27 31 52q18 27 40 49q18 20 41 41q25 25 54 43q29 20 59 33q23 6 33 12q16 6 51 16q35 12 53 15q23 4 43 4h29q20 0 51 -7q33 -6 62 -18q27 -12 47 -25q14 -10 30 -22q75 39 114 39q40 0 40 -43 v-189v-34q-2 -14 -2 -33v-45q-2 -18 -2 -31v-35q0 -25 -2 -45q-2 -16 -4 -35q-2 -16 -2 -32v-19q2 -18 6 -39q2 -27 4 -49v-37q0 -14 2 -33v-38q0 -10 2 -29q4 -27 4 -49v-299q0 -16 -2 -33q0 -23 -4 -41q-2 -6 -2 -14v-72q0 -31 -21.5 -52.5t-52 -21.5t-52 21.5t-21.5 52.5 v72q0 23 4 43q2 8 2 20q2 14 2 25v233q-6 -4 -13 -8q-25 -20 -47 -33q-27 -12 -59 -20q-29 -6 -47 -8q-18 -4 -35 -5q-18 -2 -45 0h-35q-23 0 -49 7q-23 4 -45 8q-25 6 -47 14q-25 8 -44.5 18.5t-37.5 22.5q-20 16 -43 41q-18 23 -29 41q-12 16 -24 39q-10 20 -17 37 q-6 10 -12 24q-8 14 -18 37q-10 25 -21 47q-6 20 -14 41q-12 33 -15 66zM250 469l4 -20q8 -20 16 -39q6 -18 15 -37q10 -20 18 -35q8 -18 14 -33q4 -10 13 -26q8 -14 15 -24.5t20 -27.5q10 -12 18 -16q10 -8 19.5 -13t21.5 -10q16 -6 33 -10q18 -4 39 -6q14 -4 22 -4h41 q18 -2 29 0q14 0 26 2q10 2 31 6q16 4 27 8q10 6 22 17q10 8 19 18q10 14 18 31q8 18 12 33q6 20 13 41q6 16 10 30t8 31q2 16 2 35q2 16 2 35v10q-2 27 -2 45v84v47q2 29 2 49v33v35l-8 4l-27 22q-23 20 -38 31q-16 12 -31 21q-8 6 -25 12q-14 6 -31 10q-16 2 -22 2h-29 h-16q-10 -2 -35 -10q-29 -8 -37 -12q-14 -6 -39 -17q-14 -6 -30 -16q-18 -10 -33 -27q-20 -18 -37 -35q-14 -16 -27 -32q-12 -18 -24 -39q-10 -18 -14.5 -30.5t-10.5 -33.5q-4 -23 -8 -41q-4 -16 -4 -28q-2 -8 -2 -27v-43z" />
<glyph unicode="r" horiz-adv-x="671" d="M102 8l2 12v23v61v33q2 12 2 29q2 16 3 33q2 20 6 39v16q0 23 2 45v35v39q0 23 2 45q2 14 2 26v39q0 23 2 45v39q0 20 2 41q0 20 2 43q2 33 10 56q4 12 8 26q6 20 13 39q8 20 18 39q8 14 21 33q14 23 32 41q23 23 52 35q6 4 16 8t14 6q16 6 35 14q29 12 53 15q20 2 50 2 q20 -2 32 -2h17q29 0 51 -21.5t22 -51.5t-22.5 -52.5t-50.5 -22.5h-17q-16 0 -39 2h-24q-6 -2 -17 -6q-18 -6 -30 -12q-4 -2 -10.5 -4t-11.5 -5.5t-9 -5.5q-2 0 -6 -4q-8 -6 -15 -16q-8 -14 -14 -27q-6 -8 -8 -16q-6 -12 -10 -27q-4 -18 -11 -35q-2 -6 -2 -20q-2 -20 -2 -39 q-2 -16 -2 -33v-45q-2 -20 -2 -39v-39q0 -18 -2 -41q-2 -16 -2 -30v-39v-43q-2 -18 -2 -37q0 -27 -4 -47q-2 -8 -2 -19q0 -14 -2 -30q0 -16 -2 -31v-23v-61q0 -16 -2 -33v-12q-2 -31 -25.5 -51.5t-53.5 -18.5t-50.5 25.5t-18.5 54.5z" />
<glyph unicode="s" horiz-adv-x="946" d="M108 297.5q11 28.5 38.5 40.5t56 1t41.5 -40l6 -12q4 -14 12 -31q6 -10 14 -25q6 -10 15 -18q8 -8 16 -14l31 -21q16 -10 31 -18q10 -8 26 -15q18 -10 33 -16q12 -4 25 -8q8 -2 20 -2q20 -2 45 -2h43q16 0 27 2q4 0 8 2q14 4 33 10q12 4 26 12q12 6 21.5 15.5l15.5 15.5 l4 8v4v33q0 8 -2 14q-2 10 -4 21q-2 6 -8 16q-6 8 -12 15q-12 10 -21 16q-6 4 -12 6q-12 4 -29 10q-20 6 -41 17q-18 8 -35 18q-12 8 -24 13q-16 8 -35 18q-14 8 -31 14q-23 8 -36 15q-14 6 -31 14q-8 2 -37 14q-23 10 -43 25q-16 8 -31 18q-14 12 -33 29q-29 23 -41 53 q-6 16 -14 35q-10 29 -10 57v41q0 29 6 56q4 23 10 39q8 18 17 38q14 23 39 48q23 23 41 36q16 10 28 19q18 10 37 20q14 6 29 13q20 8 47 14q25 4 47 6q27 0 51 -4q23 -2 45 -10q20 -6 37 -15q18 -8 39 -20q14 -10 29 -20q18 -12 45 -35q33 -27 47 -49q6 -10 16 -23 q18 -20 31 -41q8 -14 16 -27l11 -14q16 -27 10 -56.5t-31 -46t-55.5 -10t-46.5 30.5l-11 15q-10 14 -20 32q-6 10 -14 21q-16 18 -29 37q-4 6 -19 18q-20 16 -32 27q-14 8 -29 18q-8 6 -16 8q-10 4 -25 11q-10 4 -22 4q-8 2 -19 2q-12 0 -26 -4q-10 -2 -17 -5 q-12 -6 -26 -12q-8 -4 -19 -10q-12 -8 -27 -16q-6 -6 -18 -19q-10 -8 -12 -12q-4 -10 -7.5 -18.5t-7.5 -20.5q-2 -10 -2 -25v-41q0 -4 2 -6q4 -12 11 -26l2 -2q12 -10 22 -19l27 -18q8 -4 18 -11q33 -12 37 -14q18 -8 31 -14q12 -4 33 -12q27 -10 49 -23q14 -8 24 -14 q18 -6 35 -17q12 -8 27 -14q12 -6 24 -10l33 -11q20 -8 43 -22q18 -12 39 -31q23 -20 37 -47q16 -25 22 -45q6 -18 11 -39q4 -20 4 -43v-33q0 -27 -8 -51q-8 -25 -25 -47q-14 -20 -36.5 -39.5t-47.5 -34.5q-25 -14 -49 -22q-20 -6 -35 -12q-23 -6 -45 -9q-16 -2 -37 -2h-43 q-29 0 -51 2q-29 2 -53 9q-23 6 -43 14q-16 6 -39 18q-23 10 -43 23q-14 10 -33 20l-31 23q-20 12 -39 31q-18 18 -34 45q-14 23 -25 43q-6 16 -12 30l-6 15q-12 27 -1 55.5z" />
<glyph unicode="t" horiz-adv-x="839" d="M102 899q0 31 21.5 52.5t52.5 21.5h12h23l29 2q16 2 32 2h35q14 0 31 -2v39q0 29 4 57q4 23 6 35q2 16 6 35l4 18q6 31 32 47.5t55.5 10t47 -32t11.5 -56.5l-4 -16q-4 -16 -6 -27q-2 -14 -7 -38q-2 -16 -2 -33v-51q0 -4 -2 -11q18 0 28.5 -1t25.5 -1h34q12 0 31 2 q23 2 45 2h19q29 0 51 -22.5t22 -52t-22.5 -51t-50.5 -21.5h-19q-14 0 -33 -2q-25 -2 -43 -2h-34h-35q-12 2 -29 4v-25q-2 -27 -6 -47q-2 -16 -4 -30q-2 -8 -2 -27v-199q0 -14 2 -28q2 -16 4 -33q0 -12 4 -25q4 -20 4 -43v-84v-18q2 -6 4 -17q6 -18 10 -38q4 -16 9 -29 q2 -12 8 -26.5t14 -26.5q2 -6 10 -13q2 -2 7 -6q4 4 10 8l14 13q25 18 55.5 15t49 -26.5t15.5 -54.5t-26 -49l-16 -12q-18 -16 -37 -27q-31 -16 -63 -16q-31 0 -60 12q-23 12 -47 33q-27 23 -41 51q-12 20 -21.5 41.5t-15.5 42.5q-4 18 -8 39q-4 14 -8 26q-6 20 -8 39 q-2 18 -2 39v84q0 8 -2 15q-4 16 -7 36q-2 16 -4 35q-2 20 -2 43v199q0 29 2 47q2 14 7 33q2 16 4 37q2 18 2 30v2q-12 2 -21 2h-35q-10 0 -22 -2h-29q-16 -2 -33 -2h-12q-31 0 -52.5 21.5t-21.5 52.5z" />
<glyph unicode="u" horiz-adv-x="997" d="M105 919.5q6 30.5 31.5 46t56 8.5t45.5 -32l10 -16q16 -27 22 -62q6 -29 6 -49q0 -8 3 -24q4 -25 8 -56q2 -31 2 -55v-35q0 -16 -2 -37q-2 -14 -4 -30v-23v-145v-23q2 -16 4 -41q0 -12 4 -27q4 -20 8 -38q4 -12 8 -23q2 -4 10 -16q10 -10 19 -17q12 -8 26 -16 q16 -8 35 -14q14 -6 27 -11q12 -4 20 -4h33h47q23 0 43 2q20 0 37 4q18 4 33 7q14 4 25 8q4 2 8 6q8 6 12 12q6 10 12 25q6 16 11 30q6 18 10 37q4 20 6 33q2 10 4 31q0 10 2 20v101q0 18 1 47.5t3 60.5q2 27 2 45q0 14 2 41q0 29 2 53q2 23 4 45q0 23 2 43v33v39q2 5 39 13 q33 8 66 7h8q37 -1 37 -18v-145q0 -16 -2 -43v-29v-53q0 -31 -2 -66q-2 -33 -4 -63q-4 -25 -4 -37q0 -23 -4 -55q-2 -12 -3 -27v-188v-27q2 -16 3 -31q0 -12 2 -28q2 -14 4 -27q2 -10 6 -20l4 -15q10 -29 -4.5 -55.5t-43 -36.5t-56 4t-35.5 43l-6 14q-6 18 -11 39q0 6 -2 15 q-12 -8 -22 -13q-16 -4 -38 -10t-44 -10q-25 -4 -51 -6q-27 -2 -56 -2h-47h-43q-20 2 -47 8q-25 6 -49 16q-20 10 -43 21q-23 12 -43 26q-25 16 -47 43q-23 27 -33 52q-10 20 -16 47q-4 18 -11 41q-6 27 -6 53q0 16 -2 27q-2 18 -2 43v145q0 18 2 39q2 16 4 33v18v35 q0 16 -2 41t-6 45q-4 29 -4 49q0 8 -4 23q0 8 -2 10l-10 16q-14 25 -8 55.5z" />
<glyph unicode="v" horiz-adv-x="1085" d="M102.5 937.5q3.5 29.5 28.5 48t55.5 14t46.5 -26.5l13 -17q14 -18 28 -38q14 -25 25 -52q8 -18 16 -32q8 -18 23 -52q14 -33 20 -47q8 -16 15 -37q4 -12 12 -28q10 -20 16 -33q10 -16 21.5 -40t19.5 -38q10 -18 23 -47q12 -31 24 -59l19 -54q10 -29 18 -59q8 -27 15 -51 q6 -18 12 -37q2 8 6 18q6 25 12 45l13 33q4 16 14 47q10 33 23 66q14 33 24 51q6 12 14 31q10 23 21 39q6 10 18 34q12 23 17 35q6 14 16 35q10 20 19 37q8 16 16 35q6 14 10 24q4 14 8 29q6 20 14.5 40.5t18.5 41.5q6 14 12 27q2 6 5 16l4 14q8 31 34.5 46.5t55 8t45 -34 t8.5 -55.5l-4 -16q-4 -20 -12 -39q-6 -14 -17 -33q-6 -14 -12 -28.5t-8 -26.5q-6 -20 -12.5 -38.5t-16.5 -37.5q-8 -18 -16 -34q-10 -20 -19 -39q-8 -18 -14 -31q-6 -14 -21 -43q-14 -27 -22 -41q-6 -10 -14 -29q-10 -20 -19 -37q-6 -10 -16 -36q-10 -29 -19 -56 q-10 -31 -16 -49l-12 -33q-4 -16 -11 -37q-6 -27 -12 -45t-18 -51q-12 -31 -17 -47q-4 -10 -6 -20q-2 -14 -2 -31q-2 -12 -32.5 -32.5t-64.5 -24.5q-4 0 -7 -1q-29 0 -45 33q-4 8 -11 23q-14 23 -24 49q-4 16 -10 29q-6 16 -15 37l-18 40q-10 27 -19 56q-8 27 -16 55 q-6 25 -14 49l-19 51q-8 25 -20 50q-10 27 -19 41q-8 18 -20 43q-8 16 -15 26q-10 16 -22 41q-14 27 -23 51q-4 14 -8 25q-6 12 -20 45q-12 29 -21 45q-10 18 -18 43q-6 14 -14 27q-10 16 -21 28l-12 17q-18 25 -14.5 54.5z" />
<glyph unicode="w" horiz-adv-x="1454" d="M104 877q-6 31 11.5 56t46 30.5t54.5 -11t32 -47.5l4 -14q0 -2 4 -10q8 -14 18.5 -33t20.5 -37q12 -25 22 -49l15 -33q6 -12 14 -33q8 -23 14 -43q6 -16 15 -39q8 -23 16 -47q10 -29 19 -59q6 -25 10 -37q4 -16 10 -29q4 -16 10 -36q6 -25 11 -37q4 -14 10 -31 q4 -12 8 -23q0 2 2 4q6 25 12 43l15 35q6 23 16 49q8 25 12 39q6 16 13 37q6 16 13 37t11 35l10 35q4 23 8.5 36t10.5 33t12 37q6 14 14 45q8 27 19 60q12 37 22 57q19 39 55 42h11q29 -1 51 -13q26 -16 35 -29q18 -31 27 -61q6 -23 16 -54q12 -37 23 -71q8 -33 14 -57.5 t14 -67.5q8 -39 15 -64q6 -25 10 -45q8 -25 14 -45t12 -39q6 -20 13 -39q6 -16 10 -28q4 -14 10 -33q4 -12 10 -27q8 -16 17 -30q4 -12 10 -23l4 -4q4 18 8 31q4 25 11 45l10 45q6 18 8 37q4 16 10 41q6 23 8 45q4 25 7 51q4 31 10 63q6 31 12 58q4 25 8 47q6 29 15 53 q6 20 12 39q4 16 8 33q2 16 8 39q4 25 13 49q6 25 14 43q8 14 14 28l8 13q12 29 42 38t56.5 -4.5t36 -43t-2.5 -56.5l-7 -12q-6 -12 -12 -27q-4 -8 -8 -22q-6 -16 -10 -35q-4 -25 -9 -43q-4 -18 -10 -41q-6 -20 -12 -43q-6 -16 -10 -37q-4 -23 -11 -49q-6 -25 -10 -53 q-6 -29 -8 -54q-4 -29 -8 -55q-4 -31 -10 -57q-4 -25 -9 -41q-4 -18 -9 -38l-11 -44q-4 -20 -10 -45q-6 -27 -19 -68q-10 -35 -16 -51q-4 -16 -10 -35q-6 -23 -21 -47q-18 -31 -70 -38q-7 -1 -14 -1q-43 0 -67 41q-8 16 -19 39q-14 27 -22 43q-4 12 -9 23q-8 12 -14 24 q-12 16 -20 35q-6 12 -15 33q-10 20 -16 43q-6 16 -10 28q-6 14 -13 33q-4 18 -10 37q-8 20 -15 43t-14 47q-6 27 -12 53q-6 27 -14 68q-8 39 -14 61q-4 18 -13 46q0 -4 -2 -9q-6 -18 -8 -30q-4 -12 -10 -35t-10 -39q-6 -16 -13 -37q-6 -23 -14 -41q-6 -18 -10 -33 q-4 -14 -15 -41q-10 -29 -16 -51q-8 -23 -14 -37q-4 -12 -11 -32q-8 -23 -14 -50q-8 -23 -10 -36q-4 -16 -8 -39q-6 -29 -13 -52q-6 -29 -20 -53q-2 -6 -22.5 -16t-47 -18.5t-50.5 3t-30 45.5q-2 10 -4 19q-6 14 -10 31q-6 14 -10 30l-13 39q-6 16 -12 35q-6 20 -12 33 q-6 14 -14 37q-8 25 -15 45q-6 23 -8 37q-4 14 -8 24q-6 14 -10 29q-8 20 -15 51q-6 25 -14 45q-8 25 -16 47q-8 25 -15 45q-6 14 -12 31q-6 18 -12 31l-15 33q-6 16 -16 32q-10 20 -21.5 40t-19.5 36q-14 25 -19 49z" />
<glyph unicode="x" horiz-adv-x="1042" d="M103.5 999.5q2.5 30.5 26.5 49t54.5 15.5t48.5 -26l13 -14q12 -16 24 -35q12 -16 23 -35q8 -16 22 -43q14 -25 23.5 -39t23.5 -32q16 -20 31 -41q16 -20 35 -49q20 -29 31 -48q10 -16 22 -38q14 -25 33 -56q16 -29 25 -43q4 6 8 13q14 25 24 40q10 20 27 50q16 29 33 55 q14 25 26 43q10 16 24.5 40.5t27.5 47.5q12 18 18 35q10 18 18 33q8 14 19 32q10 16 18 31q8 14 13 27l8 12q12 27 41.5 37t56.5 -3.5t37 -43t-4 -56.5l-6 -12q-8 -16 -17 -33q-10 -14 -20 -32.5t-17 -30.5q-8 -12 -14 -27q-10 -18 -22 -43q-14 -23 -29.5 -48t-26.5 -46 q-12 -16 -26 -41q-14 -23 -31 -51q-14 -27 -25 -45q-12 -20 -26 -47q-16 -27 -29 -45q-8 -12 -20 -33q10 -14 16 -27q10 -16 21 -41q12 -25 24 -47q8 -20 14 -30q8 -12 21 -31q14 -23 39 -62q20 -33 43 -67q18 -29 35 -56q12 -23 20 -34l8 -13q16 -27 9 -56.5t-31.5 -45.5 t-55 -10t-47.5 33l-8 12q-10 14 -24 41q-12 23 -31 51q-16 27 -41 65q-25 39 -39 58q-14 23 -25 39q-10 18 -22 45q-8 16 -16 35q-4 -6 -9 -13q-18 -25 -32 -43q-12 -16 -29 -39q-18 -29 -34.5 -49t-53.5 -61q-35 -37 -51 -55l-37 -37l-15 -13q-20 -20 -50.5 -19t-52 22.5 t-20.5 52t23 51.5l14 14q12 10 27 27q18 20 53 57q33 37 46.5 53.5t29.5 40.5q20 27 35 45q12 16 27 39q16 20 28 43q8 14 17 27q-6 8 -13 18q-14 27 -22 39q-10 16 -31 52q-18 33 -33 57q-10 18 -20 35q-8 16 -27 43q-16 25 -29 41q-14 18 -28 37q-18 23 -31.5 42t-30.5 50 q-14 27 -22 43q-8 12 -17 24q-8 12 -18 25l-10 14q-18 23 -15.5 53.5z" />
<glyph unicode="y" horiz-adv-x="1054" d="M107 948.5q10 28.5 37.5 42t56 2t43.5 -38.5l6 -14q6 -12 18 -37q14 -27 29 -55q12 -25 25 -53q14 -31 24 -60q6 -23 19 -43q12 -25 20 -39t16 -35q10 -18 21 -38q14 -27 22 -43q4 -10 13 -27q10 -23 18 -41q8 -23 14 -39q10 -20 17.5 -40.5t13.5 -41.5q6 -18 10 -31 q4 -16 9 -30q4 -10 10 -31q8 -20 16 -39q0 -2 2 -4l11 33q6 23 14 41q4 10 10 26q6 18 10 30.5t11 31.5q4 16 8 33q2 20 7 41.5t11 39.5q4 20 10 37q4 16 11 33q6 20 16 41q6 16 12 33q4 16 11 35q4 23 9 41t11 36q4 16 10 41q6 27 11 45q6 23 11 40.5t11 37.5t16 43 q6 14 9.5 24.5l7.5 22.5l4 13q8 29 34.5 44t55.5 7t44 -36t7 -56l-4 -13q-4 -16 -9 -31.5t-15 -35.5q-6 -12 -11 -27q-4 -16 -9 -31.5t-9 -33.5q-4 -20 -10 -47q-8 -29 -13 -45q-4 -16 -9 -35t-9 -39q-8 -27 -14 -49q-8 -20 -17 -41q-6 -14 -12 -29q-4 -16 -8 -31 q-4 -14 -10 -30q-4 -16 -9 -37q-4 -18 -8 -37q-4 -23 -10 -45q-6 -20 -11 -35.5t-14 -36.5q-6 -18 -12 -35q-4 -8 -8 -20q-4 -18 -12.5 -42t-16.5 -42q-6 -14 -8 -25q-6 -16 -14 -39q-8 -25 -17.5 -47t-19.5 -43q-6 -12 -8 -22q-6 -20 -13 -43q-4 -16 -4 -25q-4 -23 -10 -43 q-6 -16 -12 -31l-6 -14q-10 -23 -33 -35q-10 -25 -29 -47q-20 -25 -47 -41q-18 -12 -39 -20q-16 -8 -33 -17q-23 -10 -41 -14q-23 -8 -47 -8h-28q-18 0 -37 2q-23 2 -45 6l-15 4q-29 8 -45 34t-9 55.5t33.5 45t57.5 8.5l15 -4q8 -2 16 -2q14 -2 29 -2h28q4 0 6 2q8 2 21 9 q16 6 33 14q12 4 22 12q4 2 10 8q4 6 9 13q6 16 12 34q8 20 16 39q4 10 8 23q4 12 9 24v9v92q0 12 -2 35q0 18 -4 30l-11 33q-4 12 -10 29q-8 20 -16 43q-10 25 -15 41l-8 24q-4 16 -10 35q-4 16 -10.5 32.5t-14.5 33.5q-8 20 -18 49q-6 14 -10 22q-10 23 -19 37 q-4 10 -14 31q-12 23 -23 43q-8 16 -16 31q-6 12 -21 41q-16 29 -26 61q-8 23 -21 47q-12 27 -22 51q-12 25 -25 50q-16 29 -22 45l-8 14q-12 27 -2 55.5z" />
<glyph unicode="z" horiz-adv-x="1093" d="M104.5 894q-6.5 30 10 55.5t47.5 31.5l14 2q12 2 25 6q16 4 37 8q23 6 42 9.5t42 5.5t53 2h110h45q25 -2 43 -2h41q12 -2 27 -2q20 0 51 -2q23 -2 41 -2h39q35 0 60.5 -24t33.5 -52q4 -17 4 -33q0 -30 -14 -61q-16 -31 -43 -66q-25 -33 -37 -49t-31 -37q-16 -20 -26 -33 q-8 -10 -21 -30q-18 -25 -28 -41q-12 -14 -31 -35l-29 -33q-10 -12 -24 -33q-18 -23 -33 -41q-10 -14 -18 -24q-6 -12 -17 -29q-10 -18 -31 -49q-18 -29 -34 -57q-18 -35 -31 -52q-10 -16 -31 -45q-14 -18 -24 -37h112h43q18 -2 47 -2h150q16 0 33 2h43h41h38q14 -2 29 -2 h17q31 0 52 -21.5t21 -51t-21.5 -52t-51.5 -22.5h-17q-18 0 -37 2h-30h-41h-35q-20 -2 -41 -2h-150q-31 0 -53 2h-37h-149q-25 0 -41 2q-31 2 -64 18q-31 16 -43 56q-4 14 -4 28q0 25 15 48q8 14 18 30q10 14 25 37q16 23 36 51q18 27 29 41q8 14 25 41q16 31 36 64 q18 29 29 45q10 20 21 35q10 16 26 36q12 16 31 39q18 23 31 37l28 35q14 18 25 31q8 10 22 30q16 25 29 41q10 12 29 35q16 20 29 35q10 14 34 45q-10 2 -20 2q-23 2 -35 2q-18 0 -35 2h-33q-20 0 -49 2h-39h-110q-23 0 -39 -2q-18 0 -32.5 -3t-31.5 -7q-20 -4 -34 -8 q-16 -4 -33 -6l-15 -4q-29 -6 -54 11t-31.5 47z" />
<glyph unicode="{" horiz-adv-x="770" d="M102 565q0 29 15.5 52.5t38.5 35.5q16 8 32 17q8 4 17 10q12 10 26 25q12 12 21 24q10 14 16 27q8 12 19 28q6 12 12 23q2 10 6 22q4 16 4 25v23v116q0 18 2 39q0 16 2 35q0 25 6 49q4 25 11 41q4 14 10 29q4 12 8 26q6 18 17 41q8 23 18 39q10 18 23 39q16 23 38 43 q18 14 35 27l27 18q12 10 26 23l19 12q23 18 53.5 14t49 -27.5t14.5 -54t-29 -49.5l-16 -12q-16 -12 -30.5 -23.5t-29.5 -21.5q-10 -6 -22 -16q-8 -8 -15 -17q-8 -12 -14 -22q-6 -12 -12 -29q-8 -16 -11 -29q-6 -16 -10 -30q-6 -12 -10 -27q-2 -10 -6 -23q-2 -12 -2 -26 q-2 -20 -2 -37q-2 -16 -2 -31v-116v-33q-2 -20 -8 -45q-6 -29 -15 -49q-10 -20 -20 -39q-10 -16 -19 -31q-10 -18 -22 -35q-14 -20 -35 -43q-18 -18 -39 -37l27 -18q20 -18 39 -41q12 -16 28 -39q16 -25 27 -41q8 -16 16 -35q10 -23 17 -47q4 -25 4 -49q0 -20 -2 -39 q-2 -12 -2 -25q-2 -25 -13 -53q-6 -14 -10 -24q-4 -8 -6 -19q-2 -6 -2 -16v-29v-33q0 -10 2 -18q2 -10 6 -23l10 -30q4 -12 11 -27q6 -14 16 -31q10 -18 23.5 -33.5t23.5 -25.5q14 -12 29 -27q20 -18 41 -45l43 -53q18 -23 15 -53.5t-26.5 -50t-54.5 -15.5t-51 27l-41 53 q-14 18 -27 29l-28 28q-18 16 -38 40t-34 51q-16 25 -27 49q-8 20 -14 37l-10 30q-6 20 -10 39q-4 18 -7 39v43v39q2 20 7 37q4 18 10 37q4 14 12 33l2 6l4 32v21q0 8 -2 18t-6 19q-4 10 -10 20t-19 31q-14 20 -26 35q-6 8 -13 12q-8 8 -20 14q-14 8 -29 17q-18 10 -34 20 q-47 31 -48 84z" />
<glyph unicode="|" horiz-adv-x="428" d="M104 1251q-8 29 7.5 56.5t44 36t55.5 -6t35 -43.5l6 -18q6 -23 10 -39q4 -14 8 -45q6 -31 6 -47q2 -16 3 -33v-35q2 -20 2 -33q2 -18 4 -43q2 -29 2 -49v-78q0 -23 2 -34q2 -23 2 -54q-2 -27 -2 -45q-2 -20 -4 -45q-4 -20 -4 -34.5v-36.5v-41q0 -16 -1 -35t-6 -45 q-2 -25 -4 -39q0 -10 2 -29q4 -29 4 -49q0 -18 -2 -43v-39v-33q0 -10 2 -26q4 -25 7 -39q2 -14 4 -37t2 -41q0 -10 2 -27q2 -16 6 -47t8 -60.5t6 -60.5q2 -18 4 -30q6 -23 9 -49q4 -29 4 -52v-18q0 -31 -22.5 -52.5t-52.5 -21.5t-51.5 21.5t-21.5 52.5v18q0 14 -2 35 q-4 20 -6 35q-4 23 -8 53q0 23 -4 49l-8 58q-6 35 -9 55q-2 25 -2 41v29q-2 16 -4 28t-6 35q-4 31 -4 51v33v43q2 25 2 39q0 12 -2 33q-4 33 -2 53q0 18 4 47q2 23 3 37t1 27v41q0 27 1 45t3 43q2 20 4 37q0 16 2 41v32q-4 20 -4 51v78v37q-2 23 -4 39q-2 18 -4 43v41 q0 10 -2 21q0 10 -4 34q-4 29 -6 39t-8 27z" />
<glyph unicode="}" horiz-adv-x="774" d="M102 1363q4 30 29 49.5t53 14.5l17 -2q27 -4 57 -18l35 -16q23 -12 43 -29q23 -18 39 -41q12 -16 24.5 -30.5t26.5 -30.5q20 -23 31 -43q10 -16 18 -37q12 -31 12 -60v-129q0 -16 -1 -35.5t-3 -37.5t-4 -37q-2 -16 -2 -31v-33q0 -4 2 -10q4 -14 10 -31q4 -12 13 -31 q8 -18 18 -38t17 -35q6 -10 12 -23q8 -12 18 -22q6 -6 13 -11l20 -10l16 -4q49 -10 55.5 -47t-12.5 -70l-20 -30q-23 -16 -39 -27l-16 -12q-10 -10 -19 -21q-8 -12 -16 -22l-19 -29q-6 -8 -8 -16q-4 -12 -8 -33q-4 -23 -6 -39t-2 -33v-63v-37q-2 -18 -2 -43q-2 -25 -2 -43 q-2 -23 -4 -41q-2 -20 -6.5 -43t-10.5 -41t-14 -41q-6 -18 -10 -33q-8 -23 -23 -47q-16 -23 -37 -43q-20 -20 -45 -37q-25 -16 -49 -28q-20 -8 -35 -15l-12 -6q-27 -10 -55.5 1t-41 39t-1 56.5t40.5 40.5l12 4q12 6 31 15q14 6 28 16q14 8 23.5 18.5t15.5 18.5t8 14 q4 14 13 37q6 18 10 33q4 10 6 27q4 16 6 30t2 31q0 18 2 43q0 25 2 43v31v63q0 25 2 47.5t9 51.5q6 33 14 57q10 25 25 47l18 29q10 16 25 32q10 12 22 27q-8 6 -12 12q-18 18 -33 39q-14 20 -25 43q-8 16 -16 35q-10 20 -20 43q-10 25 -17 45q-6 18 -12 35q-8 27 -8 51v33 q0 23 4 45q0 18 2 37q2 16 3 31.5t1 27.5v129v2q-6 12 -10 21q-4 8 -15 18q-16 18 -30.5 35.5t-26.5 34.5q-6 8 -14 16q-10 6 -19 10l-32 17q-6 4 -11 4l-14 2q-31 4 -50.5 28.5t-15.5 54.5z" />
<glyph unicode="~" horiz-adv-x="1255" d="M104 457l2 16q4 27 21 53q10 16 24.5 39t38.5 51q25 29 48 50q25 20 49 34q27 16 56.5 24.5t62 8.5t59.5 -8q27 -6 49 -18q20 -12 43 -31q14 -10 33 -23q23 -14 37 -22q16 -10 49 -35q27 -20 47 -35q23 -16 43 -33q18 -14 37 -28q10 -8 20 -13q18 -6 31 -10h12h8 q6 2 17 8q12 8 49 39q29 25 37 37q12 18 18 31q8 12 15 24l6 15q12 27 41.5 36t56.5 -4.5t37 -42t-4 -57.5l-6 -12q-6 -14 -15 -29q-10 -18 -26 -41q-18 -33 -66 -71q-43 -35 -65 -50q-25 -14 -47 -22q-29 -8 -56 -8q-25 0 -47 4q-18 6 -43 14q-35 10 -63 33q-20 16 -39 33 q-18 12 -37 26q-23 16 -51 39q-25 18 -35 25q-16 10 -39 24q-27 16 -47 33q-12 10 -23 17q-8 4 -16 6t-20.5 2t-23.5 -3t-22 -10q-10 -6 -24 -18q-14 -14 -33 -35q-20 -23 -30.5 -39t-18.5 -28q-2 -4 -2 -7l-4 -16q-4 -29 -29.5 -46t-55.5 -12t-47.5 30.5t-11.5 54.5z" />
<glyph unicode="&#xa2;" horiz-adv-x="964" d="M102 616q2 31 5.5 55.5t7.5 43.5q6 20 16 45t31 51q20 27 45 49q25 23 51 39q23 16 53.5 34.5t46.5 27.5q20 10 50 22q23 10 45 14v72q0 14 -2 37t-7 43q-4 16 -8 25l-6 14q-12 29 -1 57.5t39 40.5t56.5 1t40.5 -40l6 -14q10 -23 17 -53q6 -29 8 -58q4 -31 4 -53v-65 q12 -2 25 -7q20 -8 43 -18q16 -10 34 -18q23 -14 46 -33q27 -23 45 -49q16 -23 28 -52q8 -23 17 -41q12 -27 18 -51q6 -25 6 -51l2 -16q2 -31 -18.5 -53.5t-51 -24.5t-53 18.5t-24.5 50.5v19q-2 10 -4 22q-4 12 -11 27q-8 20 -18 41q-6 16 -14 29q-6 8 -17 18q-12 10 -22 16 q-16 8 -31 17v-2q-2 -27 -4 -53q-2 -23 -2 -52v-53q0 -25 -2 -59q-4 -29 -4 -47.5v-49.5q0 -37 -2 -69q-2 -31 -6 -60q-2 -23 -5 -38v-41q2 -33 0 -62q0 -31 -2 -49q-2 -12 -2 -31v-16q6 2 13 6q10 6 26 14q16 12 31 21l18 18t17 23q10 23 20 41l9 16q14 27 43.5 36t56 -5 t35 -44t-3.5 -56l-11 -17q-6 -14 -14 -33q-14 -31 -41 -59q-25 -29 -47 -43q-14 -10 -33 -21q-20 -14 -37 -22q-16 -8 -31.5 -16.5t-31.5 -16.5l-4 -4v-92v-29q0 -12 2 -22l2 -15q4 -29 -14.5 -54t-48 -29.5t-54 14t-29.5 49.5l-2 12q-2 16 -4 37v37v59q-27 2 -55 11 q-29 10 -59 30q-20 14 -41 31q-25 18 -44.5 39.5t-31.5 44.5q-12 20 -25 47q-10 25 -18 53q-10 31 -14 52q-4 16 -8.5 42.5t-6.5 40.5q-4 16 -8 46q-4 29 -8 57q-4 31 -8 55q-4 27 -7 43q-2 20 -2 53zM250 582q2 -14 6 -39t8 -56t8 -59q4 -25 7 -39q4 -14 8 -41q4 -23 8 -43 q2 -10 8 -31q8 -23 16 -43q6 -18 15 -30q6 -10 15 -20.5t22 -20.5q18 -12 37 -27q10 -6 18 -10v12q-2 25 -2 47q0 27 2 47q2 14 4 39v49q-2 33 0 54q0 20 4 49q2 23 4 52.5t2 59.5q0 35 1 56.5t3 54.5q2 27 2 45v53q0 35 3 62q2 20 4 39q-16 -6 -25 -11q-14 -8 -41 -24 t-47 -29q-18 -12 -35 -26q-12 -12 -24 -27q-10 -16 -15 -27q-6 -10 -8 -18q-2 -12 -4 -28.5t-4 -41.5v-28z" />
<glyph unicode="&#xa3;" horiz-adv-x="1116" d="M103.5 613.5q5.5 29.5 30 48t52.5 14.5l25 -4q20 -2 33 -2q18 0 51 -2h2q0 18 -2 51q0 25 -4 49q-6 31 -10 51q-2 23 -5 49q-2 23 -4 41q0 20 2 52q2 39 9 61q8 23 22 53.5t33 52.5q16 23 43 50q29 31 53 45q18 12 33.5 21t36.5 20q20 12 47 22t59 21q37 10 62 12 q20 2 45 -2q33 -2 63 -17q23 -12 49 -28q27 -14 48 -29q25 -18 45 -39q23 -23 36 -43t25 -51l18 -45l9 -23q12 -27 -0.5 -55.5t-41 -39.5t-56 1.5t-40.5 40.5l-8 23q-8 20 -16 43q-8 18 -13.5 25t-17.5 20q-12 12 -24 22q-16 10 -39 25q-20 12 -37 20q-8 4 -15 4h-22 q-6 0 -29 -6q-25 -8 -45 -16l-35 -14q-16 -8 -28.5 -16.5t-28.5 -18.5q-10 -6 -29 -25q-18 -20 -28 -35q-10 -12 -19.5 -30.5t-11.5 -28.5q-4 -8 -4 -29q-2 -25 -2 -34q2 -12 4 -39q0 -20 4 -39q2 -16 8 -45q6 -35 6 -72q2 -31 2 -47q0 -4 2 -12q12 0 23 -2q16 0 33 -3h30 h95q14 0 39 -2h30h23l14 2q31 2 53.5 -18t24.5 -50t-18.5 -53.5t-49.5 -25.5h-14q-16 -2 -33 -2q-14 0 -37 2h-32h-95h-38q-14 2 -29 2v-22q0 -20 2 -29q2 -16 6 -33q2 -23 2 -51v-33q0 -20 -6 -51q-4 -25 -8 -47q-4 -20 -8 -39q-4 -18 -11 -39q-4 -18 -10 -33h12h33 q20 2 49 2h310q27 0 45 -4l14 -2q31 -4 49.5 -27.5t14 -54.5t-29 -49t-55.5 -14l-12 2q-10 2 -26 2h-310q-25 0 -41 -2h-41q-12 0 -20 -2q-18 -4 -33 -6q-16 -2 -35 -2q-18 -2 -45 0q-20 2 -42.5 27.5t-26.5 57t22 58.5l2 2q6 12 13.5 28.5t13.5 28.5q4 8 6 23q6 18 8 35 q4 18 8 39q6 23 11 45q2 16 2 22v33v27q-4 16 -6 26q-4 20 -5 60v28h-26q-31 2 -47 2q-25 0 -56 4l-22 4q-31 4 -49.5 29t-13 54.5z" />
<glyph unicode="&#xa5;" horiz-adv-x="1226" d="M102 1263q0 31 20.5 52.5t51.5 22.5t53 -19l19 -19q20 -20 41 -38l37 -39q23 -23 36 -41q12 -16 29 -43q14 -25 23 -39q8 -14 18 -35q8 -16 16 -29l25 -30q16 -20 29 -41l18 -31q10 -18 23 -43q10 -20 18 -35q10 -16 23 -37q10 -20 20 -43q12 -25 19 -49q6 -18 10 -37 q2 -8 6 -22h2q4 14 12 30q10 25 23 52q10 20 20 47q12 25 25 55q12 33 24 51q8 16 19 35q10 14 24 39q10 16 19 33l22 43q10 20 17 37q8 18 18 38q12 23 23.5 40.5t32.5 37.5q10 14 18 27q12 18 27 35q12 14 20 24l10 15q18 25 48 29.5t54.5 -13.5t29.5 -49t-13 -53l-10 -15 q-12 -18 -27 -35q-10 -10 -16 -20q-12 -18 -31 -39q-12 -16 -19.5 -26.5t-15.5 -24.5q-8 -16 -14 -31q-8 -18 -21 -43l-20 -43q-12 -23 -25.5 -45t-23.5 -38.5t-19 -29.5q-6 -12 -16 -36q-12 -31 -25 -58q-10 -27 -22 -53q-4 -4 -6 -8q14 0 24 2q14 0 31 2h41t45 -2 q23 -2 33 -2l14 -2q31 -2 51.5 -24.5t18.5 -53.5t-25.5 -51.5t-52.5 -18.5l-14 2q-14 0 -37 2q-16 2 -33 2h-33q-16 -2 -28 -2q-10 -2 -31 -4q-25 -2 -53 -4h-13q-8 -18 -16 -35q-10 -20 -16 -38q-6 -14 -11 -29q2 -8 4 -19q2 -16 2 -28h218h28q14 2 35 2h18 q31 0 52.5 -22.5t21.5 -52.5t-21.5 -51.5t-52.5 -21.5h-18q-14 0 -25 -2h-38h-218v-14q0 -25 -4 -49q-2 -25 -8 -43q-2 -14 -6 -35t-4 -35q-2 -14 -2 -26v-29q0 -23 -37 -27t-74 5.5t-39 17.5q-2 20 0 53q2 29 7 51q4 14 4 27v35q-2 27 -2 45v24h-91q-14 0 -40 -2 q-31 -2 -66 -4q-29 -2 -37 -4l-14 -4q-29 -8 -55.5 7t-35 44t7 56.5t46.5 33.5l14 4q20 6 62 11q37 2 67 4q33 2 51 2h97q0 18 2 37q0 8 2 12q-2 14 -6 27q-6 23 -9 40q-2 16 -6 29v2h-22h-53h-33q-18 0 -49 2q-29 4 -46.5 6t-31.5 4q-18 4 -39 13l-16 4q-29 10 -42.5 37.5 t-4 56.5t37 42t56.5 5l16 -6q12 -4 22.5 -6t20.5 -4q16 -2 41 -4t35 -2h33h34q-4 10 -6 21t-10 24q-8 18 -16 35q-10 18 -21 34q-10 16 -22 43q-10 20 -19 33l-18 33q-6 10 -17 22q-16 20 -28 39q-14 20 -27 43q-10 18 -18 31q-6 12 -21 37q-12 20 -20 31q-6 10 -23 24 l-37 39q-18 18 -37 35l-20 20q-23 20 -23 51z" />
<glyph unicode="&#xa7;" horiz-adv-x="1095" d="M102 496q0 31 4 55q4 25 13 47q8 16 22 43q14 25 25 45q14 20 27 41q16 23 34 41q14 14 29 27q-20 20 -33 39q-10 14 -22 36q-12 25 -21 41q-8 20 -14 50q-6 29 -6 49q0 27 12 63q10 27 16 45q8 25 23 47q12 20 33 41q20 25 45 41q23 14 41 23q14 6 45 16q25 10 39 17 q18 8 45 18q27 8 49 14q25 6 53 6h35q20 0 43 -2q23 -4 53 -14q27 -8 43.5 -14t46.5 -21q27 -14 43 -22q23 -12 45 -29q23 -18 43.5 -43t32.5 -45q10 -20 19 -39q6 -16 14 -41q8 -29 10 -47l2 -12q4 -31 -14.5 -55.5t-48 -28.5t-54 14.5t-28.5 48.5l-2 13l-6 24 q-6 18 -11 29q-4 10 -10 20q-4 10 -15 23.5t-24 21.5q-10 8 -22 15q-14 8 -39 20t-37 17q-10 6 -33 12l-24 6q-14 2 -27 2h-35q-12 0 -20 -2q-12 -4 -33 -10q-18 -8 -33 -15q-18 -8 -49 -20q-27 -8 -39 -14q-6 -2 -18 -11q-6 -4 -17 -14q-10 -12 -16 -23q-6 -8 -8 -18 q-8 -16 -15 -41q-4 -10 -6 -16q0 -6 4 -19q2 -14 6 -22t13.5 -26.5t17.5 -29.5q4 -6 19 -18q16 -18 28 -27q14 -8 29 -18q18 -10 41 -25q23 -12 41 -23t31 -18q14 -8 28 -18q10 -4 19 -8q18 -8 37 -21q20 -10 38 -24q16 -12 35 -25q14 -8 29 -16q20 -12 43 -23 q23 -12 39 -24q14 -8 26 -15q18 -10 41 -28q23 -20 41 -45q18 -23 29 -41q8 -12 16 -29q14 -20 23 -47q12 -33 12 -60q0 -25 -8 -53q-8 -23 -18 -43q-10 -16 -23 -37q-12 -18 -24 -34q-14 -16 -35 -37q-18 -16 -41 -35q-12 -8 -25 -19q4 -4 6 -8q14 -16 29 -33 q18 -23 33 -43q12 -18 22 -34q12 -23 23 -52q6 -20 10 -41q4 -23 6 -47v-41q-2 -25 -8 -49q-6 -23 -16 -45q-12 -27 -35 -50.5t-55 -41.5q-27 -14 -54 -27q-29 -12 -49 -18q-16 -4 -31 -6q-10 -4 -24 -6q-23 -8 -58 -11q-29 -2 -47 -2h-32q-18 0 -45 2t-52 9q-23 6 -41 10 q-18 6 -39 16q-16 8 -36 17q-25 12 -50 26q-27 16 -49 41q-20 23 -34 41q-14 23 -25 51q-6 20 -12 37q-6 14 -15 29l-8 18q-12 27 -2 56.5t38 42t56.5 2t40.5 -36.5l8 -19q10 -20 19 -39q6 -18 14 -40q4 -12 8 -19q6 -8 19 -20q10 -10 20 -19q16 -10 33 -16q20 -10 37 -19 q12 -4 22 -8q12 -4 31 -8q14 -4 31 -4q18 -2 31 -2h32q12 0 37 2q18 0 27 4q18 4 35 8q10 2 22 6q10 2 29 11q18 8 41 20q12 8 18 14.5t11 12.5q4 10 6 20q4 10 4 19v24t-4 25q-2 14 -9 30q-2 12 -6 17q-8 14 -18 29q-8 12 -19 26q-16 16 -32 37q-18 20 -31 41q-8 12 -12 29 q-14 4 -31 8q-31 8 -49 12t-31 8q-14 2 -31 6q-12 4 -22 7q-18 4 -45 12q-25 8 -47 18q-18 6 -33 13q-20 6 -37 12q-20 8 -43 22q-23 12 -45 33q-20 18 -39 37q-18 20 -37 49q-16 25 -24 39q-10 16 -21 35q-8 18 -18 49q-12 35 -15 66zM250 504q0 -12 6 -27q6 -18 12 -31 q6 -12 13 -24l22 -33q12 -18 23 -29q12 -14 28 -28q12 -12 25 -19q10 -6 18 -10q12 -4 27 -10q23 -6 45 -17q18 -6 39 -14q18 -6 29 -8q14 -2 30 -6q12 -4 23 -6q14 -4 35 -9q20 -4 53 -14q20 -4 39 -10q18 14 37 29q16 14 30 26q12 10 19 21q8 10 18 24t15 25q6 8 8 20 q2 2 2 6t-2 9q-6 12 -13 24q-8 16 -16 29q-4 8 -16 22q-10 14 -23 23q-10 10 -18 14q-14 8 -31 19q-14 8 -33 18q-20 12 -39 23q-25 12 -45 26q-18 12 -37 27q-14 8 -26 16t-21 13q-18 6 -37 18q-14 8 -26 14q-14 8 -33 21q-18 10 -41 24q-6 5 -12 7q-2 -4 -6 -7l-15 -12 q-12 -10 -24 -22q-8 -10 -17 -23q-12 -16 -22 -33q-10 -18 -23 -41q-12 -20 -16 -30q-2 -4 -2 -13q-2 -10 -2 -22z" />
<glyph unicode="&#xa9;" horiz-adv-x="1501" d="M102 653q0 27 2 58q2 27 5 45q2 16 6 39t12 45q6 18 16 45q10 29 28.5 61.5t37.5 54.5q16 23 35 39q12 12 35 39q27 29 51 54q31 33 78 59q45 27 81 41q35 12 52 16q12 4 33.5 10.5t46.5 10.5q23 6 45 12q23 6 34 8q14 4 41 10q29 6 64 13q39 6 69.5 6t49.5 -4 q14 -2 41 -4q29 -4 59 -13q39 -8 63 -20q20 -8 52 -23q27 -14 45 -22t33 -16q23 -10 43 -31l12 -12q18 -16 22 -42t-8 -49q2 -4 4 -6q16 -16 33 -35q16 -23 31 -45q16 -25 26 -55q12 -33 15 -57q2 -18 4 -41v-43v-27v-31q0 -16 -2 -32q-2 -18 -4 -37q-4 -12 -7 -29 q-4 -20 -8 -39q-2 -6 -4 -20q-2 -25 -8 -56q-6 -35 -16 -55q-2 -8 -9 -24q-4 -20 -10 -37q-4 -16 -8 -33q-8 -25 -23.5 -55.5t-31.5 -51.5q-12 -14 -29 -34q-18 -25 -39 -50q-20 -25 -47 -49q-29 -29 -57 -45q-25 -14 -49 -24q-23 -10 -37 -17q-16 -6 -31 -12l-31 -12 q-14 -4 -41 -15q-27 -10 -45 -16q-23 -6 -43 -10q-16 -4 -37 -6q-25 -4 -69 -2q-43 0 -64 4q-18 2 -37 6q-18 4 -41 10q-23 4 -63 18q-45 14 -68 27q-18 10 -47 31q-25 18 -53 43q-33 27 -53 51q-18 23 -29 39q-14 18 -25 39q-8 14 -16 29q-10 18 -24 45q-10 25 -19 38 q-12 20 -20 44q-6 23 -15 47q-6 27 -14 61q-8 33 -12 51q-4 23 -7 43q-2 20 -4 45zM250 659q2 -18 2 -34q2 -14 6 -29q2 -18 10 -49q6 -31 13 -53q6 -20 12 -37q4 -12 10 -25q10 -16 23 -41q10 -23 18 -37q10 -18 21 -35q6 -12 14 -24t22 -31q12 -14 33 -31q25 -20 47 -36 q20 -14 33 -21q8 -6 39 -16q35 -10 51 -15q20 -4 39 -8q16 -4 31 -6q10 -2 43 -4q31 0 43 2q18 2 33 6q12 2 22 4q16 6 41 15q25 10 41 16l29 10q14 6 28 13q12 4 33 12q16 8 33 18q14 8 31 25q23 20 39 39.5t32 40.5q16 25 31 41q8 8 16.5 25.5t10.5 25.5q6 18 10 35 q4 14 10 34q6 27 14 43q4 8 9 27q4 25 6 41q2 27 8 47q2 10 4 23q2 18 6 32q2 10 2 19q2 10 2 22v31v35v29q0 16 -2 30q-2 8 -6 25q-6 14 -14 27q-8 12 -21 26q-14 18 -28 35q-12 14 -35 35q-23 23 -41 37q-14 14 -23 18q-10 6 -28 16q-20 8 -29 11q-14 2 -31 4 q-23 4 -45 10q-27 6 -47 16l-14 7q-23 11 -33 34q-14 0 -29 -2q-29 -4 -51 -10q-23 -4 -33 -8q-14 -4 -41 -10q-23 -6 -45 -11q-23 -6 -42 -11t-33 -9q-10 -4 -41 -14q-25 -8 -58 -29q-29 -16 -47 -35q-23 -23 -45 -49q-27 -29 -41 -45q-12 -10 -22 -25q-12 -14 -25.5 -37.5 t-19.5 -42.5q-10 -23 -15 -38q-4 -12 -6 -27q-4 -16 -6 -29q-2 -14 -2 -39q-2 -20 -2 -39zM440 684v35q0 23 4 53q4 29 7 45q6 23 20 53q16 35 35 58q20 23 49 45q33 23 57 31q4 2 14.5 6t14.5 6q20 6 47 12t57 8h41q23 0 43 -4q18 -2 39 -8q25 -6 41 -10q18 -8 41 -21 q27 -14 49.5 -36.5t34.5 -43.5q10 -20 19 -45q8 -31 6 -61l-2 -16q-4 -31 -28.5 -49.5t-54.5 -15.5t-49.5 27.5t-15.5 53.5l2 16v2q-2 8 -6 15q-2 4 -10 12t-16 12q-12 6 -19 10q-10 2 -26 7q-16 4 -31 8h-17h-34q-18 0 -31 -4q-16 -4 -27 -8q-18 -6 -30 -11q-6 -4 -23 -14 q-16 -12 -23 -21q-6 -6 -14 -22q-6 -14 -8 -23q-2 -12 -6 -34q-2 -20 -2 -33v-35q0 -14 2 -37q2 -27 4 -43q2 -12 6 -33q4 -23 8 -34q4 -12 13 -29q6 -14 10 -21q8 -10 22.5 -27.5t26.5 -29.5q10 -10 27 -22q14 -10 26 -15q8 -4 12 -4q10 -2 19 0q6 0 16 2q12 4 23 8 q10 4 22 9q6 10 11 20q6 16 14 35q8 27 20 47l7 12q16 27 45.5 35t55.5 -7t34 -45t-6 -56l-9 -13q-4 -8 -10 -22q-8 -23 -16 -43q-10 -25 -27 -47q-23 -33 -53 -48q-16 -8 -33 -14q-18 -8 -39 -12q-25 -8 -45 -8q-16 -2 -37 0q-29 2 -59 14q-29 12 -60 33q-25 20 -43 39 q-16 16 -34.5 36.5t-28.5 36.5q-14 18 -27 48q-10 25 -16 43t-12 47t-11 49q0 16 -4 43q-2 33 -2 53z" />
<glyph unicode="&#xad;" d="M107.5 538.5q11.5 28.5 39.5 41.5l27 12q37 16 68 20q25 4 57 9q33 2 51 2t56 -2q29 -2 46 -3.5t31 -3.5q18 0 39 -4q10 -2 33 -2h98q31 0 52.5 -21.5t21.5 -52t-21.5 -52t-52.5 -21.5h-98q-35 0 -57 4q-12 2 -25 2q-14 2 -29 2q-18 2 -53 4q-29 2 -41 2t-39 -2t-45 -6 q-12 -2 -33 -10l-28 -13q-27 -12 -55.5 -0.5t-41 39t-1 56z" />
<glyph unicode="&#xae;" horiz-adv-x="1464" d="M102 618v44q0 31 2 69q4 39 9 57q0 4 6 29q2 16 8 35q6 20 20 59q14 37 24.5 56.5t31 50.5t41.5 53q18 23 32 39l39 39q23 16 58 39t55 33q18 8 35 16q18 10 39 16q18 8 50 18.5t48 16.5t29 10q16 6 44.5 12.5t51.5 8.5q20 2 43 4h49q31 -2 66 -12q29 -8 57 -21 q29 -12 47 -22q23 -8 49 -25q17 -12 33 -22q14 -2 25 -7l18 -10q29 -14 55 -37q23 -23 43 -47q18 -23 29 -39q10 -16 21 -34q10 -16 18 -31q12 -20 20 -41q8 -14 15 -31q6 -16 14 -39q6 -20 12 -43q8 -25 13 -41q6 -20 8 -47q2 -25 2 -45v-37q0 -23 -2 -59q-4 -39 -10 -68 q-6 -23 -13 -45q-6 -20 -12 -39q-6 -18 -12 -37q-4 -12 -6 -20q-2 -14 -4 -29q-4 -20 -9 -37q-6 -16 -12 -36q-8 -20 -20 -46q-12 -23 -25 -43q-12 -18 -29 -40q-18 -27 -39 -46q-20 -16 -47 -30q-25 -14 -47 -25q-20 -8 -41 -14q-18 -6 -39 -17q-27 -10 -51 -18 q-27 -8 -47 -16q-23 -8 -37 -13q-16 -6 -44 -13t-46 -9q-18 -4 -39 -6q-23 -2 -41 -2h-35q-16 2 -30 2q-16 2 -35 6l-29 6q-14 2 -29 4q-20 4 -53 14q-31 12 -47 19q-14 6 -39 16q-31 14 -49 25q-16 10 -43 30q-31 23 -53 52q-23 29 -37 61l-18 45q-2 6 -13 37l-14 35 q-6 20 -12 39q-6 20 -11 35l-10 32q-6 20 -10 37q-4 18 -10 37q-4 23 -7.5 52.5t-3.5 49.5zM250 618q0 -12 2 -34.5t6 -34.5q2 -14 6 -31q6 -16 10 -37l11 -32q4 -12 8 -29q6 -16 12 -33l12 -35q6 -18 15 -37q6 -16 14 -36q6 -14 17.5 -28.5t25.5 -27.5q20 -14 31 -20 q10 -6 33 -17q25 -10 36 -16q10 -4 37 -12q23 -8 33 -11q16 -2 31 -6l28 -6q8 -2 19 -2q12 0 27 -2h26q10 0 25 2q16 0 28 2q12 4 36 9.5t34 9.5q14 4 35 12q25 8 47.5 16t44.5 17l45 18q18 6 35 12q14 6 29 15q14 8 22 14q8 8 16 21q14 18 23.5 33.5t19.5 33.5q8 14 13 29 q6 14 9 23.5t5 21.5q2 18 6 33q4 18 11 39q6 16 11 33.5t10 36t11 40.5q4 16 6 43q2 31 2 47v37v31q-2 14 -4 22q-4 12 -10 33q-8 23 -14 45q-6 18 -10 29q-6 14 -13 29q-4 10 -12 22q-8 16 -18 33q-8 14 -17 26l-2 2q-47 0 -67 39l-9 17q-2 4 -12 12q-14 14 -29 23 q-16 12 -36 24t-37 19q-16 8 -41 18q-23 10 -43 16q-16 6 -29 7h-37q-18 0 -33 -2q-14 -2 -33.5 -6.5t-29.5 -8.5q-14 -6 -31 -10q-18 -6 -47 -16.5t-47 -16.5q-14 -6 -27 -12q-16 -6 -32 -14q-12 -8 -41 -25q-27 -18 -41 -31q-14 -10 -25 -22q-14 -16 -31 -37 q-16 -16 -31.5 -40t-21.5 -36t-18 -41q-12 -31 -17 -45q-4 -14 -6 -27q-2 -12 -6 -26q-2 -10 -4 -41q-2 -33 -2 -57v-44zM481 313v15q0 14 2 39q0 25 2 45q2 12 2 28v146q0 20 -2 43v47v78q0 18 1 43.5t3.5 48t4.5 37.5q2 16 6 37q6 29 20 51q10 23 35 45q25 27 53 43 q29 16 68 22q33 6 55 6q25 0 49 -4q20 -6 47 -14q29 -10 50 -22l30 -19q20 -14 43 -35q27 -25 39 -47q10 -16 17 -37q10 -23 14 -57q4 -33 0 -57q-2 -27 -12 -54q-10 -29 -31 -51q-16 -18 -39 -37q-16 -12 -29 -22q16 -16 31 -35q14 -20 25 -41l16 -35q14 -27 18 -53 q2 -18 5 -41q2 -27 2 -45q0 -6 2 -14q2 -6 6 -15l14 -18q16 -25 10 -54.5t-30.5 -47t-55 -11.5t-47.5 31l-12 18q-18 27 -27 58q-8 27 -8 53q0 12 -1 31.5t-3 31.5q-2 4 -4 11l-16 34q-6 8 -15 21q-6 8 -14 16q-12 12 -27 21q-2 2 -4 2l-14 4q-4 2 -8 2h-2q-23 -2 -45 -4 q-25 -4 -41 -4h-15q-6 0 -14 2v-109q0 -25 -2 -45q-2 -14 -2 -35q-2 -23 -2 -32v-15q0 -29 -21.5 -51t-52.5 -22t-52.5 22.5t-21.5 50.5zM633 692q8 2 16 2h15q8 0 28 2q18 2 35 4q12 2 31 9q14 4 26 12q16 10 25 18q16 12 37 29q12 10 18 18q4 4 6 9l4 16q0 8 -2 25l-2 20 q-4 8 -10 18q-2 4 -10 13q-12 10 -21 16l-30 19q-8 4 -19 8q-16 6 -30 8q-10 2 -19 2q-8 0 -29 -4q-14 -2 -22 -6q-10 -4 -18 -15q-10 -12 -15 -16q-2 -4 -2 -10q-4 -16 -6 -27q-2 -12 -3 -30.5t-2 -40t-1 -37.5v-62z" />
<glyph unicode="&#xb0;" horiz-adv-x="645" d="M102 1106q0 27 2 45q4 25 16.5 50.5t35.5 49.5q18 23 36.5 37.5t40.5 26.5q25 12 50 18q23 4 49 4q28 0 57 -12q14 -4 23 -8l14 -8q25 -14 45 -37q16 -18 29 -39q10 -18 20 -37q8 -18 15 -37q6 -25 8 -47q2 -18 2 -35q0 -18 -4 -45q-4 -25 -6 -41q-4 -27 -19 -53 q-14 -29 -38.5 -52.5t-51.5 -33.5q-23 -10 -46.5 -15.5t-49.5 -2.5q-27 2 -49 8q-20 4 -45 15t-46 28q-29 20 -45 43q-14 23 -22 45q-6 16 -12 43q-6 29 -7 49q-2 18 -2 41zM250 1073q2 -10 5 -25.5t7 -25.5q0 -4 4 -8q2 -4 10 -8q10 -8 22.5 -14.5t20.5 -8.5q6 -2 17 -2 q10 0 17 1t14 5q4 0 10 6t8 11q4 8 4 12q2 16 6 35q2 16 2 26q0 12 -2 25q0 6 -2 10q-2 10 -7 20.5t-11 22.5q-9 11 -17 21q-12 2 -22 8l-8 6q-10 0 -17 -2q-2 0 -8 -4q-10 -4 -18.5 -11.5t-20.5 -19.5q-6 -8 -10 -14q-2 -6 -2 -9q-2 -8 -2 -24v-33z" />
<glyph unicode="&#xb1;" horiz-adv-x="1071" d="M107.5 702.5q11.5 28.5 37.5 40.5l25 11q27 12 57 20q31 8 64 14t57 9q20 2 41 4q25 2 55 2q33 2 48 2q16 0 40 -2q-2 16 -2 39q0 18 -2 41q-4 29 -5 45t-5 43q-4 31 -4 51q0 14 -2 37q0 16 -2 28l-4 21q-6 29 11.5 54.5t46 31.5t54 -11.5t31.5 -45.5l4 -19q6 -25 6 -53 q2 -25 3 -43q0 -10 2 -31q4 -29 6 -47t4 -45q4 -31 4 -57q0 -16 2 -27v-18h31q18 -2 45 -4q20 -4 37 -7q14 0 32 -2h29h43q29 0 51.5 -22.5t22.5 -52t-22.5 -51t-51.5 -21.5h-43q-14 0 -36.5 1t-41.5 3q-16 2 -39 4q-20 2 -35 4h-20v-4q0 -31 -2 -55q-2 -20 -4 -35v-25 q0 -14 -1 -35.5t-3 -54.5q-4 -29 -6 -55.5t-2 -46.5v-37v-16q0 -29 -23 -51.5t-52.5 -22.5t-51 22.5t-21.5 51.5v16v43q2 23 3 51.5t5 59.5q2 29 3 47t1 28q0 16 2 33q0 16 2 39q2 20 3 49v4h-17q-16 2 -26 2q-12 0 -41 -2q-29 0 -50 -2q-20 -2 -41 -4q-16 0 -43 -6 q-29 -4 -51 -10q-18 -6 -37 -15l-24 -10q-27 -12 -55.5 -1t-41 39t-1 56.5zM116 58.5q-1 29.5 19.5 52t50.5 24.5h25q16 0 27 4q20 4 38 8q20 4 52 9.5t53 7.5q20 2 49 6q33 2 64 2h43h49q27 -2 39 -2h77h48q18 -2 43 -6t43 -12q10 -2 20 -5q12 -2 27 -6l16 -2 q29 -6 46.5 -31.5t12 -55t-31 -47t-54.5 -11.5l-16 2q-14 4 -31 6q-18 4 -37 10q-8 4 -24 6q-14 4 -25 5h-37h-77q-14 0 -45 2h-43h-43q-25 0 -50 -2q-31 -2 -47 -5q-18 -2 -45.5 -6t-44 -8t-33.5 -8q-25 -6 -57 -8h-24q-31 -2 -53.5 19.5t-23.5 51z" />
<glyph unicode="&#xb2;" horiz-adv-x="792" d="M102 1122l4 19q4 27 17 55q14 29 43 57q27 27 57 45q31 18 62 29q35 12 71 10q31 0 62 -8q35 -8 61 -24q14 -10 29 -21q20 -14 43.5 -42t37 -53.5t21.5 -55.5q6 -31 8 -58t-1 -47t-9 -41q-8 -25 -22 -47l-25 -35q-12 -18 -26 -37q-12 -14 -21 -26q-16 -23 -49 -49 q-23 -18 -41 -35q-20 -20 -37 -33l-29 -25q-6 -6 -12 -10q14 0 37 -2h47q27 2 47 2h43q20 0 41 2q25 2 43 2h12q31 0 52.5 -22.5t21.5 -52t-21.5 -51t-52.5 -21.5h-12q-12 0 -31 -2q-27 -2 -53 -2h-43q-18 0 -41 -2h-57q-31 2 -49 2q-20 2 -45 6q-39 8 -74 37 q-53 45 -39 104q6 25 25 53q18 29 41 50q12 8 24 20l29 25q14 10 33 28q23 20 49 41q16 12 20 21q10 14 25 30q12 16 24 35q12 16 21 27q2 4 4 10q2 10 3 17.5t1 21.5q0 12 -4 27q-4 14 -9 24t-17.5 24.5t-18.5 18.5q-12 8 -25 19q-6 2 -14 4q-16 4 -33 4q-8 2 -18 -2 q-14 -4 -33 -14q-14 -10 -29 -25q-10 -10 -14 -16q-2 -8 -4 -17l-2 -16q-6 -31 -30.5 -49.5t-54.5 -13.5t-48.5 30t-14.5 55z" />
<glyph unicode="&#xb3;" horiz-adv-x="782" d="M105 773.5q8 29.5 33.5 45t55 8t46.5 -33.5l8 -13q6 -10 14 -20q6 -8 17 -19q14 -14 31.5 -28.5t33.5 -26.5q14 -10 25 -16q6 -2 8 -4q6 0 18 2t29 10q16 6 33 20q20 18 26 25q10 14 22.5 28.5t26.5 30.5h3q-2 6 -5 11q-6 12 -12 20t-16 21q-6 4 -8 6q-12 4 -19 8h-10 h-33h-18q-6 0 -11 -2q-23 -2 -38 -2q-18 0 -21.5 73.5t14.5 75.5q14 0 33 2h8h7q12 4 26 9q14 4 35 12q14 4 27 10l8 8q2 4 4 6q2 16 2 29q0 16 -2 29q0 6 -4 16q-4 6 -8 10q-10 12 -27 27q-16 12 -27 18q-12 6 -23 10.5t-22 6.5q-10 2 -28 4h-11q-12 -6 -26 -12 q-12 -8 -29 -23q-14 -10 -22 -25q-4 -4 -7 -8v-10q-4 -31 -28.5 -49.5t-54 -14t-49 29t-15.5 52.5l2 15q4 31 29 67q18 31 51 58q27 23 53 37q23 12 47 22q35 10 72 8q27 -2 45 -6q20 -4 44 -13t46 -22q20 -12 45 -30q23 -18 39 -37q25 -23 39 -58q12 -29 16 -57 q2 -20 2 -45t-4 -53q-8 -41 -35 -74q-2 -4 -6 -8q18 -20 31 -39q12 -18 23 -39q10 -25 16 -47q6 -31 -4 -66t-35 -61q-12 -12 -23 -25q-10 -12 -20 -26q-16 -18 -45 -43q-33 -29 -70 -45q-33 -14 -63 -21q-33 -6 -60 -2q-29 4 -57 19q-23 10 -47 28q-20 16 -40.5 33.5 t-37.5 32.5q-18 18 -33 35q-14 18 -24 34l-8 15q-16 27 -8 56.5z" />
<glyph unicode="&#xb5;" horiz-adv-x="989" d="M103.5 909.5q2.5 30.5 25.5 50t53.5 16.5t50.5 -26l13 -16q27 -33 33 -74q2 -23 4 -37q2 -18 4 -41v-37q0 -12 2 -32q2 -29 2 -49v-207v-54q-2 -16 -2 -36q29 -10 42 -38t3 -57l-6 -18q0 -2 -2 -4q2 -8 6 -23q6 -14 12 -24q10 -14 23 -31q8 -12 20 -25q10 -12 23 -22 q8 -6 22 -14q8 -4 23 -7q18 -4 26 -2q12 0 21 4q6 0 18 9q18 10 31 18q14 10 29 19q8 6 20 18q14 12 28.5 28.5t22.5 28.5t14.5 25.5t14.5 34.5q10 29 22 55q10 23 15 35q0 25 2 37v28v45q0 29 2 52q2 18 2 32q2 16 4 43t4 56q2 23 2 37q0 25 2 49q2 20 3 37.5t1 31.5v35v35 l-2 16q-2 31 19.5 53.5t51.5 24.5t52.5 -18.5t24.5 -50.5l2 -17v-43v-35q0 -16 -1 -38.5t-3 -43.5q-2 -18 -2 -36q0 -23 -2 -54q-2 -23 -5 -47q14 -20 13 -45v-16q-2 -16 -2 -45q-2 -33 -4 -56q-4 -20 -7 -38q-4 -20 -8 -39q-2 -6 -4 -13q0 -31 -2 -49q-2 -14 -2 -35 q-2 -20 -2 -34q0 -16 1 -40t2 -38.5t3 -32.5q0 -14 2 -33q2 -25 2 -45v-16q0 -31 -21.5 -52.5t-52 -21.5t-52 21.5t-21.5 52.5v16q0 14 -2 31q-8 -10 -19 -19q-20 -20 -39 -30q-12 -8 -26 -19q-16 -10 -39 -22q-29 -18 -53 -25q-18 -6 -43 -8q-27 -2 -64 2q-41 6 -74 25 q-27 14 -49 32q-14 14 -28 29v-133q0 -12 2 -29v-47q-2 -14 0 -39v-51v-37q0 -18 2 -29v-14q2 -31 -18.5 -54.5t-50.5 -25.5t-53.5 18.5t-25.5 51.5v14q-2 16 -2 39v37v47q-2 29 0 51v29q-2 25 -2 39v149v47v46v32v41q2 25 4 43v37q0 27 2 57q0 29 2 50v45v207q0 16 -2 36 q-2 29 -2 45v31q-2 16 -2 29q-2 14 -6 35l-12 16q-18 23 -15.5 53.5z" />
<glyph unicode="&#xb7;" horiz-adv-x="442" d="M104 670q-6 31 11.5 56.5t46.5 29.5q27 6 53 -8q8 -2 23 -9q29 -4 53 -20q16 -4 28 -14q39 -37 15 -89q-4 -27 -25.5 -48t-44.5 -27q-23 -16 -53 -17q-27 0 -70 29l-12 12t-8 11.5t-4 9.5t-2 7v4t1 3l1 2q-2 14 -2 16q-4 8 -6.5 17.5t-2.5 13.5v6z" />
<glyph unicode="&#xbc;" horiz-adv-x="1544" d="M107.5 1195q-11.5 28 1 56.5t38.5 40.5l23 8q29 12 61 21q33 8 56 10h32q57 0 89 -59q18 -35 18 -70v-28q0 -14 2 -35q0 -20 2 -58q2 -37 4 -59q0 -20 2 -53q2 -31 4 -47t4 -39q4 -27 5 -49v-37v-47q2 -35 2 -56v-43q2 -31 2 -49v-16q0 -31 -21.5 -52.5t-51.5 -21.5 t-52.5 21.5t-22.5 52.5v16v39q-2 31 -2 53q0 18 -2 51v52v37q0 14 -2 32q-4 23 -6 39q-2 20 -4 56q-2 33 -2 55q-2 20 -4 57t-2 60q-2 23 -2 41v6q-6 0 -13 -2q-23 -6 -39 -13l-22 -10q-29 -10 -57.5 1t-40 39zM297 194.5q-2 30.5 18 53.5l27 28q25 31 47 56q18 23 31 41 q14 25 35 55q20 33 41 61l32 48q12 18 33 47q18 29 33 51q12 25 27 51q14 29 22 43q6 14 16.5 33.5t22.5 42.5l39 76q12 25 27 47l24 37q10 18 27 47q18 33 28 47q8 16 23 37q10 16 16 28l11 17q12 29 41.5 38t56 -4.5t37 -43t-3.5 -56.5l-9 -16q-10 -20 -26 -45 q-12 -18 -21 -31q-8 -14 -24 -45q-18 -33 -33 -53l-25 -37q-10 -16 -18 -33l-37 -76q-14 -25 -24.5 -45t-18.5 -35q-6 -14 -20 -41q-14 -29 -31 -55q-16 -31 -37 -61q-20 -29 -35 -49l-33 -47q-18 -27 -36 -56q-20 -33 -37 -55q-16 -29 -41 -57q-23 -27 -49 -58l-27 -30 q-20 -23 -51 -25t-53.5 18.5t-24.5 51zM707 250q2 27 14 53q8 18 22 39q12 20 27 41q16 20 41 43q18 16 33 35q18 18 33 31q10 12 22 24q12 14 33 39q20 20 33 37q18 23 41 43q14 14 26 27q14 16 29 32l14 17q31 33 76 18q12 23 35.5 33t48.5 2q29 -8 44 -35t7 -55l-4 -15 q-2 -10 -5 -20t-3 -23q-2 -10 -2 -28q0 -25 -1 -55.5t-3 -67.5q-2 -35 -2 -51q0 -25 -2 -49q-4 -18 -4 -31l-5 -35q0 -16 -2 -31v-20q6 0 15 -2q14 -2 22 -2h80q31 0 52.5 -21.5t21.5 -52.5t-21.5 -52.5t-52.5 -21.5h-80q-16 0 -37 2v-116q0 -31 -21.5 -52.5t-52 -21.5 t-52 21.5t-21.5 52.5v131h-8h-33q-14 2 -33.5 4t-40.5 4q-14 2 -35 2q-27 0 -43 2h-26q-20 0 -53 4q-45 6 -78 29q-53 37 -49 92zM874 272h13q18 0 35 -2h34q31 0 56 -4q18 -2 34.5 -4t28.5 -2h23h8v14q2 20 4 41q2 16 2 29q2 16 4 41q2 14 2 29q0 20 2 59q2 35 4 64v8 q-8 -8 -18 -17q-14 -14 -25 -28q-18 -20 -41 -45q-18 -23 -30 -35q-14 -16 -29 -31q-12 -14 -29 -31l-39 -39q-16 -16 -24 -26q-8 -8 -15 -21z" />
<glyph unicode="&#xbd;" horiz-adv-x="1499" d="M103.5 1225.5q-5.5 29.5 12 54.5t46.5 31l20 4q20 4 35 6q23 4 45 4h92q29 0 54.5 -18.5t33.5 -42.5q10 -29 11 -56q0 -20 -4 -53q-2 -25 -7 -53q-2 -27 -2 -53q2 -31 2 -50q0 -23 -4 -55q-4 -31 -6 -45q-2 -16 -4 -41q-2 -23 -2 -33v-207q0 -31 -22.5 -52t-52 -21 t-51 21.5t-21.5 51.5v207q0 18 2 49q4 25 5 41.5t5 47.5q4 25 4 36q0 16 -2 45q0 35 4 70q2 33 6 64h-41h-18q-14 -4 -35 -9l-19 -2q-31 -6 -56 11.5t-30.5 47zM317 129l9 23q8 31 30 67q18 33 28.5 51.5t18.5 30.5q8 16 21 35q12 18 25 35q10 16 20 28q10 14 27 37 q16 25 31.5 45.5t27.5 38.5q10 14 27 41q16 25 24 44.5t12 31.5q8 20 21 49q12 29 27 51q8 16 16 33q12 25 23 45q8 12 18 33q10 23 18 43q10 23 19.5 42t15.5 34q6 12 15 28q8 16 14 33q10 23 24 53q16 29 29 49q12 20 23 37l10 17q16 27 47 33t55.5 -10.5t31.5 -46.5 t-9 -56l-10 -17q-10 -14 -21 -32q-10 -16 -24 -41q-12 -25 -19 -41q-8 -20 -18 -41q-6 -16 -15 -33q-6 -10 -14 -29l-18 -36q-8 -25 -21 -50q-12 -27 -25 -45l-14 -28q-12 -25 -24 -47q-10 -16 -21 -39q-8 -20 -12 -35q-8 -20 -20.5 -47t-30.5 -60q-20 -31 -35 -51 q-12 -16 -27 -37q-14 -20 -31.5 -43.5t-26.5 -37t-22 -29.5q-10 -14 -20 -31q-10 -14 -17 -27q-8 -12 -18 -30.5t-27 -49.5q-14 -27 -20 -41l-8 -24q-8 -27 -36 -41t-56.5 -5t-43 36.5t-4.5 56.5zM762 485.5q-4 30.5 14 55.5l17 20q12 16 24 35q16 27 31 45q14 16 31 33 q18 16 51 39q31 23 53 32q18 8 37 15q20 8 39 12q20 4 49 4q31 0 61 -8q33 -8 58 -25q18 -12 39 -30q16 -14 32 -35q16 -18 33 -43q20 -29 29 -57q8 -35 0 -80q-6 -29 -12 -45q-4 -20 -17 -43l-16 -35q-10 -25 -23 -43q-12 -16 -24 -33q-16 -20 -33 -39q-16 -14 -41 -37 q-23 -20 -37 -35q-18 -18 -39 -34q-12 -12 -26 -25h18q27 0 51 -2q25 0 39 -2h37q20 -2 41 -2q16 -2 31 -2h16q31 0 52.5 -21.5t21.5 -51.5t-21.5 -52.5t-52.5 -22.5h-16q-18 0 -39 2q-18 0 -39 2q-23 0 -39 3q-14 0 -37 2h-45h-70q-18 0 -45 4q-25 2 -41 6q-31 6 -61 26 q-29 23 -32 66t26 72q14 14 35 30q20 16 39 29q14 10 30 23q14 12 29.5 25t32.5 30q18 18 43 41q23 18 34 31q10 10 21 22q10 14 18 27q6 10 13 22l16 37q6 12 8 21q4 10 8 34q2 6 3 11q-2 6 -9 14q-10 16 -21 28.5t-24 24.5q-10 8 -18 15l-12 6q-14 2 -25 2h-18 q-8 -2 -19 -6q-12 -4 -24 -11q-10 -6 -33 -20q-25 -16 -35 -27q-10 -10 -18 -20q-8 -8 -19 -25q-14 -25 -33 -49l-16 -20q-18 -25 -49 -29t-54.5 14.5t-27.5 49z" />
<glyph unicode="&#xd7;" horiz-adv-x="1021" d="M103 925.5q-3 30.5 15.5 54.5t49.5 27t55 -18l15 -12q16 -12 41 -35q18 -18 38 -35q16 -16 52 -39q39 -25 59 -39q27 -18 57 -49q27 -25 47 -45q8 -8 17 -14q6 8 14 14q23 25 41 39q16 14 41 33q18 16 29 29q14 12 31 30q14 16 30 39q20 31 39 47l14 17q20 23 51 23.5 t52.5 -21t22.5 -52t-19 -51.5l-14 -16q-10 -12 -27 -33q-20 -29 -41 -51q-16 -18 -31 -33q-16 -18 -43 -41q-25 -20 -41 -32q-12 -12 -32 -31q-6 -6 -13 -15h2q20 -23 36 -40t40 -46q20 -25 31 -36l35 -33q18 -20 47 -51q31 -35 49 -64l16 -22q16 -25 10 -54.5t-31.5 -47 t-55 -11.5t-46.5 33l-16 22q-12 16 -35 43q-27 29 -43 47l-35 33q-16 16 -41 47q-20 27 -34 41q-14 16 -31 33q-20 -20 -47 -45q-33 -29 -53 -49q-20 -18 -58 -62q-41 -43 -61 -65l-39 -41q-23 -23 -41 -39l-16 -14q-23 -20 -53.5 -18.5t-50 24t-17.5 53.5t24 51l15 14 q14 12 32 31l39 41q18 20 58 64q43 45 65 67q23 20 55 51q25 20 43 41q-8 6 -14 15q-23 23 -49 47q-23 20 -37 31q-20 14 -59 38q-43 29 -68 50q-20 20 -43 41q-18 18 -31 28l-16 13q-23 18 -26 48.5z" />
<glyph unicode="&#xf7;" horiz-adv-x="1148" d="M102 629.5q2 29.5 25 50t53 18.5h17q14 -2 34 -2q18 -2 43 -4q23 -2 52 -6q25 -2 51 -6q25 -4 39 -4q16 -2 41 -2h75h46q27 -2 49 -2q25 -2 41 -3t39 -1q27 -2 43 -4q10 -2 26 -2h103q25 0 43 -3h32h21q29 0 51.5 -21.5t22.5 -52t-22.5 -52t-51.5 -21.5h-21h-41 q-14 2 -34 2h-103q-25 0 -43 2q-16 2 -37 4q-23 2 -38 3t-37 1q-23 0 -50 2h-39h-75q-29 0 -47 2q-23 0 -52 4q-27 4 -51 7.5t-51 5.5q-20 4 -35 4q-18 0 -33 2h-16q-31 2 -51.5 25.5t-18.5 53zM520 963.5q0 29.5 21.5 51t52.5 21.5h24q31 0 52.5 -21.5t21.5 -51t-21.5 -52 t-52.5 -22.5h-24q-31 0 -52.5 22.5t-21.5 52zM544 303.5q11 28.5 38.5 40.5t56.5 0t41 -39l10 -26q12 -27 1 -55.5t-38.5 -41t-56.5 -1t-41 39.5l-10 27q-12 27 -1 55.5z" />
<glyph unicode="&#xf8;" horiz-adv-x="1062" d="M102 465q0 33 2 55q2 29 11 51q6 18 16 45q10 23 16 41q8 16 23 50q16 33 27 53q12 20 30 45q16 23 49 55q31 33 56 55q25 20 49 39q25 20 43 31q20 12 57 23q41 12 74 12q27 -2 45 -6q20 -4 45 -15q29 -10 60 -32q10 16 18 30q6 10 12 23q8 16 15 31l8 18q12 27 40.5 38 t56.5 -1t39 -41t-1 -55l-8 -19q-8 -16 -17 -35q-8 -18 -18 -36q-8 -12 -19 -31q-6 -10 -9 -20.5t-7 -20.5q16 -14 33 -35q20 -25 35 -51q16 -25 24 -45q6 -14 13 -33q6 -18 10 -39q4 -14 8 -27q2 -12 10 -32q8 -27 10.5 -46.5t2.5 -41.5v-43q-2 -23 -3.5 -39.5t-3.5 -44.5 q-2 -39 -16 -80q-14 -35 -27 -58q-10 -18 -18 -30q-6 -14 -21 -37q-16 -33 -47 -60q-27 -27 -59 -47q-29 -16 -46.5 -24t-49.5 -21q-35 -12 -58 -16t-49 -6q-25 0 -44 1t-62 7q-29 6 -41 10q-2 -4 -4 -10q-14 -23 -23 -37l-20 -33q-12 -20 -31 -48.5t-33 -45.5l-12 -16 q-18 -25 -49 -29t-54.5 14.5t-27.5 49t14 55.5l12 16q10 14 27 39q16 23 27 41l20 33q8 14 21 35q4 6 8 14q-2 2 -4 2q-23 18 -49 45q-29 27 -48 58q-20 27 -30 49q-8 18 -25 51q-16 39 -22 61q-6 25 -9 54q-2 27 -2 57zM250 465q0 -27 2 -45q0 -16 4 -28.5t14 -39.5 q14 -31 23 -45q6 -12 18 -33q12 -16 31 -36q14 -12 25 -23q2 4 4 6q8 23 14 33q6 20 18 43t23 41q8 12 14 29q10 18 23 41q12 18 20 38q8 18 13 29q4 18 12 37q2 6 7 17.5t7 17.5q6 18 15 37q6 12 12 30q6 20 12 41q8 25 23 54q12 29 20 43q6 14 21 39l12 20q-15 14 -21 37 q-14 10 -24 14q-14 6 -23 8q-6 0 -20 2q-8 0 -25 -6q-20 -4 -26 -8q-10 -6 -27 -18q-20 -16 -41 -35q-23 -20 -49 -47q-25 -27 -37 -43q-12 -14 -18 -27q-8 -14 -21 -43q-14 -31 -22 -47q-6 -16 -17 -39q-8 -20 -10 -31q-4 -8 -4 -20q-2 -18 -2 -43zM496 143q23 -4 32 -4h29 q12 0 25 4q14 2 39 11q25 10 36 15t33 17q18 10 33 27q14 12 22 25q10 20 19 34q8 14 18 35q8 12 17 37q8 18 8 37q2 29 4 43q0 16 2 37v37q0 12 -1 20t-5 25q-8 23 -12 37t-9 30q-2 12 -6 25q-6 16 -10 29q-4 8 -14 24q-5 9 -11 17q-6 -12 -10 -21q-6 -12 -18 -37 q-10 -23 -15 -39q-8 -18 -14 -39q-8 -25 -16 -45q-6 -16 -13 -30q-2 -2 -14 -35q-6 -14 -8 -27q-6 -20 -19 -47q-12 -25 -26 -49q-10 -20 -19 -37q-10 -18 -20 -37q-8 -14 -18 -33l-13 -26q-6 -18 -18 -45q-4 -6 -8 -15z" />
<glyph unicode="&#x2000;" horiz-adv-x="777" />
<glyph unicode="&#x2001;" horiz-adv-x="1555" />
<glyph unicode="&#x2002;" horiz-adv-x="777" />
<glyph unicode="&#x2003;" horiz-adv-x="1555" />
<glyph unicode="&#x2004;" horiz-adv-x="518" />
<glyph unicode="&#x2005;" horiz-adv-x="388" />
<glyph unicode="&#x2006;" horiz-adv-x="259" />
<glyph unicode="&#x2007;" horiz-adv-x="259" />
<glyph unicode="&#x2008;" horiz-adv-x="194" />
<glyph unicode="&#x2009;" horiz-adv-x="311" />
<glyph unicode="&#x200a;" horiz-adv-x="86" />
<glyph unicode="&#x2010;" d="M107.5 538.5q11.5 28.5 39.5 41.5l27 12q37 16 68 20q25 4 57 9q33 2 51 2t56 -2q29 -2 46 -3.5t31 -3.5q18 0 39 -4q10 -2 33 -2h98q31 0 52.5 -21.5t21.5 -52t-21.5 -52t-52.5 -21.5h-98q-35 0 -57 4q-12 2 -25 2q-14 2 -29 2q-18 2 -53 4q-29 2 -41 2t-39 -2t-45 -6 q-12 -2 -33 -10l-28 -13q-27 -12 -55.5 -0.5t-41 39t-1 56z" />
<glyph unicode="&#x2011;" d="M107.5 538.5q11.5 28.5 39.5 41.5l27 12q37 16 68 20q25 4 57 9q33 2 51 2t56 -2q29 -2 46 -3.5t31 -3.5q18 0 39 -4q10 -2 33 -2h98q31 0 52.5 -21.5t21.5 -52t-21.5 -52t-52.5 -21.5h-98q-35 0 -57 4q-12 2 -25 2q-14 2 -29 2q-18 2 -53 4q-29 2 -41 2t-39 -2t-45 -6 q-12 -2 -33 -10l-28 -13q-27 -12 -55.5 -0.5t-41 39t-1 56z" />
<glyph unicode="&#x2012;" d="M107.5 538.5q11.5 28.5 39.5 41.5l27 12q37 16 68 20q25 4 57 9q33 2 51 2t56 -2q29 -2 46 -3.5t31 -3.5q18 0 39 -4q10 -2 33 -2h98q31 0 52.5 -21.5t21.5 -52t-21.5 -52t-52.5 -21.5h-98q-35 0 -57 4q-12 2 -25 2q-14 2 -29 2q-18 2 -53 4q-29 2 -41 2t-39 -2t-45 -6 q-12 -2 -33 -10l-28 -13q-27 -12 -55.5 -0.5t-41 39t-1 56z" />
<glyph unicode="&#x2013;" horiz-adv-x="1225" d="M110 538.5q19 28.5 65 41.5l44 12q61 16 111 20q41 4 94 9q54 2 83 2q30 0 92 -2q48 -2 75.5 -3.5t50.5 -3.5q30 0 64 -4q17 -2 54 -2h161q51 0 86 -21.5t35 -52t-35 -52t-86 -21.5h-161q-57 0 -93 4q-20 2 -41 2q-23 2 -48 2q-29 2 -86 4q-48 2 -68 2q-19 0 -64 -2 q-44 -2 -73 -6q-20 -2 -54 -10l-46 -13q-44 -12 -91 -0.5t-67.5 39t-1.5 56z" />
<glyph unicode="&#x2014;" horiz-adv-x="2249" d="M119 538.5q38 28.5 129 41.5l89 12q121 16 223 20q82 4 187 9q108 2 167 2t183 -2q95 -2 151 -3.5t101 -3.5q59 0 128 -4q33 -2 108 -2h322q101 0 171.5 -21.5t70.5 -52t-70.5 -52t-171.5 -21.5h-322q-114 0 -186 4q-40 2 -82 2q-46 2 -95 2q-59 2 -174 4q-95 2 -134 2 q-40 0 -128 -2q-89 -2 -148 -6q-39 -2 -108 -10l-91 -13q-89 -12 -182.5 -0.5t-134.5 39t-3 56z" />
<glyph unicode="&#x2018;" horiz-adv-x="358" d="M102 889l4 22q2 20 3.5 33.5t1.5 28.5v76q0 23 -2 41q-2 20 -5 38v37v101q0 29 21.5 51t52.5 22t52.5 -22.5t21.5 -50.5v-101v-28q2 -14 4 -35q2 -25 2 -53v-76q0 -18 -1 -36.5t-5 -43.5l-2 -23q-4 -29 -28.5 -48t-54.5 -15t-49.5 28.5t-15.5 53.5z" />
<glyph unicode="&#x2019;" horiz-adv-x="382" d="M102 1245v17q0 31 21.5 52t52.5 21t52.5 -21.5t21.5 -51.5v-17q0 -10 2 -22q0 -12 4 -31q2 -18 6 -47q4 -31 6 -53q2 -23 4 -41.5t4 -36.5t3.5 -35.5t1.5 -34.5v-31l2 -22q0 -31 -20.5 -53.5t-50.5 -23.5t-53.5 19.5t-23.5 51.5l-2 20v39q0 10 -1 24.5t-3 30.5t-4 37 t-4 43q-2 18 -4 45q-4 29 -6 45q-4 18 -7 35q-2 20 -2 41z" />
<glyph unicode="&#x201c;" horiz-adv-x="696" d="M104 1225q-8 29 8.5 55.5t45 33.5t55.5 -8.5t35 -43.5l4 -19q6 -20 10 -43q2 -16 4 -33q4 -20 8 -45t7 -41q4 -18 4 -47v-24q2 -14 6 -39t6 -45l4 -23q6 -29 -12.5 -54.5t-48 -30.5t-54 13.5t-30.5 47.5l-4 22q-2 23 -7 49q-4 25 -6 39q-2 18 -2 45q0 18 -2 29 q-2 14 -5 35.5t-7 38.5q-4 20 -8 41q-2 14 -6 28zM418 1167q2 39 6 62l2 14q6 31 30.5 48.5t54.5 12t47 -31t13 -53.5l-2 -17q-2 -10 -4 -39v-43q2 -20 5 -44.5t8 -53.5l6 -53q4 -23 5 -39.5t3 -34.5l2 -18q4 -31 -15.5 -54.5t-49 -26.5t-54 16t-26.5 48l-3 19q-2 18 -4 32 q-2 16 -4 37l-8 56q-2 31 -5 56t-5 46q-2 23 -2 61z" />
<glyph unicode="&#x201d;" horiz-adv-x="731" d="M102 1210v15q0 31 21.5 52t52.5 21t52.5 -21.5t21.5 -51.5v-15v-28q2 -16 4 -43q2 -31 4 -45q2 -16 4 -35q2 -16 4 -39q4 -20 6 -35l2 -14q4 -29 -15 -53.5t-49 -28.5t-54.5 14.5t-28.5 48.5l-2 15q-2 12 -4 34.5t-4 40.5t-4 35q-2 16 -7 47q-2 31 -2 50q-2 20 -2 36z M469 1108v51q2 16 2 35q2 18 4 43l4 23q2 29 26.5 48t54.5 15t49.5 -27.5t15.5 -54.5l-2 -22q-4 -20 -5 -35q0 -16 -2 -33v-39q2 -29 2 -51q2 -23 7 -49q2 -29 4 -45v-37v-35l-2 -16q-2 -29 -24.5 -49.5t-53.5 -18.5t-51.5 24.5t-18.5 53.5l2 14v27.5v27.5q-2 14 -4 39 l-4 54q-2 25 -4 57z" />
<glyph unicode="&#x202f;" horiz-adv-x="311" />
<glyph unicode="&#x205f;" horiz-adv-x="388" />
<glyph unicode="&#x25fc;" horiz-adv-x="1064" d="M0 0v1065h1065v-1065h-1065z" />
</font>
</defs>
</svg>
