<svg id="Layer_1" data-name="Layer 1" xmlns="http://www.w3.org/2000/svg" viewBox="0 0 600 400"><defs><style>.cls-1{fill:#fff;}</style></defs><title>aljazeera</title><g id="G0FOu8"><path d="M302.78,76.62c-4,3-5.71,9.15-4.08,14.48,1.49,4.85,4.6,8.66,7.92,12.35,7.32,8.15,14.83,16.14,21.76,24.6A41.91,41.91,0,0,1,338,149.31c.49,3.9-.16,7.94-.35,11.92a13.45,13.45,0,0,1-.58,2.43c2.63-.12,6.2-3.16,13.07-11.11.89,3.55,1.94,6.76,2.47,10.06,1,6.25,1.83,12.54,2.56,18.84,1.09,9.43-2.41,17.48-8.23,24.53-4.36,5.27-9.26,10.11-13.94,15.12-2.46,2.63-4.88,5.3-7.45,7.81-6.28,6.13-8.71,13.86-9.7,22.29-1.26,10.7-2.52,21.4-4.07,32.05-1.45,10-7.56,15-16.94,14.28-5.34-.44-9.9-2.88-13.94-6.33-5.51-4.71-9.37-10.65-12.53-17.08-1.39-2.83-1.35-2.87,1.53-4.09,3,3.78,5.68,7.75,9,11.11,3.71,3.78,8.33,5.92,13.89,4.31a12,12,0,0,0,8.23-7.54,95.53,95.53,0,0,0,3.69-14.49c1.74-9.35,2.9-18.82,4.82-28.13,1.65-8,6.49-14.43,12.09-20.2,5.95-6.12,12.2-11.95,18-18.18,5-5.4,9.45-11.36,11-18.83a20.42,20.42,0,0,0,0-6.58c-7.71,8-18.45,12.31-25.25,22.25-1.14-4.09-2.33-7.62-3.07-11.24a9.71,9.71,0,0,1,2.6-8.58c5.17-5.85,8.23-12.49,8-20.5-.13-4.63-1.89-8.64-4.25-12.41-6.43-10.31-15-18.79-23.48-27.38a5.36,5.36,0,0,0-1.12-.6,8.84,8.84,0,0,0-.21,2,58.31,58.31,0,0,1-2.27,25.53A127,127,0,0,1,294,159.32c-4.46,9.13-8.6,18.33-10,28.5a37.53,37.53,0,0,0-.25,7c.12,2.29-1.09,3.48-3.24,4.9-.31-3-.73-5.61-.8-8.21A70,70,0,0,1,285,163.62c3.58-9,7.49-17.89,11.11-26.89,2.57-6.38,4.82-13,4.74-19.88,0-4.24-1.3-8.51-2.36-12.68-.82-3.22-2.45-6.24-3.22-9.47-1.63-6.76.28-13,4-18.57a4.76,4.76,0,0,0,.22-5.68,38.46,38.46,0,0,1-4.24-26.69c1.17-5.92,3.92-10.82,10.21-13.33-.2.43-.23.67-.36.76-6.69,4.32-7.62,10.81-6.51,17.9,1.39,8.9,6.16,16.16,11.65,23,14.29,17.82,28.68,35.57,41.13,54.77,9.12,14.07,17.22,28.67,22.95,44.5A96.26,96.26,0,0,1,380,213.54c-1.19,12.67-5.09,24.43-14.77,33.43a38.78,38.78,0,0,1-24.17,10.45c-6.89.51-13.7.12-20.27-2.39-1.54-.59-2.13-1.19-1.7-2.92a73.37,73.37,0,0,0,1.37-7.64c.3-2.18,1.06-2.85,3.48-2.31,12.93,2.92,24.44-.12,34.11-9.17,7.91-7.41,12.1-16.87,14-27.45,2.09-11.61-.21-22.58-4.55-33.3-6.83-16.89-16.54-32.12-27.32-46.66-11.31-15.26-23.06-30.18-34.61-45.26Z"/><path d="M288.46,102.67c-2.42,1-4.09,2.18-5.89,2.46a7.36,7.36,0,0,1-8.41-5.47c-.89-4.12,1-7.82,4.68-9.2,4-1.49,8.67.08,10.09,4.14a75.2,75.2,0,0,1,3.26,14.08c2.15,15.12-2.2,28.88-9,42.19-7.06,13.79-13.28,27.94-17.23,43a132.92,132.92,0,0,0-4.23,41.23A109.66,109.66,0,0,0,263.39,248c.35,2-.25,3.14-2.51,4.32-.8-7.47-1.75-14.56-2.3-21.68-2.15-28.11,5.15-54.14,17.35-79.14,4.07-8.33,7.75-16.85,11.37-25.39,1.11-2.61,1.42-5.56,2.09-8.35l-.61-.24c-.24.16-.6.27-.71.49-3.57,7-9.68,11.38-16,15.51-9.89,6.43-19.95,12.63-28.62,20.73-12,11.17-18.52,24.83-18.37,41.35,0,3.68.9,7.35,1.38,11l.94.09c.33-.85.61-1.72,1-2.54,1.23-2.63,2.12-5.53,3.83-7.8,3.46-4.57,9-4.82,13.14-.85,5,4.75,7.45,11,8.58,17.51a45.21,45.21,0,0,1,.08,13.67c-.76,5.49-5.45,8-10.86,6.71a18.64,18.64,0,0,1-9.87-6.53,12.46,12.46,0,0,1-1.35-2.65l-1.53,1c.19,2.84.26,5.7.6,8.52.77,6.31,2.62,12.26,6.53,17.4a18.24,18.24,0,0,0,29,.13c4.64-6,6.57-13.13,8-20.36,1.25-6.3,2-12.69,3.06-19a16.81,16.81,0,0,1,5.76-10.51c5.36-4.63,10.43-9.58,15.92-14.68.35,4.6,1.07,9.23.86,13.82-.09,1.93-1.88,4-3.4,5.58A124.2,124.2,0,0,1,286,215.85c-3.06,2.44-3.91,5.49-4.33,9.14q-1.43,12.3-3.52,24.52a41.54,41.54,0,0,1-3,9c-4.07,9.56-12.34,13.57-22.46,11.08-9.19-2.26-14.81-8.76-19.19-16.53-5.59-9.9-7.06-20.8-7-32a21.21,21.21,0,0,0-1.63-8.49A60.17,60.17,0,0,1,220,182.47a52,52,0,0,1,14.45-31c8-8.39,18-14.14,27.72-20.16,6.32-3.9,12.58-8,18.53-12.39,4.06-3,7.1-7.13,7.77-12.46A31.28,31.28,0,0,0,288.46,102.67ZM241.19,220.84c1.21-.59,3.65-1.24,5.35-2.74,2.9-2.56,3.94-5.75,1.36-9-2.4-3-5.51-3.81-8.79-1.74a12.31,12.31,0,0,0-3.84,3.49c-1.3,2-3.4,4.86-2.8,6.49C233.47,220.08,237,220.49,241.19,220.84Z"/><path d="M375.36,322.65c5.91,0,11.51-.29,17.06.1,4,.28,6.38,3,7.12,7s-.23,7.11-3.58,9.44c-.27.19-.53.4-.78.61-.05,0-.06.15.13-.35l6.93,17.14c-3,0-5.39.12-7.78-.08a2.89,2.89,0,0,1-1.81-1.63c-1.17-2.67-2.11-5.45-3.23-8.15-1.19-2.86-2-3.23-5.59-2.56v12.39c-2.63,0-5,.13-7.24-.1-.48,0-1.16-1.41-1.17-2.17-.08-8.36-.05-16.72-.05-25.08C375.36,327.11,375.36,325,375.36,322.65Zm8.34,7.18c0,1.2,0,2.1,0,3,0,3.78.66,4.32,4.39,3.52.24-.05.49-.13.72-.2,1.71-.54,2.61-1.91,2.12-3.45a5,5,0,0,0-2.65-2.77C387.07,329.46,385.52,329.83,383.71,329.83Z"/><path d="M438.19,356.55c-2.9,0-5.48.14-8-.1-.6-.06-1.28-1.29-1.58-2.11-1.65-4.52-.29-3.92-5.39-4h-2c-5.1,0-5.05,0-7.08,4.77a2.75,2.75,0,0,1-1.92,1.39c-2.15.18-4.32.07-6.74.07a16.66,16.66,0,0,1,.4-2c3.41-10,6.87-20,10.22-30.08a2.52,2.52,0,0,1,2.84-2c7.55,0,7.53-.08,10,7.09,2.77,8,5.58,16.07,8.37,24.11C437.58,354.47,437.82,355.33,438.19,356.55ZM422,332.35l-.76,0-3,10.25H425Z"/><path d="M194.74,356.57a75.1,75.1,0,0,1-7.61-.09c-.73-.08-1.66-1.17-1.94-2-1.42-4.12-1.36-4.14-5.77-4.14h-1.76c-5.09,0-5.06,0-6.92,4.67a2.54,2.54,0,0,1-1.61,1.47c-2.31.17-4.63.07-7.32.07,1-3.05,1.86-5.74,2.77-8.4,2.64-7.75,5.38-15.47,7.89-23.26.64-2,1.59-2.51,3.57-2.48,7,.09,7,0,9.24,6.48Q189.63,341.44,194,354C194.21,354.7,194.39,355.42,194.74,356.57Zm-16.22-24.28-.7-.09-3,10.33h6.77Z"/><path d="M242.93,356.57c1.3-3.87,2.46-7.34,3.64-10.8,2.42-7.11,4.9-14.19,7.22-21.33.51-1.58,1.26-2.09,2.84-2,2.41.15,5.41-.72,7.08.42s2,4.18,2.81,6.44c2.85,8.1,5.65,16.23,8.47,24.34.29.84.56,1.7,1,2.9-2.91,0-5.47.06-8-.06-.47,0-1.06-.68-1.33-1.19a8.58,8.58,0,0,1-.73-2.38c-.36-1.93-1.29-2.93-3.42-2.61a23.6,23.6,0,0,1-3.5,0c-5.16,0-5.12,0-7.1,4.76a2.72,2.72,0,0,1-1.9,1.4C247.77,356.69,245.6,356.57,242.93,356.57Zm19.79-14-3.09-10.29-.68.07-3,10.22Z"/><path d="M293.33,349.28c4,0,7.21.08,10.43,0,1.92-.07,2.67.51,2.6,2.55-.2,5.61.66,4.73-4.82,4.77-6.35.05-12.71,0-19.44,0,.25-4.06-1-7.93,2-11.56,3.22-3.94,5.91-8.31,8.82-12.51.51-.73,1-1.51,1.75-2.75h-12v-7.15h23.2c-.11,4,1,7.91-2,11.63C300.25,338.79,297.15,343.78,293.33,349.28Z"/><path d="M367.8,349.63c0,2.06.1,3.81-.06,5.53,0,.5-.83,1.33-1.29,1.34-7.09.09-14.19.06-21.48.06v-33.9h21.57v7h-9.1c-4.53,0-4.46,0-4.3,4.55.06,1.61.74,2,2.15,1.93,3.07-.06,6.14,0,9.33,0v7.16c-3.1,0-6.09.16-9.06,0-2.75-.19-2.4,1.52-2.4,3.2s-.34,3.35,2.4,3.2C359.49,349.48,363.42,349.63,367.8,349.63Z"/><path d="M314.38,322.6h21.51v7.11c-3.5,0-7,.19-10.47-.06-2.8-.2-2.83,1.25-2.86,3.32s.23,3.49,2.93,3.25,5.49-.05,8.45-.05v7.16c-3.06,0-6.05.14-9,0s-2.26,1.73-2.29,3.31-.34,3.2,2.28,3.08c3.92-.19,7.85,0,12.25,0,0,2.06.07,4-.07,6,0,.36-.93.92-1.43.93-7,.06-14,0-21.27,0Z"/><path d="M219.77,367.59l1.91-6.78,1.78.26c2.59.34,4.26-.71,4.81-3.23a21.59,21.59,0,0,0,.45-4.47c0-9.2,0-18.39,0-27.59,0-1,0-2,0-3.13H237c.06.83.16,1.56.16,2.29q0,15.93,0,31.85A20,20,0,0,1,237,360C235.56,368.64,227.84,372.08,219.77,367.59Z"/><path d="M209.56,322.49V349h10.89c0,2.28.11,4.26-.08,6.22a2.11,2.11,0,0,1-1.59,1.28c-5.34.1-10.69.11-16,0a2.45,2.45,0,0,1-1.67-1.72q-.16-15.28,0-30.57c0-.58.76-1.61,1.22-1.64C204.59,322.39,206.92,322.49,209.56,322.49Z"/><path d="M304,244.68A65,65,0,0,1,291.47,230c-1.26-2-2.38-4-3.48-6.08-2.16-4-2.14-4.05,1.75-6.88a48.82,48.82,0,0,0,3.89,5.08c3.51,3.56,7.1,7.05,10.86,10.34,1.42,1.24,1.82,2.26,1.32,4C305.08,239,304.64,241.65,304,244.68Z"/><path d="M263.46,111.67a7.83,7.83,0,0,1,7.44-7.93,8,8,0,0,1,7.78,7.93,7.93,7.93,0,0,1-7.54,7.6A7.67,7.67,0,0,1,263.46,111.67Z"/><path d="M315.63,211.13c-2.94-1.42-5.73-2.71-8.43-4.16a2,2,0,0,1-.42-1.84c1.43-3.28,3-6.5,4.64-10,2.93,1.36,5.74,2.59,8.44,4a2.16,2.16,0,0,1,.47,2C318.9,204.41,317.31,207.61,315.63,211.13Z"/><path d="M289.62,262.54c2.49,2.07,4.69,4,7,5.77,1.11.88.86,1.61.11,2.5-1.94,2.29-3.8,4.66-5.83,6.87a2.36,2.36,0,0,1-2.17.51c-2.4-1.78-4.64-3.77-7.13-5.85Z"/><path d="M291.76,260.9l-8.19-6.77,8-9.76,8.19,6.77Z"/><path d="M349.92,232.81c-3-1.39-5.66-2.55-8.23-3.9A2.08,2.08,0,0,1,341,227c1.23-2.93,2.58-5.81,4.07-8.61a2.29,2.29,0,0,1,2.09-.77,56.67,56.67,0,0,1,6.81,3.17,2.1,2.1,0,0,1,.67,1.93C353.18,226,351.6,229.25,349.92,232.81Z"/><path d="M321.15,149.44c1.56,2.85.38,5-1.48,7q-6.38,6.91-12.73,13.84c-1.18,1.29-2.32,2.62-3.47,3.92-1.34-2.53-1.09-4,1.21-6.55q7.24-8,14.52-15.95C319.84,151,320.46,150.24,321.15,149.44Z"/><path d="M253.74,171.28c.68,3.73-1,7.45-3.5,8.78-1.7.9-3.69.42-4.26-1.62a14.86,14.86,0,0,1-.44-6.79c1.35-6.43,5.85-10.55,10.88-14.15l.83.77c-1.66,1.46-3.59,2.71-4.93,4.42a49.64,49.64,0,0,0-4.87,7.76,3.86,3.86,0,0,0,.25,3.31,4.61,4.61,0,0,0,3.09,2c.71,0,1.53-1.52,2.23-2.42A9.38,9.38,0,0,0,253.74,171.28Z"/><path d="M323.49,265.7c.66,1.5,1.27,3,2,4.48a9.66,9.66,0,0,0,1.89,3.2c.9.77,2.44,1.53,3.42,1.27s1.79-1.76,2.82-2.89a9.72,9.72,0,0,1,1.73,6.5,2.2,2.2,0,0,1-3.33,1.87,9.57,9.57,0,0,1-4.08-3.12c-2.06-3.46-3.66-7.2-5.45-10.82Z"/><path class="cls-1" d="M241.19,220.84c-4.17-.35-7.72-.76-8.73-3.51-.6-1.63,1.5-4.46,2.8-6.49a12.31,12.31,0,0,1,3.84-3.49c3.28-2.06,6.4-1.28,8.79,1.74,2.58,3.26,1.54,6.45-1.36,9C244.84,219.6,242.39,220.25,241.19,220.84Z"/><path class="cls-1" d="M383.71,329.83c1.81,0,3.36-.37,4.58.11a5,5,0,0,1,2.65,2.77c.49,1.54-.41,2.91-2.12,3.45-.24.08-.48.15-.72.2-3.73.8-4.4.26-4.39-3.52C383.71,331.93,383.71,331,383.71,329.83Z"/><path class="cls-1" d="M422,332.35l3,10.21H418.2l3-10.25Z"/><path class="cls-1" d="M178.52,332.29l3,10.24h-6.77l3-10.33Z"/><path class="cls-1" d="M262.72,342.54H255.9l3-10.22.68-.07Z"/></g></svg>