<svg id="Layer_1" data-name="Layer 1" xmlns="http://www.w3.org/2000/svg" viewBox="0 0 600 400"><defs><style>.cls-1{fill:#fff;}</style></defs><title>bbc</title><g id="_8zSjLO.tif" data-name="8zSjLO.tif"><path d="M390.56,135h138a10.69,10.69,0,0,1,.16,1.34q0,63.78,0,127.55v1.25H390.53V263.7q0-63.6,0-127.21C390.53,136,390.55,135.5,390.56,135Zm110,42.23c0-5.57,0-11,0-16.49,0-.33-.49-.82-.86-1-9.78-3.91-19.74-7.07-30.4-7.48s-20.87,1.15-30.64,5.7c-20.69,9.64-30.08,31.69-26.5,50,3.43,17.49,13.36,29.7,30,36.14,10.63,4.12,21.75,5,33,3.62a76.38,76.38,0,0,0,24.77-7.41,2.19,2.19,0,0,0,1.48-2.31c-.08-5,0-10,0-15,0-.4,0-.79-.06-1.3-.48.27-.81.45-1.13.65A84.09,84.09,0,0,1,487,229c-10.4,4.17-21,5.57-32.07,3-7.2-1.69-13.66-4.74-18.49-10.5a31.73,31.73,0,0,1-7.31-26.38c1.08-6.81,3.69-12.93,8.7-17.79,7.63-7.4,17.08-10.35,27.45-10.41,9.42-.06,18.31,2.61,26.89,6.32C495,174.42,497.65,175.84,500.54,177.24Z"/><path d="M71.66,265.22V135H209.9c0,.38,0,.76,0,1.15q0,63.9,0,127.81v1.28H71.66Zm36.48-18.28h1.62c11.42,0,22.84,0,34.27,0a45.93,45.93,0,0,0,14.32-2.14c5.21-1.67,9.9-4.22,13.48-8.48,8.22-9.76,7.67-27.64-6.71-35.76-2.52-1.42-5.3-2.38-7.95-3.55l.71-.43a22.55,22.55,0,0,0,6.5-5.54c6.81-8.6,5.46-22.18-3-29.82-6.07-5.46-13.5-7.57-21.39-7.79-10.19-.29-20.4-.07-30.6-.07h-1.23Z"/><path d="M231.22,135h138c0,.42.09.84.09,1.25q0,63.84,0,127.69c0,.4,0,.81-.06,1.21H231.13v-1.44q0-63.61,0-127.23C231.13,136,231.19,135.5,231.22,135Zm85,62.21,1.11-.64a22.37,22.37,0,0,0,6.63-5.74c6.65-8.65,5.14-22.26-3.32-29.72-6.06-5.34-13.41-7.44-21.22-7.66-10.23-.29-20.48-.07-30.72-.07-.37,0-.74,0-1.16.05v93.45c.34,0,.6,0,.86,0,12.27,0,24.53.08,36.8,0a39.54,39.54,0,0,0,19.49-5.15A23.74,23.74,0,0,0,326,201.47,33.08,33.08,0,0,0,316.2,197.22Z"/><path class="cls-1" d="M231.22,135c0,.49-.09,1-.09,1.48q0,63.61,0,127.23v1.44H369.27c0-.4.06-.81.06-1.21q0-63.84,0-127.69c0-.42-.06-.84-.09-1.25h21.32c0,.5,0,1,0,1.49q0,63.6,0,127.21v1.45H528.74V263.9q0-63.78,0-127.55a10.69,10.69,0,0,0-.16-1.34c.15.08.41.13.44.23a3.21,3.21,0,0,1,0,.8V265.68h-1.12q-227.61,0-455.22,0c-.3,0-1.06.57-1-.43H209.93V264q0-63.9,0-127.81c0-.38,0-.76,0-1.15Z"/><path class="cls-1" d="M500.54,177.24c-2.89-1.4-5.59-2.81-8.38-4-8.58-3.71-17.46-6.39-26.89-6.32-10.37.07-19.82,3-27.45,10.41-5,4.86-7.62,11-8.7,17.79a31.73,31.73,0,0,0,7.31,26.38c4.82,5.76,11.29,8.81,18.49,10.5,11,2.59,21.67,1.18,32.07-3a84.09,84.09,0,0,0,13.16-6.65c.32-.2.65-.38,1.13-.65,0,.51.06.91.06,1.3,0,5,0,10,0,15a2.19,2.19,0,0,1-1.48,2.31,76.38,76.38,0,0,1-24.77,7.41c-11.29,1.41-22.4.49-33-3.62-16.63-6.44-26.56-18.65-30-36.14-3.58-18.27,5.81-40.32,26.5-50,9.76-4.55,20-6.1,30.64-5.7s20.62,3.57,30.4,7.48c.37.15.86.63.86,1C500.56,166.21,500.54,171.67,500.54,177.24Z"/><path class="cls-1" d="M108.14,246.94V153.39h1.23c10.2,0,20.41-.22,30.6.07,7.89.22,15.33,2.33,21.39,7.79,8.47,7.63,9.82,21.22,3,29.82a22.55,22.55,0,0,1-6.5,5.54l-.71.43c2.65,1.17,5.43,2.13,7.95,3.55,14.38,8.12,14.93,26,6.71,35.76-3.58,4.25-8.27,6.81-13.48,8.48A45.93,45.93,0,0,1,144,247c-11.42,0-22.84,0-34.27,0Zm16.66-14.51c.31,0,.5,0,.69,0,6,0,11.92,0,17.88,0a22.34,22.34,0,0,0,9.24-1.92c4.4-2,7-5.36,7.29-10.25a11.05,11.05,0,0,0-5.81-10.78A20.35,20.35,0,0,0,143.53,207c-5.88,0-11.77,0-17.65,0h-1.09Zm0-40.37c4.42,0,8.7.16,13-.05a16.91,16.91,0,0,0,8.68-3,11.19,11.19,0,0,0,5.08-10.62c-.28-4.23-2.59-7.17-6.39-8.92a17.8,17.8,0,0,0-7.46-1.52c-3.93,0-7.87,0-11.8,0-.34,0-.67,0-1.07.05Z"/><path class="cls-1" d="M316.2,197.22a33.08,33.08,0,0,1,9.83,4.25,23.74,23.74,0,0,1-1.35,40.29,39.54,39.54,0,0,1-19.49,5.15c-12.26.11-24.53,0-36.8,0-.26,0-.53,0-.86,0V153.44c.41,0,.78-.05,1.16-.05,10.24,0,20.49-.22,30.72.07,7.81.22,15.17,2.33,21.22,7.66,8.46,7.46,10,21.07,3.32,29.72a22.37,22.37,0,0,1-6.63,5.74Zm-32,35.22c.32,0,.57,0,.83,0,5.88,0,11.76,0,17.65,0a22.42,22.42,0,0,0,9.35-1.94c4.21-1.93,6.79-5.11,7.22-9.81a11.05,11.05,0,0,0-5.51-11A20,20,0,0,0,303,207c-5.92-.05-11.84,0-17.76,0-.33,0-.66,0-1,.06Zm0-64.36V192c4.49,0,8.93.25,13.32-.1a19.93,19.93,0,0,0,7.14-2.22c4.75-2.4,6.55-6.58,6.24-11.31s-3.34-8.06-8.17-9.51a14.39,14.39,0,0,0-3.8-.75C294.05,168,289.17,168.08,284.21,168.08Z"/><path d="M124.79,232.43V207h1.09c5.88,0,11.77,0,17.65,0a20.35,20.35,0,0,1,10.56,2.55,11.05,11.05,0,0,1,5.81,10.78c-.31,4.89-2.9,8.25-7.29,10.25a22.34,22.34,0,0,1-9.24,1.92c-6,0-11.92,0-17.88,0C125.3,232.48,125.11,232.45,124.79,232.43Z"/><path d="M124.79,192.06V168c.4,0,.73-.05,1.07-.05,3.93,0,7.87,0,11.8,0a17.8,17.8,0,0,1,7.46,1.52c3.8,1.75,6.11,4.69,6.39,8.92a11.19,11.19,0,0,1-5.08,10.62,16.91,16.91,0,0,1-8.68,3C133.48,192.22,129.2,192.06,124.79,192.06Z"/><path d="M284.2,232.43V207c.37,0,.71-.06,1-.06,5.92,0,11.84,0,17.76,0a20,20,0,0,1,10.74,2.71,11.05,11.05,0,0,1,5.51,11c-.43,4.7-3,7.88-7.22,9.81a22.42,22.42,0,0,1-9.35,1.94c-5.88,0-11.76,0-17.65,0C284.77,232.48,284.51,232.45,284.2,232.43Z"/><path d="M284.21,168.08c5,0,9.84-.05,14.72,0a14.39,14.39,0,0,1,3.8.75c4.83,1.45,7.86,4.87,8.17,9.51s-1.49,8.91-6.24,11.31a19.93,19.93,0,0,1-7.14,2.22c-4.39.35-8.83.1-13.32.1Z"/></g></svg>