<svg id="Layer_1" data-name="Layer 1" xmlns="http://www.w3.org/2000/svg" viewBox="0 0 600 400"><defs><style>.cls-1{fill:#fff;}</style></defs><title>bigissue</title><path d="M116.17,318.77q0-118.43,0-236.86H484.5V318.77Zm348-216.5H136.57V298.41h327.6Z"/><path class="cls-1" d="M464.17,102.27V298.41H136.57V102.27ZM317.51,194.11c0,.41-.08.68-.08,1,0,19.59-.1,39.18.09,58.77.1,10.49,5.19,18.23,14.54,22.84,10.24,5.05,21,5.25,31.82,2.07,11.92-3.52,19.2-12.84,19.3-24.87.16-19.59,0-39.18,0-58.77a6.11,6.11,0,0,0-.14-.93H363.84v2.32q0,28,0,56.06c0,5.91-2.95,10.16-8.33,11.17a26.42,26.42,0,0,1-9,0c-4.55-.76-7.32-3.81-8.22-8.36a22.69,22.69,0,0,1-.32-4.38q0-27.35,0-54.71v-2.19Zm-5.36,27.1c.1-.18.19-.28.2-.38,0-1.13.06-2.26.05-3.38-.05-10.28-4.83-17.63-14-22.12-6.77-3.33-14-4-21.45-3.43a32.18,32.18,0,0,0-16.86,5.92c-9.15,6.74-12.62,19.25-8,28.79,2.57,5.29,7,8.72,12.11,11.12s10.45,4.22,15.59,6.51a50.91,50.91,0,0,1,10,5.26c5.25,3.93,3.8,12-2.31,14.44a17.83,17.83,0,0,1-9,.88c-7.63-.93-11.15-5-11.19-12.64,0-.54-.06-1.09-.09-1.63H248.75c0,1.54,0,2.94,0,4.34.24,10.63,5,18.38,14.9,22.53a45.06,45.06,0,0,0,28.22,2.07c8.23-1.9,14.69-6.33,18.34-14.17,3.72-8,4.12-19.22-4-26.35a30.69,30.69,0,0,0-6.93-4.78c-4.88-2.3-10-4.11-15-6.24a117.51,117.51,0,0,1-10.69-5,7,7,0,0,1-3.9-7.32,8.34,8.34,0,0,1,5.62-7.2,16.35,16.35,0,0,1,9.49-.6c5.51,1.17,8.5,4.54,9,10.13.1,1,.12,2.11.18,3.25Zm-130,29.3c0,1.5,0,2.9,0,4.3.13,9.75,4.11,17.45,13,21.68,11.77,5.59,24.05,6.08,36.07.86,13.28-5.77,16.54-19.37,14.08-29.16-1.54-6.1-5.63-10.33-11-13.07s-11-4.72-16.41-7.12c-3.8-1.68-7.76-3.15-11.26-5.34-6.18-3.87-3.7-11.94,1.74-14.1a17,17,0,0,1,10.3-.64,10.61,10.61,0,0,1,8.65,10.65c0,.88,0,1.75,0,2.58h18.3a4,4,0,0,0,.14-.63c0-1,0-2,0-3,0-10.59-5-18-14.55-22.43-7.56-3.5-15.56-4-23.69-2.81a29.56,29.56,0,0,0-17.44,8.56c-7.82,8-9.24,22.64-1.19,30.58a36.69,36.69,0,0,0,9.32,6.59c5.08,2.52,10.54,4.28,15.76,6.55a60,60,0,0,1,8.68,4.49,7.61,7.61,0,0,1,3.46,8.36,8.24,8.24,0,0,1-6.2,6.87,19.66,19.66,0,0,1-10.69,0c-5-1.31-7.94-4.51-8.48-9.73-.14-1.33-.16-2.67-.23-4Zm205.21,27.72H444V261.89H407.6V244.2h25.31V227.94H407.62V210.29H444V194.16H387.33ZM317.56,122.54v64.33c10.53,0,20.91,0,31.3,0a20.9,20.9,0,0,0,4.35-.62c6.85-1.51,11.3-5.81,12.19-12.19a51.26,51.26,0,0,0,.16-9.12,11.35,11.35,0,0,0-6.47-10c-.42-.23-.86-.42-1.47-.73.5-.31.82-.52,1.15-.7a11,11,0,0,0,6.08-9,45.7,45.7,0,0,0,0-8.6,13.29,13.29,0,0,0-7.77-11.14,21.15,21.15,0,0,0-9.65-2.18H317.56Zm126.36,19.3c-.81-7.29-3.94-13-10-16.84-6.74-4.28-14.18-4.88-21.85-3.73-11.78,1.77-19.79,10.5-20,22-.17,7.84-.26,15.7.07,23.54a20.92,20.92,0,0,0,12,18.72c7.15,3.66,14.74,4,22.42,2.09,10.26-2.58,16.67-10,17.39-20.52.42-6.24.14-12.52.16-18.79,0-.1-.11-.19-.19-.32H418.3v13.61h8.88c0,1.92.14,3.68,0,5.4-.5,5.09-4.38,8.24-9.59,7.93-5.42-.32-8.63-3.58-8.64-8.86,0-7.57,0-15.13,0-22.7a11.28,11.28,0,0,1,.51-3.32c1.17-3.67,4.33-5.66,8.7-5.63s7.27,2,8.48,5.69c.19.57.36,1.15.53,1.7ZM241.16,122.63v25.08H223.48V122.66H207v64.19h16.54V161.7h18.73v25.1h15.48V122.63Zm64.64,64.25V173.19h-27v-11.7h18.89c0-4.15-.05-8.1,0-12,0-1.28-.38-1.64-1.63-1.62-5.14.06-10.27,0-15.41,0h-1.82V136.24h26.91V122.66H262.24v64.22Zm-148.5,7.21v84.18h20.06V194.09Zm14.54-57.65v50.4h16.6V136.38h14.33V122.64H157.38v13.8Zm215.22,50.4V122.68H370.61v64.16Z"/><path d="M317.51,194.11h20.4v2.19q0,27.35,0,54.71a22.69,22.69,0,0,0,.32,4.38c.91,4.55,3.68,7.6,8.22,8.36a26.42,26.42,0,0,0,9,0c5.38-1,8.33-5.26,8.33-11.17q0-28,0-56.06v-2.32h19.23a6.11,6.11,0,0,1,.14.93c0,19.59.12,39.18,0,58.77-.1,12-7.38,21.35-19.3,24.87-10.8,3.19-21.58,3-31.82-2.07-9.35-4.61-14.44-12.36-14.54-22.84-.18-19.59-.08-39.18-.09-58.77C317.42,194.79,317.47,194.52,317.51,194.11Z"/><path d="M312.15,221.21H294c-.06-1.15-.08-2.2-.18-3.25-.54-5.58-3.52-9-9-10.13a16.35,16.35,0,0,0-9.49.6,8.34,8.34,0,0,0-5.62,7.2,7,7,0,0,0,3.9,7.32,117.51,117.51,0,0,0,10.69,5c5,2.13,10.08,3.94,15,6.24a30.69,30.69,0,0,1,6.93,4.78c8.13,7.13,7.73,18.36,4,26.35-3.65,7.83-10.11,12.26-18.34,14.17a45.06,45.06,0,0,1-28.22-2.07c-9.88-4.15-14.66-11.9-14.9-22.53,0-1.4,0-2.81,0-4.34h18.45c0,.54.08,1.09.09,1.63,0,7.66,3.56,11.71,11.19,12.64a17.83,17.83,0,0,0,9-.88c6.11-2.47,7.55-10.51,2.31-14.44a50.91,50.91,0,0,0-10-5.26c-5.14-2.29-10.49-4.12-15.59-6.51s-9.55-5.83-12.11-11.12c-4.63-9.54-1.16-22.05,8-28.79A32.18,32.18,0,0,1,277,191.89c7.42-.61,14.68.1,21.45,3.43,9.15,4.5,13.93,11.84,14,22.12,0,1.13,0,2.26-.05,3.38C312.34,220.93,312.25,221,312.15,221.21Z"/><path d="M182.12,250.51h18.36c.08,1.38.1,2.72.23,4,.54,5.22,3.46,8.42,8.48,9.73a19.66,19.66,0,0,0,10.69,0,8.24,8.24,0,0,0,6.2-6.87,7.61,7.61,0,0,0-3.46-8.36,60,60,0,0,0-8.68-4.49c-5.22-2.26-10.67-4-15.76-6.55a36.69,36.69,0,0,1-9.32-6.59c-8-7.94-6.63-22.54,1.19-30.58a29.56,29.56,0,0,1,17.44-8.56c8.13-1.2,16.14-.69,23.69,2.81,9.5,4.4,14.5,11.84,14.55,22.43,0,1,0,2,0,3a4,4,0,0,1-.14.63h-18.3c0-.83,0-1.71,0-2.58a10.61,10.61,0,0,0-8.65-10.65,17,17,0,0,0-10.3.64c-5.44,2.16-7.91,10.22-1.74,14.1,3.5,2.19,7.45,3.67,11.26,5.34,5.46,2.41,11.11,4.42,16.41,7.12s9.47,7,11,13.07c2.46,9.78-.8,23.39-14.08,29.16-12,5.22-24.3,4.73-36.07-.86-8.9-4.23-12.88-11.93-13-21.68C182.1,253.41,182.12,252,182.12,250.51Z"/><path d="M387.33,278.23V194.16H444v16.13H407.62v17.65h25.29V244.2H407.6v17.69H444v16.34Z"/><path d="M317.56,122.54h29.91a21.15,21.15,0,0,1,9.65,2.18,13.29,13.29,0,0,1,7.77,11.14,45.7,45.7,0,0,1,0,8.6,11,11,0,0,1-6.08,9c-.33.18-.65.39-1.15.7.61.3,1,.5,1.47.73a11.35,11.35,0,0,1,6.47,10,51.26,51.26,0,0,1-.16,9.12c-.89,6.39-5.34,10.68-12.19,12.19a20.9,20.9,0,0,1-4.35.62c-10.39.05-20.77,0-31.3,0Zm16.63,39.05c0,3.7,0,7.24,0,10.78a1.27,1.27,0,0,0,.9.85c3.65,0,7.32,0,11-.2,2.27-.14,3.19-1.42,3.22-3.76,0-1.46,0-2.93,0-4.39-.06-2.13-.93-3.19-3.06-3.25C342.32,161.51,338.38,161.59,334.2,161.59Zm6-13.74h0c1.63,0,3.27,0,4.9,0a13.09,13.09,0,0,0,1.34-.15A2.56,2.56,0,0,0,349,145.1c.07-1.46.15-2.93.12-4.39-.06-3.28-1.08-4.34-4.38-4.43-3.1-.08-6.2,0-9.3,0-.92,0-1.32.26-1.31,1.24q.06,4.56,0,9.13c0,1,.37,1.28,1.3,1.25C337,147.82,338.63,147.85,340.21,147.85Z"/><path d="M443.93,141.84H427.17c-.17-.55-.34-1.13-.53-1.7-1.21-3.66-4.2-5.67-8.48-5.69s-7.53,2-8.7,5.63a11.28,11.28,0,0,0-.51,3.32c0,7.57,0,15.13,0,22.7,0,5.27,3.22,8.54,8.64,8.86,5.21.31,9.09-2.85,9.59-7.93.17-1.72,0-3.48,0-5.4H418.3V148h25.56c.08.13.19.22.19.32,0,6.26.27,12.55-.16,18.79-.72,10.53-7.13,17.95-17.39,20.52-7.68,1.93-15.27,1.58-22.42-2.09a20.92,20.92,0,0,1-12-18.72c-.33-7.83-.24-15.7-.07-23.54.26-11.52,8.27-20.25,20-22,7.67-1.15,15.12-.55,21.85,3.73C440,128.87,443.12,134.55,443.93,141.84Z"/><path d="M241.16,122.63h16.59V186.8H242.27V161.7H223.54v25.14H207V122.66h16.48v25.05h17.68Z"/><path d="M305.8,186.88H262.24V122.66h43.56v13.58H278.88v11.62h1.82c5.14,0,10.27,0,15.41,0,1.25,0,1.66.34,1.63,1.62-.08,3.94,0,7.88,0,12H278.83v11.7h27Z"/><path d="M157.3,194.09h20.06v84.18H157.3Z"/><path d="M171.83,136.44H157.38v-13.8h45.39v13.75H188.44v50.45h-16.6Z"/><path d="M387.06,186.84H370.61V122.68h16.45Z"/><path class="cls-1" d="M334.2,161.59c4.18,0,8.12-.08,12.05,0,2.13.06,3,1.12,3.06,3.25,0,1.46,0,2.93,0,4.39,0,2.33-.95,3.61-3.22,3.76-3.64.23-7.31.19-11,.2a1.27,1.27,0,0,1-.9-.85C334.17,168.83,334.2,165.29,334.2,161.59Z"/><path class="cls-1" d="M340.21,147.85c-1.58,0-3.16,0-4.73,0-.93,0-1.31-.27-1.3-1.25q.06-4.56,0-9.13c0-1,.39-1.25,1.31-1.24,3.1,0,6.2,0,9.3,0,3.3.09,4.32,1.15,4.38,4.43,0,1.46,0,2.93-.12,4.39a2.56,2.56,0,0,1-2.59,2.59,13.09,13.09,0,0,1-1.34.15c-1.63,0-3.27,0-4.9,0Z"/></svg>