<svg id="Layer_1" data-name="Layer 1" xmlns="http://www.w3.org/2000/svg" viewBox="0 0 600 400"><defs><style>.cls-1{fill:#fff;}</style></defs><title>campaign</title><g id="hxLif7"><path class="cls-1" d="M35.21,272.64V129.23H566.66V272.64Zm130-42.33c.86-1.44,1.82-2.84,2.53-4.35a11.32,11.32,0,0,0,.55-2.81,7.55,7.55,0,0,0-2.71.53c-3.3,2.17-4.6.48-5.06-2.57a46.72,46.72,0,0,1-.4-6.53c-.07-10.46-.08-20.93-.13-31.39a12.91,12.91,0,0,0-7-11.87c-11-6.32-30.78-4.67-40.41,3.48-3.6,3-6.07,6.76-6,11.68.09,4.31,2,7.53,6.21,9,4.06,1.39,9.48-.23,11.87-3.52,2.67-3.68,1.46-6.83-1-10.23a6.7,6.7,0,0,1-.53-5.76c1.47-3,7.41-4.08,11.53-2.76s5.71,4.45,5.68,8.64c0,3.8.8,7.14-4.68,9-9.94,3.28-19.43,8-26.39,16.28-5.65,6.73-6,15.86-1.28,21.6,4.62,5.57,12.53,6.46,20.52,2,3.63-2,7-4.54,10.45-6.83,5.7,9.71,12.86,12.44,21.6,8.36,1.52-.71,3.11-1.3,4.66-1.94-1.62,3.79,1.66,2.5,2.93,2.53,8.43.14,16.86.1,25.29,0a38.5,38.5,0,0,0,5-.93c-10.17-4.46-7-12.21-7.36-18.76-.33-6.85.18-13.75-.16-20.6-.22-4.52,1.35-8.18,4.63-10.68,2.36-1.81,6-3.67,8.46-3.06,1.76.44,3.44,4.87,3.57,7.6.45,9.35.23,18.73.21,28.09,0,6.11,1.16,12.63-5.48,16.58-.13.07,0,.59,0,1.21h31l1.37-1.37c-5.65-1.24-7.16-4.87-7.18-9.32,0-10-.37-20,.05-30,.24-5.61,3.79-9.86,8.69-12.51,3.57-1.93,6.83-.21,7.91,3.77a17.76,17.76,0,0,1,.62,4.63c0,10.61-.14,21.23-.19,31.84,0,4.74.13,9.53-5.76,11.29-.2.06-.17.85-.31,1.63h32.28c-.32-1-.36-1.79-.59-1.86-6-1.73-5.62-6.55-5.67-11.31-.12-10.92-.17-21.85-.67-32.76-.34-7.47-4.11-13.14-11.26-15.81-7.32-2.74-13.83-.69-19.34,4.62-2.29,2.22-4.34,4.69-6.85,7.44-2.46-8.16-7-13.22-15.74-13.34-8.13-.11-13.61,4.78-19.63,10.92v-9.42H164.89c0,.76-.11,1.13,0,1.35s.55.86.91.94c4.71,1.13,5.26,4.64,5.24,8.68q-.1,19,0,37.94C171.09,224.41,169.9,228.29,165.18,230.32Zm318.19-60c-2.1,0-3.79,0-5.47,0-7.92-.05-15.71-.1-23.61-2.09-9.3-2.34-18.35-.11-25.88,6.27-10.33,8.75-10.4,22.39-.28,31.37,1.42,1.26,2.91,2.44,4.57,3.82-11.79,3.73-13.61,13.62-3.93,21.92-1.55.85-3,1.58-4.45,2.46-5.52,3.47-6,10-.79,14a24.78,24.78,0,0,0,8.38,3.92,70.74,70.74,0,0,0,29.7,1.11c6.43-1.05,12.42-3.19,17.05-8,9.38-9.78,5.42-23.7-7.69-26.68a55.86,55.86,0,0,0-11.13-1.15c-7.8-.17-15.6,0-23.4-.12-1.63,0-3.25-.89-4.87-1.36l.4-1.87c4.54,0,9.11-.37,13.61.08,8.06.8,15.59-.37,22.37-4.87,9.79-6.5,12.15-17.26,6.18-27.31-1-1.65-2-3.27-3.43-5.66h12.67Zm-217.5,3.35.12,1.88c3.81,1.31,7.45,2.55,7.42,7.63-.11,19.81,0,39.63-.1,59.44,0,4.25-1.55,7.61-6.29,8.61-.82.17-1.51,1-3.4,2.22h38.48l.26-1.27a15,15,0,0,1-3.48-1.21c-1.73-1.12-4.5-2.39-4.69-3.87-.81-6.47-.86-13-1.23-20.54,11.28,10.1,22.85,9.05,30.23-2.69a49.15,49.15,0,0,0,6.69-18.65c1.66-11.49-.81-22.47-9.05-31.3-7.31-7.83-16.71-7.9-24.38-.59-.83.79-1.71,1.53-3,2.67l-.49-8ZM554,232.43l1.21-1.25c-8.8-3.26-7-10.29-7.13-16.63-.05-2.5.07-5,0-7.5-.27-7.63-.16-15.31-1-22.88-.79-6.82-4-12.6-11.17-14.85-7.51-2.36-14.17-.54-19.86,4.87L510.9,179l-.39-8.36H484.16c.74,1.42,1,2.76,1.68,3.07,4.42,2,4.78,5.67,4.76,9.77-.07,11.24,0,22.49,0,33.74,0,5.08.6,10.46-5.11,13.43-.21.11-.08.87-.13,1.73h31.19c-.45-1.25-.51-2.35-1-2.58-5-2.37-4.78-6.88-4.8-11.28,0-8.59.22-17.19-.11-25.77a13.84,13.84,0,0,1,4.22-10.91c2.46-2.5,5.06-5.18,8.9-3.69s3.55,5.15,3.57,8.44c.07,11.56.31,23.12,0,34.67-.08,2.71-2.26,5.36-3.49,8-.44,1-.94,1.88-1.58,3.14Zm-190.13-8.58c7.51,12.35,20.87,13.44,28.56,2.31a10,10,0,0,0,.88-2.84c-1,.15-2.26,0-3.08.49-2.71,1.67-4.19.67-4.71-2.06a36.65,36.65,0,0,1-.5-6.52c-.08-10.47-.06-20.93-.12-31.4,0-5.17-1.88-9.38-6.47-12.23-11-6.8-32.05-5-41.55,3.7-3.63,3.32-5.93,7.3-5.29,12.41.51,4.11,2.73,7,6.89,7.89,4.44.9,8.48-.15,11.27-4,2.57-3.51,1.3-6.61-1.21-9.73-2.91-3.62-2.07-6.91,2.39-8.21a16.91,16.91,0,0,1,9.07-.18c5.77,1.72,4.92,7,5.42,11.69.45,4.18-2.52,4.33-5,5.36-9.85,4.08-19.63,8.38-26.62,16.87-5.44,6.61-5.68,15.6-1,21.2,4.56,5.45,12.29,6.43,20.13,2.2C356.71,228.82,360.21,226.21,363.85,223.86Zm-260.78-7.2-1.77-.52L98.66,218c-10.3,7.4-20,5.54-26.42-5.36a34.84,34.84,0,0,1-3.91-28,19.81,19.81,0,0,1,5.42-9,9.91,9.91,0,0,1,8-1.86c1.7.46,2.94,3.9,3.69,6.24,1,3.22.91,6.86,2.19,9.95a9.09,9.09,0,0,0,13.7,3.91c4-2.82,5.16-8.3,2.73-13.52-3-6.43-8.5-9.84-15-11.67-17.5-4.9-35.81,6.8-40.34,25.67C45,209.81,51.48,225.1,64.21,231.11c13.08,6.17,28.17,2.18,37.51-10.05C102.59,219.91,102.64,218.14,103.07,216.66Zm284.51-46.13c1.22,1.6,1.77,3.11,2.63,3.32,5.08,1.23,5.92,4.82,5.89,9.27-.08,12.34,0,24.68,0,37,0,4-.76,7.44-4.79,9.4-.69.34-1,1.55-1.72,2.89H423c.09-.73.24-1.06.15-1.32-.14-.42-.37-1.08-.66-1.15-6.59-1.42-6.66-6.45-6.63-11.66.06-13.43,0-26.87,0-40.3,0-2.44,0-4.88,0-7.47Zm28.21-11.87a9.81,9.81,0,1,0-19.61-.32,9.81,9.81,0,1,0,19.61.32Z"/><path d="M165.18,230.32c4.72-2,5.91-5.91,5.88-10.64q-.12-19,0-37.94c0-4-.53-7.55-5.24-8.68-.37-.09-.69-.57-.91-.94s0-.6,0-1.35h26.23v9.42c6-6.14,11.5-11,19.63-10.92,8.73.12,13.27,5.18,15.74,13.34,2.51-2.74,4.55-5.22,6.85-7.44,5.5-5.31,12-7.36,19.34-4.62,7.15,2.68,10.92,8.34,11.26,15.81.5,10.91.55,21.83.67,32.76.05,4.76-.35,9.58,5.67,11.31.24.07.28.81.59,1.86H238.58c.14-.79.11-1.58.31-1.63,5.89-1.77,5.73-6.55,5.76-11.29.05-10.61.17-21.23.19-31.84a17.76,17.76,0,0,0-.62-4.63c-1.08-4-4.34-5.71-7.91-3.77-4.9,2.65-8.45,6.89-8.69,12.51-.42,10-.09,20-.05,30,0,4.45,1.53,8.08,7.18,9.32l-1.37,1.37h-31c0-.63-.16-1.14,0-1.21,6.64-3.94,5.47-10.47,5.48-16.58,0-9.37.24-18.75-.21-28.09-.13-2.73-1.81-7.17-3.57-7.6-2.46-.61-6.09,1.25-8.46,3.06-3.27,2.5-4.85,6.16-4.63,10.68.34,6.85-.16,13.75.16,20.6.31,6.56-2.81,14.3,7.36,18.76a38.5,38.5,0,0,1-5,.93c-8.43.05-16.86.1-25.29,0-1.27,0-4.55,1.26-2.93-2.52Z"/><path d="M483.37,170.31v5.78H470.7c1.45,2.38,2.46,4,3.43,5.66,6,10,3.6,20.81-6.18,27.31-6.78,4.5-14.31,5.67-22.37,4.87-4.49-.45-9.07-.08-13.61-.08l-.4,1.87c1.62.47,3.24,1.33,4.87,1.36,7.8.15,15.6,0,23.4.12A55.86,55.86,0,0,1,471,218.35c13.11,3,17.08,16.9,7.69,26.68-4.64,4.83-10.63,7-17.05,8a70.74,70.74,0,0,1-29.7-1.11,24.78,24.78,0,0,1-8.38-3.92c-5.25-3.92-4.74-10.5.79-14,1.4-.88,2.9-1.61,4.45-2.46-9.68-8.29-7.86-18.19,3.93-21.92-1.65-1.38-3.15-2.56-4.57-3.82-10.12-9-10-22.62.28-31.37,7.53-6.38,16.58-8.61,25.88-6.27,7.9,2,15.69,2,23.61,2.09C479.58,170.32,481.27,170.31,483.37,170.31ZM440,190.79c.86,4.59,1.38,8.92,2.54,13.08.93,3.36,3.37,5.68,7.15,5.68s6.15-2.28,7.18-5.66a42.91,42.91,0,0,0,.08-25.76c-1.06-3.38-3.61-6.21-7.15-5.46-2.6.55-5.8,2.83-6.84,5.17C441.18,181.86,440.89,186.52,440,190.79ZM452.32,250c4.94-1.43,10.43-2.55,15.45-4.73,1.87-.81,3.86-4.31,3.57-6.24s-3.37-4.48-5.38-4.63a220.56,220.56,0,0,0-27.45-.55c-2.29.11-5.95,3.4-6.19,5.54s2.51,5.81,4.82,6.81C441.61,248.16,446.68,248.7,452.32,250Z"/><path d="M265.86,173.66,293,168l.49,8c1.27-1.14,2.15-1.88,3-2.67,7.67-7.31,17.08-7.24,24.38.59,8.24,8.83,10.71,19.81,9.05,31.3a49.15,49.15,0,0,1-6.69,18.65c-7.37,11.74-18.95,12.79-30.23,2.69.37,7.51.42,14.08,1.23,20.54.19,1.48,3,2.74,4.69,3.87a15,15,0,0,0,3.48,1.21l-.26,1.27H263.62c1.89-1.27,2.58-2,3.4-2.22,4.73-1,6.27-4.36,6.29-8.61.08-19.81,0-39.63.1-59.44,0-5.08-3.61-6.32-7.42-7.63ZM293.26,203h0c0,4.21,0,8.42,0,12.63,0,5.09,4.38,10.32,8.71,10.55,3.83.21,6.63-2.76,7-8.87.54-8.69.61-17.43.51-26.14a27.15,27.15,0,0,0-1.85-9.11c-1.95-5.14-7.94-6.16-11.1-1.66-1.85,2.63-2.73,6.24-3.13,9.52C292.87,194.26,293.26,198.68,293.26,203Z"/><path d="M554,232.43h-31.8c.63-1.26,1.13-2.19,1.58-3.14,1.23-2.67,3.41-5.32,3.49-8,.36-11.54.12-23.11,0-34.67,0-3.29.18-7-3.57-8.44s-6.44,1.2-8.9,3.69a13.84,13.84,0,0,0-4.22,10.91c.33,8.58.07,17.18.11,25.77,0,4.4-.18,8.91,4.8,11.28.47.22.53,1.32,1,2.58H485.32c.05-.86-.08-1.62.13-1.73,5.71-3,5.09-8.34,5.11-13.43,0-11.24,0-22.49,0-33.74,0-4.1-.33-7.82-4.76-9.77-.7-.31-.94-1.65-1.68-3.07h26.36l.39,8.36,5.07-4.8c5.69-5.41,12.35-7.23,19.86-4.87,7.15,2.25,10.38,8,11.17,14.85.88,7.56.77,15.24,1,22.88.09,2.5,0,5,0,7.5.13,6.34-1.66,13.37,7.13,16.63Z"/><path d="M165.18,230.32l.06-.05c-1.55.64-3.14,1.23-4.66,1.94-8.74,4.08-15.9,1.35-21.6-8.36-3.48,2.29-6.82,4.81-10.45,6.83-8,4.44-15.91,3.55-20.52-2-4.76-5.74-4.37-14.87,1.28-21.6,7-8.3,16.45-13,26.39-16.28,5.48-1.81,4.65-5.16,4.68-9,0-4.19-1.45-7.28-5.68-8.64s-10.06-.24-11.53,2.76a6.7,6.7,0,0,0,.53,5.76c2.44,3.4,3.65,6.56,1,10.23-2.39,3.29-7.81,4.91-11.87,3.52-4.22-1.45-6.12-4.67-6.21-9-.11-4.92,2.36-8.63,6-11.68,9.63-8.15,29.43-9.79,40.41-3.48a12.91,12.91,0,0,1,7,11.87c0,10.46.05,20.93.13,31.39a46.72,46.72,0,0,0,.4,6.53c.45,3.05,1.76,4.73,5.06,2.57a7.55,7.55,0,0,1,2.71-.53,11.32,11.32,0,0,1-.55,2.81C167,227.48,166,228.87,165.18,230.32Zm-25.84-37.71c-3.66,2.59-6.5,4.16-8.79,6.32-5.14,4.86-7.91,10.81-6.43,18.05.77,3.78,3.14,6.12,7.27,5.75,4.45-.4,7.92-3.74,7.94-7.45C139.36,208.27,139.34,201.27,139.34,192.61Z"/><path d="M363.85,223.86c-3.64,2.36-7.15,5-10.95,7-7.83,4.23-15.57,3.25-20.13-2.2-4.69-5.6-4.44-14.59,1-21.2,7-8.5,16.76-12.8,26.62-16.87,2.48-1,5.45-1.18,5-5.36-.5-4.66.35-10-5.42-11.69a16.91,16.91,0,0,0-9.07.18c-4.46,1.3-5.31,4.59-2.39,8.21,2.51,3.12,3.78,6.22,1.21,9.73-2.79,3.81-6.83,4.86-11.27,4-4.16-.85-6.38-3.79-6.89-7.89-.64-5.11,1.66-9.09,5.29-12.41,9.5-8.68,30.58-10.5,41.55-3.7,4.59,2.84,6.44,7.06,6.47,12.23.07,10.47,0,20.93.12,31.4a36.65,36.65,0,0,0,.5,6.52c.52,2.73,2,3.73,4.71,2.06.82-.5,2-.35,3.08-.49a10,10,0,0,1-.88,2.84C384.72,237.29,371.36,236.21,363.85,223.86Zm.39-30.65c-5.94,2.6-10,5.79-12.78,10.51-2.6,4.46-3.87,9.26-2.19,14.35,1.1,3.33,3.61,5.43,7.15,4.55,3.32-.82,7.54-1.61,7.73-6.13C364.47,209,364.24,201.57,364.24,193.21Z"/><path d="M103.07,216.66c-.43,1.48-.48,3.25-1.35,4.39-9.34,12.23-24.43,16.22-37.51,10.05-12.74-6-19.21-21.3-15.52-36.67,4.53-18.87,22.84-30.57,40.34-25.67,6.54,1.83,12,5.24,15,11.67,2.43,5.22,1.24,10.7-2.73,13.52A9.09,9.09,0,0,1,87.64,190c-1.28-3.09-1.15-6.73-2.19-9.95-.75-2.33-2-5.78-3.69-6.24a9.91,9.91,0,0,0-8,1.86,19.81,19.81,0,0,0-5.42,9,34.84,34.84,0,0,0,3.91,28c6.46,10.91,16.12,12.76,26.42,5.36l2.64-1.9Z"/><path d="M387.58,170.53H415.9c0,2.59,0,5,0,7.47,0,13.43,0,26.87,0,40.3,0,5.22,0,10.24,6.63,11.66.3.06.52.72.66,1.15.09.26-.06.6-.15,1.32H389.56c.76-1.34,1-2.55,1.72-2.89,4-2,4.79-5.44,4.79-9.4,0-12.34-.06-24.68,0-37,0-4.45-.81-8-5.89-9.27C389.34,173.65,388.79,172.13,387.58,170.53Z"/><path d="M415.78,158.66a9.81,9.81,0,1,1-9.88-10.2A9.8,9.8,0,0,1,415.78,158.66Z"/><path class="cls-1" d="M440,190.79c.89-4.27,1.19-8.94,3-12.94,1-2.35,4.24-4.62,6.84-5.17,3.54-.75,6.09,2.08,7.15,5.46a42.91,42.91,0,0,1-.08,25.76c-1,3.38-3.41,5.66-7.18,5.66s-6.22-2.33-7.15-5.68C441.38,199.71,440.86,195.38,440,190.79Z"/><path class="cls-1" d="M452.32,250c-5.64-1.31-10.71-1.85-15.16-3.8-2.31-1-5.06-4.66-4.82-6.81s3.89-5.43,6.19-5.54a220.56,220.56,0,0,1,27.45.55c2,.15,5.1,2.79,5.38,4.63s-1.71,5.43-3.57,6.24C462.74,247.47,457.25,248.59,452.32,250Z"/><path class="cls-1" d="M293.26,203c0-4.37-.39-8.78.13-13.08.4-3.28,1.28-6.88,3.13-9.52,3.15-4.49,9.15-3.47,11.1,1.66a27.15,27.15,0,0,1,1.85,9.11c.1,8.71,0,17.45-.51,26.14-.38,6.11-3.18,9.08-7,8.87-4.32-.23-8.66-5.46-8.71-10.55,0-4.21,0-8.42,0-12.63Z"/><path class="cls-1" d="M139.34,192.61c0,8.67,0,15.66,0,22.66,0,3.72-3.5,7-7.94,7.45-4.13.38-6.49-2-7.27-5.75-1.48-7.24,1.29-13.19,6.43-18.05C132.84,196.76,135.68,195.2,139.34,192.61Z"/><path class="cls-1" d="M364.24,193.21c0,8.37.23,15.83-.09,23.27-.19,4.52-4.41,5.31-7.73,6.13-3.53.88-6-1.22-7.15-4.55-1.68-5.09-.41-9.89,2.19-14.35C354.21,199,358.3,195.81,364.24,193.21Z"/></g></svg>