<svg id="Layer_1" data-name="Layer 1" xmlns="http://www.w3.org/2000/svg" viewBox="0 0 600 400"><defs><style>.cls-1{fill:#fff;}</style></defs><title>dailymail</title><path class="cls-1" d="M301,302q-147.7,0-295.41.08c-3.51,0-4.75-.41-4.74-4.45q.24-96.72,0-193.44c0-3.76,1-4.28,4.42-4.28q295.66.14,591.32,0c3.25,0,4.52.22,4.5,4.19q-.27,97,0,193.94c0,3.54-.86,4-4.16,4Q449,301.93,301,302ZM143.71,196.5c0-8.33.1-16.67-.09-25,0-1.58-.72-3.87-1.88-4.59-6.2-3.87-12.37-9.38-19.09-10.28-4.67-.62-10.1,5.5-15.42,8.15-1.71.85-4.88,1.15-6.13.14-9.94-8-19.59-8-29.31.15-4.73,4-9.36,3.53-13.75-.4-6-5.34-11.26-4.35-17.49.27-8.75,6.49-9,5.92,0,12.44,2,1.46,4.46,4.08,4.52,6.23.41,13.82.27,27.66.13,41.49a6,6,0,0,1-1.93,4.09c-4.83,3.86-4.91,3.76.61,6.66a20.1,20.1,0,0,1,3.52,1.88c8.51,7,16.64,6,25-.55,2.56-2,5.15-2.92.64-5.51-.8-.46-1.09-2.31-1.12-3.53-.12-4.83-.19-9.67,0-14.49.06-1.25,1.29-3.45,2-3.47,2.84-.09,8,0,8.18,1a43.23,43.23,0,0,1,.43,13.37c-.14,1.5-2.19,3-3.67,4.14-1.9,1.43-2.11,2.39.09,3.55,3.1,1.62,6.53,2.84,9.2,5,9.29,7.56,17.67,6.23,26.44-1.14,3.21-2.7,2.74-3.31-.21-5.28-1.83-1.22-4-3.37-4.23-5.32-1.14-9.76-.44-19.23,6.92-26.94,1.07-1.12,1.53-2.83,2.27-4.27-1.58-.22-3.16-.43-4.74-.68-1.89-.3-4.67,1-4.63-2.71.06-5.67,0-11.33.07-17,0-.72.71-2,1.21-2.06,3.57-.44,10.21,5.83,10.21,9.55,0,14.66.07,29.33,0,44a18.05,18.05,0,0,0,8.45,16c3.61,2.46,6.74,2.87,10.23-.34a72.52,72.52,0,0,1,8.5-6.15c2.08-1.41,2.94-2.6.19-4.29-4.11-2.54-5.33-6.44-5.21-11.14C143.85,211.84,143.71,204.17,143.71,196.5Zm7.74,23.63c1.14,4,1.81,8.12,3.51,11.81,3,6.58,9.17,9.2,15.78,11.06,5.19,1.45,7.29-3,10.63-5.09a17.37,17.37,0,0,0,3.48-2.82c2.28-2.43,4.53-2.6,7.5-1,5.41,2.92,11,5.59,16.6,8a6,6,0,0,0,4.89-.17,90,90,0,0,0,10.57-8.31c.62-.56.49-2.89-.16-3.69a13.47,13.47,0,0,0-4.44-3.14c-3.22-1.61-4.33-4-4.15-7.6.31-6.14-.12-12.32.2-18.45a9.46,9.46,0,0,1,2.56-5.86c2.62-2.49,1.95-3.62-.81-5-6.5-3.35-12.84-7-19.44-10.17a9.63,9.63,0,0,0-6.56-.52,71,71,0,0,0-32.41,21.52C154.51,206.25,152.32,212.72,151.45,220.13ZM294.58,194c0-10.33.09-20.65-.12-31,0-1.2-2-3.54-2.48-3.39-8.17,2.29-16.25,4.87-24.32,7.5-.29.09-.46,1.53-.21,2.14,1.07,2.55,3.31,5,3.36,7.52.32,15.81.18,31.64.13,47.46,0,1.44.06,3.56-.79,4.2-5.93,4.46-.88,5.38,2.08,7,1.46.79,3,1.52,4.44,2.28,11.44,5.92,11.37,5.81,22.25-1.56,3.46-2.34,4.3-4-.1-5.77-3.42-1.39-4.4-3.8-4.31-7.43C294.74,213.35,294.58,203.69,294.58,194Zm-33.38-.87a24.58,24.58,0,0,0-2.4-1.84c-2.3-1.34-4.9-2.28-6.92-3.94-9-7.41-17.15-6.92-25.63,1.13-4.22,4-4.87,4,.25,6.44,3.88,1.88,5.12,4.38,4.88,8.58-.37,6.63.12,13.3-.21,19.93-.12,2.36-1.68,4.62-2.39,7-.3,1-.46,2.86,0,3.08,6.31,3.32,12.48,7.76,19.24,9,3.46.66,8-4.42,12.05-6.92.56-.35,1.06-.82,1.63-1.14,2.88-1.62,2.7-3.24-.27-4.23-5.13-1.71-5.89-5.41-5.6-10.16.32-5.3.13-10.63.05-16-.05-3.69-.45-7.43,3.8-9.37C260.17,194.54,260.52,193.88,261.19,193.15ZM368.7,202c-1-7.08-1.37-13.45-3-19.47-3.22-11.83-11.55-18-23.15-18.27-14.14-.29-22.9,5.25-27,17.45-3.46,10.33-3,21-1.59,31.59a36.32,36.32,0,0,0,3.9,11.72c5,9.56,13.84,12.67,23.83,12.4,10.78-.29,19.63-4.73,23.12-15.66C366.91,215.24,367.53,208.23,368.7,202Zm177.36,8.61v0c5.66,0,11.32.2,17-.15,1.37-.08,3.61-1.84,3.79-3.07,1.85-12.33-6-23.78-17.39-25.88-13.17-2.43-24.36,4.43-27,17.41a56.67,56.67,0,0,0-.78,17.81c2.1,17.89,25.65,27.88,40.35,17.39.75-.54,1-1.83,1.43-2.78a10.37,10.37,0,0,0-2.61-.15c-4.06.8-8.06,2-12.14,2.53-12.3,1.53-21.92-6.59-22.82-18.86-.21-2.91.63-4.35,3.79-4.28C535.08,210.72,540.57,210.63,546.06,210.63Zm-76.71-1.41c0,6.82-.16,13.65.1,20.47.08,2.07-1.83,5.56,2.24,5.78.58,0,1.92-3.9,2-6,.23-8.65.09-17.31.1-26,0-10.56,7.11-18.12,17.67-18.79,9.59-.61,14.77,4.14,14.8,13.7,0,11.15-.05,22.3.1,33.45,0,1.31,1.23,2.6,1.89,3.9.79-1.18,2.25-2.34,2.26-3.53.16-12.31.27-24.63,0-36.95-.15-7.29-4.13-12-11.09-13.44-8.18-1.68-15.49.25-21.54,6.26-1.1,1.09-2.38,2-3.58,3a20,20,0,0,0-.71-4.26,18.63,18.63,0,0,0-2.34-3.5c-.63,1.14-1.79,2.27-1.81,3.43C469.28,194.24,469.36,201.73,469.35,209.22Zm-90.41-.28h0c0,7.49-.12,15,.1,22.46,0,1.41,1.41,2.79,2.17,4.18.61-1.39,1.72-2.76,1.74-4.16.16-9.15.09-18.3.09-27.45,0-11.67,8.16-19.63,19.76-19.31,8.17.23,12.5,4.62,12.52,12.81,0,11.65-.06,23.3.12,34.94,0,1.2,1.49,2.37,2.29,3.56.68-1.06,1.93-2.12,1.94-3.19.11-12.81.16-25.63-.06-38.43-.1-5.65-3.08-9.74-8.42-11.85-7.67-3-18.33-.53-24,5.52-1.07,1.15-2.3,2.17-3.45,3.25a39.49,39.49,0,0,0-1.06-4.54,24.17,24.17,0,0,0-1.84-3.44c-.65,1.23-1.84,2.45-1.87,3.7C378.86,194.29,378.95,201.61,378.95,208.94Zm58.24-8.39c0-10.48.06-21-.08-31.44,0-1.26-1.18-2.51-1.82-3.76-.7,1.25-2,2.49-2,3.74q-.19,31.44,0,62.89c0,1.28,1.31,2.55,2,3.83.64-1.27,1.82-2.53,1.84-3.81C437.26,221.51,437.19,211,437.19,200.54ZM247.52,156.89a11.57,11.57,0,0,0-2,.39c-7.15,2.48-9.77,15.5-4,20.39.84.71,3.32.88,3.94.23,3.5-3.59,7.54-7.07,9.71-11.43C257.64,161.61,253.41,156.73,247.52,156.89ZM455.7,209.08c0-7.66.1-15.32-.1-23,0-1.24-1.36-2.45-2.09-3.68-.74,1.22-2.1,2.43-2.11,3.65q-.22,23,0,46c0,1.25,1.36,2.49,2.09,3.73.74-1.24,2.08-2.46,2.11-3.71C455.8,224.4,455.7,216.74,455.7,209.08Zm-5.89-38.67,0,2c1.21.79,2.55,2.34,3.6,2.16,1.2-.21,3-1.94,3-3s-1.65-2.92-2.85-3.18C452.47,168.14,451.06,169.66,449.81,170.41Z"/><path d="M143.71,196.5c0,7.67.14,15.33-.05,23-.12,4.71,1.1,8.61,5.21,11.14,2.75,1.7,1.89,2.88-.19,4.29a72.52,72.52,0,0,0-8.5,6.15c-3.49,3.21-6.62,2.79-10.23.34a18.05,18.05,0,0,1-8.45-16c.08-14.66,0-29.33,0-44,0-3.72-6.64-10-10.21-9.55-.5.06-1.19,1.34-1.21,2.06-.1,5.66,0,11.33-.07,17,0,3.73,2.75,2.41,4.63,2.71,1.58.25,3.16.45,4.74.68-.74,1.44-1.2,3.14-2.27,4.27-7.36,7.71-8.06,17.18-6.92,26.94.23,1.94,2.4,4.09,4.23,5.32,2.95,2,3.42,2.58.21,5.28-8.76,7.37-17.14,8.7-26.44,1.14-2.66-2.17-6.1-3.39-9.2-5-2.2-1.16-2-2.12-.09-3.55,1.48-1.11,3.53-2.64,3.67-4.14a43.23,43.23,0,0,0-.43-13.37c-.21-.95-5.34-1.07-8.18-1-.75,0-2,2.22-2,3.47-.24,4.82-.17,9.66,0,14.49,0,1.22.32,3.07,1.12,3.53,4.51,2.59,1.91,3.49-.64,5.51-8.32,6.56-16.45,7.55-25,.55a20.1,20.1,0,0,0-3.52-1.88c-5.52-2.9-5.44-2.8-.61-6.66a6,6,0,0,0,1.93-4.09c.14-13.83.28-27.67-.13-41.49-.06-2.15-2.5-4.77-4.52-6.23-9-6.51-8.76-5.95,0-12.44,6.23-4.62,11.5-5.61,17.49-.27,4.4,3.92,9,4.38,13.75.4,9.72-8.19,19.37-8.15,29.31-.15,1.25,1,4.42.71,6.13-.14,5.32-2.65,10.75-8.77,15.42-8.15,6.72.9,12.89,6.4,19.09,10.28,1.16.72,1.85,3,1.88,4.59C143.81,179.83,143.71,188.17,143.71,196.5Zm-71.85,8.63c4.67-7,12.82-11.78,11.09-21.86-.9-5.22-4.06-9.92-9.43-10.63-.48-.06-1.58.92-1.59,1.43C71.83,184.42,71.86,194.78,71.86,205.13Zm-1.7-4.59c0-8.83,0-17.66,0-26.49a9.58,9.58,0,0,0-.78-2.59c-.71.75-1.77,1.4-2,2.29a14.36,14.36,0,0,0-.15,4q0,22,0,44a24.25,24.25,0,0,0,.14,5c.19.89,1.31,1.59,2,2.37a8.9,8.9,0,0,0,.82-2.53C70.18,217.88,70.16,209.21,70.16,200.55ZM106,181.7c0,3.32-.06,6.65.06,10,0,.55.86,1.06,1.32,1.59.35-.49,1-1,1-1.46.07-6.64.07-13.29,0-19.93,0-.56-.87-1.11-1.33-1.66-.35.68-1,1.34-1,2C106,175.38,106,178.54,106,181.7Zm2.47,36.45c0-1.82.12-3.66-.05-5.47a8,8,0,0,0-1.12-2.41c-.44.73-1.22,1.45-1.25,2.2-.13,3.64-.13,7.3,0,10.94,0,.83.79,1.63,1.22,2.44a10.49,10.49,0,0,0,1.14-2.73A43.12,43.12,0,0,0,108.5,218.14Z"/><path d="M151.45,220.13c.87-7.41,3.05-13.89,7.77-19.45a71,71,0,0,1,32.41-21.52,9.63,9.63,0,0,1,6.56.52c6.59,3.15,12.93,6.82,19.44,10.17,2.75,1.42,3.42,2.54.81,5a9.46,9.46,0,0,0-2.56,5.86c-.33,6.14.1,12.31-.2,18.45-.18,3.63.94,6,4.15,7.6a13.47,13.47,0,0,1,4.44,3.14c.65.8.78,3.13.16,3.69A90,90,0,0,1,213.85,242a6,6,0,0,1-4.89.17c-5.63-2.46-11.19-5.12-16.6-8-3-1.6-5.22-1.43-7.5,1a17.37,17.37,0,0,1-3.48,2.82c-3.34,2.08-5.45,6.54-10.63,5.09-6.62-1.85-12.75-4.48-15.78-11.06C153.26,228.25,152.59,224.08,151.45,220.13Zm39.23-6.28h0c0-3.49,0-7,0-10.48,0-4.5-5.18-11.34-10.79-11.63-2.85-.15-7,3.53-8.72,6.52-6.41,11,1.87,27,15,31.59,2.74,1,4.51-.4,4.5-3.52Q190.68,220.1,190.69,213.86Z"/><path d="M294.58,194c0,9.66.16,19.32-.08,29-.09,3.63.89,6,4.31,7.43,4.41,1.79,3.56,3.42.1,5.77-10.88,7.37-10.81,7.48-22.25,1.56-1.48-.76-3-1.49-4.44-2.28-3-1.61-8-2.52-2.08-7,.85-.64.79-2.76.79-4.2.05-15.82.19-31.64-.13-47.46-.05-2.52-2.29-5-3.36-7.52-.26-.61-.08-2,.21-2.14,8.07-2.63,16.15-5.22,24.32-7.5.51-.14,2.46,2.19,2.48,3.39C294.66,173.38,294.58,183.7,294.58,194Z"/><path d="M261.19,193.15c-.68.73-1,1.39-1.55,1.63-4.25,1.94-3.86,5.68-3.8,9.37.07,5.32.26,10.65-.05,16-.28,4.75.47,8.45,5.6,10.16,3,1,3.15,2.62.27,4.23-.58.32-1.07.79-1.63,1.14-4,2.5-8.6,7.58-12.05,6.92-6.75-1.28-12.93-5.72-19.24-9-.43-.23-.26-2.1,0-3.08.71-2.37,2.27-4.63,2.39-7,.34-6.63-.15-13.31.21-19.93.23-4.2-1-6.7-4.88-8.58-5.12-2.49-4.47-2.45-.25-6.44,8.48-8,16.67-8.53,25.63-1.13,2,1.66,4.62,2.6,6.92,3.94A24.58,24.58,0,0,1,261.19,193.15Z"/><path d="M368.7,202c-1.17,6.22-1.79,13.23-3.88,19.77-3.49,10.92-12.34,15.37-23.12,15.66-10,.27-18.87-2.84-23.83-12.4a36.32,36.32,0,0,1-3.9-11.72c-1.38-10.57-1.86-21.25,1.59-31.59,4.08-12.2,12.85-17.74,27-17.45,11.61.24,19.93,6.44,23.15,18.27C367.33,188.57,367.65,194.94,368.7,202Zm-4.46-1.36c-1.33-6.67-2.05-13.85-4.27-20.53-2.65-8-9.07-12-17.55-12.5-8.89-.52-16.62,2.07-20.32,10.53a54.72,54.72,0,0,0-.07,45c3.57,8.24,11.19,11.12,19.78,10.77,9.13-.37,16.16-4.53,18.78-13.67C362.35,214.12,363,207.64,364.24,200.66Z"/><path d="M546.06,210.63c-5.49,0-11,.09-16.47,0-3.16-.07-4,1.36-3.79,4.28.9,12.28,10.52,20.39,22.82,18.86,4.09-.51,8.09-1.73,12.14-2.53a10.37,10.37,0,0,1,2.61.15c-.46.94-.68,2.24-1.43,2.78-14.7,10.49-38.25.49-40.35-17.39a56.67,56.67,0,0,1,.78-17.81c2.69-13,13.88-19.84,27-17.41,11.39,2.1,19.24,13.56,17.39,25.88-.18,1.23-2.42,3-3.79,3.07-5.63.35-11.3.15-17,.15Zm-1.9-3.29c4.83,0,9.68.19,14.49-.13,1.31-.09,3.42-1.56,3.61-2.67,1.38-7.94-4.45-16.71-12.21-18.93-12.23-3.49-23.8,5.16-24.25,18-.09,2.5.73,3.74,3.36,3.7C534.16,207.27,539.16,207.33,544.16,207.33Z"/><path d="M469.36,209.22c0-7.49-.08-15,.09-22.47,0-1.16,1.18-2.29,1.81-3.43a18.63,18.63,0,0,1,2.34,3.5,20,20,0,0,1,.71,4.26c1.2-1,2.48-1.91,3.58-3,6.05-6,13.36-7.94,21.54-6.26,7,1.43,10.95,6.15,11.09,13.44.25,12.31.14,24.63,0,36.95,0,1.19-1.47,2.35-2.26,3.53-.66-1.3-1.88-2.59-1.89-3.9-.15-11.15-.06-22.3-.1-33.45,0-9.56-5.21-14.31-14.8-13.7-10.57.68-17.67,8.23-17.67,18.79,0,8.65.13,17.31-.1,26-.06,2.12-1.4,6.06-2,6-4.06-.22-2.16-3.71-2.24-5.78C469.19,222.87,469.35,216,469.36,209.22Z"/><path d="M378.95,208.94c0-7.32-.09-14.65.09-22,0-1.25,1.22-2.46,1.87-3.7a24.17,24.17,0,0,1,1.84,3.44,39.49,39.49,0,0,1,1.06,4.54c1.15-1.08,2.38-2.09,3.45-3.25,5.63-6,16.3-8.56,24-5.52,5.34,2.12,8.33,6.2,8.42,11.85.22,12.81.17,25.62.06,38.43,0,1.07-1.26,2.13-1.94,3.19-.8-1.19-2.27-2.36-2.29-3.56-.18-11.65-.09-23.29-.12-34.94,0-8.19-4.36-12.58-12.52-12.81-11.6-.32-19.75,7.64-19.76,19.31,0,9.15.07,18.31-.09,27.45,0,1.4-1.13,2.77-1.74,4.16-.76-1.39-2.13-2.77-2.17-4.18-.22-7.48-.1-15-.1-22.46Z"/><path d="M437.19,200.54c0,10.48.07,21-.08,31.44,0,1.28-1.2,2.54-1.84,3.81-.7-1.27-2-2.55-2-3.83q-.19-31.44,0-62.89c0-1.25,1.32-2.49,2-3.74.63,1.25,1.8,2.5,1.82,3.76C437.25,179.58,437.19,190.06,437.19,200.54Z"/><path d="M247.52,156.89c5.89-.16,10.12,4.72,7.69,9.59-2.17,4.36-6.21,7.84-9.71,11.43-.63.64-3.1.48-3.94-.23-5.79-4.89-3.17-17.91,4-20.39A11.57,11.57,0,0,1,247.52,156.89Z"/><path d="M455.7,209.08c0,7.66.1,15.32-.1,23,0,1.25-1.37,2.48-2.11,3.71-.73-1.24-2.08-2.48-2.09-3.73q-.22-23,0-46c0-1.22,1.38-2.44,2.11-3.65.73,1.22,2.06,2.43,2.09,3.68C455.8,193.76,455.7,201.42,455.7,209.08Z"/><path d="M449.81,170.41c1.24-.75,2.66-2.27,3.69-2,1.2.26,2.85,2.06,2.85,3.18s-1.77,2.81-3,3c-1,.18-2.39-1.37-3.6-2.16Z"/><path class="cls-1" d="M71.86,205.13c0-10.36,0-20.71.07-31.06,0-.51,1.11-1.49,1.59-1.43,5.37.71,8.54,5.41,9.43,10.63C84.68,193.35,76.53,198.15,71.86,205.13Z"/><path class="cls-1" d="M70.16,200.55c0,8.66,0,17.33,0,26a8.9,8.9,0,0,1-.82,2.53c-.7-.78-1.81-1.48-2-2.37a24.25,24.25,0,0,1-.14-5q0-22,0-44a14.36,14.36,0,0,1,.15-4c.26-.89,1.32-1.54,2-2.29a9.58,9.58,0,0,1,.78,2.59C70.18,182.88,70.16,191.71,70.16,200.55Z"/><path class="cls-1" d="M106,181.7c0-3.16-.06-6.32,0-9.47,0-.69.65-1.35,1-2,.46.55,1.32,1.1,1.33,1.66.1,6.64.09,13.29,0,19.93,0,.49-.66,1-1,1.46-.46-.53-1.3-1-1.32-1.59C106,188.34,106,185,106,181.7Z"/><path class="cls-1" d="M108.5,218.14a43.39,43.39,0,0,1-.05,5,10.49,10.49,0,0,1-1.14,2.73c-.42-.81-1.19-1.61-1.22-2.44-.14-3.64-.14-7.29,0-10.94,0-.75.81-1.47,1.25-2.2a8,8,0,0,1,1.12,2.41C108.61,214.48,108.5,216.32,108.5,218.14Z"/><path class="cls-1" d="M190.69,213.86q0,6.24,0,12.48c0,3.12-1.76,4.49-4.5,3.52-13.13-4.63-21.41-20.64-15-31.59,1.75-3,5.87-6.67,8.72-6.52,5.61.29,10.78,7.14,10.79,11.63,0,3.49,0,7,0,10.48Z"/><path class="cls-1" d="M364.24,200.66c-1.26,7-1.89,13.47-3.66,19.63-2.62,9.13-9.65,13.3-18.78,13.67-8.58.35-16.21-2.54-19.78-10.77a54.72,54.72,0,0,1,.07-45c3.7-8.46,11.43-11.06,20.32-10.53,8.48.5,14.9,4.51,17.55,12.5C362.18,186.81,362.91,194,364.24,200.66Z"/><path class="cls-1" d="M544.16,207.33c-5,0-10-.05-15,0-2.64,0-3.45-1.2-3.36-3.7.45-12.88,12-21.53,24.25-18,7.76,2.21,13.59,11,12.21,18.93-.19,1.11-2.31,2.59-3.61,2.67C553.84,207.52,549,207.33,544.16,207.33Z"/></svg>