<svg id="Layer_1" data-name="Layer 1" xmlns="http://www.w3.org/2000/svg" viewBox="0 0 600 400"><defs><style>.cls-1{fill:#fff;}</style></defs><title>dazed</title><path d="M274.42,230.18l29.08-65.64c-.8-.09-1.39-.2-2-.2H275.65c-2.66,0-3.49-.82-3.49-3.47q0-6.43,0-12.87c0-2.35,1-3.32,3.26-3.32h63.8c2.26,0,3.26,1,3.26,3.19,0,6,0,12,0,18A5.32,5.32,0,0,1,342,168q-14.62,32.7-29.27,65.39c-.29.65-.53,1.32-.87,2.18.78.06,1.38.14,2,.14H339c2.53,0,3.45.9,3.45,3.41,0,4,0,7.95,0,11.92,0,3.73-.61,4.35-4.29,4.35h-92c-2.46,0-3.25-.66-3.63-3-.94-5.93-1.88-11.86-2.76-17.8-.18-1.22-.64-1.67-1.9-1.65q-6.43.1-12.87,0c-1.31,0-1.81.41-2,1.7-.86,5.94-1.82,11.87-2.74,17.8-.34,2.22-1.18,3-3.4,3q-14.56,0-29.12,0c-2.71,0-3.75-1.31-3.21-4Q190.8,221,197,190.59l8.81-43.11c.43-2.1,1.29-2.8,3.47-2.8h44.3c2.28,0,3.1.67,3.55,2.87q5.16,25.27,10.32,50.54,3.14,15.39,6.28,30.78c.09.42.24.83.36,1.25Zm-42.76-53.69-.3,0a7.16,7.16,0,0,0-.23.83q-1.29,8.35-2.56,16.71-1.53,10-3.05,20.06c-.26,1.74-.21,1.79,1.49,1.79h8.8c1.87,0,1.89,0,1.6-1.94q-2.68-17.72-5.37-35.44C231.92,177.85,231.78,177.17,231.66,176.49Z"/><path d="M96.67,199.89q0-25.8,0-51.6c0-2.73.9-3.62,3.66-3.62,19.41,0,38.82-.05,58.23,0,6.76,0,13,1.82,18.35,6.23,4.37,3.64,7,8.22,7.09,14,.28,12.41.82,24.81.83,37.22,0,11.28-.47,22.56-.91,33.83-.23,5.93-3.39,10.36-8,13.78a27.82,27.82,0,0,1-16.59,5.47c-19.82.12-39.63.07-59.45.06-2.21,0-3.17-1.07-3.17-3.44Q96.67,225.89,96.67,199.89Zm38.25,0c0,12,0,23.93,0,35.9,0,1.26.32,1.82,1.66,1.74s3,0,4.47,0c3.43-.11,4.76-1.18,4.93-4.6.42-8.16.89-16.33.92-24.49,0-11.28-.29-22.57-.51-33.85,0-2.62-.2-5.23-.43-7.84-.26-2.92-1.52-4.06-4.45-4.2-1.53-.07-3.07,0-4.6,0-2,0-2,0-2,1.93Q134.92,182.19,134.92,199.93Z"/><path d="M415.1,200.17q0-25.46,0-50.92a16.69,16.69,0,0,1,.08-2.16,2.63,2.63,0,0,1,2.64-2.41c.31,0,.63,0,.95,0,19.41,0,38.82-.07,58.23,0,7.35,0,14.1,2.09,19.56,7.31a17.75,17.75,0,0,1,5.87,12.81c.29,12.36.89,24.72.89,37.08,0,11.46-.53,22.92-1,34.37-.23,5.56-3.19,9.78-7.46,13.11a27.8,27.8,0,0,1-17.26,5.89c-19.77.12-39.54.06-59.31.06-2.22,0-3.13-1-3.13-3.3q0-25.93,0-51.87Zm38.26-.32q0,17.61,0,35.22a4.17,4.17,0,0,0,.06,1.47c.16.4.63.94,1,.95a56.76,56.76,0,0,0,6.22-.07c2.27-.18,3.34-1.23,3.67-3.47.22-1.47.21-3,.3-4.45a515.61,515.61,0,0,0,.16-56.72c-.12-2.3-.2-4.6-.49-6.88a3.42,3.42,0,0,0-3.54-3.28c-1.8-.14-3.61-.11-5.41-.11s-1.94,0-1.94,2Q453.36,182.17,453.36,199.84Z"/><path d="M348,200q0-25.8,0-51.61a4.94,4.94,0,0,1,.73-2.76,3.1,3.1,0,0,1,2.24-.93q27.83-.07,55.67,0a2.68,2.68,0,0,1,3,2.94q.05,6.91,0,13.82c0,1.95-1,2.88-3,2.89-6.59,0-13.18,0-19.78,0-2,0-2.06,0-2.06,2q0,8.8,0,17.61c0,1.92,0,1.92,2,1.92h19.37c2.62,0,3.48.86,3.48,3.51q0,6.37,0,12.73c0,2.53-.9,3.4-3.46,3.4-6.55,0-13.09,0-19.64,0-1.38,0-1.77.45-1.76,1.79.05,8.85,0,17.7,0,26.55,0,1.82,0,1.83,1.79,1.84h19.64c2.46,0,3.39.9,3.4,3.32q0,6.5,0,13c0,2.47-.94,3.35-3.52,3.35H351.52c-2.68,0-3.54-.87-3.55-3.59Q348,225.88,348,200Z"/><path class="cls-1" d="M231.66,176.49c.12.68.26,1.35.37,2q2.69,17.72,5.37,35.44c.29,1.9.27,1.93-1.6,1.94H227c-1.69,0-1.75,0-1.49-1.79q1.51-10,3.05-20.06,1.28-8.36,2.56-16.71a7.16,7.16,0,0,1,.23-.83Z"/><path class="cls-1" d="M134.92,199.93q0-17.75,0-35.49c0-1.91,0-1.92,2-1.93,1.54,0,3.07,0,4.6,0,2.94.14,4.19,1.28,4.45,4.2.23,2.61.38,5.22.43,7.84.22,11.28.55,22.57.51,33.85,0,8.16-.5,16.33-.92,24.49-.17,3.41-1.5,4.49-4.93,4.6-1.49,0-3,0-4.47,0s-1.67-.48-1.66-1.74C134.94,223.86,134.92,211.9,134.92,199.93Z"/></svg>