<svg id="Layer_1" data-name="Layer 1" xmlns="http://www.w3.org/2000/svg" viewBox="0 0 600 400"><defs><style>.cls-1{fill:#fff;}</style></defs><title>independent</title><path class="cls-1" d="M9.58,287V114.74H592.17V287ZM252.24,183.67l-2.49-1.25c-3.94-1.75-7.82-.36-11.6.51-1.65.38-3.37,1-4.06-.6-.79-1.79-1.53-4.41-.78-5.92,2-4,5.76-5.1,10.07-3.78l.3-1.85,1.66,1.2c1-3.36-.38-4.77-8.79-8.92,1.6-.9,2.78-1.9,4.13-2.25,2.27-.6,3-2.08,3.92-4.09a96.86,96.86,0,0,1,5.49-10.11,22.28,22.28,0,0,1,2.29-2.81l-.35-.38-4.82,2.91-1.73-4v8l-.43.11-1.22-7.65-.7.09.72,4.83-2.65-4.53-.41.2,1,3.49-.58.44-1.3-2.25-.47.38,1.75,4.06-.27.11-2.75-3,1.53,4.11-2.18-2-.31.21,1.15,2.35-1.89-.3,1.91,3L235,152.2a25.32,25.32,0,0,0,3,3.31c.33.35.2,1.12.29,1.69-.64.09-1.37.4-1.92.22-1.26-.43-2.43-1.12-3.65-1.66-.16-.07-.44.14-.77.26l2,1.69-3.59-.49,0,.27,6.08,2.72c-3.23.33-6.44-3.57-9.06.93l.66.46-3.21,1.08,1.35,2.7-.89.6c-2.09-2.92-4.37-5.73-6.22-8.81-1.72-2.87-3.78-5.05-7.08-6-5.4-1.55-9.18-5.08-11.7-10.07l-.74.31,2.33,6.91-.38.35-5.5-6.83,2.11,7-.48.27-3.74-5-.62.36,3.23,6.72-4.92-4-.33.3,1.94,3.82-1.6.21,4.49,4.26-2.07-.18-.11.35,4.21,2.18-2,.66,3.85,1.45-1.13.93L203,162l-1.48.76.33.5h2.23a24.76,24.76,0,0,1,2.62,3,18.5,18.5,0,0,0,10.56,8.06c.53.17,1.07.3,1.6.44-.41.55-.7,1.32-1.25,1.6-2.14,1.13-4.47,1.93-6.52,3.18a12.14,12.14,0,0,0-5.59,6.8c5.8-3.74,11.7-2.38,16.43-2.15l3.59,2.2-7.13,2.52,1.75,2.09-4.62,2.25c3.66,1.74,6.52,3.72,9.88,2.58,3.08-1,5.92-2.8,8.86-4.25l2.28-.83c3.93-.77,7.85-1.68,11.81-2.26,2.43-.36,4.84-.41,6.21-3.33Zm95.93,72-.22.9a6.55,6.55,0,0,0,2,.75c9.59,0,19.18.1,28.77,0,9.21-.09,15.74-4.4,19-13.09a38.53,38.53,0,0,0,.36-25.93c-2.65-8.11-8.71-12.72-17-13.26-10.52-.67-21.09-.44-31.64-.54-.52,0-1.05.54-1.58.83l.22.91h6.52v49.42ZM92,145.2v48.9c-2.16,1.14-5-.75-6.52,1.89,6.91.39,13.77.4,20.62.35.42,0,.84-.53,1.26-.82-.47-.33-.91-.91-1.4-1-1.6-.12-3.22,0-4.92,0V170.26h21.65v23.89c-2.13,1-4.69-.69-6.8,1.9h22.28l.11-1.15-6.75-.6v-49c1.66,0,3.28.09,4.88,0,.61-.05,1.17-.62,1.75-.95-.6-.31-1.2-.88-1.81-.89q-9.16-.11-18.32,0c-.57,0-1.13.65-1.69,1a5.66,5.66,0,0,0,1.82.91c1.5.14,3,0,4.54,0V168H101V145.5l7.13-.62c-1.13-.9-1.51-1.49-1.91-1.49q-9.88-.11-19.77-.05c-.39,0-.77.62-1.15.95.41.31.81.85,1.24.88C88.3,145.26,90,145.2,92,145.2Zm28.4,110a44.88,44.88,0,0,0-4.53,0,7.62,7.62,0,0,0-2.09.91c.67.35,1.35,1,2,1,9.79,0,19.59.15,29.38-.1,9-.23,15-5,18.12-13.44A37,37,0,0,0,165,224.15a32.26,32.26,0,0,0-3.36-10.1c-4.24-7.47-11.47-9.67-19.54-9.75-8.63-.09-17.26,0-25.9,0a17.06,17.06,0,0,0-2.32.31l-.06,1.18,6.59.49ZM265.6,231.79a9.59,9.59,0,0,1,1.2-.18c7.13-.14,11.56-.29,11.12,9.64,0,.63.68,1.3,1,2,.4-.73,1.14-1.45,1.15-2.18q.12-10.47,0-20.93c0-.76-.69-1.5-1.06-2.26a9.14,9.14,0,0,0-1.18,2.15,30.24,30.24,0,0,0-.45,3.74,5.08,5.08,0,0,1-4.63,4.84c-2.33.34-4.72.3-7.13.43V206.84c5,0,9.7-.26,14.4.08,4.21.3,7,3.15,7.9,7.36.37,1.69.32,3.47.68,5.17.11.54.94.92,1.44,1.38.38-.46,1.08-.91,1.09-1.37.08-4.91,0-9.83,0-14.76a3.44,3.44,0,0,0-.9-.29l-38.67-.1c-.19,0-.44-.07-.57,0-.42.28-.8.61-1.19.93.39.33.77.91,1.18.93,1.72.11,3.45,0,5.19,0a6.36,6.36,0,0,1,.37,1.35c0,15.31.06,30.62.12,45.92,0,1.57-.67,2-2.1,2s-3.12.12-4.95.21c1.38,1.8,39.17,2.46,43.73,1.19,0-4.67.1-9.32-.06-14,0-1.28,1.21-3.41-1.3-3.63-.34,0-1.21,2.38-1.31,3.71-.43,5.88-3,10.25-8,11.14-5.54,1-11.26.93-17.11,1.35Zm150.46-2.47V206.67c3.45,0,6.64,0,9.83,0a39.51,39.51,0,0,1,4.06.22c4.93.56,8,3.39,8.79,8.21.23,1.33.15,2.73.46,4,.15.65.87,1.17,1.33,1.74.41-.53,1.18-1.06,1.19-1.61.09-4.82.05-9.63.05-14.42-.23-.12-.39-.29-.56-.29q-19.77-.07-39.55-.08c-.48,0-1,.53-1.43.81l.15.76,6.52.47v49c-1.63,0-3.08-.1-4.5,0a7,7,0,0,0-2,.92c.71.29,1.42.59,2.15.86a1.76,1.76,0,0,0,.58,0h38.39c.92,0,1.84-.1,2.49-.13V239.5l-.85-.56c-.54.58-1.36,1.07-1.56,1.74a20.59,20.59,0,0,0-.29,3.46c-.6,5.82-3.77,9.82-9.51,10.49-5.13.6-10.38.13-15.68.13V231c3.64.76,7.27.73,10,2.28,3.61,2,1.83,6.51,3,10.08.73-.52,1.44-1.2,1.44-1.88q.07-10.76-.1-21.52c0-.67-.66-1.33-1-2a6.78,6.78,0,0,0-1.1,1.9c-.31,1.61,0,3.42-.7,4.84s-1.94,3.16-3.32,3.58C421.78,229.06,418.94,229,416.06,229.33Zm-235.91,2.32c2.42,0,4.55-.15,6.64,0,3.68.32,5.1,1.77,5.55,5.49.17,1.44,0,2.91.19,4.35.06.53.61,1,.94,1.49.39-.52,1.05-1,1.13-1.56a30.86,30.86,0,0,0,.1-4.07q0-9.71,0-19.41l-.89-.38c-.45.58-1.16,1.11-1.3,1.76-.25,1.22-.11,2.51-.25,3.76-.33,2.9-1.79,5-4.78,5.45-2.35.36-4.76.34-7.31.49V206.21c5.35.25,10.6.11,15.71.86,3.83.56,6.13,3.52,6.83,7.43.27,1.52.16,3.13.55,4.61.19.71,1.14,1.22,1.74,1.82l.79-.56V204.28c-13.81.05-27.49-.17-41.16.1l-.08,1.44,6.61.43v49l-6.88.38c1.46,1.73,38.72,2.43,43.65,1.22,0-5.42.05-10.83-.08-16.25,0-.6-1.08-1.17-2.09-2.17-.31,3.05-.45,5.08-.73,7.09A9.89,9.89,0,0,1,198,254c-5.8,1.85-11.81,1.06-17.85.93Zm-25.48-63.23v-22.5c4.83,0,9.57-.28,14.25.08s7.65,3.57,8.31,8.28c.21,1.53.22,3.1.52,4.62.09.45.8.92,1.32,1.06.22.06,1-.66,1-1,.07-5.1,0-10.19,0-15.57-13.41,0-26.67,0-39.94,0-.45,0-.89.62-1.34.95l.2.65,6.62.45v49.12c-1.92,0-3.65-.06-5.37,0-.37,0-.71.64-1.06,1,.34.26.66.68,1,.75a13.63,13.63,0,0,0,2.32.08q18.91,0,37.81,0a15.46,15.46,0,0,0,2-.24c0-5.64,0-11.05-.06-16.46,0-.51-.83-1-1.27-1.51a7.29,7.29,0,0,0-1.05,1.69,9.85,9.85,0,0,0-.07,2c-.46,6.39-3.25,10.67-8.67,11.57s-10.92.77-16.57,1.11v-24c1.43,0,2.67,0,3.91,0a22,22,0,0,1,2.9.23c3.46.57,4.84,2,5.29,5.51.19,1.53.07,3.1.27,4.63.06.46.72.84,1.1,1.26.32-.38.92-.77.92-1.16q.07-11.34,0-22.69c0-.45-.66-.9-1-1.35-.36.46-.94.88-1,1.39-.22,1.33-.16,2.71-.34,4.05-.31,2.38-1.39,4.43-3.82,5A73.39,73.39,0,0,1,154.67,168.41ZM68.25,206.25V255l-7.17.55c.76.95.92,1.34,1.1,1.35,5.22.1,10.44.18,15.67.2.31,0,.62-.55.94-.85-.48-.34-.94-.95-1.44-1-2-.11-4,0-6.27,0V208.3l33.57,49.56,1.11-.29c.74-17.07,0-34.19.43-51.14,2.22-1,4.82.54,6.56-1.13l-.17-.83H96l-.16,1c2.18,1.42,5,0,7.39.93V241c-8-12-15.58-23.29-23.1-34.67a4.1,4.1,0,0,0-4-2.21c-4,.15-8,0-11.93.06a22.36,22.36,0,0,0-2.6.32l0,1.19ZM313,256.33l-.45-.93h-7.22V209c5.93,8.71,11.42,16.92,17.08,25s10.78,16.33,16.77,24.06l1-.49V206.49l7-.47c-1.43-2.22-15.7-2.24-17.27.15h7.67V241c-.71-.87-1.16-1.32-1.5-1.84-7.32-11-14.6-21.95-22-32.87a4.34,4.34,0,0,0-2.84-1.85c-4.65-.19-9.31-.1-14,0a5.85,5.85,0,0,0-1.9.76l.17.9,6.56.35v48.88l-7,.4c1.53,1.59,11.92,2.36,16.38,1.63C312.05,257.23,312.53,256.67,313,256.33ZM209.71,205.49a20.51,20.51,0,0,0,4.27.65c2.2-.17,3,.35,3,2.81-.08,14.81,0,29.63.07,44.44a16.93,16.93,0,0,1-.33,2.23H210c.46.81.68,1.51.89,1.51q10.87,0,21.73-.11c.15,0,.29-.6.63-1.34l-7.37-.38V233.38c3.06,0,5.86,0,8.65,0,10.75-.16,15.16-4.71,15-15.4,0-.58,0-1.16-.06-1.74-.45-5.81-3.66-10.53-9.35-11-9.79-.81-19.67-.5-29.51-.66C210.53,204.57,210.47,204.69,209.71,205.49Zm280.05,52.69,1.25-.45V206.49l7.23-.44c-2.21-2.18-15.84-2.14-17.75.19,2.12,0,3.79.11,5.45,0,2-.17,2.66.59,2.64,2.64-.11,10.08-.06,20.17-.08,30.26a14.78,14.78,0,0,1-.33,2c-1-1.35-1.64-2.27-2.28-3.22-7-10.45-14.05-20.91-21.16-31.32a4.5,4.5,0,0,0-2.81-2c-4.65-.21-9.31-.12-14-.05a5.6,5.6,0,0,0-1.89.81l.19.8,6.61.3v48.9c-5.87.66-5.93.68-6.5,1.84h17.85c-2.87-2.8-6-.69-8.43-2V208.69Zm9.55-53.55c0,4.32-.1,8.56.06,12.78a18,18,0,0,0,1.22,4.22,20.8,20.8,0,0,0,1.76-4.09c1.68-8.4,7.33-12.26,15.7-10.43v48.27c-7.32.58-7.32.58-7.7,1.7H535l.13-1.16-7.91-.63V206.95c8.53-1.09,12.81,1.31,15.16,8.48.51,1.55.53,3.25,1,4.82a2.44,2.44,0,0,0,1.45,1.32c.25.09,1.17-.74,1.18-1.17.08-5.2.05-10.4.05-15.77ZM65.25,145.54c1.43,0,2.49,0,3.55,0,6.36.18,9.08,2.07,11.23,8.08.61,1.71.72,3.6,1.25,5.35.16.54,1,.88,1.47,1.32.37-.47,1-.94,1.05-1.42.08-5.1,0-10.21,0-15.39H38.18v16.67c2.08-.17,2.08-.17,2.63-3.16,1.66-9,6.46-12.55,15.58-11.18v48.3c-2.49,1.22-5.62-.89-7.65,2H72.91l.18-1c-2.27-1.56-5.33.08-7.84-1.09ZM53.13,255.22V206c1.87,0,3.5.08,5.11,0,.48,0,.92-.64,1.37-1-.43-.28-.85-.79-1.28-.8q-9.73-.12-19.46-.07c-.47,0-.94.64-1.41,1,.51.3,1,.81,1.53.85,1.62.11,3.25,0,5.08,0V255.2c-1.85,0-3.48-.07-5.1,0-.51,0-1,.58-1.49.89.48.34.95,1,1.43,1q9.59.13,19.17.07c.52,0,1-.55,1.57-.84-.55-.37-1.07-1-1.65-1.06C56.49,255.12,54.95,255.22,53.13,255.22Z"/><path d="M348.18,255.63h6.43V206.21h-6.52l-.22-.91c.53-.29,1.06-.83,1.58-.83,10.55.1,21.12-.14,31.64.54,8.31.53,14.37,5.14,17,13.26a38.53,38.53,0,0,1-.36,25.93c-3.23,8.69-9.76,13-19,13.09-9.59.1-19.18,0-28.77,0a6.55,6.55,0,0,1-2-.75Zm15.5-.45c3.81,0,7.29.05,10.77,0,7.16-.13,11.06-2.69,13.4-9.39a44.11,44.11,0,0,0-.59-31.55c-1.43-3.64-3.93-6.8-8.11-7.13-5.07-.39-10.2-.09-15.47-.09Z"/><path d="M92,145.2c-2,0-3.69.06-5.4,0-.43,0-.83-.57-1.24-.88.38-.33.76-.94,1.15-.95q9.89-.06,19.77.05c.39,0,.78.59,1.91,1.49l-7.13.62V168h21.65V145.32c-1.51,0-3,.09-4.54,0a5.66,5.66,0,0,1-1.82-.91c.56-.35,1.12-1,1.69-1q9.16-.1,18.32,0c.61,0,1.21.58,1.81.89-.58.33-1.14.9-1.75.95-1.6.13-3.22,0-4.88,0v49l6.75.6-.11,1.15H115.89c2.11-2.58,4.67-.9,6.8-1.9V170.26H101v24.27c1.7,0,3.31-.08,4.92,0,.49,0,.94.62,1.4,1-.42.28-.84.81-1.26.82-6.85.05-13.7,0-20.62-.35,1.56-2.65,4.35-.76,6.52-1.89Z"/><path d="M234.25,191.56c-2.94,1.44-5.78,3.2-8.86,4.25-3.36,1.14-6.22-.84-9.88-2.58l4.62-2.25-1.75-2.09,7.13-2.52-3.59-2.2c-4.73-.23-10.63-1.59-16.43,2.15a12.14,12.14,0,0,1,5.59-6.8c2.06-1.25,4.38-2.05,6.52-3.18.55-.29.84-1.06,1.25-1.6-.54-.15-1.08-.27-1.6-.44a18.5,18.5,0,0,1-10.56-8.06,24.76,24.76,0,0,0-2.62-3h-2.23l-.33-.5L203,162l-4.22-.89,1.13-.93L196,158.73l2-.66-4.21-2.18.11-.35,2.07.18-4.49-4.26,1.6-.21-1.94-3.82.33-.3,4.92,4-3.23-6.72.62-.36,3.74,5,.48-.27-2.11-7,5.5,6.83.38-.35-2.33-6.91.74-.31c2.51,5,6.29,8.52,11.7,10.07,3.3.94,5.35,3.12,7.08,6,1.84,3.07,4.13,5.88,6.22,8.81l.89-.6-1.35-2.7,3.21-1.08-.66-.46c2.62-4.5,5.83-.6,9.06-.93l-6.08-2.72,0-.27,3.59.49-2-1.69c.34-.12.62-.33.77-.26,1.23.54,2.39,1.23,3.65,1.66.55.19,1.27-.13,1.92-.22-.08-.58,0-1.34-.29-1.69a25.32,25.32,0,0,1-3-3.31l3.42,1.81-1.91-3,1.89.3-1.15-2.35.31-.21,2.18,2-1.53-4.11,2.75,3,.27-.11-1.75-4.06.47-.38,1.3,2.25.58-.44-1-3.49.41-.2,2.65,4.53-.72-4.83.7-.09,1.22,7.65.43-.11v-8l1.73,4,4.82-2.91.35.38a22.28,22.28,0,0,0-2.29,2.81,96.86,96.86,0,0,0-5.49,10.11c-.87,2-1.65,3.49-3.92,4.09-1.35.36-2.53,1.35-4.13,2.25,8.42,4.15,9.81,5.56,8.79,8.92l-1.66-1.2-.3,1.85c-4.31-1.31-8.11-.18-10.07,3.78-.75,1.51,0,4.13.78,5.92.69,1.56,2.41,1,4.06.6,3.79-.86,7.66-2.26,11.6-.51-2.45.86-5.9-1.58-7.46,2.26-3.08-1-5,1.46-7.35,2.57-2,1-3.31-1.47-4.8-1.17A101.58,101.58,0,0,0,220,189.22a42.4,42.4,0,0,1,3.59,2.75,26.43,26.43,0,0,1,2.21,2.76C228.72,194.15,230.67,190.72,234.25,191.56ZM204.72,151l-4.86-2.43-.53.79,3.62,2.73-5-1.24,2.7,3L196.37,152l-.33.61,3.07,2.06-2,.17a6.07,6.07,0,0,0,2.75,1.77l2.82,1.12-3-.49c3,1.86,5.2,5.43,9.85,4.38l-7-4,3.54-1,0-.81-5.54-2.07,6,.84L202.83,152l3.88,1.16-2.09-2.27,5.24,1.77.18-.42-7.11-4.47Zm11.21,10.08-9.47,2.31,0,.36,10.74-1.19c-1.43.42-2.84.9-4.29,1.23-1.76.4-3.55.67-5.33,1l.12.78,2.79.23-1.37,1.12.18.58,10.36-2.67c-.42.75-.72,1.29-1,1.82L210,168.08l0,1,5.58,1.75-1.71.62.93,1,3.75-2.61-3.18-2,3.22-1.32,2.47.34.38,1,2-1.82c-2.36-2.86-4.59-2-7-1a10.5,10.5,0,0,1-3.22.27l-.08-.46L219.6,163l-.2-.67-2.25.26,1.3-1.75-2.57.23a13.76,13.76,0,0,0-1-2c-.62-.89-1.78-1.61-2-2.56-.73-3.48-.62-3.5-3.4-2.65.14.7.28,1.27.35,1.84C210.16,157.94,213.81,161.16,215.93,161.06Zm8.37,11.67-.18-.79-3.73-.31-.2,3.43.91.28Z"/><path d="M120.39,255.23v-49l-6.59-.49.06-1.18a17.06,17.06,0,0,1,2.32-.31c8.63,0,17.26-.05,25.9,0,8.07.09,15.31,2.29,19.54,9.75a32.26,32.26,0,0,1,3.36,10.1,37,37,0,0,1-1.68,19.48c-3.08,8.42-9.07,13.21-18.12,13.44-9.79.25-19.59.13-29.38.1-.68,0-1.35-.65-2-1a7.62,7.62,0,0,1,2.09-.91A44.88,44.88,0,0,1,120.39,255.23Zm8.9-.27c4.17,0,7.94,0,11.71,0,5.61-.07,9.7-2.67,11.75-7.87a43.19,43.19,0,0,0-.16-33.35c-1-2.46-3.34-5.18-5.71-6.13-5.53-2.2-11.53-1.2-17.58-1.19Z"/><path d="M265.6,231.79v23.67c5.86-.42,11.57-.37,17.11-1.35,5-.89,7.61-5.26,8-11.14.1-1.32,1-3.74,1.31-3.71,2.5.22,1.25,2.35,1.3,3.63.16,4.64.06,9.29.06,14-4.56,1.27-42.35.61-43.73-1.19,1.83-.08,3.39-.23,4.95-.21s2.11-.4,2.1-2c-.07-15.31-.08-30.62-.12-45.92a6.36,6.36,0,0,0-.37-1.35c-1.74,0-3.47.06-5.19,0-.41,0-.79-.61-1.18-.93.39-.31.77-.65,1.19-.93.14-.09.38,0,.57,0l38.67.1a3.44,3.44,0,0,1,.9.29c0,4.93,0,9.84,0,14.76,0,.46-.71.91-1.09,1.37-.5-.45-1.33-.84-1.44-1.38-.36-1.69-.32-3.48-.68-5.17-.91-4.21-3.69-7.06-7.9-7.36-4.7-.33-9.44-.08-14.4-.08V229c2.41-.13,4.8-.09,7.13-.43a5.08,5.08,0,0,0,4.63-4.84,30.24,30.24,0,0,1,.45-3.74,9.14,9.14,0,0,1,1.18-2.15c.37.75,1,1.5,1.06,2.26q.13,10.47,0,20.93c0,.73-.75,1.45-1.15,2.18-.37-.65-1.07-1.32-1-2,.44-9.94-4-9.78-11.12-9.64A9.59,9.59,0,0,0,265.6,231.79Z"/><path d="M416.06,229.33c2.88-.32,5.73-.27,8.31-1.07,1.37-.42,2.65-2.14,3.32-3.58s.39-3.23.7-4.84a6.78,6.78,0,0,1,1.1-1.9c.35.67,1,1.33,1,2q.16,10.76.1,21.52c0,.68-.71,1.36-1.44,1.88-1.21-3.57.57-8.05-3-10.08-2.76-1.54-6.39-1.52-10-2.28v23.78c5.31,0,10.56.47,15.68-.13,5.73-.67,8.9-4.67,9.51-10.49a20.59,20.59,0,0,1,.29-3.46c.19-.67,1-1.17,1.56-1.74l.85.56v17.75c-.65,0-1.57.13-2.49.13H403.09a1.76,1.76,0,0,1-.58,0c-.72-.27-1.43-.57-2.15-.86a7,7,0,0,1,2-.92c1.42-.14,2.87,0,4.5,0v-49l-6.52-.47-.15-.76c.48-.28,1-.81,1.43-.81q19.77,0,39.55.08c.17,0,.33.17.56.29,0,4.79,0,9.61-.05,14.42,0,.54-.77,1.07-1.19,1.61-.46-.58-1.17-1.09-1.33-1.74-.31-1.31-.23-2.7-.46-4-.83-4.83-3.86-7.66-8.79-8.21a39.51,39.51,0,0,0-4.06-.22c-3.19,0-6.38,0-9.83,0Z"/><path d="M180.15,231.64v23.3c6,.13,12.05.92,17.85-.93a9.89,9.89,0,0,0,7.06-8.48c.28-2,.42-4,.73-7.09,1,1,2.07,1.58,2.09,2.17.13,5.41.08,10.83.08,16.25-4.94,1.21-42.19.51-43.65-1.22l6.88-.38v-49l-6.61-.43.08-1.44c13.67-.27,27.35-.05,41.16-.1v16.09l-.79.56c-.6-.6-1.55-1.11-1.74-1.82-.39-1.48-.28-3.08-.55-4.61-.7-3.9-3-6.87-6.83-7.43-5.11-.75-10.36-.61-15.71-.86v22.84c2.56-.16,5-.13,7.31-.49,3-.46,4.44-2.55,4.78-5.45.14-1.25,0-2.54.25-3.76.14-.65.85-1.18,1.3-1.76l.89.38q0,9.71,0,19.41a30.86,30.86,0,0,1-.1,4.07c-.08.56-.73,1-1.13,1.56-.33-.5-.88-1-.94-1.49-.17-1.44,0-2.91-.19-4.35-.45-3.72-1.87-5.17-5.55-5.49C184.69,231.49,182.57,231.64,180.15,231.64Z"/><path d="M154.67,168.41a73.39,73.39,0,0,0,8.19-.92c2.43-.54,3.51-2.6,3.82-5,.18-1.34.12-2.72.34-4.05.09-.51.67-.93,1-1.39.35.45,1,.9,1,1.35q.11,11.34,0,22.69c0,.39-.6.77-.92,1.16-.38-.42-1-.8-1.1-1.26-.2-1.53-.08-3.1-.27-4.63-.45-3.54-1.83-4.94-5.29-5.51a22,22,0,0,0-2.9-.23c-1.24,0-2.48,0-3.91,0v24c5.65-.34,11.19-.23,16.57-1.11S179.5,188.35,180,182a9.85,9.85,0,0,1,.07-2,7.29,7.29,0,0,1,1.05-1.69c.44.5,1.26,1,1.27,1.51.09,5.41.06,10.82.06,16.46a15.46,15.46,0,0,1-2,.24q-18.91,0-37.81,0a13.63,13.63,0,0,1-2.32-.08c-.38-.07-.69-.49-1-.75.35-.35.69-1,1.06-1,1.72-.11,3.45,0,5.37,0V145.44L139,145l-.2-.65c.45-.33.89-.95,1.34-.95,13.26-.05,26.52,0,39.94,0,0,5.38,0,10.47,0,15.57,0,.37-.75,1.09-1,1-.52-.15-1.23-.62-1.32-1.06-.3-1.51-.31-3.08-.52-4.62-.66-4.72-3.58-7.93-8.31-8.28s-9.42-.08-14.25-.08Z"/><path d="M68.25,206.25l-6.67-.55,0-1.19a22.36,22.36,0,0,1,2.6-.32c4,0,8,.09,11.93-.06a4.1,4.1,0,0,1,4,2.21c7.52,11.39,15.12,22.72,23.1,34.67V206.38c-2.38-1-5.21.49-7.39-.93l.16-1h16.57l.17.83c-1.74,1.67-4.34.12-6.56,1.13-.41,17,.31,34.07-.43,51.14l-1.11.29L71.06,208.3v46.92c2.27,0,4.28-.07,6.27,0,.5,0,1,.64,1.44,1-.31.29-.62.85-.94.85-5.22,0-10.45-.1-15.67-.2-.17,0-.34-.4-1.1-1.35l7.17-.55Z"/><path d="M313,256.33c-.51.34-1,.9-1.55,1-4.46.73-14.85,0-16.38-1.63l7-.4V206.41l-6.56-.35-.17-.9a5.85,5.85,0,0,1,1.9-.76c4.65-.07,9.31-.16,14,0a4.34,4.34,0,0,1,2.84,1.85c7.38,10.92,14.66,21.9,22,32.87.35.52.79,1,1.5,1.84V206.17h-7.67c1.58-2.39,15.85-2.37,17.27-.15l-7,.47v51.12l-1,.49c-6-7.73-11.17-16.05-16.77-24.06s-11.15-16.31-17.08-25V255.4h7.22Z"/><path d="M209.71,205.49c.76-.8.82-.92.88-.92,9.84.15,19.72-.15,29.51.66,5.7.47,8.9,5.2,9.35,11,0,.58.05,1.16.06,1.74.19,10.69-4.23,15.24-15,15.4-2.79,0-5.58,0-8.65,0V255.3l7.37.38c-.34.74-.48,1.33-.63,1.34q-10.86.13-21.73.11c-.21,0-.43-.7-.89-1.51h6.73a16.93,16.93,0,0,0,.33-2.23c0-14.81-.15-29.63-.07-44.44,0-2.46-.81-3-3-2.81A20.51,20.51,0,0,1,209.71,205.49Zm15.91,1.22c0,6,0,11.73,0,17.43,0,7.8.08,7.84,8,6.55,3.15-.51,5.55-1.9,6.28-5.15a26.51,26.51,0,0,0-.62-14.33c-.82-2.48-2.51-4.25-5.2-4.45S228.7,206.71,225.62,206.71Z"/><path d="M489.76,258.18l-34-49.49v46.46c2.41,1.3,5.56-.8,8.43,2H446.38c.57-1.16.63-1.17,6.5-1.84v-48.9l-6.61-.3-.19-.8a5.6,5.6,0,0,1,1.89-.81c4.65-.07,9.31-.15,14,.05a4.5,4.5,0,0,1,2.81,2c7.1,10.4,14.12,20.87,21.16,31.32.64,1,1.33,1.87,2.28,3.22a14.78,14.78,0,0,0,.33-2c0-10.09,0-20.17.08-30.26,0-2.05-.6-2.81-2.64-2.64-1.66.14-3.34,0-5.45,0,1.91-2.34,15.55-2.37,17.75-.19l-7.23.44v51.24Z"/><path d="M499.32,204.62H546c0,5.37,0,10.57-.05,15.77,0,.42-.93,1.25-1.18,1.17a2.44,2.44,0,0,1-1.45-1.32c-.45-1.57-.47-3.27-1-4.82-2.35-7.17-6.63-9.57-15.16-8.48v48.34l7.91.63-.13,1.16H510.36c.38-1.12.38-1.12,7.7-1.7V207.11c-8.37-1.83-14,2-15.7,10.43a20.8,20.8,0,0,1-1.76,4.09,18,18,0,0,1-1.22-4.22C499.21,213.18,499.32,208.95,499.32,204.62Z"/><path d="M65.25,145.54v48.52c2.51,1.18,5.57-.46,7.84,1.09l-.18,1H48.74c2-2.9,5.16-.78,7.65-2v-48.3C47.27,144.43,42.46,148,40.81,157c-.55,3-.55,3-2.63,3.16V143.48H83.85c0,5.19,0,10.29,0,15.39,0,.48-.69.95-1.05,1.42-.51-.43-1.3-.78-1.47-1.32-.53-1.75-.64-3.64-1.25-5.35-2.15-6-4.87-7.91-11.23-8.08C67.74,145.51,66.68,145.54,65.25,145.54Z"/><path d="M53.13,255.22c1.82,0,3.36-.1,4.88.05.58.06,1.1.69,1.65,1.06-.52.29-1,.84-1.57.84q-9.59.06-19.17-.07c-.48,0-1-.63-1.43-1,.49-.31,1-.86,1.49-.89,1.62-.12,3.25,0,5.1,0V206c-1.83,0-3.46.07-5.08,0-.53,0-1-.55-1.53-.85.47-.34.94-1,1.41-1q9.73-.06,19.46.07c.43,0,.85.52,1.28.8-.46.34-.89.95-1.37,1-1.61.12-3.24,0-5.11,0Z"/><path class="cls-1" d="M234.25,191.56c-3.58-.84-5.53,2.59-8.45,3.18a26.43,26.43,0,0,0-2.21-2.76,42.4,42.4,0,0,0-3.59-2.75,101.58,101.58,0,0,1,10.16-3.15c1.49-.3,2.76,2.13,4.8,1.17,2.35-1.11,4.27-3.54,7.35-2.57,1.55-3.83,5-1.39,7.46-2.26l2.49,1.25,1.33,2.35a24.19,24.19,0,0,1-4,1.2c-2.18.27-4.48-.09-6.56.48-2.28.62-4.37,2-6.54,3Z"/><path d="M236.53,190.73c2.17-1,4.25-2.41,6.54-3,2.07-.56,4.38-.21,6.56-.48a24.19,24.19,0,0,0,4-1.2l-1.33-2.35,2.3,1.47c-1.36,2.92-3.77,3-6.21,3.33C244.37,189,240.46,190,236.53,190.73Z"/><path class="cls-1" d="M363.68,255.18V207c5.28,0,10.4-.3,15.47.09,4.18.32,6.68,3.49,8.11,7.13a44.11,44.11,0,0,1,.59,31.55c-2.34,6.7-6.24,9.26-13.4,9.39C371,255.23,367.49,255.18,363.68,255.18Z"/><path class="cls-1" d="M218.67,166.63l1-1.82-10.36,2.67-.18-.58,1.37-1.12-2.79-.23-.12-.78c1.78-.32,3.57-.59,5.33-1,1.45-.33,2.86-.82,4.29-1.23l-.09.09,2.25-.26.2.67-6.44,1.88.08.46a10.5,10.5,0,0,0,3.22-.27c2.37-1,4.6-1.87,7,1l-2,1.82-.38-1-2.47-.34Z"/><path class="cls-1" d="M202.67,157.76l-2.81-1.11a6.07,6.07,0,0,1-2.75-1.77l2-.17L196,152.64l.33-.61,4.26,1.82-.09-.08,5.53,2.06,0,.81-3.54,1Z"/><path class="cls-1" d="M218.62,166.59l-3.22,1.32,3.18,2-3.75,2.61-.93-1,1.71-.62L210,169.12l0-1,8.68-1.45Z"/><path class="cls-1" d="M215.94,161.05c-2.14.11-5.78-3.11-6.06-5.33-.07-.58-.22-1.15-.35-1.84,2.78-.85,2.67-.83,3.4,2.65.2.95,1.36,1.66,2,2.56a12.75,12.75,0,0,1,1,2Z"/><path class="cls-1" d="M202.57,157.68l7,4c-4.65,1-6.85-2.52-9.85-4.38l3,.49Z"/><path class="cls-1" d="M224.3,172.74l-3.2,2.62-.91-.28.2-3.43,3.73.31Z"/><path class="cls-1" d="M217.24,162.54l-10.74,1.19,0-.36,9.47-2.32-.06,0,2.58-.23-1.3,1.75Z"/><path class="cls-1" d="M202.84,152l3.65,2.63-6-.84.09.08-2.7-3,5,1.24Z"/><path class="cls-1" d="M204.62,150.88l2.08,2.26L202.83,152l.11.09-3.62-2.73.53-.79,4.86,2.43Z"/><path class="cls-1" d="M204.72,151l-1.79-3.23,7.11,4.47-.18.42-5.24-1.77Z"/><path class="cls-1" d="M129.29,255V206.41c6.05,0,12.05-1,17.58,1.19,2.38.95,4.7,3.66,5.71,6.13a43.19,43.19,0,0,1,.16,33.35c-2.05,5.2-6.13,7.81-11.75,7.87C137.23,255,133.46,255,129.29,255Z"/><path class="cls-1" d="M225.62,206.71c3.08,0,5.79-.16,8.46,0s4.38,2,5.2,4.45a26.51,26.51,0,0,1,.62,14.33c-.73,3.25-3.13,4.64-6.28,5.15-7.92,1.29-8,1.25-8-6.55C225.63,218.44,225.62,212.74,225.62,206.71Z"/></svg>