<svg id="Layer_1" data-name="Layer 1" xmlns="http://www.w3.org/2000/svg" viewBox="0 0 600 400"><defs><style>.cls-1{fill:#fff;}</style></defs><title>mic</title><path class="cls-1" d="M137.44,272.4q0-71.47,0-142.94h327q0,71.47,0,142.94ZM287.5,234.06c-6-.7-6.44,2.66-6.17,6.9.25,4-.18,8.12.22,12.12.13,1.25,2,3.31,3.06,3.33q21,.34,42,0c1.13,0,3.11-2,3.19-3.22a119.07,119.07,0,0,0,0-15.39c-.07-1.11-1.88-3-2.84-3-4.79.16-5.64-2.28-5.6-6.43q.24-24.75,0-49.5c0-4.05,1.08-6.06,5.34-6.41a4.62,4.62,0,0,0,3.11-3.21c.35-5,.06-10,.19-14.93.07-2.86-1.16-3.75-3.9-3.77q-28.7-.14-57.4-.52c-3.13,0-4.45,1.2-5,4.11-1.28,6.88-2.71,13.73-4.12,20.59-1.32,6.42-2.7,12.84-4.05,19.25a9.24,9.24,0,0,1-2.06-4.52c-2.49-11.87-4.86-23.77-7.56-35.59-.33-1.42-2.43-3.47-3.73-3.49-19.3-.26-38.6-.26-57.9-.15-1.1,0-3.1,1.46-3.13,2.31-.26,6.63-.14,13.27-.14,19.78,8.72,1.47,8.72,1.47,8.72,10.09,0,15.25-.06,30.51,0,45.76,0,3.82-.76,6.54-5.31,6.27-2.64-.16-3.51,1.13-3.45,3.67.13,5,.1,10,0,14.94,0,2.32.78,3.45,3.21,3.44,13.7,0,27.39,0,41.09-.12,1.08,0,3-1.49,3.07-2.35.26-6.32.14-12.66.14-19l-5.69-1V187.81c.73,2.34,1.1,3.35,1.37,4.38,5.25,20,10.57,40,15.66,60,.87,3.41,2.48,4.45,5.83,4.36,6.38-.19,12.76-.13,19.14.06,3.14.1,4.7-.85,5.51-4.12,3.19-13,6.72-25.89,10.08-38.84,2.29-8.82,4.51-17.65,7.07-27.69ZM460,194h.11c0-3.11-.21-6.25.06-9.34.32-3.62-1.06-5.7-4.64-6.14-9.53-1.17-19.11-3.5-28.59-3.14-21.84.83-38.54,11-40.87,35.69-1.61,17.09,4,34,20,41.34,16.79,7.73,33.86,7.06,50.6-.52a6.82,6.82,0,0,0,3.17-4.88,141.52,141.52,0,0,0,.07-15.87c0-1.15-.79-2.86-1.7-3.29-3.86-1.82-12.56.28-15.62,3.46-7.67,8-20,5.08-22.8-5.62a45,45,0,0,1-1-13.84c.43-7,4-11.21,9.76-12.74,6-1.59,11.28.56,15.6,5.82a7.35,7.35,0,0,0,4.83,2.67c13.41,0,10.77,2,11.08-10.35C460.06,196.23,460,195.13,460,194Zm-75.56,40.78c-6.24.59-6.81-2.9-6.78-7.36.13-15.4,0-30.8.06-46.19,0-2.5,0-4.6-3.51-4.56-11.82.12-23.64.11-35.46,0-3,0-3.67,1.36-3.61,4,.12,5.13.2,10.27,0,15.39-.15,3.36.82,5,4.42,4.6,3.87-.41,5.22,1.67,5.16,5.34-.12,6.84,0,13.69,0,20.53,0,7.53,0,7.52-7.52,8.23-.28,0-.53.29-1.39.79,0,5.84-.15,12,.15,18.2,0,1,2.1,2.64,3.25,2.66q21,.27,42,0c1.12,0,3.08-2,3.15-3.21C384.65,247.33,384.48,241.43,384.48,234.83Zm-25.12-62.09c10,0,17.42-7.2,17.4-16.73s-7.57-16.83-17.36-16.91-18.11,7.66-18.18,16.88S349.29,172.77,359.36,172.74ZM175.62,241.08c0-9.41-6.92-16.25-16.55-16.32-10.05-.08-17.75,7.14-17.58,16.48.16,8.89,7.86,16,17.26,15.94C168.42,257.11,175.61,250.25,175.62,241.08Z"/><path d="M287.5,234.06V186c-2.56,10-4.78,18.87-7.07,27.69-3.36,12.95-6.88,25.85-10.08,38.84-.8,3.27-2.37,4.21-5.51,4.12-6.38-.2-12.77-.25-19.14-.06-3.34.1-5-.95-5.83-4.36-5.09-20-10.41-40-15.66-60-.27-1-.64-2-1.37-4.38V234l5.69,1c0,6.37.12,12.71-.14,19,0,.86-2,2.34-3.07,2.35-13.7.16-27.39.08-41.09.12-2.43,0-3.25-1.12-3.21-3.44.09-5,.11-10,0-14.94-.06-2.54.81-3.83,3.45-3.67,4.55.27,5.34-2.45,5.31-6.27-.1-15.25,0-30.51,0-45.76,0-8.62,0-8.62-8.72-10.09,0-6.51-.12-13.15.14-19.78,0-.84,2-2.3,3.13-2.31,19.3-.11,38.6-.11,57.9.15,1.3,0,3.4,2.07,3.73,3.49,2.71,11.82,5.08,23.72,7.56,35.59a9.24,9.24,0,0,0,2.06,4.52c1.35-6.42,2.73-12.83,4.05-19.25,1.41-6.85,2.84-13.71,4.12-20.59.54-2.91,1.85-4.16,5-4.11q28.7.42,57.4.52c2.75,0,4,.9,3.9,3.77-.13,5,.17,10-.19,14.93a4.62,4.62,0,0,1-3.11,3.21c-4.25.34-5.38,2.36-5.34,6.41q.28,24.75,0,49.5c0,4.14.82,6.58,5.6,6.43,1,0,2.77,1.9,2.84,3a119.07,119.07,0,0,1,0,15.39c-.08,1.19-2.06,3.2-3.19,3.22q-21,.33-42,0c-1.09,0-2.94-2.08-3.06-3.33-.4-4,0-8.09-.22-12.12C281.07,236.72,281.5,233.36,287.5,234.06Z"/><path d="M460,194c0,1.09,0,2.18,0,3.27-.3,12.37,2.34,10.37-11.08,10.35a7.35,7.35,0,0,1-4.83-2.67c-4.32-5.26-9.63-7.41-15.6-5.82-5.75,1.53-9.32,5.71-9.76,12.74a45,45,0,0,0,1,13.84c2.77,10.7,15.14,13.57,22.8,5.62,3.06-3.18,11.76-5.28,15.62-3.46.91.43,1.66,2.14,1.7,3.29a141.52,141.52,0,0,1-.07,15.87,6.82,6.82,0,0,1-3.17,4.88c-16.74,7.57-33.8,8.24-50.6.52-16-7.36-21.57-24.25-20-41.34,2.33-24.71,19-34.87,40.87-35.69,9.48-.36,19.06,2,28.59,3.14,3.58.44,5,2.52,4.64,6.14-.27,3.09-.06,6.22-.06,9.34Z"/><path d="M384.48,234.83c0,6.6.18,12.5-.15,18.37-.07,1.17-2,3.19-3.15,3.21q-21,.34-42,0c-1.14,0-3.2-1.68-3.25-2.66-.3-6.17-.15-12.36-.15-18.2.85-.49,1.11-.76,1.39-.79,7.51-.7,7.51-.7,7.52-8.23,0-6.84-.09-13.69,0-20.53.06-3.67-1.29-5.75-5.16-5.34-3.6.39-4.57-1.24-4.42-4.6.23-5.12.15-10.26,0-15.39-.06-2.64.63-4,3.61-4,11.82.1,23.64.12,35.46,0,3.55,0,3.52,2.06,3.51,4.56,0,15.4.07,30.8-.06,46.19C377.66,231.93,378.24,235.42,384.48,234.83Z"/><path d="M359.36,172.74c-10.07,0-18.23-7.5-18.15-16.76s8.43-17,18.18-16.88,17.34,7.43,17.36,16.91S369.33,172.7,359.36,172.74Z"/><path d="M175.62,241.08c0,9.17-7.2,16-16.87,16.1-9.4.06-17.1-7-17.26-15.94-.17-9.34,7.53-16.56,17.58-16.48C168.7,224.83,175.63,231.67,175.62,241.08Z"/></svg>