<svg id="Layer_1" data-name="Layer 1" xmlns="http://www.w3.org/2000/svg" viewBox="0 0 600 400"><defs><style>.cls-1{fill:#fff;}</style></defs><title>refinery29</title><path d="M299.69,86.72a72.88,72.88,0,1,1-73,72.78A72.51,72.51,0,0,1,299.69,86.72Zm64.17,72.94c.05-34.91-29.4-64.54-64-64.36-35.18.19-64.25,28.58-64.23,64,0,37.54,30.46,64.09,63.88,64.12C334.72,223.45,363.81,194.65,363.87,159.66Z"/><path d="M288.92,312.17c-3.74,1.45-6.3.33-8.68-2.57-6.11-7.44-12.45-14.71-19.51-23v25.77h-8.46V271.78c3.56-1.27,6.19-.38,8.73,2.75,6.14,7.56,12.64,14.82,19.69,23V271.66h8.23Z"/><path d="M345.33,293.39v19.09h-8V271.54c6.19,0,12.24-.36,18.22.11,5,.39,8.25,3.69,9.36,8.55,1.41,6.18-1.46,10.53-7.19,13.76l14.91,18.43c-6.07,1-10.92,1-14.38-4.78-2.39-4-5.64-7.44-8.64-11C348.76,295.56,347.43,294.93,345.33,293.39Zm.14-5.46a89.41,89.41,0,0,0,10.45-2.82c.56-.22.61-4.16.08-4.38a92.17,92.17,0,0,0-10.52-3.06Z"/><path d="M143.19,294l14.62,18.33c-5.5.73-10.23,1.5-13.64-4.15-2.39-4-5.79-7.32-8.78-10.92-.93-1.12-2-2.12-3-3.17l-1.31.4v17.95h-8.4v-41c6,0,11.95-.37,17.78.11,5.38.44,8.64,3.78,9.66,8.76a11.25,11.25,0,0,1-4.79,12.27C144.71,293,144.07,293.44,143.19,294Zm-12-5.82c4-1.24,7.23-2,10.22-3.43.54-.25.34-4.17-.26-4.39-3.1-1.14-6.44-1.64-10.34-2.5,0,2.78,0,4.15,0,5.53C130.82,284.49,130.95,285.54,131.16,288.22Z"/><path d="M171.8,278.44v8.31h12.06v7.38h-12v11.18h16.85v7.16H163.58V271.59H188v6.85Z"/><path d="M321.65,294.19H309.49V305.3h16.86v7.16H301.42V271.53h24.39v7H309.53v8.19h12.12Z"/><path d="M454.43,311.94l3.6-6,3.8-6.38c-.87-.19-1.39-.33-1.91-.4-9-1.26-14.3-8.46-12.64-17.27,1.62-8.64,9.89-13.8,18.68-11.65,8.19,2,13.64,10.45,10.42,18.36a124.37,124.37,0,0,1-12.7,22.74c-1.23,1.81-5.81,1.35-8.84,1.93Zm14.79-27.33a7.33,7.33,0,0,0-7-7.32c-3.87-.12-7.65,3.47-7.65,7.27a7.79,7.79,0,0,0,7.59,7.35A7.39,7.39,0,0,0,469.22,284.61Z"/><path d="M427,305.29H440.8v7.21H410.42c5.63-6.87,11-13.08,15.95-19.58a25.29,25.29,0,0,0,4.8-9.31c.37-1.64-1.74-4.78-3.51-5.65-1.44-.71-5.26.34-5.91,1.66-2.26,4.59-5.79,3-9.16,3.06,0-7.22,5.08-12.45,12.14-12.71,8.32-.3,14.15,4.41,14.66,11.69a18,18,0,0,1-4,13.07C432.77,298,430.2,301.28,427,305.29Z"/><path d="M207.74,312.6h-8.15v-41h24.75v6.68H208v8.44h11.89v7.37H207.74Z"/><path d="M407.31,271.8c-3.45,5.67-6.44,11.31-10.15,16.43a19.21,19.21,0,0,0-3.88,13.43c.28,3.51.05,7.07.05,10.86h-7.17c-1-7.27-.83-14.91-3.29-21.57s-7.6-12.63-12-19.63c4.74.5,9.08-2.05,11.78,3.19,1.84,3.58,4.19,6.89,6.59,10.76a74.39,74.39,0,0,0,4.9-7.56C396.77,272.28,400.63,269.73,407.31,271.8Z"/><path d="M232.84,271.46h7.66v41h-7.66Z"/><path class="cls-1" d="M363.87,159.66c-.05,35-29.14,63.79-64.32,63.77-33.42,0-63.86-26.58-63.88-64.12,0-35.42,29.05-63.81,64.23-64C334.47,95.11,363.92,124.74,363.87,159.66Zm-73.93,3c5.87-8.81,10.9-17.37,2.82-26.77-4.18-4.86-13.58-6.15-20.08-3.25-6.7,3-10,7.94-9.53,14.64h8.74c.21-.45.43-.84.57-1.26,1.89-5.38,6.08-7.52,10.8-5.5,4.08,1.75,5.52,6.36,3.09,11.15a46.08,46.08,0,0,1-5.61,8.58,7.87,7.87,0,0,1-4.81,2.58c-3.95.37-8,.12-11.72.12v8.62l8.67.43L257,195.53h38.77v-9.14h-22c3-4.38,5.41-8,7.83-11.59a7.23,7.23,0,0,1,11.85-.33c7.15,9.26,14.24,18.56,21.43,27.78,4.31,5.53,8,6.5,15.2,4.19a98.6,98.6,0,0,1-6.39-8.65,5.48,5.48,0,0,1-.16-4.74c3.11-5,6.75-9.73,10-14.71,4.56-7.06,9.71-13.88,13.15-21.46,5.51-12.13-3.2-25.12-16.49-25.45-3.78-.09-7.58,1-11.76,1.53-3.34-8.81-9.91-15-19.61-16.12-11.39-1.26-22.92-1.14-34.59-1.62v9c3.39,0,6.48-.07,9.56,0,7,.18,14.08-.08,21,.78,10.52,1.32,16.26,9.64,15.28,20.94C309,156.48,301.68,162.94,289.93,162.7Z"/><path class="cls-1" d="M345.47,287.93V277.67A92.17,92.17,0,0,1,356,280.73c.53.22.48,4.17-.08,4.38A89.41,89.41,0,0,1,345.47,287.93Z"/><path class="cls-1" d="M131.16,288.22c-.21-2.68-.34-3.74-.37-4.79,0-1.38,0-2.76,0-5.53,3.91.86,7.25,1.36,10.34,2.5.6.22.79,4.14.26,4.39C138.39,286.19,135.12,287,131.16,288.22Z"/><path class="cls-1" d="M469.22,284.61a7.39,7.39,0,0,1-7,7.3,7.79,7.79,0,0,1-7.59-7.35c0-3.8,3.79-7.39,7.65-7.27A7.33,7.33,0,0,1,469.22,284.61Z"/><path d="M289.93,162.7c11.75.25,19.12-6.22,20-16.78,1-11.3-4.76-19.62-15.28-20.94-6.93-.87-14-.6-21-.78-3.09-.08-6.17,0-9.56,0v-9c11.66.49,23.2.36,34.59,1.62,9.7,1.07,16.27,7.31,19.61,16.12,4.18-.58,8-1.62,11.76-1.53,13.29.33,22,13.32,16.49,25.45-3.44,7.58-8.6,14.41-13.15,21.46-3.21,5-6.86,9.67-10,14.71a5.48,5.48,0,0,0,.16,4.74,98.6,98.6,0,0,0,6.39,8.65c-7.23,2.32-10.89,1.35-15.2-4.19-7.19-9.22-14.28-18.53-21.43-27.78a7.23,7.23,0,0,0-11.85.33c-2.42,3.61-4.87,7.21-7.83,11.59h22v9.14H257L272.87,172l-8.67-.43V163c3.77,0,7.78.26,11.72-.12a7.87,7.87,0,0,0,4.81-2.58,46.08,46.08,0,0,0,5.61-8.58c2.43-4.8,1-9.41-3.09-11.15-4.72-2-8.91.12-10.8,5.5-.15.42-.37.81-.57,1.26h-8.74c-.47-6.7,2.83-11.65,9.53-14.64,6.5-2.9,15.9-1.61,20.08,3.25C300.83,145.32,295.8,153.88,289.93,162.7Zm12.44,7.75,13.28,17.36L328.15,170l-14.69-6.59Zm36-20.29c.09-5.69-3.94-10.18-9.23-10.28s-9.54,4.08-9.73,9.81A9.64,9.64,0,0,0,328.7,160C334.12,160.07,338.33,155.83,338.41,150.16Z"/><path class="cls-1" d="M302.37,170.45l11.08-7.07L328.15,170l-12.5,17.84Z"/><path class="cls-1" d="M338.41,150.16c-.08,5.66-4.29,9.91-9.72,9.79a9.64,9.64,0,0,1-9.24-10.26c.19-5.73,4.34-9.91,9.73-9.81S338.5,144.47,338.41,150.16Z"/></svg>