<svg id="Layer_1" data-name="Layer 1" xmlns="http://www.w3.org/2000/svg" viewBox="0 0 600 400"><title>stylist</title><path d="M85.48,193.63c-5.33-4-13.81-1.32-17.17,5.44-5.28,10.63-.33,25,10.55,30a31.89,31.89,0,0,0,22.62,1.73c14.95-4.31,20.9-22.28,11.49-35.23-3.32-4.57-7.71-8.35-11.57-12.53-4-4.35-8.62-8.31-11.88-13.18-8.73-13-2.54-29,12.06-31.77,7.81-1.46,15.21-.31,21.18,6l4.75-5.93,1,.34,1.56,22.62-1,.38c-.56-.76-1.17-1.47-1.66-2.27-1.55-2.53-2.87-5.22-4.61-7.61a39.94,39.94,0,0,0-6.06-6.94c-5.31-4.54-13.77-4.93-18.53-1.2-4.57,3.58-5.84,11.23-2.11,17.62,2.23,3.82,5.53,7.06,8.62,10.3,5.47,5.75,11.85,10.77,16.61,17,11.68,15.37,6.13,35.81-11.53,43.66a46.85,46.85,0,0,1-13.34,3.51c-9.23,1.1-18.29.16-26.57-4.6-12.72-7.32-16.43-23.16-8-33.91,5-6.37,15.09-9.34,22.55-6.65,4.24,1.53,6.72,4.81,6.61,8.73a6,6,0,0,1-5.41,6.06,5.28,5.28,0,0,1-5.92-4.05c-.83-2.83.7-5.14,4-6.5a12,12,0,0,0,1.5-.81C85.43,193.91,85.44,193.74,85.48,193.63Z"/><path d="M456.31,144.2l4.47-5.93,1.22.24,1.51,22.65-1.26.34c-.56-.94-1.08-1.91-1.69-2.82-2.71-4-5.19-8.25-8.25-12-3.72-4.54-8.86-6.2-14.7-5.48s-9.61,4.73-10,10.68c-.41,6.28,2.17,11.35,6.48,15.6,4.05,4,8.39,7.71,12.46,11.7a77.41,77.41,0,0,1,7.92,8.65c12.11,16.21,6.6,37-12.09,44.76a45.18,45.18,0,0,1-36.39-.24c-12.27-5.3-17.9-17.91-13.72-29.58,3.51-9.79,15-15.55,25-12.5,4.67,1.43,7.5,4.82,7.41,8.89a6.24,6.24,0,0,1-6.1,6.18c-3,0-5.82-2.53-5.29-5.42.32-1.73,1.81-3.33,3.05-4.75.6-.68,1.84-.8,2.91-1.22-4.52-4.18-13.17-2-16.78,3.93-5.94,9.79-2,24.77,8.42,30.38A30.52,30.52,0,0,0,437,230.08c14-5.33,18.38-23.16,8.72-35.44-3.86-4.91-8.72-9-13.05-13.59-3-3.17-6.15-6.29-8.85-9.73a22.28,22.28,0,0,1-4.76-15,19.37,19.37,0,0,1,18.13-18.6C444.41,137.23,450.93,138.55,456.31,144.2Z"/><path d="M165.09,222.79l12.45,2.58c-1.33,1.05-1.91,1.92-2.51,1.92-11.23.08-22.47.06-33.7.06l-.4-1.06c.94-.5,1.9-1.46,2.83-1.43,8.84.32,11.24-4.7,12.66-12.62,3.52-19.62,8.1-39.05,12.24-58.56.22-1,.35-2.09.65-3.85-4.67.8-9,1.45-13.36,2.38-.85.18-1.56,1.36-2.18,2.2-4.33,5.81-8.61,11.65-12.92,17.47-.73,1-1.57,1.91-2.95,3.58a15.69,15.69,0,0,1,0-2.87c1.93-7.23,3.82-14.46,5.93-21.64.31-1.05,1.65-2.57,2.52-2.58,19.23-.15,38.46-.11,58.36-.11l-1.88,26-1.06.16c-.63-1.45-1.29-2.89-1.88-4.37-2-5.08-3.85-10.23-6-15.22a6,6,0,0,0-3.4-2.86c-3-.93-6.23-1.36-9.91-2.11Z"/><path d="M474.8,225.72c1.55-.42,3.07-.93,4.64-1.24,8.51-1.68,8.46-1.67,10.25-10.18q6.21-29.61,12.52-59.2c.33-1.58.63-3.17,1-5.23-4.68.78-8.87,1.36-13,2.25-1,.21-1.87,1.35-2.55,2.25-4.42,5.89-8.76,11.83-13.13,17.74-.67.91-1.4,1.77-2.72,3.43a17.15,17.15,0,0,1,0-3.19c1.93-7.34,3.85-14.69,6-22a3.53,3.53,0,0,1,2.6-2c19-.1,38-.05,57,0a5.49,5.49,0,0,1,1.15.42l-1.82,25.5-.86.26a22.8,22.8,0,0,1-1.32-2.45c-2.26-5.74-4.37-11.54-6.81-17.2a6,6,0,0,0-3.42-2.85c-3-.94-6.22-1.38-9.91-2.15L499,222.78c3.36.69,6.56,1.28,9.72,2,.63.15,1.11.92,1.66,1.4-.62.38-1.24,1.09-1.87,1.1-10.92,0-21.84,0-32.76,0-.18,0-.36-.25-.54-.38Z"/><path d="M240,222.83l10,2.31.24.89c-.72.45-1.43,1.27-2.16,1.28-10.32.08-20.63.06-31,.06l-.45-1c.88-.54,1.76-1.55,2.63-1.54,8.08.15,10.67-4.49,11.51-11.75.79-6.81,4-13.58,3.65-20.21s-3.91-13.1-6.08-19.63c-1.69-5.07-3.61-10.07-5-15.21-.95-3.4-2.52-5.65-6.12-6.44-1-.23-1.88-1.38-2.81-2.11,1.08-.41,2.15-1.17,3.23-1.19,8-.1,15.92-.07,23.88,0,.9,0,1.79.16,3.46.32-3.25,3.8-7.83,2.89-11.37,5.2l10.83,36.46L269.62,153c-2.22-.74-4.12-1.3-6-2-.54-.21-.9-.87-1.35-1.33.57-.45,1.13-1.29,1.71-1.3,7.19-.09,14.38-.06,21.58-.06l.38,1.2c-1.06.53-2.1,1.44-3.2,1.54-4.93.43-8,3.27-10.78,7.1-7.47,10.13-15.38,19.94-22.9,30a21.36,21.36,0,0,0-3.5,7.57c-2,8.08-3.54,16.24-5.24,24.38C240.19,220.87,240.15,221.69,240,222.83Z"/><path d="M345.27,201.33c-1.52,4.94-3,9.9-4.57,14.81-1.19,3.69-1.54,8.65-4.12,10.62s-7.28.61-11.07.61q-21.73,0-43.46,0h-3.8l-.38-1c.93-.53,1.86-1.53,2.79-1.53,7.71,0,9.81-4.46,11.09-11.38,3.58-19.37,8-38.58,12.11-57.85.17-.8.29-1.61.48-2.74l-11-2.74c1.5-1,2.13-1.77,2.77-1.77,10.3-.08,20.61-.05,31.75-.05a16.33,16.33,0,0,1-1.8,2.2,2.25,2.25,0,0,1-1.37.32c-8.1-.18-10.11,4.67-11.43,11.79-3.66,19.72-8.19,39.27-12.36,58.89-.24,1.11-.31,2.26-.52,3.83,8.67-.9,16.9-1.7,25.11-2.69a5.1,5.1,0,0,0,2.69-2c4.63-5.72,9.18-11.51,13.76-17.27.7-.87,1.43-1.72,2.15-2.57Z"/><path d="M400.76,148.82c-1.59.94-2.42,1.87-3.25,1.86-8.39-.09-10.5,4.9-11.84,12.28-3.49,19.14-7.92,38.11-12,57.15-.17.79-.21,1.61-.34,2.69,3,.68,5.87,1.29,8.71,2,.52.14.89.87,1.33,1.32-.48.39-1,1.12-1.45,1.12-10.52.07-21,0-31.56,0l-.4-1.05c.94-.51,1.89-1.47,2.83-1.47,7.78.07,10.14-4.26,11.45-11.42,3.62-19.72,8.15-39.27,12.31-58.89.17-.78.23-1.58.39-2.66-7.67-.32-15.12-.74-22.19,2.46-5.75,2.6-8.7,6.76-8.21,12,1.25-.64,2.27-1.52,3.39-1.66,2-.24,4.55-.78,5.8.2s2.17,4,1.56,5.48c-.69,1.66-3.09,3.24-5,3.61-3.43.66-6.5-2-7.54-5.67-1.85-6.48.67-13.44,6.8-16.36a33.46,33.46,0,0,1,12.56-3.36c11.38-.49,22.79-.24,34.19-.27A16.92,16.92,0,0,1,400.76,148.82Z"/></svg>