<svg id="Layer_1" data-name="Layer 1" xmlns="http://www.w3.org/2000/svg" viewBox="0 0 600 400"><defs><style>.cls-1{fill:#fff;}</style></defs><title>telegraph</title><path d="M241.4,96a9,9,0,0,1-.79.85,29.79,29.79,0,0,0-10.41,19.25,31.55,31.55,0,0,0,4,21,21.4,21.4,0,0,0,8.49,8.26c1.75-1.37,3.67-2.69,5.36-4.26a7.07,7.07,0,0,0,1.23-2.7,3.17,3.17,0,0,0,0-1.07q0-20.37,0-40.75c0-.41,0-.83-.06-1.37a50.29,50.29,0,0,0-10.64-2.87,19.72,19.72,0,0,0-11.71,1.54,24.78,24.78,0,0,0-7.72,6l-2,2.2a7,7,0,0,1-.26-1.38,20,20,0,0,1,8-15,25.59,25.59,0,0,1,15.33-5.21c6.48-.15,12.67,1.27,18.9,2.76,4.93,1.18,9.89,2.26,14.88,3.16A31.14,31.14,0,0,0,294,83.88a4,4,0,0,1,.56-.18c.55.67.09,1.23-.16,1.79a20.78,20.78,0,0,1-12.35,11.29,35,35,0,0,1-16.77,1.62,9,9,0,0,0-.93,0c0,.72-.06,1.41-.06,2.1,0,10.35,0,20.7,0,31.05a3.27,3.27,0,0,1-1.7,3.21c-5.74,3.56-11.41,7.23-17.1,10.86-.33.21-.62.47-1.09.83a19.46,19.46,0,0,0,7.68,2.13,33.13,33.13,0,0,0,23.05-7.29,36.47,36.47,0,0,0,11.14-15.13,11.36,11.36,0,0,1,.67-1.46.71.71,0,0,1,.6-.26.76.76,0,0,1,.45.46,3.07,3.07,0,0,1,.07.89c.15,10.66-3.44,19.83-11.23,27.14a33.22,33.22,0,0,1-21,9,38.17,38.17,0,0,1-18-2.8c-11.2-4.8-18-13.3-20.55-25.17a33.07,33.07,0,0,1,.87-17.33,29.78,29.78,0,0,1,14.42-17.35c2.28-1.27,4.77-2.17,7.18-3.21a8.54,8.54,0,0,1,1.46-.35Z"/><path d="M130.13,189c-4.77-1.74-9.4-3.1-14.31-3.15a18.51,18.51,0,0,0-12.48,4.66c-1.54,1.31-2.88,2.86-4.31,4.29-.27.27-.58.5-1,.85a3.62,3.62,0,0,1-.17-2.56,20.58,20.58,0,0,1,11.24-15.69,26.79,26.79,0,0,1,12.56-3.09c6.3-.08,12.31,1.35,18.36,2.78,4.88,1.15,9.78,2.22,14.7,3.13A31.42,31.42,0,0,0,175,177.54a1.38,1.38,0,0,1,.38-.06c.55.56.12,1.12-.1,1.61a20,20,0,0,1-7.78,9.13,28.51,28.51,0,0,1-14.82,4.19c-2.43.06-4.87-.1-7.56-.16v2c0,10.17-.05,20.34,0,30.51a4.15,4.15,0,0,1-2.23,4c-5.59,3.46-11.11,7-16.66,10.56-.29.19-.56.4-1,.74a13,13,0,0,0,1.31.7,25.42,25.42,0,0,0,14.81.92c12.53-2.64,20.82-10.34,25.8-21.91.27-.63.21-1.63,1.48-1.68a7.69,7.69,0,0,1,.26,1.31c.43,16.07-9.53,31.09-25.66,35-13.57,3.33-25.88.54-36-9.43a34.86,34.86,0,0,1-6.5-39,29.73,29.73,0,0,1,12.78-13.16c2.24-1.22,4.67-2.12,7-3.13a2.5,2.5,0,0,1,1.65-.1,10.14,10.14,0,0,1-.76.83c-8.27,7.26-11.48,16.54-10.61,27.3a27.47,27.47,0,0,0,7.08,16.88,51.57,51.57,0,0,0,4.6,4,1.25,1.25,0,0,0,1.77-.06c1.34-1,2.69-2,4.08-2.92a4,4,0,0,0,1.76-3,10.38,10.38,0,0,0,.06-1.43q0-20.28,0-40.57C130.13,190.19,130.13,189.66,130.13,189Z"/><path d="M271.54,268.76a6.33,6.33,0,0,1,.45-1.14c3.6-5.31,8.3-9.1,14.79-10.11a25.83,25.83,0,0,1,12,1.13,52.45,52.45,0,0,1,11.73,5.71c.44.28.9.53,1.46.87,2-4.42,1.94-8.55-.75-12.51-2.18-3.21-5.26-5.31-8.7-7.1l-13.14,9.69c-1-.86-1.93-1.66-2.84-2.49-2-1.85-4-3.74-6.05-5.59a3.35,3.35,0,0,1-1.15-2.69q0-16.51,0-33a1.84,1.84,0,0,1,1.33-2q12.85-5.26,25.66-10.62a2.28,2.28,0,0,1,3,.59c2.12,2.27,4.34,4.45,6.59,6.6a4,4,0,0,1,1.32,3.16c0,9.39,0,18.78,0,28.17a3.56,3.56,0,0,0,1.45,3.17,14.79,14.79,0,0,1,5,6.4,11,11,0,0,1-.52,8.7,19.25,19.25,0,0,1-5.54,6.73c-4.11,3.37-8.26,6.69-12.39,10-1.23,1-1.46,1-2.84.17-2.12-1.23-4.22-2.49-6.42-3.56a25.68,25.68,0,0,0-16.78-1.82c-2.1.43-4.19,1-6.28,1.42A10.15,10.15,0,0,1,271.54,268.76Zm22.68-61.9c0,.73,0,1.39,0,2,0,10,.05,20.09,0,30.13a5.9,5.9,0,0,0,2.33,4.91,4,4,0,0,0,4.91.6c.71-.36,1.19-.78,1.07-1.64a5.21,5.21,0,0,1,0-.72q0-14.8,0-29.59a4.07,4.07,0,0,0-.44-2.39c-1.45-1.72-3.11-3.26-4.66-4.83Z"/><path d="M511.73,243.61c-.13.31-.17.72-.4.91-4.19,3.54-8.4,7.06-12.71,10.66-1.63-1.42-3.21-2.78-4.77-4.16s-3-2.72-4.57-4a5.11,5.11,0,0,1-1.9-4.23c0-10,0-20,.05-30a3.39,3.39,0,0,0-1.5-3.19,3.61,3.61,0,0,1-.42-.33c-2.66-2.41-1.68-2-4.88-.66-1.16.48-2.26,1.08-3.39,1.63a2.34,2.34,0,0,0-.37.34c0,.43,0,1,0,1.5,0,9.21,0,18.43,0,27.64a3.05,3.05,0,0,0,1.25,2.74c.53.39,1,.84,1.5,1.28,1.15,1,2.36,1.59,3.91.82.31-.16.77,0,1.54,0a11.61,11.61,0,0,1-1.13,1.41q-5.14,4.46-10.32,8.87a3.07,3.07,0,0,1-.65.28c-1.12-1-2.3-1.95-3.46-3-2.06-1.81-4.1-3.66-6.18-5.44a3.72,3.72,0,0,1-1.41-3.1c0-16.81,0-33.62,0-50.43a3.23,3.23,0,0,0-1-2.72c-1.91-1.72-2.33-1.51-3.93-.67s-1.64.76-2.72.67c.08-.23.08-.52.23-.64,4.26-3.64,8.53-7.27,12.93-11,1.42,1.25,2.72,2.37,4,3.53s2.49,2.42,3.79,3.56a4.88,4.88,0,0,1,1.66,4c0,5.38,0,10.77,0,16.15v2.18c.64-.33,1.12-.52,1.55-.79l12.42-7.86c.35-.22.72-.42,1.07-.66a1.38,1.38,0,0,1,1.93.21c2,1.84,3.85,3.78,6,5.42s2.77,3.85,2.73,6.55c-.13,9.51,0,19-.08,28.54a3,3,0,0,0,1.26,2.76,17.58,17.58,0,0,1,2.06,1.72,2.23,2.23,0,0,0,2.93.34c.87-.45,1.8-.79,2.7-1.18Z"/><path d="M288.41,96.74a8.83,8.83,0,0,1,1-1.32q5.67-4.8,11.38-9.56a11.47,11.47,0,0,1,1-.68c1.26,1.1,2.52,2.17,3.74,3.28s2.29,2.27,3.53,3.31a5.53,5.53,0,0,1,2,4.72c-.1,5.32,0,10.65,0,16v2c.66-.34,1.13-.53,1.56-.8l12.58-8c2-1.26,2-1.25,3.67.27l6.71,6.2a4.33,4.33,0,0,1,1.22,3.43q0,5.74,0,11.49c0,6.28,0,12.56,0,18.84a2.76,2.76,0,0,0,1.31,2.71,11.41,11.41,0,0,1,1.76,1.52,2.4,2.4,0,0,0,3.22.45,11,11,0,0,1,2-.89,6.85,6.85,0,0,1,1.49-.09,19.21,19.21,0,0,1-1.39,1.51c-4,3.4-8,6.77-12.2,10.29-1-.86-2.07-1.71-3.08-2.6-2.11-1.85-4.17-3.75-6.31-5.57a4.91,4.91,0,0,1-1.84-4.06c.05-10,0-20.1.06-30.15A3.55,3.55,0,0,0,320.4,116a2.05,2.05,0,0,1-.41-.35c-1.5-2.05-3.24-2-5.22-.72-1.11.69-2.34,1.18-3.59,1.79,0,.54-.08,1.06-.08,1.59,0,9.21,0,18.42,0,27.64a2.92,2.92,0,0,0,1.15,2.63,6.53,6.53,0,0,1,1,.81c1.42,1.55,3,2.28,5.11,1.33.13-.06.34,0,.71.1-.17.41-.21.85-.46,1.06q-5.41,4.68-10.88,9.3c-.08.07-.22.07-.52.16l-5-4.39c-1.48-1.3-2.92-2.65-4.43-3.91a3.8,3.8,0,0,1-1.47-3.23c.05-16.81,0-33.62,0-50.43a2.93,2.93,0,0,0-.78-2.44c-1.82-1.73-2-1.78-4.36-.83C290.35,96.43,289.65,97.18,288.41,96.74Z"/><path d="M406.23,209.22a10,10,0,0,1,.9-1q5.34-4.51,10.69-9c1.35-1.12,1.4-1.12,2.65.12,2.12,2.11,4.23,4.23,6.35,6.34.42.42.86.82,1.37,1.31,2.49-1.32,5-2.6,7.43-3.92s5-2.75,7.55-4.12c1.14-.62,1.35-.6,2.37.33,1.89,1.74,3.75,3.5,5.63,5.26.39.37.76.76,1.18,1.1a4.1,4.1,0,0,1,1.58,3.42q-.06,17.5,0,35a2.72,2.72,0,0,1-1.14,2.44c-3.34,2.52-6.67,5-9.94,7.64a2.48,2.48,0,0,1-3.25.12c-3.55-2.21-7.13-4.35-10.85-6.6a6.59,6.59,0,0,0-.2,1.07c0,3.65,0,7.3,0,10.95a2.31,2.31,0,0,0,.95,2c.87.71,1.71,1.46,2.75,2.36-.82.85-1.51,1.64-2.27,2.35-2.22,2.08-4.47,4.13-6.72,6.19-.88.81-1.31.9-2.18.21-3.22-2.57-6.4-5.19-9.59-7.79a4.73,4.73,0,0,1-.54-.67c.77-.91,1.57-1.78,2.26-2.73a3.4,3.4,0,0,0,.61-1.58,28,28,0,0,0,0-2.87c0-14.42-.08-28.83.07-43.25a7.54,7.54,0,0,0-2.75-6c-1.73.2-2.86,1.82-4.63,1.67C406.42,209.6,406.36,209.42,406.23,209.22Zm22.35,36.48c1.69.5,3.21,1,4.78,1.36a4,4,0,0,0,2.57-.2c1.6-.92,3.12-2.05,3.07-4.26,0-.71.16-1.42.16-2.13q0-9.95,0-19.89,0-3.94,0-7.88a4,4,0,0,0-1-3c-.88-.89-1.79-1.76-2.75-2.56a1.56,1.56,0,0,0-1.25-.32c-1.9.66-3.76,1.42-5.58,2.12Z"/><path d="M406,245.07c1.82-.34,2.83-1.78,4.57-1.22a3.19,3.19,0,0,1-.51.93q-6,5.08-12.08,10.11a3.09,3.09,0,0,1-.5.24l-10.88-9.52-13,9.6c-.87-.71-1.74-1.39-2.57-2.12-2.23-2-4.48-3.94-6.65-6a5.06,5.06,0,0,1-.91-1.85,2.58,2.58,0,0,1,0-.89q0-16.33,0-32.65v-1.5c.64-.32,1.2-.64,1.79-.88L390,199.07c.33-.14.68-.25,1-.4a1.4,1.4,0,0,1,1.78.32c2.61,2.63,5.3,5.19,7.82,7.91a4.32,4.32,0,0,1,.81,2.63c.1,3,0,6.1,0,9.15,0,7.06,0,14.11,0,21.17a2.71,2.71,0,0,0,1.06,2.46C403.73,243.23,404.91,244.22,406,245.07Zm-27.58-38.28a4.6,4.6,0,0,0-.12.66q0,16.43,0,32.85a3.63,3.63,0,0,0,.5,1.86c2,3.08,4.28,3.63,7.43,1.84.09-.05.14-.18.3-.38v-1.85q0-12,0-24.06c0-2,.05-4,0-5.92a3.37,3.37,0,0,0-.67-1.95c-1.32-1.53-2.78-2.94-4.22-4.43Z"/><path d="M210.31,215.77c-1.66,1.08-3.19,2.1-4.75,3.08q-7.59,4.76-15.21,9.47a2.06,2.06,0,0,0-1.11,2q.09,4.12,0,8.25a2,2,0,0,0,1.27,2.1c2.09,1,4.11,2.2,6.2,3.22,1.79.88,3.56,1.19,5.38-.14a50.35,50.35,0,0,1,4.61-2.76,1.72,1.72,0,0,1,2.17-.09L191.3,255.12l-10.56-5.54c-1.64-.86-3.25-1.77-4.91-2.58a2.67,2.67,0,0,1-1.66-2.68c0-12,0-24,0-36.06,0-1.45.15-1.61,1.85-2.16,3.52-1.14,7.05-2.26,10.58-3.38,4.15-1.32,8.3-2.66,12.46-4,1.49-.47,1.51-.44,2.24.83q4.2,7.4,8.38,14.81C209.89,214.75,210,215.14,210.31,215.77Zm-20.64-10.15c-.7,3.57-.51,20.1,0,21.22l7.94-6.58Z"/><path d="M254,229.19c0,3.07,0,6.11,0,9.16a2.45,2.45,0,0,0,1.54,2.38c1.88.91,3.69,2,5.55,2.92a19.18,19.18,0,0,0,2,.82,3.36,3.36,0,0,0,3.09-.28c1.74-1,3.49-2.08,5.27-3.06a4.05,4.05,0,0,1,2-.44A81.4,81.4,0,0,1,265,248l-8.79,7.13L249,251.34c-2.69-1.42-5.34-2.95-8.09-4.25a2.89,2.89,0,0,1-1.78-3.12c.06-4.67,0-9.33,0-14q0-10.68,0-21.36c0-1.88,0-1.9,1.83-2.5q11.51-3.73,23-7.44c.89-.29,1.54-.36,2.09.64,3,5.33,6,10.63,8.94,15.94a2.51,2.51,0,0,1,.06.64C268.22,220.33,261.09,224.65,254,229.19Zm.4-23.89-.27.11v21.81l8.4-7Z"/><path d="M362.45,135.45c0,3.3,0,6.53,0,9.76a2,2,0,0,0,.84,1.41c2.45,1.37,4.93,2.68,7.45,3.92a4.1,4.1,0,0,0,4.4-.38c1.57-1.08,3.29-1.94,4.94-2.91a1.54,1.54,0,0,1,2,0c-5.78,4.8-11.61,9.39-17.48,14.17l-3.29-1.72c-3.92-2-7.81-4.14-11.76-6.12a3.09,3.09,0,0,1-2-3.15c.07-11.84,0-23.69,0-35.53V113c1.93-.64,3.74-1.25,5.55-1.84l18.93-6.09c1.76-.57,1.77-.58,2.66,1q4.21,7.4,8.39,14.81a10.88,10.88,0,0,1,.48,1.19C376.63,126.63,369.46,130.9,362.45,135.45Zm8.47-8.92-8.09-14.87-.28.13v21.68Z"/><path d="M206.79,190.38a3.91,3.91,0,0,1,.64-1.06c3.88-3.27,7.79-6.5,11.66-9.78a1.19,1.19,0,0,1,1.86,0c2.32,2.15,4.66,4.29,7,6.43a4.46,4.46,0,0,1,1.32,3.56c0,10.47,0,20.94,0,31.41,0,6.22,0,12.44,0,18.67a3,3,0,0,0,1.31,2.74,11.07,11.07,0,0,1,1.07,1c1.35,1.23,2.79,2.1,4.68,1.13a1,1,0,0,1,.53,0,1.27,1.27,0,0,1,.36.18c.25.83-.52,1.11-1,1.49-2.69,2.36-5.43,4.67-8.15,7l-2.45,2.1c-.82-.67-1.66-1.31-2.44-2-2.41-2.14-4.74-4.38-7.23-6.42a4.07,4.07,0,0,1-1.54-3.58c.05-5.56,0-11.13,0-16.69q0-16.78,0-33.56c0-.58.07-1.33-.24-1.71a8.18,8.18,0,0,0-2.31-1.93c-.4-.22-1.15,0-1.68.21-1,.36-2,.83-2.95,1.25Z"/><path d="M344.5,207.86c-.9.39-.72,1.12-.72,1.74,0,2.87,0,5.74,0,8.62,0,7,0,14,0,21a3.69,3.69,0,0,0,1.52,3.22c.61.48,1.21,1,1.8,1.48a2.9,2.9,0,0,0,3.33.47,3.58,3.58,0,0,1,2.81-.53,9,9,0,0,1-.9,1.07q-5,4.25-10,8.46c-.68.58-1.38,1.13-2.2,1.81-1.1-.94-2.19-1.85-3.24-2.79-2.18-2-4.3-4-6.53-5.86a3.69,3.69,0,0,1-1.31-3.14c0-10.11,0-20.22,0-30.33,0-1.53-.22-2.79-1.51-3.76a11.41,11.41,0,0,1-1.43-1.53c-1.8.49-3,2-5.27,2.22a5.3,5.3,0,0,1,.74-1.34c4-3.45,8.09-6.87,12.31-10.44l8.62,8.25c.51-.47,1-.86,1.37-1.27,2-1.94,3.88-3.91,5.85-5.83,1.26-1.23,1.54-1.21,2.8-.05,1.94,1.77,3.84,3.58,5.83,5.31s2.2,1.81,4.48.34a4,4,0,0,1,1.08-.62,3.51,3.51,0,0,1,1.15.1c-.09.37-.06.87-.3,1.09-.86.83-1.8,1.56-2.71,2.34-2.14,1.82-4.26,3.65-6.41,5.46-1.65,1.39-2.81,1.42-4.46.07-2-1.63-3.92-3.31-5.89-5C345,208.21,344.75,208,344.5,207.86Z"/><path class="cls-1" d="M294.22,206.86l3.15-1.5c1.55,1.57,3.21,3.11,4.66,4.83a4.07,4.07,0,0,1,.44,2.39q0,14.8,0,29.59a5.21,5.21,0,0,0,0,.72c.12.87-.35,1.28-1.07,1.64a4,4,0,0,1-4.91-.6,5.9,5.9,0,0,1-2.33-4.91c.1-10,0-20.09,0-30.13C294.22,208.25,294.22,207.6,294.22,206.86Z"/><path class="cls-1" d="M428.58,245.7V209c1.82-.71,3.69-1.47,5.58-2.12a1.56,1.56,0,0,1,1.25.32c1,.8,1.87,1.67,2.75,2.56a4,4,0,0,1,1,3q0,3.94,0,7.88,0,9.95,0,19.89c0,.71-.18,1.42-.16,2.13.05,2.2-1.47,3.33-3.07,4.26a4,4,0,0,1-2.57.2C431.79,246.75,430.27,246.2,428.58,245.7Z"/><path class="cls-1" d="M378.38,206.79l3.21-1.37c1.43,1.49,2.9,2.9,4.22,4.43a3.37,3.37,0,0,1,.67,1.95c.09,2,0,3.95,0,5.92q0,12,0,24.06v1.85c-.16.21-.21.33-.3.38-3.16,1.79-5.46,1.24-7.43-1.84a3.63,3.63,0,0,1-.5-1.86q0-16.43,0-32.85A4.6,4.6,0,0,1,378.38,206.79Z"/><path class="cls-1" d="M189.67,205.63l7.93,14.64-7.94,6.58C189.16,225.73,189,209.19,189.67,205.63Z"/><path class="cls-1" d="M254.41,205.3l8.13,15-8.4,7V205.41Z"/><path class="cls-1" d="M370.93,126.54l-8.38,6.93V111.79l.28-.13Z"/></svg>