<svg id="Layer_1" data-name="Layer 1" xmlns="http://www.w3.org/2000/svg" viewBox="0 0 600 400"><defs><style>.cls-1{fill:#fff;}</style></defs><title>theguardian</title><g id="LBF9J1.tif"><path class="cls-1" d="M28.22,175.31V152.13H424.44a7.07,7.07,0,0,1-.9.27c-5.49.89-11,1.76-16.46,2.67-3.47.58-3.43.6-3.4,4.11a1.54,1.54,0,0,0,1.12,1.63c1.32.53,2.61,1.14,3.88,1.78.35.18.78.62.79.95.05,3.8,0,7.6,0,11.6-3.72-2-7.5-2.13-11.41-1.83-9.6.75-16.82,6.31-19.77,15.48a41.53,41.53,0,0,0-1.14,19.5,22.58,22.58,0,0,0,6.47,13.11c6.7,6.5,19.72,6.88,25.72-.11.12-.14.36-.19.77-.4,0,1.39.07,2.58,0,3.75s.43,1.64,1.61,1.5c1.78-.22,3.56-.38,5.34-.59,4.47-.52,8.94-1.07,13.42-1.56.87-.09,1.08-.44,1.19-1.28.31-2.38-.31-4.12-2.8-4.83-.17,0-.31-.2-.49-.26-1.68-.56-2.13-1.68-2.12-3.44.07-20,0-39.91,0-59.87a21.56,21.56,0,0,0-.21-2.17h19.31c-.57.17-1.14.33-1.71.51a9.07,9.07,0,0,0-6.25,8.67,9.1,9.1,0,0,0,18,1.83,9,9,0,0,0-5.74-10.5c-.42-.16-.84-.34-1.26-.51H572.61V248.7H28.22V182.75c1.93,0,3.86,0,5.79,0,2.18,0,2.24.05,2.24,2.24,0,9.05,0,18.11,0,27.16a22.69,22.69,0,0,0,.34,3.83c.83,4.69,3.25,8.12,8.05,9.31,6.37,1.58,12.59.66,18.63-1.67a2,2,0,0,0,.95-1.43c.14-1.27,0-2.57.06-3.86,0-1.11-.5-1.32-1.46-1.22a33.78,33.78,0,0,1-3.43.23c-4.63,0-6.7-2-6.71-6.59,0-8.78,0-17.56,0-26.34,0-1.27.44-1.71,1.68-1.68,2.57.06,5.15,0,7.72,0,1.36,0,1.77-.46,1.7-1.76a39.89,39.89,0,0,1,0-5c.1-1.45-.47-1.81-1.83-1.76-2.43.1-4.87,0-7.31,0-1.94,0-1.94,0-1.95-1.89,0-2.8,0-5.61,0-8.41,0-.47-.08-.95-.13-1.53-5,.71-9.9,1.43-14.76,2-1.28.16-1.58.75-1.55,1.9.06,2.2.07,4.41,0,6.62,0,.5-.51,1.34-.89,1.4C33,174.82,30.58,175,28.22,175.31Zm158.53,30.16c-.54.44-1,.72-1.31,1.06a46,46,0,0,0-5,4.87c-4.42,5.7-2.35,12.28,4.45,14.67.38.14.75.32,1.13.48a4,4,0,0,1-1.37.66c-2.46,1-5.13,1.64-7.32,3-3.84,2.44-4.36,7.44-1.5,11a14.5,14.5,0,0,0,6,4.11c6.11,2.55,12.56,3.05,19.07,3A43.47,43.47,0,0,0,215.72,246c5.9-2.18,10.26-5.86,11.88-12.2a21.13,21.13,0,0,0,.34-8.76c-.76-4.56-3.07-8-7.52-9.57a21.31,21.31,0,0,0-5.48-1.23c-2.6-.21-5.22,0-7.83,0-4.46,0-8.92,0-13.38,0a3.64,3.64,0,0,1-3.65-2.2,3.93,3.93,0,0,1,1.45-4.17,1.63,1.63,0,0,1,1.22-.32,32.62,32.62,0,0,0,11.37.67,24.73,24.73,0,0,0,12.36-4.25c6.49-4.62,8.78-16.19,1.69-22.35a10.17,10.17,0,0,1-.79-.86l.12-.2,9.06,3.09V173.07a14.12,14.12,0,0,0-1.6.12c-3.25.63-6.51,1.21-9.73,1.95a9.46,9.46,0,0,1-5.38-.27,29.18,29.18,0,0,0-21.54.63c-5.69,2.46-9.3,6.74-10,13-.72,6.82,1.54,12.39,7.47,16.21C186.06,204.9,186.29,205.11,186.75,205.46Zm-68.1-4.4h-.27c0-6,.2-12-.06-17.91-.22-5.06-3.26-8.44-8.21-9.41a22.39,22.39,0,0,0-13.65,1.38,75,75,0,0,0-7.12,4.14c-.38.22-.79.38-1.18.57a12.84,12.84,0,0,1-.4-1.37,6.28,6.28,0,0,1,0-1.1q0-10.62,0-21.24c0-3.94,0-4-4-3.35q-8.3,1.3-16.59,2.73a1.88,1.88,0,0,0-1.31,1c-.57,2.7-.16,3.42,2.26,4.59a9,9,0,0,0,1.49.71c1.48.4,1.76,1.37,1.76,2.79q-.06,25.24,0,50.49c0,3.12,0,3.12-2.95,4.37-2.33,1-2.33,1-2.32,3.51a3.39,3.39,0,0,1,0,.41c-.14,1.13.35,1.55,1.49,1.53,2.76-.06,5.52,0,8.28,0,5.38,0,10.76,0,16.14,0,1.1,0,1.48-.32,1.58-1.48.18-2-.24-3.5-2.47-4-.53-.12-1-.53-1.5-.68A2,2,0,0,1,88,216.44c.05-5.61,0-11.22,0-16.83,0-4.51,0-9,0-13.52,0-1.15.38-1.83,1.54-2a34.84,34.84,0,0,1,3.5-.73c6-.5,9.2.9,9.16,8,0,7.77,0,15.54,0,23.31,0,4.18.62,3.15-3.1,4.77-1.88.82-2.6,1.77-2.43,3.78.1,1.29.4,1.75,1.75,1.74,5.7-.06,11.4,0,17.1,0,2.44,0,4.87,0,7.31,0,.91,0,1.31-.28,1.33-1.26.08-2.94.12-2.94-2.52-4.21a9.92,9.92,0,0,0-1.5-.69,2,2,0,0,1-1.51-2.26C118.68,211.36,118.65,206.21,118.65,201.06Zm417.64-21.24-.41-.15c0-1.64,0-3.27,0-4.91s-.2-1.9-1.94-1.62Q525,174.57,516.11,176c-2.76.45-2.7.48-2.77,3.28,0,1.27.28,2.08,1.57,2.5,1,.31,1.82.9,2.77,1.23a1.91,1.91,0,0,1,1.41,2.15c0,10.11-.09,20.23,0,30.34a3.29,3.29,0,0,1-2.38,3.63c-3.64,1.54-2.78.5-2.95,4.41-.06,1.32.35,1.73,1.69,1.72,7.49-.06,15,0,22.48,0,3.65,0,3.63,0,3.56-3.68a1.49,1.49,0,0,0-1-1.59,31.6,31.6,0,0,1-3.49-1.64,1.73,1.73,0,0,1-.81-1.22c0-10.48,0-21,0-31.44a1.18,1.18,0,0,1,1.06-1.34c1.44-.28,2.87-.65,4.32-.8,5.87-.62,8.19,1.49,8.2,7.4,0,8.23-.08,16.46.06,24.69,0,2-.58,3-2.45,3.73-3.12,1.2-3,1.33-3,4.66,0,1.05.39,1.33,1.38,1.32,2.8,0,5.61,0,8.41,0,5.52,0,11,0,16.55,0,1.06,0,1.44-.29,1.44-1.4,0-3.34,0-3.34-3-4.73a8.44,8.44,0,0,0-1.13-.51c-1.08-.31-1.33-1-1.32-2.09,0-4.64,0-9.29,0-13.93,0-6.16,0-12.32-.21-18.47s-4-10.17-9.73-10.83A25.71,25.71,0,0,0,537.34,179Zm-273,39.2.75.5c0,1.82,0,3.65,0,5.47,0,.84.31,1.19,1.13,1.11s1.92-.17,2.88-.27c5.62-.62,11.23-1.23,16.84-1.91a1.63,1.63,0,0,0,1.19-.9c.52-3,.22-3.55-2.46-4.95a14.38,14.38,0,0,0-1.72-.88,2.15,2.15,0,0,1-1.48-2.42c0-13.29,0-26.57,0-39.86,0-2-.1-2.1-2-1.8q-9.67,1.5-19.32,3.08c-.37.06-1,.31-1,.5a14.93,14.93,0,0,0,0,4c.1.52,1.1,1.07,1.79,1.24,3.08.8,4.33,2.64,3.74,5.79a12.85,12.85,0,0,0,0,2.34c0,7.68,0,15.35,0,23,0,1.05-.32,1.68-1.35,1.86a30.28,30.28,0,0,1-4.34.63c-5.62.12-7.33-1.61-7.33-7.27q0-16.76,0-33.51c0-1.74-.17-1.89-1.92-1.63-2.18.33-4.35.69-6.53,1-4.27.67-8.53,1.36-12.8,2-1,.15-1.47.51-1.45,1.65,0,3.22,0,3.22,3,4.6a8.77,8.77,0,0,0,1.25.57c1.12.32,1.39,1,1.38,2.15q-.07,12.07,0,24.13a37.17,37.17,0,0,0,.27,4.4c.76,6.21,4.43,10.84,10,12,7.12,1.54,13.49-.08,18.78-5.28A6.13,6.13,0,0,0,263.33,219Zm228.39.25c.16.11.25.15.29.22a1.28,1.28,0,0,1,.16.38c.88,3.86,3.62,5.57,7.24,6.23a22.45,22.45,0,0,0,10.89-.88c2.16-.68,2.08-.72,2.17-3a2.13,2.13,0,0,0-1.57-2.49c-.82-.27-1.57-.79-2.39-1.06a2.06,2.06,0,0,1-1.54-2.36c.05-9.66.1-19.31,0-29-.08-6-3-10.18-8.67-12.36a22.51,22.51,0,0,0-3.56-1.05c-9.62-2-18.93-.62-28,2.77a1.75,1.75,0,0,0-.78,1.36c-.06,3.63,0,7.27-.05,10.9,0,1,.4,1.35,1.39,1.32,2.07-.06,4.14-.07,6.21,0a1.54,1.54,0,0,0,1.75-1.31c.59-1.89,1.27-3.74,1.91-5.61,1.32-3.83,1.48-3.93,5.57-3.59.32,0,.64.09,1,.14,3.47.56,5.32,2.18,5.85,5.63a51.51,51.51,0,0,1,.35,7c.05,3.44,0,3.44-3.31,4.05-.36.07-.73.12-1.08.2-5,1.15-10.12,2-15,3.54-6,1.95-8.39,5.88-8.2,12.2.2,6.88,4.16,12,10.56,13.38a22.15,22.15,0,0,0,6.16.38c4.39-.33,8.34-1.81,11.34-5.23C490.84,220.52,491.26,219.88,491.72,219.27Zm-174.77-.07a4.11,4.11,0,0,1,.3.65c.84,3.8,3.51,5.55,7.07,6.22a22.17,22.17,0,0,0,10.49-.7c2.7-.79,2.65-.82,2.65-3.59a1.72,1.72,0,0,0-1.24-1.87c-.9-.34-1.73-.88-2.64-1.19a2.15,2.15,0,0,1-1.59-2.45q.09-14.21,0-28.41c0-6.66-3.36-11.11-9.68-13.19a24.09,24.09,0,0,0-2.79-.76c-9.58-1.93-18.83-.55-27.88,2.79a1.59,1.59,0,0,0-.76,1.22c-.06,3.77,0,7.54-.05,11.31,0,.92.36,1.21,1.22,1.19,2.16,0,4.32,0,6.48,0a1.4,1.4,0,0,0,1.56-1.19c.59-1.88,1.27-3.74,1.91-5.61,1.39-4,1.63-4.2,6-3.85s6.42,2.2,6.91,6.45a74.21,74.21,0,0,1,.21,8.94c0,.36-.66.93-1.09,1-2.16.46-4.34.76-6.51,1.17-4.56.87-9.14,1.64-13.42,3.57a10.29,10.29,0,0,0-6.44,8.62,20.52,20.52,0,0,0-.07,4.27c.45,4.8,2.61,8.58,7,10.89,5.93,3.14,15,1.95,19.91-2.61A33.65,33.65,0,0,0,316.95,219.2Zm-148.58-4.73a7.69,7.69,0,0,0-1,.14,44.36,44.36,0,0,1-13.39,1.31c-5.66-.24-10-2.59-12.18-8.08a27.06,27.06,0,0,1-1.24-4.65c-.42-2.14-.29-2.24,1.95-2.24,8.83,0,17.65,0,26.48,0,1.19,0,1.73-.36,1.57-1.58-.56-4.13-.79-8.34-1.73-12.38-1.57-6.77-5.77-11.31-12.71-12.89a33.91,33.91,0,0,0-14.23-.17c-7.67,1.52-13.2,5.86-16.21,13.12s-3.06,15-1,22.58c1.86,7,6.14,12.06,13,14.61a33.62,33.62,0,0,0,16.29,1.61A26.86,26.86,0,0,0,166,221.28C168.8,219.33,169.23,217.94,168.37,214.47Zm192.42-31-.41-.09q0-.73,0-1.45,0-3.45,0-6.89c0-2.07-.12-2.17-2.22-1.89l-.41.07c-5.3.88-10.6,1.76-15.9,2.62-3.65.59-3.68.57-3.46,4.29a2.11,2.11,0,0,0,.92,1.43,19.43,19.43,0,0,0,3.36,1.57,2,2,0,0,1,1.43,2.29c0,9.88-.11,19.77,0,29.65,0,2.31-.48,3.76-2.8,4.32s-3,1.92-2.76,4.22c.14,1.33.38,1.8,1.8,1.79,8-.07,16.09,0,24.13,0,3.44,0,3.41,0,3.4-3.4a1.48,1.48,0,0,0-1.17-1.7c-1.58-.48-3.11-1.12-4.68-1.65a1.36,1.36,0,0,1-1.1-1.48c0-8.73,0-17.47.06-26.2a1.79,1.79,0,0,1,1-1.37,25.07,25.07,0,0,1,5.36-1.17c3-.19,5.94-.05,8.92-.05a1.33,1.33,0,0,0,.15-.4c0-4.46,0-8.92,0-13.37a1.53,1.53,0,0,0-1-1.07,13.65,13.65,0,0,0-3.56.08c-4.2.72-7.06,3.33-9.24,6.81C361.92,181.34,361.37,182.4,360.79,183.43Zm94.6,12.29q0-10.41,0-20.83c0-1.93-.12-2.06-2-1.77-2.82.43-5.63.9-8.44,1.35-3.58.57-7.16,1.17-10.76,1.69-1.06.16-1.46.59-1.42,1.7.13,3.95-.54,2.82,2.89,4.52a8.21,8.21,0,0,0,1.25.57c1.23.37,1.62,1.11,1.61,2.43-.06,10-.1,20,0,29.93,0,2-.53,3.1-2.45,3.87-3.28,1.31-3.23,1.44-3,4.92a1.18,1.18,0,0,1,0,.14c0,.77.31,1,1.07,1q12.83,0,25.66,0c.76,0,1-.28,1.08-1,.25-3.52.27-3.52-3-5a9.86,9.86,0,0,0-1.25-.57c-1-.3-1.27-.93-1.26-2C455.42,209.7,455.4,202.71,455.39,195.72Z"/><path d="M426.1,152.13a21.56,21.56,0,0,1,.21,2.17c0,20,0,39.91,0,59.87,0,1.77.44,2.89,2.12,3.44.17.06.31.21.49.26,2.49.72,3.11,2.45,2.8,4.83-.11.84-.32,1.19-1.19,1.28-4.48.49-8.94,1-13.42,1.56-1.78.21-3.56.37-5.34.59-1.18.15-1.7-.24-1.61-1.5s0-2.36,0-3.75c-.42.21-.65.25-.77.4-6,7-19,6.61-25.72.11a22.58,22.58,0,0,1-6.47-13.11,41.53,41.53,0,0,1,1.14-19.5c2.94-9.17,10.17-14.73,19.77-15.48,3.91-.31,7.69-.13,11.41,1.83,0-4,0-7.8,0-11.6,0-.33-.44-.77-.79-.95-1.27-.65-2.56-1.25-3.88-1.78a1.54,1.54,0,0,1-1.12-1.63c0-3.5-.07-3.53,3.4-4.11,5.48-.91,11-1.77,16.46-2.67a7.07,7.07,0,0,0,.9-.27ZM409.28,199c0-5.19-.06-10.38,0-15.57a2.39,2.39,0,0,0-1.73-2.59c-3.85-1.49-8.28-1-10.68,3.64a24.79,24.79,0,0,0-2.36,9.84c-.36,5.19-.44,10.39,1,15.45,1.77,6.16,5.62,8.3,12.28,6.84a1.62,1.62,0,0,0,1.46-1.9C409.25,209.49,409.28,204.26,409.28,199Z"/><path d="M28.22,175.31c2.37-.27,4.74-.49,7.09-.88.38-.06.87-.9.89-1.4.1-2.2.09-4.41,0-6.62,0-1.15.27-1.74,1.55-1.9,4.87-.61,9.72-1.33,14.76-2,.05.58.13,1.05.13,1.53,0,2.8,0,5.61,0,8.41,0,1.88,0,1.88,1.95,1.89,2.44,0,4.87.07,7.31,0,1.35-.05,1.93.3,1.83,1.76a39.89,39.89,0,0,0,0,5c.07,1.3-.35,1.81-1.7,1.76-2.57-.09-5.15,0-7.72,0-1.24,0-1.68.41-1.68,1.68,0,8.78,0,17.56,0,26.34,0,4.62,2.08,6.62,6.71,6.59a33.78,33.78,0,0,0,3.43-.23c1-.1,1.5.1,1.46,1.22-.06,1.28.08,2.58-.06,3.86a2,2,0,0,1-.95,1.43c-6,2.33-12.26,3.24-18.63,1.67-4.8-1.19-7.23-4.62-8.05-9.31a22.69,22.69,0,0,1-.34-3.83c0-9.05,0-18.11,0-27.16,0-2.19-.05-2.25-2.24-2.24-1.93,0-3.86,0-5.79,0Z"/><path d="M448.45,152.13c.42.17.83.36,1.26.51a9.09,9.09,0,0,1-3.77,17.59,9.16,9.16,0,0,1-8.47-8.92,9.07,9.07,0,0,1,6.25-8.67c.56-.19,1.14-.34,1.71-.51Z"/><path d="M186.75,205.46c-.45-.35-.68-.57-.95-.73-5.93-3.82-8.19-9.39-7.47-16.21.66-6.29,4.27-10.57,10-13a29.18,29.18,0,0,1,21.54-.63,9.46,9.46,0,0,0,5.38.27c3.22-.74,6.48-1.32,9.73-1.95a14.12,14.12,0,0,1,1.6-.12v10.52l-9.06-3.09-.12.2a10.17,10.17,0,0,0,.79.86c7.09,6.16,4.79,17.73-1.69,22.35a24.73,24.73,0,0,1-12.36,4.25,32.62,32.62,0,0,1-11.37-.67,1.63,1.63,0,0,0-1.22.32,3.93,3.93,0,0,0-1.45,4.17,3.64,3.64,0,0,0,3.65,2.2c4.46,0,8.92,0,13.38,0,2.61,0,5.24-.16,7.83,0a21.31,21.31,0,0,1,5.48,1.23c4.45,1.61,6.76,5,7.52,9.57a21.13,21.13,0,0,1-.34,8.76c-1.62,6.34-6,10-11.88,12.2a43.47,43.47,0,0,1-14.91,2.35c-6.51.05-13-.46-19.07-3a14.5,14.5,0,0,1-6-4.11c-2.86-3.55-2.34-8.55,1.5-11,2.2-1.4,4.86-2.06,7.32-3a4,4,0,0,0,1.37-.66c-.38-.16-.74-.34-1.13-.48-6.8-2.4-8.86-9-4.45-14.67a46,46,0,0,1,5-4.87C185.79,206.18,186.2,205.9,186.75,205.46Zm13,24.44v-.23c-3,0-6,0-9,0a2.17,2.17,0,0,0-1.5.66,6.43,6.43,0,0,0,2.65,10.24,23.5,23.5,0,0,0,6.15,1.29,24.81,24.81,0,0,0,10.35-1,6.92,6.92,0,0,0,5.09-6.21c.32-2.82-.66-4.51-3.47-4.72C206.65,229.7,203.2,229.9,199.76,229.9Zm-5.51-39.27c.3,2.45.43,4.94.93,7.35.62,3,1.95,3.86,5.1,3.89s4.66-.95,5.3-3.88a33.2,33.2,0,0,0-.08-14.88c-.69-2.91-2.28-4-5.13-4-3,0-4.5,1.08-5.14,4.1C194.71,185.65,194.56,188.14,194.25,190.64Z"/><path d="M118.65,201.06c0,5.15,0,10.3,0,15.45a2,2,0,0,0,1.51,2.26,9.92,9.92,0,0,1,1.5.69c2.64,1.27,2.6,1.27,2.52,4.21,0,1-.42,1.28-1.33,1.26-2.44,0-4.87,0-7.31,0-5.7,0-11.4,0-17.1,0-1.34,0-1.64-.45-1.75-1.74-.16-2,.56-3,2.43-3.78,3.72-1.62,3.09-.59,3.1-4.77,0-7.77,0-15.54,0-23.31,0-7.11-3.14-8.52-9.16-8a34.84,34.84,0,0,0-3.5.73c-1.16.22-1.55.89-1.54,2,0,4.51,0,9,0,13.52,0,5.61,0,11.22,0,16.83a2,2,0,0,0,1.58,2.36c.52.15,1,.56,1.5.68,2.23.49,2.65,1.95,2.47,4-.1,1.16-.48,1.48-1.58,1.48-5.38,0-10.76,0-16.14,0-2.76,0-5.52,0-8.28,0-1.14,0-1.63-.39-1.49-1.53a3.39,3.39,0,0,0,0-.41c0-2.53,0-2.53,2.32-3.51,2.95-1.25,2.95-1.25,2.95-4.37q0-25.24,0-50.49c0-1.42-.28-2.4-1.76-2.79a9,9,0,0,1-1.49-.71c-2.42-1.17-2.82-1.9-2.26-4.59a1.88,1.88,0,0,1,1.31-1q8.28-1.44,16.59-2.73c4-.62,4-.59,4,3.35q0,10.62,0,21.24a6.28,6.28,0,0,0,0,1.1,12.84,12.84,0,0,0,.4,1.37c.39-.19.81-.35,1.18-.57a75,75,0,0,1,7.12-4.14,22.39,22.39,0,0,1,13.65-1.38c4.95,1,8,4.35,8.21,9.41.26,6,.06,11.94.06,17.91Z"/><path d="M536.29,179.82l1.05-.83a25.71,25.71,0,0,1,19.46-5.62c5.77.67,9.48,4.65,9.73,10.83s.18,12.31.21,18.47c0,4.64,0,9.29,0,13.93,0,1.06.24,1.77,1.32,2.09a8.44,8.44,0,0,1,1.13.51c3,1.39,3,1.39,3,4.73,0,1.11-.38,1.4-1.44,1.4-5.52,0-11,0-16.55,0-2.8,0-5.61,0-8.41,0-1,0-1.37-.26-1.38-1.32,0-3.33-.13-3.46,3-4.66,1.87-.72,2.49-1.69,2.45-3.73-.14-8.23,0-16.46-.06-24.69,0-5.92-2.33-8-8.2-7.4-1.45.15-2.88.52-4.32.8a1.18,1.18,0,0,0-1.06,1.34c0,10.48,0,21,0,31.44a1.73,1.73,0,0,0,.81,1.22,31.6,31.6,0,0,0,3.49,1.64,1.49,1.49,0,0,1,1,1.59c.06,3.68.09,3.68-3.56,3.68-7.49,0-15,0-22.48,0-1.34,0-1.75-.39-1.69-1.72.17-3.91-.69-2.87,2.95-4.41a3.29,3.29,0,0,0,2.38-3.63c-.11-10.11-.07-20.23,0-30.34a1.91,1.91,0,0,0-1.41-2.15c-.95-.34-1.81-.93-2.77-1.23-1.29-.42-1.6-1.23-1.57-2.5.07-2.8,0-2.82,2.77-3.28q8.91-1.46,17.82-2.87c1.74-.28,1.93-.11,1.94,1.62s0,3.27,0,4.91Z"/><path d="M263.33,219a6.13,6.13,0,0,1-.82,1.43c-5.29,5.19-11.66,6.82-18.78,5.28-5.53-1.2-9.2-5.83-10-12a37.17,37.17,0,0,1-.27-4.4q0-12.07,0-24.13c0-1.12-.26-1.84-1.38-2.15a8.77,8.77,0,0,1-1.25-.57c-3-1.38-2.91-1.38-3-4.6,0-1.14.43-1.5,1.45-1.65,4.27-.63,8.53-1.32,12.8-2,2.18-.34,4.35-.7,6.53-1,1.74-.27,1.92-.12,1.92,1.63q0,16.76,0,33.51c0,5.66,1.71,7.38,7.33,7.27a30.28,30.28,0,0,0,4.34-.63c1-.17,1.35-.8,1.35-1.86,0-7.68,0-15.35,0-23a12.85,12.85,0,0,1,0-2.34c.59-3.15-.66-5-3.74-5.79-.68-.18-1.68-.72-1.79-1.24a14.93,14.93,0,0,1,0-4c0-.2.65-.44,1-.5q9.66-1.57,19.32-3.08c1.91-.3,2-.16,2,1.8,0,13.29,0,26.57,0,39.86a2.15,2.15,0,0,0,1.48,2.42,14.38,14.38,0,0,1,1.72.88c2.68,1.4,3,1.91,2.46,4.95a1.63,1.63,0,0,1-1.19.9c-5.61.68-11.23,1.29-16.84,1.91-1,.11-1.92.18-2.88.27s-1.15-.27-1.13-1.11c0-1.82,0-3.65,0-5.47Z"/><path d="M491.72,219.27c-.46.61-.88,1.25-1.39,1.82-3,3.42-7,4.91-11.34,5.23a22.15,22.15,0,0,1-6.16-.38c-6.4-1.36-10.36-6.5-10.56-13.38-.19-6.32,2.16-10.26,8.2-12.2,4.87-1.57,10-2.39,15-3.54.36-.08.72-.13,1.08-.2,3.32-.61,3.36-.61,3.31-4.05a51.51,51.51,0,0,0-.35-7c-.53-3.45-2.38-5.07-5.85-5.63-.32-.05-.64-.11-1-.14-4.09-.34-4.25-.24-5.57,3.59-.64,1.87-1.32,3.73-1.91,5.61a1.54,1.54,0,0,1-1.75,1.31c-2.07-.08-4.14-.06-6.21,0-1,0-1.4-.28-1.39-1.32,0-3.63,0-7.27.05-10.9a1.75,1.75,0,0,1,.78-1.36c9.09-3.39,18.4-4.74,28-2.77a22.51,22.51,0,0,1,3.56,1.05c5.64,2.18,8.59,6.38,8.67,12.36.13,9.66.08,19.31,0,29a2.06,2.06,0,0,0,1.54,2.36c.82.27,1.56.8,2.39,1.06a2.13,2.13,0,0,1,1.57,2.49c-.1,2.26,0,2.29-2.17,3a22.45,22.45,0,0,1-10.89.88c-3.62-.65-6.36-2.37-7.24-6.23a1.28,1.28,0,0,0-.16-.38C492,219.42,491.88,219.39,491.72,219.27Zm-1.63-10.58v-3.85c0-3.21,0-3.06-3.27-2.86-5.28.32-8.37,4.17-7.49,9.76.78,4.92,5.78,7.14,9.85,4.25a2.47,2.47,0,0,0,.87-1.67C490.16,212.46,490.09,210.57,490.09,208.69Z"/><path d="M316.95,219.2a33.65,33.65,0,0,1-2.5,2.91c-4.91,4.56-14,5.75-19.91,2.61-4.35-2.31-6.51-6.09-7-10.89a20.52,20.52,0,0,1,.07-4.27,10.29,10.29,0,0,1,6.44-8.62c4.28-1.93,8.86-2.7,13.42-3.57,2.17-.41,4.35-.71,6.51-1.17.43-.09,1.09-.67,1.09-1a74.21,74.21,0,0,0-.21-8.94c-.49-4.25-2.66-6.1-6.91-6.45s-4.57-.2-6,3.85c-.64,1.87-1.32,3.73-1.91,5.61a1.4,1.4,0,0,1-1.56,1.19c-2.16,0-4.32,0-6.48,0-.86,0-1.23-.27-1.22-1.19,0-3.77,0-7.54.05-11.31a1.59,1.59,0,0,1,.76-1.22c9-3.34,18.3-4.72,27.88-2.79a24.09,24.09,0,0,1,2.79.76c6.32,2.08,9.64,6.54,9.68,13.19q.09,14.21,0,28.41a2.15,2.15,0,0,0,1.59,2.45c.91.31,1.74.85,2.64,1.19a1.72,1.72,0,0,1,1.24,1.87c0,2.77,0,2.8-2.65,3.59a22.17,22.17,0,0,1-10.49.7c-3.57-.68-6.23-2.43-7.07-6.22A4.11,4.11,0,0,0,316.95,219.2Zm-1.82-17.4c-2.61.19-5,.11-7.25,1.37a6,6,0,0,0-3.1,3.87,17.17,17.17,0,0,0-.32,4.62,5.47,5.47,0,0,0,3.25,5,6.65,6.65,0,0,0,6.67-.65,1.61,1.61,0,0,0,.71-1.07C315.15,210.67,315.13,206.37,315.13,201.79Z"/><path d="M168.37,214.47c.87,3.48.43,4.86-2.33,6.81a26.86,26.86,0,0,1-12.14,4.57,33.62,33.62,0,0,1-16.29-1.61c-6.91-2.54-11.19-7.58-13-14.61-2-7.6-2-15.21,1-22.58s8.54-11.59,16.21-13.12a33.91,33.91,0,0,1,14.23.17c6.94,1.58,11.14,6.12,12.71,12.89.94,4,1.17,8.25,1.73,12.38.16,1.22-.38,1.59-1.57,1.58-8.83,0-17.65,0-26.48,0-2.24,0-2.37.1-1.95,2.24a27.06,27.06,0,0,0,1.24,4.65c2.16,5.5,6.52,7.85,12.18,8.08a44.36,44.36,0,0,0,13.39-1.31A7.69,7.69,0,0,1,168.37,214.47Zm-14-23.73.36-.07c-.56-3.05-1-6.12-1.7-9.14a3.5,3.5,0,0,0-2.81-2.76c-4.55-.85-7.87.17-8.91,4.9a97.76,97.76,0,0,0-1.18,9.94c-.15,1.27.4,1.72,1.65,1.64,3.57-.24,7.14-.39,10.71-.64,1.85-.13,1.88-.22,1.88-2.08C154.41,191.93,154.41,191.33,154.41,190.74Z"/><path d="M360.79,183.43c.58-1,1.12-2.09,1.75-3.09,2.18-3.48,5-6.1,9.24-6.81a13.65,13.65,0,0,1,3.56-.08,1.53,1.53,0,0,1,1,1.07c.07,4.46,0,8.92,0,13.37a1.33,1.33,0,0,1-.15.4c-3,0-6-.14-8.92.05a25.07,25.07,0,0,0-5.36,1.17,1.79,1.79,0,0,0-1,1.37c-.06,8.73,0,17.47-.06,26.2a1.36,1.36,0,0,0,1.1,1.48c1.57.53,3.1,1.17,4.68,1.65a1.48,1.48,0,0,1,1.17,1.7c0,3.4,0,3.4-3.4,3.4-8,0-16.09,0-24.13,0-1.42,0-1.66-.46-1.8-1.79-.24-2.3.51-3.68,2.76-4.22s2.83-2,2.8-4.32c-.15-9.88-.08-19.76,0-29.65a2,2,0,0,0-1.43-2.29,19.43,19.43,0,0,1-3.36-1.57,2.11,2.11,0,0,1-.92-1.43c-.22-3.71-.19-3.7,3.46-4.29,5.3-.86,10.6-1.75,15.9-2.62l.41-.07c2.1-.28,2.22-.18,2.22,1.89q0,3.45,0,6.89,0,.73,0,1.45Z"/><path d="M455.39,195.72c0,7,0,14,0,21,0,1,.27,1.65,1.26,2a9.86,9.86,0,0,1,1.25.57c3.23,1.5,3.21,1.5,3,5-.05.76-.32,1-1.08,1q-12.83,0-25.66,0c-.76,0-1.12-.27-1.07-1a1.18,1.18,0,0,0,0-.14c-.19-3.48-.24-3.61,3-4.92,1.92-.77,2.48-1.83,2.45-3.87-.12-10-.08-20,0-29.93,0-1.32-.38-2.06-1.61-2.43a8.21,8.21,0,0,1-1.25-.57c-3.44-1.7-2.76-.57-2.89-4.52,0-1.11.36-1.54,1.42-1.7,3.59-.53,7.17-1.12,10.76-1.69,2.81-.45,5.62-.92,8.44-1.35,1.91-.29,2-.16,2,1.77Q455.4,185.3,455.39,195.72Z"/><path class="cls-1" d="M409.28,199c0,5.24,0,10.47,0,15.71a1.62,1.62,0,0,1-1.46,1.9c-6.66,1.46-10.51-.68-12.28-6.84-1.45-5.06-1.37-10.26-1-15.45a24.79,24.79,0,0,1,2.36-9.84c2.41-4.67,6.83-5.13,10.68-3.64a2.39,2.39,0,0,1,1.73,2.59C409.22,188.64,409.28,193.83,409.28,199Z"/><path class="cls-1" d="M199.76,229.9c3.44,0,6.9-.2,10.31.06,2.8.22,3.79,1.9,3.47,4.72a6.92,6.92,0,0,1-5.09,6.21,24.81,24.81,0,0,1-10.35,1,23.5,23.5,0,0,1-6.15-1.29,6.43,6.43,0,0,1-2.65-10.24,2.17,2.17,0,0,1,1.5-.66c3-.06,6,0,9,0Z"/><path class="cls-1" d="M194.25,190.64c.31-2.5.46-5,1-7.39.64-3,2.13-4.08,5.14-4.1,2.85,0,4.44,1.07,5.13,4a33.2,33.2,0,0,1,.08,14.88c-.64,2.93-2.16,3.9-5.3,3.88s-4.48-.9-5.1-3.89C194.68,195.57,194.54,193.09,194.25,190.64Z"/><path class="cls-1" d="M490.09,208.69c0,1.88.07,3.76,0,5.64a2.47,2.47,0,0,1-.87,1.67c-4.07,2.89-9.08.66-9.85-4.25-.88-5.6,2.21-9.44,7.49-9.76,3.28-.2,3.27-.36,3.27,2.86Q490.09,206.77,490.09,208.69Z"/><path class="cls-1" d="M315.13,201.79c0,4.57,0,8.88,0,13.19a1.61,1.61,0,0,1-.71,1.07,6.65,6.65,0,0,1-6.67.65,5.47,5.47,0,0,1-3.25-5,17.17,17.17,0,0,1,.32-4.62,6,6,0,0,1,3.1-3.87C310.08,201.9,312.52,202,315.13,201.79Z"/><path class="cls-1" d="M154.41,190.74c0,.6,0,1.19,0,1.79,0,1.87,0,2-1.88,2.08-3.57.25-7.14.39-10.71.64-1.26.09-1.8-.37-1.65-1.64a97.76,97.76,0,0,1,1.18-9.94c1-4.73,4.36-5.75,8.91-4.9a3.5,3.5,0,0,1,2.81,2.76c.67,3,1.15,6.09,1.7,9.14Z"/></g></svg>