<svg id="Layer_1" data-name="Layer 1" xmlns="http://www.w3.org/2000/svg" viewBox="0 0 600 400"><defs><style>.cls-1{fill:#fff;}</style></defs><title>thehuffingtonpost</title><path class="cls-1" d="M32.2,228.19V107.38H571.83q0,94.64,0,189.27H32.2q0-33.56,0-67.12H53.87c-12.36-5.72-5.59-16.09-7.49-24.75h31.9c2.69,14.11,1.42,19.16-6.15,24.5h17.2c-1.18-3.51-3.31-7.19-3.5-11-.5-10-.1-20.11-.2-30.17-.05-4.92-.55-9.89,5.51-12H70.32c14,5.47,7,15.55,9,23.77H46.23c2-8.58-4.58-18.63,8-23.57h-18c1.29,3.28,3.54,6.52,3.68,9.84.47,10.93,0,21.91.25,32.86C40.31,224.8,38,227.87,32.2,228.19Zm290.47-87.95c-2.28,8.9,4.7,19.15-7.71,24.4h17.42c-1.19-3.26-3.25-6.49-3.42-9.82-.47-9.37-.22-18.78-.15-28.17,0-5.61-1.83-12,5.36-15.27h-18.7c7.36,5.1,9,11.53,5.83,24.14H289.78c0-5-.73-9.65.22-13.88.82-3.69,3.53-7,5.17-10H277.65c6,2,5.7,6.74,5.65,11.52-.11,9.39-.19,18.79,0,28.17.13,5.64.32,11-8.34,13.48h23.09c-8.86-5.29-10.47-11.09-7.24-24.6Zm198.88,49.23,2-.75c1.42,1.57,2.91,3.08,4.25,4.72,8.47,10.39,16.81,20.87,25.4,31.16,2.09,2.5,4.93,4.37,7.42,6.54l1.75-1.14c0-13.11,0-26.21,0-39.32,0-5.78-1.7-12.39,6.51-14.42H552.74c6.19,2.9,6.63,7.92,6.31,13.52-.28,4.9-.09,9.83-.1,14.74,0,4.26,0,8.52,0,12.78l-2,.31c-1.42-1.63-2.91-3.21-4.26-4.9q-12.75-16-25.44-32c-4.53-5.7-11.23-7.17-16.79-4.83,2.54,3.84,7.11,7.73,7.56,12.05,1,9.24.29,18.75-.68,28.05-.48,4.6-3.09,9-4.62,13.14h13.7c-1.59-2.91-4.47-5.84-4.65-8.93C521.17,210,521.54,199.73,521.54,189.47ZM334.2,176.29H318c6.2,2.88,6.85,7.81,6.48,13.5-.31,4.9-.1,9.82-.11,14.74q0,6.38,0,12.76l-2.05.3c-1.45-1.6-3-3.13-4.34-4.81q-12.76-16-25.44-32c-4.61-5.79-11.23-7.24-20.2-3.37,12.37,1.68,11.71,9.87,11.32,18-.31,6.47-.28,13-.7,19.42-.36,5.51-.95,11.09-7.94,14.31h17.51c-1.9-2.22-5.09-4.23-5.19-6.37-.51-11.19-.24-22.41-.24-33.63a14.58,14.58,0,0,1,6.42,4.88c8.32,10.22,16.52,20.53,25,30.65,2.09,2.5,4.93,4.38,7.42,6.54l1.61-1.19c0-13.8.13-27.61-.06-41.41C327.43,183.13,327.59,178.22,334.2,176.29Zm170.67,25.77c.05-15.71-11.76-27.5-27.45-27.4-16.15.1-27.78,11.8-27.79,28a28,28,0,0,0,28,28C493.23,230.67,504.82,218.5,504.88,202.06ZM276.62,295.24c16.06.13,27.92-12.07,27.87-28.65,0-15.16-11.9-27-27.25-27.17-16-.2-28,11.49-28.33,27.56A27.74,27.74,0,0,0,276.62,295.24Zm94.6-89.11c3.24,2.6,7.83,4.41,8.63,7.27,2.4,8.61-2.8,14.45-11.73,14.29s-16-4.38-19.64-12.69c-4.42-10.1-3.69-20.08,3-29.14,5.38-7.29,13.08-9.71,21.39-7.23,4.62,1.38,8.46,5.36,14.39,9.33-1.85-4.38-2.5-9.83-4.77-10.62-10.35-3.61-21-4.14-30.9,2.17-13.94,8.89-18,26.49-9.06,39,9.79,13.68,30.4,16.16,41.85,6.9l4.43-19.81c-4.28,0-9.79,0-15.29,0A10.76,10.76,0,0,0,371.22,206.13Zm-230.5-30c1.43,3.1,3.71,5.89,3.9,8.81a186.52,186.52,0,0,1,.16,25.46c-.77,10.55-7.27,16.64-16,16.26a18,18,0,0,1-17.43-17.79,172.27,172.27,0,0,1,0-18.78c.35-4.67,1.78-9.25,2.75-14H99.62c6.26,2.72,5.06,8.08,5.1,12.93.06,6.93-.19,13.88.22,20.79.66,11.22,5.62,17.56,14.79,19.78,15.93,3.86,27.56-4.4,28.89-20.82.54-6.68,0-13.46.72-20.1.5-4.34,2.52-8.5,3.8-12.59Zm83.25,118c-6.27-2.55-6.56-7.56-6.49-13,.13-10.28,0-20.56,0-30.84,0-7.63,2.4-9.43,9.81-7.64,5.11,1.23,8.61,4.36,8.91,9.55.27,4.56.58,10-1.56,13.58-2,3.34-7.17,4.79-10.2,6.61,8.9,1.83,16.69-3.14,19.12-13.25,2.15-8.94-2.08-16.4-12.21-18-8.71-1.34-17.78-.28-26.7-.28,6.83,2,6.31,7.3,6.32,12.31,0,9.16-.2,18.33.08,27.49.18,5.88-.09,11.13-7,13.4ZM379.94,120l-1.46-8.13H343.31c7.29,1.6,7.09,6.94,7,12.36-.11,8.26,0,16.53,0,24.79-.05,6.2,1.93,13.36-7.76,15.58,11.39.59,21.86.59,32.33.59,7.11,0,8.19-1.48,6.67-9.19-5.5,5.6-15.88,8.87-21.44,5.76-6.28-3.52-2.19-10.12-3.28-15.24a1.44,1.44,0,0,1,0-.67c.67-2.38,1.14-6.69,2.09-6.79,3.53-.4,7.27.37,10.83,1.14,1.1.24,1.89,1.91,3.31,3.45v-9.89l-16.22,2.68c0-7-.22-12.34.13-17.65.11-1.62,1.4-4,2.76-4.55C365.93,111.68,374.75,114.64,379.94,120Zm17.47,62.83c5.19-1.13,10-2.39,14.93-3.18s6.77,1.35,6.59,6.42c-.33,9.58-.28,19.19,0,28.78.17,6.33.1,12.18-7.63,14.35H433c-7.75-1.89-7.94-7.54-7.74-13.74.25-7.8.06-15.62.06-23.43,0-12.84,2.43-15,15.14-12.06,2.69.62,4.9,3.35,7.47,5.21l1.48-11.06a120.46,120.46,0,0,1-49.71,0ZM272,109.65a123.18,123.18,0,0,1-49.87.19l-2.63,10.36c2-.39,2.69-1.93,3.68-2.13,5.26-1,10.6-2.19,15.89-2.12.83,0,2.13,6,2.27,9.3.33,8-.08,16.08.17,24.11.2,6.64.37,13-7.65,15.43H254.2c-2-2.8-5.8-5.63-6-8.68-.72-12-.41-24.1-.19-36.15,0-1.54,1.39-4,2.7-4.43,6.39-2.32,15.08.28,19.65,5.76Zm40.3,171c-2.25,6.16-1.44,11,1.89,13,6.57,3.92,20.48,1.7,24.78-3.94,5.26-6.91,3.7-15.4-4.44-22.35-3.89-3.32-8.65-5.74-12.1-9.43-2.1-2.24-3.91-6.53-3.17-9.15s4.66-5.92,7.39-6.1c3.09-.21,6.54,2.46,9.54,4.34,1.29.81,1.84,2.81,2.72,4.27l2.42-1.26c-1.35-3.07-1.87-7.52-4.22-9-7-4.29-19.31-.58-23.23,6.06-3.53,6-1.15,12.95,6.28,19,4.14,3.37,8.52,6.58,12,10.53,4.42,4.94,3.64,11.57-.94,14.72-5.17,3.55-12.9,1.41-16-4.47C314.24,284.91,313.38,282.93,312.28,280.62ZM399.76,239c-16.81,3.42-32.92,3.88-49.8-.17l-3.18,12.06c2.42-2.25,3.36-3.89,4.57-4.11,5.09-.95,10.29-2,15.38-1.7,1,.06,2.16,6,2.29,9.27.32,8.47-.19,17,.2,25.44.3,6.48-.53,11.86-7.63,14.15h20.06c-2-2.88-5.54-5.78-5.72-8.86-.68-12-.41-24.09-.12-36.14,0-1.55,2.19-4.31,3.42-4.35,6.71-.19,14.41-2.89,18.7,7.1ZM239,176.17H204.19c6.58,2.31,6.42,7.64,6.42,12.86,0,8.72-.17,17.44.06,26.16.16,5.94.21,11.56-8.73,13.87H223.8c-4.83-1.93-7-5-6.59-10,.18-2.44-.39-5,0-7.36.43-2.79,1.26-7.7,2.36-7.82,3.92-.45,8.06.62,12.05,1.4,1,.19,1.72,1.46,2.94,2.56v-9.89L217,201c0-4.85,0-7.94,0-11,.08-10.86,5.81-14.73,15.93-10.4,2.31,1,4,3.44,7,6.08Zm-77,0c5.21,2.43,6,6.5,6,11.36-.15,9.6-.2,19.21,0,28.81.13,5.58.18,10.8-6.59,12.87h19.81c-9-3.35-6.46-11-6.63-17.28-.07-2.76.82-7.63,2.16-8,3.64-.89,7.78-.1,11.63.56.89.15,1.41,2.48,2.1,3.81L192,207V195.9c-1.69,1.41-2.64,2.87-3.66,2.93-4.44.26-8.9.1-13.35.1,0-6-.55-12.07.51-17.86.24-1.31,6.27-2.54,9.4-2.11,4.12.57,8,2.83,12,4.37v-7.18Zm84-.42-.48,1.56c6.61,1.07,7.48,5.37,7.29,10.84-.31,8.92-.3,17.87,0,26.8.2,6.27.18,12.06-7.33,14.36h21.39c-7.81-2.12-8-7.93-7.78-14.29.27-8.25.27-16.53,0-24.79-.2-6,0-11.55,7.53-13.66a8.51,8.51,0,0,0-3.45-.79C257.52,175.72,251.79,175.73,246.06,175.73Z"/><path d="M32.2,228.19c5.81-.32,8.11-3.39,8-9.17-.24-10.95.22-21.92-.25-32.86-.14-3.32-2.39-6.56-3.68-9.84h18c-12.61,4.93-6,15-8,23.57H79.31c-2-8.22,5-18.29-9-23.77H91.14c-6.06,2.14-5.56,7.11-5.51,12,.11,10.06-.3,20.14.2,30.17.19,3.77,2.32,7.44,3.5,11H72.13c7.57-5.33,8.83-10.39,6.15-24.5H46.38c1.9,8.66-4.87,19,7.49,24.75H32.2Z"/><path d="M322.67,140.24H290.83c-3.23,13.51-1.61,19.31,7.24,24.6H275c8.66-2.46,8.47-7.84,8.34-13.48-.22-9.39-.14-18.78,0-28.17.05-4.77.37-9.51-5.65-11.52h17.52c-1.63,3-4.34,6.27-5.17,10-.95,4.23-.22,8.84-.22,13.88h31.53c3.12-12.6,1.52-19-5.83-24.14h18.7c-7.19,3.3-5.32,9.66-5.36,15.27-.07,9.39-.33,18.8.15,28.17.17,3.33,2.23,6.56,3.42,9.82H315C327.36,159.39,320.39,149.14,322.67,140.24Z"/><path d="M521.54,189.47c0,10.25-.37,20.53.23,30.75.18,3.09,3.06,6,4.65,8.93h-13.7c1.53-4.17,4.14-8.54,4.62-13.14,1-9.3,1.65-18.81.68-28.05-.45-4.32-5-8.21-7.56-12.05,5.56-2.34,12.25-.87,16.79,4.83q12.72,16,25.44,32c1.35,1.69,2.84,3.27,4.26,4.9l2-.31c0-4.26,0-8.52,0-12.78,0-4.91-.17-9.84.1-14.74.32-5.6-.12-10.62-6.31-13.52h16.14c-8.2,2-6.49,8.64-6.51,14.42,0,13.11,0,26.21,0,39.32l-1.75,1.14c-2.49-2.16-5.33-4-7.42-6.54-8.59-10.28-16.94-20.77-25.4-31.16-1.34-1.64-2.83-3.15-4.25-4.72Z"/><path d="M334.2,176.29c-6.61,1.93-6.78,6.85-6.7,12.31.19,13.8.06,27.61.06,41.41L326,231.2c-2.49-2.16-5.33-4-7.42-6.54-8.44-10.11-16.64-20.43-25-30.65a14.58,14.58,0,0,0-6.42-4.88c0,11.21-.27,22.44.24,33.63.1,2.14,3.29,4.15,5.19,6.37H275.06c7-3.21,7.58-8.79,7.94-14.31.42-6.46.39-12.95.7-19.42.39-8.12,1.06-16.31-11.32-18,9-3.87,15.59-2.42,20.2,3.37q12.73,16,25.44,32c1.35,1.68,2.89,3.21,4.34,4.81l2.05-.3q0-6.38,0-12.76c0-4.91-.2-9.84.11-14.74.36-5.69-.28-10.61-6.48-13.5Z"/><path d="M504.88,202.06c-.05,16.44-11.65,28.62-27.24,28.6a28,28,0,0,1-28-28c0-16.16,11.64-27.87,27.79-28C493.12,174.56,504.93,186.35,504.88,202.06ZM497.46,204c-.67-3.94-.95-8-2.1-11.79-2.93-9.59-9.65-14.6-18.58-14.39s-15.6,5.44-18.16,15c-2.69,10.08-1.11,19.49,5.64,27.72a17.9,17.9,0,0,0,16,6.77C491.11,226.55,497,218.49,497.46,204Z"/><path d="M276.62,295.24A27.74,27.74,0,0,1,248.91,267c.33-16.07,12.33-27.75,28.33-27.56,15.35.19,27.2,12,27.25,27.17C304.54,283.17,292.68,295.36,276.62,295.24Zm20.71-27c-1.29-4.92-2.09-10-4-14.72-2.28-5.63-6.63-9.61-12.92-10.55-7.86-1.17-14.88.59-19.27,7.77-6.29,10.28-5.88,20.84.07,31.13,4.13,7.13,10.32,11,18.85,10.34a12.4,12.4,0,0,0,1.32-.23C291.42,290.1,296.65,282,297.33,268.23Z"/><path d="M371.22,206.13a10.76,10.76,0,0,1,2.28-.49c5.5,0,11,0,15.29,0l-4.43,19.81c-11.46,9.25-32.06,6.78-41.85-6.9-9-12.52-4.88-30.11,9.06-39,9.89-6.31,20.55-5.78,30.9-2.17,2.27.79,2.92,6.24,4.77,10.62-5.93-4-9.77-7.95-14.39-9.33-8.3-2.48-16-.06-21.39,7.23-6.68,9.06-7.41,19-3,29.14,3.64,8.31,10.57,12.53,19.64,12.69s14.13-5.68,11.73-14.29C379,210.54,374.46,208.73,371.22,206.13Z"/><path d="M140.71,176.11h12.44c-1.29,4.09-3.3,8.25-3.8,12.59-.77,6.64-.18,13.42-.72,20.1-1.33,16.42-13,24.68-28.89,20.82-9.18-2.23-14.13-8.57-14.79-19.78-.41-6.91-.15-13.86-.22-20.79,0-4.85,1.15-10.21-5.1-12.93h14.5c-1,4.71-2.4,9.3-2.75,14a172.27,172.27,0,0,0,0,18.78,18,18,0,0,0,17.43,17.79c8.75.39,15.25-5.7,16-16.26a186.52,186.52,0,0,0-.16-25.46C144.42,182,142.15,179.21,140.71,176.11Z"/><path d="M224,294.14H204.16c6.86-2.27,7.13-7.52,7-13.4-.28-9.16-.06-18.33-.08-27.49,0-5,.51-10.34-6.32-12.31,8.91,0,18-1.06,26.7.28,10.13,1.56,14.36,9,12.21,18-2.43,10.11-10.22,15.07-19.12,13.25,3-1.83,8.22-3.27,10.2-6.61,2.13-3.6,1.82-9,1.56-13.58-.3-5.19-3.81-8.32-8.91-9.55-7.41-1.79-9.79,0-9.81,7.64,0,10.28.09,20.56,0,30.84C217.4,286.59,217.69,291.6,224,294.14Z"/><path d="M379.94,120c-5.19-5.39-14-8.35-20.24-5.76-1.36.56-2.65,2.94-2.76,4.55-.35,5.31-.13,10.65-.13,17.65L373,133.79v9.89c-1.42-1.54-2.21-3.21-3.31-3.45-3.56-.78-7.3-1.55-10.83-1.14-.94.11-1.41,4.41-2.09,6.79a1.44,1.44,0,0,0,0,.67c1.1,5.12-3,11.72,3.28,15.24,5.56,3.12,15.94-.15,21.44-5.76,1.52,7.71.44,9.2-6.67,9.19-10.47,0-20.94,0-32.33-.59,9.69-2.22,7.71-9.37,7.76-15.58.07-8.26-.06-16.53,0-24.79.07-5.42.27-10.76-7-12.36h35.17Z"/><path d="M397.41,182.86l2.33-8.69a120.46,120.46,0,0,0,49.71,0L448,185.2c-2.58-1.87-4.78-4.6-7.47-5.21-12.71-2.91-15.14-.78-15.14,12.06,0,7.81.19,15.63-.06,23.43-.2,6.2,0,11.85,7.74,13.74H411.28c7.73-2.17,7.8-8,7.63-14.35-.26-9.59-.3-19.2,0-28.78.17-5.07-1.81-7.19-6.59-6.42S402.6,181.73,397.41,182.86Z"/><path d="M272,109.65l-1.61,11.63c-4.57-5.48-13.26-8.09-19.65-5.76-1.3.47-2.67,2.89-2.7,4.43-.21,12.05-.53,24.14.19,36.15.18,3,4,5.88,6,8.68H233.84c8-2.43,7.85-8.79,7.65-15.43-.24-8,.17-16.08-.17-24.11-.14-3.28-1.44-9.29-2.27-9.3-5.29-.07-10.63,1.08-15.89,2.12-1,.2-1.73,1.74-3.68,2.13l2.63-10.36A123.18,123.18,0,0,0,272,109.65Z"/><path d="M312.28,280.62c1.1,2.31,2,4.28,3,6.19,3.1,5.89,10.83,8,16,4.47,4.58-3.15,5.36-9.79.94-14.72-3.53-3.95-7.9-7.16-12-10.53-7.43-6-9.81-13-6.28-19,3.92-6.64,16.25-10.35,23.23-6.06,2.35,1.45,2.87,5.89,4.22,9l-2.42,1.26c-.88-1.46-1.43-3.46-2.72-4.27-3-1.89-6.45-4.56-9.54-4.34-2.72.19-6.65,3.46-7.39,6.1s1.08,6.91,3.17,9.15c3.45,3.69,8.21,6.11,12.1,9.43,8.14,7,9.71,15.44,4.44,22.35-4.31,5.65-18.21,7.86-24.78,3.94C310.84,291.59,310,286.79,312.28,280.62Z"/><path d="M399.76,239l-1.83,12.68c-4.29-10-12-7.29-18.7-7.1-1.23,0-3.38,2.8-3.42,4.35-.29,12-.56,24.13.12,36.14.18,3.09,3.77,6,5.72,8.86H361.58c7.11-2.29,7.93-7.67,7.63-14.15-.39-8.46.12-17-.2-25.44-.12-3.27-1.31-9.21-2.29-9.27-5.08-.3-10.28.75-15.38,1.7-1.21.23-2.15,1.86-4.57,4.11L350,238.84C366.84,242.89,382.95,242.43,399.76,239Z"/><path d="M239,176.17l.83,9.48c-2.95-2.65-4.64-5.09-7-6.08-10.12-4.33-15.85-.46-15.93,10.4,0,3.09,0,6.18,0,11l17.55-3.1v9.89c-1.21-1.1-2-2.37-2.94-2.56-4-.78-8.13-1.85-12.05-1.4-1.1.12-1.93,5-2.36,7.82-.37,2.39.2,4.92,0,7.36-.36,5,1.76,8.12,6.59,10H202c8.94-2.31,8.88-7.92,8.73-13.87-.23-8.71-.05-17.44-.06-26.16,0-5.23.15-10.56-6.42-12.86Z"/><path d="M162.09,176.15h34.77v7.18c-4-1.53-7.88-3.79-12-4.37-3.13-.44-9.16.8-9.4,2.11-1.06,5.79-.49,11.88-.51,17.86,4.45,0,8.91.16,13.35-.1,1-.06,2-1.53,3.66-2.93V207l-1.41,1.31c-.69-1.33-1.2-3.65-2.1-3.81-3.85-.67-8-1.45-11.63-.56-1.34.33-2.23,5.19-2.16,8,.17,6.29-2.38,13.93,6.63,17.28H161.49c6.77-2.06,6.72-7.29,6.59-12.87-.22-9.6-.17-19.21,0-28.81C168.13,182.65,167.3,178.58,162.09,176.15Z"/><path d="M246.06,175.73c5.73,0,11.45,0,17.18,0a8.51,8.51,0,0,1,3.45.79c-7.58,2.12-7.73,7.63-7.53,13.66.27,8.25.27,16.53,0,24.79-.21,6.36,0,12.17,7.78,14.29H245.54c7.5-2.3,7.53-8.08,7.33-14.36-.29-8.92-.3-17.87,0-26.8.19-5.46-.68-9.77-7.29-10.84Z"/><path class="cls-1" d="M497.46,204c-.5,14.48-6.35,22.54-17.24,23.31a17.9,17.9,0,0,1-16-6.77c-6.74-8.23-8.33-17.64-5.64-27.72,2.55-9.55,9.16-14.79,18.16-15s15.65,4.8,18.58,14.39C496.51,196,496.78,200.07,497.46,204Z"/><path class="cls-1" d="M297.33,268.23c-.68,13.77-5.91,21.87-15.94,23.74a12.4,12.4,0,0,1-1.32.23c-8.52.65-14.72-3.21-18.85-10.34-6-10.28-6.36-20.84-.07-31.13,4.39-7.18,11.42-8.94,19.27-7.77,6.28.94,10.64,4.92,12.92,10.55C295.24,258.19,296,263.31,297.33,268.23Z"/></svg>